<?xml version="1.0" encoding="utf-8" standalone="no"?>
<!DOCTYPE svg PUBLIC "-//W3C//DTD SVG 1.1//EN"
  "http://www.w3.org/Graphics/SVG/1.1/DTD/svg11.dtd">
<svg xmlns:xlink="http://www.w3.org/1999/xlink" width="467.291725pt" height="315.958641pt" viewBox="0 0 467.291725 315.958641" xmlns="http://www.w3.org/2000/svg" version="1.1">
 <metadata>
  <rdf:RDF xmlns:dc="http://purl.org/dc/elements/1.1/" xmlns:cc="http://creativecommons.org/ns#" xmlns:rdf="http://www.w3.org/1999/02/22-rdf-syntax-ns#">
   <cc:Work>
    <dc:type rdf:resource="http://purl.org/dc/dcmitype/StillImage"/>
    <dc:date>2023-03-09T02:27:09.431044</dc:date>
    <dc:format>image/svg+xml</dc:format>
    <dc:creator>
     <cc:Agent>
      <dc:title>Matplotlib v3.6.2, https://matplotlib.org/</dc:title>
     </cc:Agent>
    </dc:creator>
   </cc:Work>
  </rdf:RDF>
 </metadata>
 <defs>
  <style type="text/css">*{stroke-linejoin: round; stroke-linecap: butt}</style>
 </defs>
 <g id="figure_1">
  <g id="patch_1">
   <path d="M 0 315.958641 
L 467.291725 315.958641 
L 467.291725 0 
L 0 0 
z
" style="fill: #ffffff"/>
  </g>
  <g id="axes_1">
   <g id="patch_2">
    <path d="M 53.118125 277.248797 
L 319.230125 277.248797 
L 319.230125 11.136797 
L 53.118125 11.136797 
z
" style="fill: #ffffff"/>
   </g>
   <g id="PathCollection_1">
    <defs>
     <path id="m3d16a013b3" d="M 0 4.472136 
C 1.186024 4.472136 2.323632 4.000923 3.162278 3.162278 
C 4.000923 2.323632 4.472136 1.186024 4.472136 0 
C 4.472136 -1.186024 4.000923 -2.323632 3.162278 -3.162278 
C 2.323632 -4.000923 1.186024 -4.472136 0 -4.472136 
C -1.186024 -4.472136 -2.323632 -4.000923 -3.162278 -3.162278 
C -4.000923 -2.323632 -4.472136 -1.186024 -4.472136 0 
C -4.472136 1.186024 -4.000923 2.323632 -3.162278 3.162278 
C -2.323632 4.000923 -1.186024 4.472136 0 4.472136 
z
" style="stroke: #000000"/>
    </defs>
    <g clip-path="url(#p82627de7e7)">
     <use xlink:href="#m3d16a013b3" x="207.789072" y="277.248797" style="fill: #ff0000; stroke: #000000"/>
     <use xlink:href="#m3d16a013b3" x="245.526415" y="180.752372" style="fill: #ff0000; stroke: #000000"/>
     <use xlink:href="#m3d16a013b3" x="212.435609" y="118.437369" style="fill: #ff0000; stroke: #000000"/>
     <use xlink:href="#m3d16a013b3" x="148.227219" y="87.284524" style="fill: #ff0000; stroke: #000000"/>
     <use xlink:href="#m3d16a013b3" x="53.118125" y="122.57785" style="fill: #ff0000; stroke: #000000"/>
    </g>
   </g>
   <g id="PathCollection_2">
    <defs>
     <path id="m73ac29bf19" d="M 0 -4.472136 
L -4.472136 4.472136 
L 4.472136 4.472136 
z
" style="stroke: #000000"/>
    </defs>
    <g clip-path="url(#p82627de7e7)">
     <use xlink:href="#m73ac29bf19" x="207.789072" y="277.248797" style="fill: #ff0000; stroke: #000000"/>
     <use xlink:href="#m73ac29bf19" x="241.619447" y="182.586771" style="fill: #ff0000; stroke: #000000"/>
     <use xlink:href="#m73ac29bf19" x="210.222223" y="120.680249" style="fill: #ff0000; stroke: #000000"/>
     <use xlink:href="#m73ac29bf19" x="145.127458" y="92.616078" style="fill: #ff0000; stroke: #000000"/>
     <use xlink:href="#m73ac29bf19" x="53.118125" y="122.57785" style="fill: #ff0000; stroke: #000000"/>
    </g>
   </g>
   <g id="PathCollection_3">
    <defs>
     <path id="m97b58c85aa" d="M 0 4.472136 
C 1.186024 4.472136 2.323632 4.000923 3.162278 3.162278 
C 4.000923 2.323632 4.472136 1.186024 4.472136 0 
C 4.472136 -1.186024 4.000923 -2.323632 3.162278 -3.162278 
C 2.323632 -4.000923 1.186024 -4.472136 0 -4.472136 
C -1.186024 -4.472136 -2.323632 -4.000923 -3.162278 -3.162278 
C -4.000923 -2.323632 -4.472136 -1.186024 -4.472136 0 
C -4.472136 1.186024 -4.000923 2.323632 -3.162278 3.162278 
C -2.323632 4.000923 -1.186024 4.472136 0 4.472136 
z
" style="stroke: #000000"/>
    </defs>
    <g clip-path="url(#p82627de7e7)">
     <use xlink:href="#m97b58c85aa" x="230.260013" y="277.248797" style="fill: #0000ff; stroke: #000000"/>
     <use xlink:href="#m97b58c85aa" x="269.025435" y="169.147671" style="fill: #0000ff; stroke: #000000"/>
     <use xlink:href="#m97b58c85aa" x="234.172303" y="96.463614" style="fill: #0000ff; stroke: #000000"/>
     <use xlink:href="#m97b58c85aa" x="161.931765" y="60.105618" style="fill: #0000ff; stroke: #000000"/>
     <use xlink:href="#m97b58c85aa" x="53.118125" y="100.106909" style="fill: #0000ff; stroke: #000000"/>
    </g>
   </g>
   <g id="PathCollection_4">
    <defs>
     <path id="medcdd7ad56" d="M 0 -4.472136 
L -4.472136 4.472136 
L 4.472136 4.472136 
z
" style="stroke: #000000"/>
    </defs>
    <g clip-path="url(#p82627de7e7)">
     <use xlink:href="#medcdd7ad56" x="230.260013" y="277.248797" style="fill: #0000ff; stroke: #000000"/>
     <use xlink:href="#medcdd7ad56" x="266.973046" y="170.007657" style="fill: #0000ff; stroke: #000000"/>
     <use xlink:href="#medcdd7ad56" x="232.15717" y="98.523099" style="fill: #0000ff; stroke: #000000"/>
     <use xlink:href="#medcdd7ad56" x="160.058559" y="63.280778" style="fill: #0000ff; stroke: #000000"/>
     <use xlink:href="#medcdd7ad56" x="53.118125" y="100.106909" style="fill: #0000ff; stroke: #000000"/>
    </g>
   </g>
   <g id="PathCollection_5">
    <defs>
     <path id="ma65bed4664" d="M 0 4.472136 
C 1.186024 4.472136 2.323632 4.000923 3.162278 3.162278 
C 4.000923 2.323632 4.472136 1.186024 4.472136 0 
C 4.472136 -1.186024 4.000923 -2.323632 3.162278 -3.162278 
C 2.323632 -4.000923 1.186024 -4.472136 0 -4.472136 
C -1.186024 -4.472136 -2.323632 -4.000923 -3.162278 -3.162278 
C -4.000923 -2.323632 -4.472136 -1.186024 -4.472136 0 
C -4.472136 1.186024 -4.000923 2.323632 -3.162278 3.162278 
C -2.323632 4.000923 -1.186024 4.472136 0 4.472136 
z
" style="stroke: #000000"/>
    </defs>
    <g clip-path="url(#p82627de7e7)">
     <use xlink:href="#ma65bed4664" x="249.019357" y="277.248797" style="fill: #008000; stroke: #000000"/>
     <use xlink:href="#ma65bed4664" x="289.062116" y="158.949816" style="fill: #008000; stroke: #000000"/>
     <use xlink:href="#ma65bed4664" x="253.180018" y="77.287361" style="fill: #008000; stroke: #000000"/>
     <use xlink:href="#ma65bed4664" x="173.213805" y="37.88194" style="fill: #008000; stroke: #000000"/>
     <use xlink:href="#ma65bed4664" x="53.118125" y="81.347565" style="fill: #008000; stroke: #000000"/>
    </g>
   </g>
   <g id="PathCollection_6">
    <defs>
     <path id="m838db50506" d="M 0 -4.472136 
L -4.472136 4.472136 
L 4.472136 4.472136 
z
" style="stroke: #000000"/>
    </defs>
    <g clip-path="url(#p82627de7e7)">
     <use xlink:href="#m838db50506" x="249.019357" y="277.248797" style="fill: #008000; stroke: #000000"/>
     <use xlink:href="#m838db50506" x="287.751071" y="159.519739" style="fill: #008000; stroke: #000000"/>
     <use xlink:href="#m838db50506" x="250.854864" y="79.872418" style="fill: #008000; stroke: #000000"/>
     <use xlink:href="#m838db50506" x="171.662594" y="40.213746" style="fill: #008000; stroke: #000000"/>
     <use xlink:href="#m838db50506" x="53.118125" y="81.347565" style="fill: #008000; stroke: #000000"/>
    </g>
   </g>
   <g id="matplotlib.axis_1">
    <g id="xtick_1">
     <g id="line2d_1">
      <defs>
       <path id="mbfd0f0c0de" d="M 0 0 
L 0 3.5 
" style="stroke: #000000; stroke-width: 0.8"/>
      </defs>
      <g>
       <use xlink:href="#mbfd0f0c0de" x="53.118125" y="277.248797" style="stroke: #000000; stroke-width: 0.8"/>
      </g>
     </g>
     <g id="text_1">
      <!-- 0 -->
      <g transform="translate(50.059609 292.122391) scale(0.11 -0.11)">
       <defs>
        <path id="ArialMT-30" d="M 266 2259 
Q 266 3072 433 3567 
Q 600 4063 929 4331 
Q 1259 4600 1759 4600 
Q 2128 4600 2406 4451 
Q 2684 4303 2865 4023 
Q 3047 3744 3150 3342 
Q 3253 2941 3253 2259 
Q 3253 1453 3087 958 
Q 2922 463 2592 192 
Q 2263 -78 1759 -78 
Q 1097 -78 719 397 
Q 266 969 266 2259 
z
M 844 2259 
Q 844 1131 1108 757 
Q 1372 384 1759 384 
Q 2147 384 2411 759 
Q 2675 1134 2675 2259 
Q 2675 3391 2411 3762 
Q 2147 4134 1753 4134 
Q 1366 4134 1134 3806 
Q 844 3388 844 2259 
z
" transform="scale(0.015625)"/>
       </defs>
       <use xlink:href="#ArialMT-30"/>
      </g>
     </g>
    </g>
    <g id="xtick_2">
     <g id="line2d_2">
      <g>
       <use xlink:href="#mbfd0f0c0de" x="97.470125" y="277.248797" style="stroke: #000000; stroke-width: 0.8"/>
      </g>
     </g>
     <g id="text_2">
      <!-- 200 -->
      <g transform="translate(88.294578 292.122391) scale(0.11 -0.11)">
       <defs>
        <path id="ArialMT-32" d="M 3222 541 
L 3222 0 
L 194 0 
Q 188 203 259 391 
Q 375 700 629 1000 
Q 884 1300 1366 1694 
Q 2113 2306 2375 2664 
Q 2638 3022 2638 3341 
Q 2638 3675 2398 3904 
Q 2159 4134 1775 4134 
Q 1369 4134 1125 3890 
Q 881 3647 878 3216 
L 300 3275 
Q 359 3922 746 4261 
Q 1134 4600 1788 4600 
Q 2447 4600 2831 4234 
Q 3216 3869 3216 3328 
Q 3216 3053 3103 2787 
Q 2991 2522 2730 2228 
Q 2469 1934 1863 1422 
Q 1356 997 1212 845 
Q 1069 694 975 541 
L 3222 541 
z
" transform="scale(0.015625)"/>
       </defs>
       <use xlink:href="#ArialMT-32"/>
       <use xlink:href="#ArialMT-30" x="55.615234"/>
       <use xlink:href="#ArialMT-30" x="111.230469"/>
      </g>
     </g>
    </g>
    <g id="xtick_3">
     <g id="line2d_3">
      <g>
       <use xlink:href="#mbfd0f0c0de" x="141.822125" y="277.248797" style="stroke: #000000; stroke-width: 0.8"/>
      </g>
     </g>
     <g id="text_3">
      <!-- 400 -->
      <g transform="translate(132.646578 292.122391) scale(0.11 -0.11)">
       <defs>
        <path id="ArialMT-34" d="M 2069 0 
L 2069 1097 
L 81 1097 
L 81 1613 
L 2172 4581 
L 2631 4581 
L 2631 1613 
L 3250 1613 
L 3250 1097 
L 2631 1097 
L 2631 0 
L 2069 0 
z
M 2069 1613 
L 2069 3678 
L 634 1613 
L 2069 1613 
z
" transform="scale(0.015625)"/>
       </defs>
       <use xlink:href="#ArialMT-34"/>
       <use xlink:href="#ArialMT-30" x="55.615234"/>
       <use xlink:href="#ArialMT-30" x="111.230469"/>
      </g>
     </g>
    </g>
    <g id="xtick_4">
     <g id="line2d_4">
      <g>
       <use xlink:href="#mbfd0f0c0de" x="186.174125" y="277.248797" style="stroke: #000000; stroke-width: 0.8"/>
      </g>
     </g>
     <g id="text_4">
      <!-- 600 -->
      <g transform="translate(176.998578 292.122391) scale(0.11 -0.11)">
       <defs>
        <path id="ArialMT-36" d="M 3184 3459 
L 2625 3416 
Q 2550 3747 2413 3897 
Q 2184 4138 1850 4138 
Q 1581 4138 1378 3988 
Q 1113 3794 959 3422 
Q 806 3050 800 2363 
Q 1003 2672 1297 2822 
Q 1591 2972 1913 2972 
Q 2475 2972 2870 2558 
Q 3266 2144 3266 1488 
Q 3266 1056 3080 686 
Q 2894 316 2569 119 
Q 2244 -78 1831 -78 
Q 1128 -78 684 439 
Q 241 956 241 2144 
Q 241 3472 731 4075 
Q 1159 4600 1884 4600 
Q 2425 4600 2770 4297 
Q 3116 3994 3184 3459 
z
M 888 1484 
Q 888 1194 1011 928 
Q 1134 663 1356 523 
Q 1578 384 1822 384 
Q 2178 384 2434 671 
Q 2691 959 2691 1453 
Q 2691 1928 2437 2201 
Q 2184 2475 1800 2475 
Q 1419 2475 1153 2201 
Q 888 1928 888 1484 
z
" transform="scale(0.015625)"/>
       </defs>
       <use xlink:href="#ArialMT-36"/>
       <use xlink:href="#ArialMT-30" x="55.615234"/>
       <use xlink:href="#ArialMT-30" x="111.230469"/>
      </g>
     </g>
    </g>
    <g id="xtick_5">
     <g id="line2d_5">
      <g>
       <use xlink:href="#mbfd0f0c0de" x="230.526125" y="277.248797" style="stroke: #000000; stroke-width: 0.8"/>
      </g>
     </g>
     <g id="text_5">
      <!-- 800 -->
      <g transform="translate(221.350578 292.122391) scale(0.11 -0.11)">
       <defs>
        <path id="ArialMT-38" d="M 1131 2484 
Q 781 2613 612 2850 
Q 444 3088 444 3419 
Q 444 3919 803 4259 
Q 1163 4600 1759 4600 
Q 2359 4600 2725 4251 
Q 3091 3903 3091 3403 
Q 3091 3084 2923 2848 
Q 2756 2613 2416 2484 
Q 2838 2347 3058 2040 
Q 3278 1734 3278 1309 
Q 3278 722 2862 322 
Q 2447 -78 1769 -78 
Q 1091 -78 675 323 
Q 259 725 259 1325 
Q 259 1772 486 2073 
Q 713 2375 1131 2484 
z
M 1019 3438 
Q 1019 3113 1228 2906 
Q 1438 2700 1772 2700 
Q 2097 2700 2305 2904 
Q 2513 3109 2513 3406 
Q 2513 3716 2298 3927 
Q 2084 4138 1766 4138 
Q 1444 4138 1231 3931 
Q 1019 3725 1019 3438 
z
M 838 1322 
Q 838 1081 952 856 
Q 1066 631 1291 507 
Q 1516 384 1775 384 
Q 2178 384 2440 643 
Q 2703 903 2703 1303 
Q 2703 1709 2433 1975 
Q 2163 2241 1756 2241 
Q 1359 2241 1098 1978 
Q 838 1716 838 1322 
z
" transform="scale(0.015625)"/>
       </defs>
       <use xlink:href="#ArialMT-38"/>
       <use xlink:href="#ArialMT-30" x="55.615234"/>
       <use xlink:href="#ArialMT-30" x="111.230469"/>
      </g>
     </g>
    </g>
    <g id="xtick_6">
     <g id="line2d_6">
      <g>
       <use xlink:href="#mbfd0f0c0de" x="274.878125" y="277.248797" style="stroke: #000000; stroke-width: 0.8"/>
      </g>
     </g>
     <g id="text_6">
      <!-- 1000 -->
      <g transform="translate(262.644063 292.122391) scale(0.11 -0.11)">
       <defs>
        <path id="ArialMT-31" d="M 2384 0 
L 1822 0 
L 1822 3584 
Q 1619 3391 1289 3197 
Q 959 3003 697 2906 
L 697 3450 
Q 1169 3672 1522 3987 
Q 1875 4303 2022 4600 
L 2384 4600 
L 2384 0 
z
" transform="scale(0.015625)"/>
       </defs>
       <use xlink:href="#ArialMT-31"/>
       <use xlink:href="#ArialMT-30" x="55.615234"/>
       <use xlink:href="#ArialMT-30" x="111.230469"/>
       <use xlink:href="#ArialMT-30" x="166.845703"/>
      </g>
     </g>
    </g>
    <g id="xtick_7">
     <g id="line2d_7">
      <g>
       <use xlink:href="#mbfd0f0c0de" x="319.230125" y="277.248797" style="stroke: #000000; stroke-width: 0.8"/>
      </g>
     </g>
     <g id="text_7">
      <!-- 1200 -->
      <g transform="translate(306.996062 292.122391) scale(0.11 -0.11)">
       <use xlink:href="#ArialMT-31"/>
       <use xlink:href="#ArialMT-32" x="55.615234"/>
       <use xlink:href="#ArialMT-30" x="111.230469"/>
       <use xlink:href="#ArialMT-30" x="166.845703"/>
      </g>
     </g>
    </g>
    <g id="text_8">
     <!-- $\sigma_L$ (MPa) -->
     <g transform="translate(163.844125 306.338641) scale(0.11 -0.11)">
      <defs>
       <path id="DejaVuSans-Oblique-3c3" d="M 2219 3044 
Q 1744 3044 1422 2700 
Q 1081 2341 969 1747 
Q 844 1119 1044 756 
Q 1241 397 1706 397 
Q 2166 397 2503 759 
Q 2844 1122 2966 1747 
Q 3075 2319 2881 2700 
Q 2700 3044 2219 3044 
z
M 2309 3503 
L 4219 3500 
L 4106 2925 
L 3463 2925 
Q 3706 2438 3575 1747 
Q 3406 888 2884 400 
Q 2359 -91 1609 -91 
Q 856 -91 525 400 
Q 194 888 363 1747 
Q 528 2609 1050 3097 
Q 1484 3503 2309 3503 
z
" transform="scale(0.015625)"/>
       <path id="DejaVuSans-Oblique-4c" d="M 1075 4666 
L 1709 4666 
L 909 525 
L 3181 525 
L 3078 0 
L 172 0 
L 1075 4666 
z
" transform="scale(0.015625)"/>
       <path id="ArialMT-20" transform="scale(0.015625)"/>
       <path id="ArialMT-28" d="M 1497 -1347 
Q 1031 -759 709 28 
Q 388 816 388 1659 
Q 388 2403 628 3084 
Q 909 3875 1497 4659 
L 1900 4659 
Q 1522 4009 1400 3731 
Q 1209 3300 1100 2831 
Q 966 2247 966 1656 
Q 966 153 1900 -1347 
L 1497 -1347 
z
" transform="scale(0.015625)"/>
       <path id="ArialMT-4d" d="M 475 0 
L 475 4581 
L 1388 4581 
L 2472 1338 
Q 2622 884 2691 659 
Q 2769 909 2934 1394 
L 4031 4581 
L 4847 4581 
L 4847 0 
L 4263 0 
L 4263 3834 
L 2931 0 
L 2384 0 
L 1059 3900 
L 1059 0 
L 475 0 
z
" transform="scale(0.015625)"/>
       <path id="ArialMT-50" d="M 494 0 
L 494 4581 
L 2222 4581 
Q 2678 4581 2919 4538 
Q 3256 4481 3484 4323 
Q 3713 4166 3852 3881 
Q 3991 3597 3991 3256 
Q 3991 2672 3619 2267 
Q 3247 1863 2275 1863 
L 1100 1863 
L 1100 0 
L 494 0 
z
M 1100 2403 
L 2284 2403 
Q 2872 2403 3119 2622 
Q 3366 2841 3366 3238 
Q 3366 3525 3220 3729 
Q 3075 3934 2838 4000 
Q 2684 4041 2272 4041 
L 1100 4041 
L 1100 2403 
z
" transform="scale(0.015625)"/>
       <path id="ArialMT-61" d="M 2588 409 
Q 2275 144 1986 34 
Q 1697 -75 1366 -75 
Q 819 -75 525 192 
Q 231 459 231 875 
Q 231 1119 342 1320 
Q 453 1522 633 1644 
Q 813 1766 1038 1828 
Q 1203 1872 1538 1913 
Q 2219 1994 2541 2106 
Q 2544 2222 2544 2253 
Q 2544 2597 2384 2738 
Q 2169 2928 1744 2928 
Q 1347 2928 1158 2789 
Q 969 2650 878 2297 
L 328 2372 
Q 403 2725 575 2942 
Q 747 3159 1072 3276 
Q 1397 3394 1825 3394 
Q 2250 3394 2515 3294 
Q 2781 3194 2906 3042 
Q 3031 2891 3081 2659 
Q 3109 2516 3109 2141 
L 3109 1391 
Q 3109 606 3145 398 
Q 3181 191 3288 0 
L 2700 0 
Q 2613 175 2588 409 
z
M 2541 1666 
Q 2234 1541 1622 1453 
Q 1275 1403 1131 1340 
Q 988 1278 909 1158 
Q 831 1038 831 891 
Q 831 666 1001 516 
Q 1172 366 1500 366 
Q 1825 366 2078 508 
Q 2331 650 2450 897 
Q 2541 1088 2541 1459 
L 2541 1666 
z
" transform="scale(0.015625)"/>
       <path id="ArialMT-29" d="M 791 -1347 
L 388 -1347 
Q 1322 153 1322 1656 
Q 1322 2244 1188 2822 
Q 1081 3291 891 3722 
Q 769 4003 388 4659 
L 791 4659 
Q 1378 3875 1659 3084 
Q 1900 2403 1900 1659 
Q 1900 816 1576 28 
Q 1253 -759 791 -1347 
z
" transform="scale(0.015625)"/>
      </defs>
      <use xlink:href="#DejaVuSans-Oblique-3c3" transform="translate(0 0.203125)"/>
      <use xlink:href="#DejaVuSans-Oblique-4c" transform="translate(63.378906 -16.203125) scale(0.7)"/>
      <use xlink:href="#ArialMT-20" transform="translate(105.112305 0.203125)"/>
      <use xlink:href="#ArialMT-28" transform="translate(132.895508 0.203125)"/>
      <use xlink:href="#ArialMT-4d" transform="translate(166.196289 0.203125)"/>
      <use xlink:href="#ArialMT-50" transform="translate(249.49707 0.203125)"/>
      <use xlink:href="#ArialMT-61" transform="translate(316.196289 0.203125)"/>
      <use xlink:href="#ArialMT-29" transform="translate(371.811523 0.203125)"/>
     </g>
    </g>
   </g>
   <g id="matplotlib.axis_2">
    <g id="ytick_1">
     <g id="line2d_8">
      <defs>
       <path id="mb68fb87ded" d="M 0 0 
L -3.5 0 
" style="stroke: #000000; stroke-width: 0.8"/>
      </defs>
      <g>
       <use xlink:href="#mb68fb87ded" x="53.118125" y="277.248797" style="stroke: #000000; stroke-width: 0.8"/>
      </g>
     </g>
     <g id="text_9">
      <!-- 0 -->
      <g transform="translate(40.001094 281.185594) scale(0.11 -0.11)">
       <use xlink:href="#ArialMT-30"/>
      </g>
     </g>
    </g>
    <g id="ytick_2">
     <g id="line2d_9">
      <g>
       <use xlink:href="#mb68fb87ded" x="53.118125" y="232.896797" style="stroke: #000000; stroke-width: 0.8"/>
      </g>
     </g>
     <g id="text_10">
      <!-- 200 -->
      <g transform="translate(27.767031 236.833594) scale(0.11 -0.11)">
       <use xlink:href="#ArialMT-32"/>
       <use xlink:href="#ArialMT-30" x="55.615234"/>
       <use xlink:href="#ArialMT-30" x="111.230469"/>
      </g>
     </g>
    </g>
    <g id="ytick_3">
     <g id="line2d_10">
      <g>
       <use xlink:href="#mb68fb87ded" x="53.118125" y="188.544797" style="stroke: #000000; stroke-width: 0.8"/>
      </g>
     </g>
     <g id="text_11">
      <!-- 400 -->
      <g transform="translate(27.767031 192.481594) scale(0.11 -0.11)">
       <use xlink:href="#ArialMT-34"/>
       <use xlink:href="#ArialMT-30" x="55.615234"/>
       <use xlink:href="#ArialMT-30" x="111.230469"/>
      </g>
     </g>
    </g>
    <g id="ytick_4">
     <g id="line2d_11">
      <g>
       <use xlink:href="#mb68fb87ded" x="53.118125" y="144.192797" style="stroke: #000000; stroke-width: 0.8"/>
      </g>
     </g>
     <g id="text_12">
      <!-- 600 -->
      <g transform="translate(27.767031 148.129594) scale(0.11 -0.11)">
       <use xlink:href="#ArialMT-36"/>
       <use xlink:href="#ArialMT-30" x="55.615234"/>
       <use xlink:href="#ArialMT-30" x="111.230469"/>
      </g>
     </g>
    </g>
    <g id="ytick_5">
     <g id="line2d_12">
      <g>
       <use xlink:href="#mb68fb87ded" x="53.118125" y="99.840797" style="stroke: #000000; stroke-width: 0.8"/>
      </g>
     </g>
     <g id="text_13">
      <!-- 800 -->
      <g transform="translate(27.767031 103.777594) scale(0.11 -0.11)">
       <use xlink:href="#ArialMT-38"/>
       <use xlink:href="#ArialMT-30" x="55.615234"/>
       <use xlink:href="#ArialMT-30" x="111.230469"/>
      </g>
     </g>
    </g>
    <g id="ytick_6">
     <g id="line2d_13">
      <g>
       <use xlink:href="#mb68fb87ded" x="53.118125" y="55.488797" style="stroke: #000000; stroke-width: 0.8"/>
      </g>
     </g>
     <g id="text_14">
      <!-- 1000 -->
      <g transform="translate(21.65 59.425594) scale(0.11 -0.11)">
       <use xlink:href="#ArialMT-31"/>
       <use xlink:href="#ArialMT-30" x="55.615234"/>
       <use xlink:href="#ArialMT-30" x="111.230469"/>
       <use xlink:href="#ArialMT-30" x="166.845703"/>
      </g>
     </g>
    </g>
    <g id="ytick_7">
     <g id="line2d_14">
      <g>
       <use xlink:href="#mb68fb87ded" x="53.118125" y="11.136797" style="stroke: #000000; stroke-width: 0.8"/>
      </g>
     </g>
     <g id="text_15">
      <!-- 1200 -->
      <g transform="translate(21.65 15.073594) scale(0.11 -0.11)">
       <use xlink:href="#ArialMT-31"/>
       <use xlink:href="#ArialMT-32" x="55.615234"/>
       <use xlink:href="#ArialMT-30" x="111.230469"/>
       <use xlink:href="#ArialMT-30" x="166.845703"/>
      </g>
     </g>
    </g>
    <g id="text_16">
     <!-- $\sigma_C$ (MPa) -->
     <g transform="translate(15.23 167.017797) rotate(-90) scale(0.11 -0.11)">
      <defs>
       <path id="DejaVuSans-Oblique-43" d="M 4447 4306 
L 4319 3641 
Q 4019 3944 3683 4091 
Q 3347 4238 2956 4238 
Q 2422 4238 2017 3981 
Q 1613 3725 1319 3200 
Q 1131 2863 1032 2486 
Q 934 2109 934 1728 
Q 934 1091 1264 756 
Q 1594 422 2222 422 
Q 2656 422 3056 561 
Q 3456 700 3834 978 
L 3688 231 
Q 3316 72 2936 -9 
Q 2556 -91 2175 -91 
Q 1278 -91 773 396 
Q 269 884 269 1753 
Q 269 2309 461 2846 
Q 653 3384 1013 3828 
Q 1394 4300 1883 4525 
Q 2372 4750 3022 4750 
Q 3422 4750 3780 4639 
Q 4138 4528 4447 4306 
z
" transform="scale(0.015625)"/>
      </defs>
      <use xlink:href="#DejaVuSans-Oblique-3c3" transform="translate(0 0.203125)"/>
      <use xlink:href="#DejaVuSans-Oblique-43" transform="translate(63.378906 -16.203125) scale(0.7)"/>
      <use xlink:href="#ArialMT-20" transform="translate(114.990234 0.203125)"/>
      <use xlink:href="#ArialMT-28" transform="translate(142.773438 0.203125)"/>
      <use xlink:href="#ArialMT-4d" transform="translate(176.074219 0.203125)"/>
      <use xlink:href="#ArialMT-50" transform="translate(259.375 0.203125)"/>
      <use xlink:href="#ArialMT-61" transform="translate(326.074219 0.203125)"/>
      <use xlink:href="#ArialMT-29" transform="translate(381.689453 0.203125)"/>
     </g>
    </g>
   </g>
   <g id="PathCollection_7">
    <path d="M -1 161.459953 
L 6.248849 156.026623 
L 13.69759 150.732386 
L 20.979425 145.831024 
L 28.689338 140.929662 
L 35.843181 136.64097 
L 43.009066 132.591776 
L 50.390344 128.676256 
L 57.811734 125.000235 
L 65.065195 121.659936 
L 72.417239 118.530294 
L 79.370692 115.810181 
L 86.22853 113.3595 
L 92.635357 111.282187 
L 99.37473 109.323669 
L 106.114103 107.604256 
L 112.853476 106.132242 
L 118.980179 105.017495 
L 125.106882 104.124383 
L 131.233584 103.464273 
L 136.747617 103.079564 
L 142.261649 102.904268 
L 147.775682 102.951481 
L 153.289714 103.236646 
L 158.191076 103.70356 
L 163.092439 104.387454 
L 167.993801 105.305712 
L 172.282493 106.3187 
L 176.571184 107.544591 
L 181.039705 109.070808 
L 185.148568 110.722697 
L 188.82459 112.42525 
L 192.500611 114.364908 
L 196.176633 116.571872 
L 199.561628 118.873532 
L 202.76456 121.324213 
L 205.627995 123.774894 
L 208.430039 126.448949 
L 211.094103 129.288927 
L 213.660296 132.352278 
L 215.951289 135.415629 
L 218.232763 138.846858 
L 220.182283 142.155002 
L 222.093008 145.831024 
L 223.764058 149.507046 
L 225.441264 153.795737 
L 226.855531 158.084429 
L 228.035487 162.389972 
L 228.988916 166.661813 
L 229.83931 171.563175 
L 230.448753 176.464537 
L 230.83515 181.3659 
L 231.014277 186.267262 
L 230.983084 191.781294 
L 230.720511 197.295327 
L 230.239815 202.809359 
L 229.552012 208.323391 
L 228.556592 214.450094 
L 227.328137 220.576797 
L 225.876024 226.7035 
L 224.20851 232.830202 
L 222.132875 239.569575 
L 219.811543 246.308948 
L 217.25027 253.048321 
L 214.45363 259.787694 
L 211.424725 266.527067 
L 208.165586 273.26644 
L 204.677912 280.005813 
L 200.61195 287.357856 
L 196.644634 294.097229 
L 192.051994 301.449273 
L 187.596256 308.188646 
L 182.461034 315.540689 
L 181.437228 316.958641 
L 181.437228 316.958641 
" clip-path="url(#p82627de7e7)" style="fill: none; stroke: #ff0000; stroke-width: 1.5"/>
   </g>
   <g id="PathCollection_8">
    <path d="M -1 136.538722 
L -0.598277 136.245842 
L -0.512722 136.183599 
L 0.19762 135.668473 
L 0.381527 135.5355 
L 0.907963 135.155667 
L 1.367275 134.825157 
L 1.618305 134.644903 
L 2.328648 134.13626 
L 2.358701 134.114815 
L 3.03899 133.630402 
L 3.357143 133.404473 
L 3.749332 133.126553 
L 4.361224 132.69413 
L 4.459675 132.624701 
L 5.170017 132.125427 
L 5.37215 131.983788 
L 5.880359 131.628421 
L 6.389417 131.273446 
L 6.590702 131.13338 
L 7.301044 130.640613 
L 7.413157 130.563103 
L 8.011386 130.15038 
L 8.443985 129.852761 
L 8.721729 129.662078 
L 9.432071 129.175835 
L 9.481067 129.142418 
L 10.142413 128.692304 
L 10.525845 128.432076 
L 10.852756 128.210672 
L 11.563098 127.730966 
L 11.576821 127.721734 
L 12.27344 127.254067 
L 12.635958 127.011391 
L 12.983783 126.779036 
L 13.694125 126.305882 
L 13.701408 126.301049 
L 14.404467 125.835547 
L 14.775328 125.590707 
L 15.11481 125.367048 
L 15.825152 124.900459 
L 15.855864 124.880364 
L 16.535494 124.436619 
L 16.945008 124.170022 
L 17.245837 123.974586 
L 17.956179 123.514575 
L 18.041273 123.45968 
L 18.666521 123.057164 
L 19.146104 122.749337 
L 19.376864 122.601528 
L 20.087206 122.148108 
L 20.258774 122.038995 
L 20.797548 121.697058 
L 21.379775 121.328653 
L 21.507891 121.247754 
L 22.218233 120.800938 
L 22.509563 120.61831 
L 22.928575 120.356184 
L 23.638918 119.913167 
L 23.64729 119.907968 
L 24.34926 119.472945 
L 24.794894 119.197626 
L 25.059602 119.034421 
L 25.769945 118.598039 
L 25.950933 118.487283 
L 26.480287 118.164012 
L 27.116086 117.776941 
L 27.19063 117.731653 
L 27.900972 117.301917 
L 28.291257 117.066599 
L 28.611314 116.874019 
L 29.321657 116.448138 
L 29.47554 116.356256 
L 30.031999 116.024684 
L 30.669693 115.645914 
L 30.742341 115.602852 
L 31.452684 115.183647 
L 31.874489 114.935572 
L 32.163026 114.766223 
L 32.873368 114.350908 
L 33.089205 114.225229 
L 33.583711 113.937876 
L 34.294053 113.526467 
L 34.314141 113.514887 
L 35.004395 113.117809 
L 35.550748 112.804545 
L 35.714738 112.71071 
L 36.42508 112.306024 
L 36.798304 112.094202 
L 37.135422 111.903264 
L 37.845765 111.50252 
L 38.05701 111.38386 
L 38.556107 111.104083 
L 39.266449 110.707296 
L 39.327215 110.673518 
L 39.976792 110.313165 
L 40.60984 109.963175 
L 40.687134 109.920529 
L 41.397476 109.530512 
L 41.905072 109.252833 
L 42.107819 109.142147 
L 42.818161 108.756123 
L 43.212876 108.542491 
L 43.528503 108.372013 
L 44.238846 107.989998 
L 44.533663 107.832148 
L 44.949188 107.610125 
L 45.65953 107.232137 
L 45.86786 107.121806 
L 46.369873 106.856485 
L 47.080215 106.48254 
L 47.215914 106.411464 
L 47.790557 106.111092 
L 48.5009 105.741207 
L 48.578291 105.701121 
L 49.211242 105.373946 
L 49.921584 105.008138 
L 49.95548 104.990779 
L 50.631927 104.645047 
L 51.342269 104.283334 
L 51.347991 104.280437 
L 52.052611 103.924396 
L 52.75641 103.570094 
L 52.762954 103.566807 
L 53.473296 103.211992 
L 54.181162 102.859752 
L 54.183639 102.858522 
L 54.893981 102.507835 
L 55.604323 102.158505 
L 55.622928 102.149409 
L 56.314666 101.811925 
L 57.025008 101.466757 
L 57.082329 101.439067 
L 57.73535 101.124263 
L 58.445693 100.783273 
L 58.559991 100.728725 
L 59.156035 100.444847 
L 59.866377 100.108053 
L 60.056588 100.018382 
L 60.57672 99.773679 
L 61.287062 99.441097 
L 61.572831 99.30804 
L 61.997404 99.110759 
L 62.707747 98.782406 
L 63.109466 98.597698 
L 63.418089 98.456085 
L 64.128431 98.131978 
L 64.667276 97.887355 
L 64.838774 97.809659 
L 65.549116 97.489815 
L 66.247086 97.177013 
L 66.259458 97.17148 
L 66.969801 96.855915 
L 67.680143 96.541855 
L 67.851285 96.466671 
L 68.390485 96.23028 
L 69.100828 95.920534 
L 69.479635 95.756328 
L 69.81117 95.612909 
L 70.521512 95.307494 
L 71.133011 95.045986 
L 71.231855 95.003802 
L 71.942197 94.702735 
L 72.652539 94.403236 
L 72.813957 94.335644 
L 73.362882 94.106258 
L 74.073224 93.811141 
L 74.523308 93.625301 
L 74.783566 93.518061 
L 75.493909 93.227344 
L 76.204251 92.938241 
L 76.261888 92.914959 
L 76.914593 92.651846 
L 77.624936 92.367178 
L 78.03329 92.204617 
L 78.335278 92.084646 
L 79.04562 91.80443 
L 79.755963 91.525873 
L 79.837177 91.494274 
L 80.466305 91.249997 
L 81.176648 90.975928 
L 81.677661 90.783932 
L 81.88699 90.703879 
L 82.597332 90.434316 
L 83.307675 90.166459 
L 83.555884 90.07359 
L 84.018017 89.901036 
L 84.728359 89.63772 
L 85.438702 89.376141 
L 85.474021 89.363247 
L 86.149044 89.117331 
L 86.859386 88.860329 
L 87.436888 88.652905 
L 87.569729 88.605291 
L 88.280071 88.352883 
L 88.990413 88.102261 
L 89.446655 87.942563 
L 89.700756 87.853804 
L 90.411098 87.607813 
L 91.12144 87.363637 
L 91.507 87.23222 
L 91.831783 87.121749 
L 92.542125 86.882241 
L 93.252467 86.64458 
L 93.622468 86.521878 
L 93.96281 86.409247 
L 94.673152 86.17629 
L 95.383494 85.945211 
L 95.798163 85.811536 
L 96.093837 85.716419 
L 96.804179 85.490082 
L 97.514521 85.265654 
L 98.039843 85.101193 
L 98.224864 85.04339 
L 98.935206 84.823742 
L 99.645548 84.606035 
L 100.35402 84.390851 
L 100.355891 84.390284 
L 101.066233 84.177394 
L 101.776575 83.966478 
L 102.486918 83.757549 
L 102.75173 83.680509 
L 103.19726 83.551165 
L 103.907602 83.347112 
L 104.617945 83.145078 
L 105.23934 82.970166 
L 105.328287 82.945182 
L 106.03863 82.748062 
L 106.748972 82.552996 
L 107.459314 82.359996 
L 107.832394 82.259824 
L 108.169657 82.16946 
L 108.879999 81.981434 
L 109.590341 81.795509 
L 110.300684 81.611698 
L 110.544279 81.549482 
L 111.011026 81.430523 
L 111.721368 81.251747 
L 112.431711 81.07512 
L 113.142053 80.900656 
L 113.396036 80.839139 
L 113.852395 80.728841 
L 114.562738 80.559474 
L 115.27308 80.392305 
L 115.983422 80.227349 
L 116.413985 80.128797 
L 116.693765 80.064895 
L 117.404107 79.905098 
L 118.114449 79.74755 
L 118.824792 79.592266 
L 119.535134 79.439261 
L 119.633382 79.418455 
L 120.245476 79.28911 
L 120.955819 79.141349 
L 121.666161 78.995905 
L 122.376503 78.852791 
L 123.086846 78.712025 
L 123.106969 78.708112 
L 123.797188 78.574204 
L 124.50753 78.43877 
L 125.217873 78.30572 
L 125.928215 78.175072 
L 126.638557 78.04684 
L 126.916009 77.99777 
L 127.3489 77.921376 
L 128.059242 77.798566 
L 128.769584 77.678212 
L 129.479927 77.560331 
L 130.190269 77.444938 
L 130.900611 77.332051 
L 131.188201 77.287428 
L 131.610954 77.221976 
L 132.321296 77.114627 
L 133.031639 77.009824 
L 133.741981 76.907584 
L 134.452323 76.807925 
L 135.162666 76.710864 
L 135.873008 76.616418 
L 136.177709 76.577085 
L 136.58335 76.524839 
L 137.293693 76.436075 
L 138.004035 76.34997 
L 138.714377 76.266541 
L 139.42472 76.185805 
L 140.135062 76.107783 
L 140.845404 76.032491 
L 141.555747 75.959948 
L 142.266089 75.890174 
L 142.51492 75.866743 
L 142.976431 75.823384 
L 143.686774 75.759494 
L 144.397116 75.698418 
L 145.107458 75.640175 
L 145.817801 75.584785 
L 146.528143 75.532267 
L 147.238485 75.48264 
L 147.948828 75.435925 
L 148.65917 75.392142 
L 149.369512 75.351312 
L 150.079855 75.313454 
L 150.790197 75.27859 
L 151.500539 75.24674 
L 152.210882 75.217926 
L 152.921224 75.192169 
L 153.631566 75.16949 
L 154.106818 75.1564 
L 154.341909 75.149941 
L 155.052251 75.133561 
L 155.762593 75.120311 
L 156.472936 75.110212 
L 157.183278 75.103288 
L 157.89362 75.09956 
L 158.603963 75.099052 
L 159.314305 75.101786 
L 160.024648 75.107786 
L 160.73499 75.117074 
L 161.445332 75.129675 
L 162.155675 75.145613 
L 162.553173 75.1564 
L 162.866017 75.164952 
L 163.576359 75.187745 
L 164.286702 75.213965 
L 164.997044 75.243636 
L 165.707386 75.276784 
L 166.417729 75.313434 
L 167.128071 75.353613 
L 167.838413 75.397345 
L 168.548756 75.444658 
L 169.259098 75.495579 
L 169.96944 75.550133 
L 170.679783 75.608348 
L 171.390125 75.670251 
L 172.100467 75.73587 
L 172.81081 75.805234 
L 173.408471 75.866743 
L 173.521152 75.878427 
L 174.231494 75.955752 
L 174.941837 76.036928 
L 175.652179 76.121983 
L 176.362521 76.210948 
L 177.072864 76.303853 
L 177.783206 76.400728 
L 178.493548 76.501603 
L 179.005024 76.577085 
L 179.203891 76.606661 
L 179.914233 76.716196 
L 180.624575 76.829849 
L 181.334918 76.947652 
L 182.04526 77.069639 
L 182.755602 77.195842 
L 183.254699 77.287428 
L 183.465945 77.326499 
L 184.176287 77.461948 
L 184.88663 77.60174 
L 185.596972 77.745911 
L 186.307314 77.894495 
L 186.787108 77.99777 
L 187.017657 78.047796 
L 187.727999 78.206164 
L 188.438341 78.369082 
L 189.148684 78.536587 
L 189.85654 78.708112 
L 189.859026 78.708719 
L 190.569368 78.886481 
L 191.279711 79.068974 
L 191.990053 79.256238 
L 192.590231 79.418455 
L 192.700395 79.448478 
L 193.410738 79.646502 
L 194.12108 79.84945 
L 194.831422 80.057364 
L 195.070178 80.128797 
L 195.541765 80.271087 
L 196.252107 80.490297 
L 196.962449 80.714637 
L 197.348285 80.839139 
L 197.672792 80.944753 
L 198.383134 81.180836 
L 199.093476 81.422219 
L 199.460383 81.549482 
L 199.803819 81.669644 
L 200.514161 81.923241 
L 201.224503 82.182318 
L 201.433001 82.259824 
L 201.934846 82.44803 
L 202.645188 82.719819 
L 203.286307 82.970166 
L 203.35553 82.997439 
L 204.065873 83.282317 
L 204.776215 83.573013 
L 205.034187 83.680509 
L 205.486557 83.870725 
L 206.1969 84.175058 
L 206.691261 84.390851 
L 206.907242 84.485997 
L 207.617584 84.804387 
L 208.267323 85.101193 
L 208.327927 85.129136 
L 209.038269 85.462021 
L 209.748611 85.80126 
L 209.769794 85.811536 
L 210.458954 86.149032 
L 211.169296 86.503399 
L 211.205771 86.521878 
L 211.879639 86.866549 
L 212.581732 87.23222 
L 212.589981 87.236558 
L 213.300323 87.615759 
L 213.901865 87.942563 
L 214.010666 88.002252 
L 214.721008 88.397911 
L 215.171279 88.652905 
L 215.43135 88.801652 
L 216.141693 89.214319 
L 216.394129 89.363247 
L 216.852035 89.636119 
L 217.562377 90.066371 
L 217.574129 90.07359 
L 218.27272 90.507086 
L 218.711822 90.783932 
L 218.983062 90.95671 
L 219.693404 91.416066 
L 219.81264 91.494274 
L 220.403747 91.886051 
L 220.877112 92.204617 
L 221.114089 92.365785 
L 221.824431 92.856001 
L 221.9087 92.914959 
L 222.534774 93.357691 
L 222.907694 93.625301 
L 223.245116 93.870065 
L 223.877733 94.335644 
L 223.955458 94.393474 
L 224.665801 94.929148 
L 224.818625 95.045986 
L 225.376143 95.476969 
L 225.732526 95.756328 
L 226.086485 96.036912 
L 226.621238 96.466671 
L 226.796828 96.609392 
L 227.485777 97.177013 
L 227.50717 97.194841 
L 228.217512 97.794436 
L 228.326159 97.887355 
L 228.927855 98.407975 
L 229.144274 98.597698 
L 229.638197 99.035815 
L 229.941162 99.30804 
L 230.348539 99.678468 
L 230.717628 100.018382 
L 231.058882 100.336473 
L 231.474437 100.728725 
L 231.769224 101.010395 
L 232.212319 101.439067 
L 232.479566 101.700827 
L 232.931965 102.149409 
L 233.189909 102.408394 
L 233.634036 102.859752 
L 233.900251 103.133748 
L 234.319158 103.570094 
L 234.610593 103.877579 
L 234.98793 104.280437 
L 235.320936 104.640612 
L 235.640922 104.990779 
L 236.031278 105.423609 
L 236.27868 105.701121 
L 236.74162 106.227375 
L 236.901721 106.411464 
L 237.451963 107.052756 
L 237.510543 107.121806 
L 238.105202 107.832148 
L 238.162305 107.901284 
L 238.686054 108.542491 
L 238.872648 108.774155 
L 239.253975 109.252833 
L 239.58299 109.671757 
L 239.809385 109.963175 
L 240.293332 110.595166 
L 240.352687 110.673518 
L 240.883426 111.38386 
L 241.003675 111.54713 
L 241.402338 112.094202 
L 241.714017 112.528374 
L 241.9102 112.804545 
L 242.407239 113.514887 
L 242.424359 113.539699 
L 242.892503 114.225229 
L 243.134702 114.585481 
L 243.367668 114.935572 
L 243.83296 115.645914 
L 243.845044 115.664627 
L 244.28715 116.356256 
L 244.555386 116.782781 
L 244.732097 117.066599 
L 245.167436 117.776941 
L 245.265729 117.939812 
L 245.592881 118.487283 
L 245.976071 119.139556 
L 246.009853 119.197626 
L 246.416888 119.907968 
L 246.686413 120.386527 
L 246.815699 120.61831 
L 247.205537 121.328653 
L 247.396756 121.68305 
L 247.586986 122.038995 
L 247.960175 122.749337 
L 248.107098 123.033786 
L 248.325018 123.45968 
L 248.682082 124.170022 
L 248.81744 124.443998 
L 249.031033 124.880364 
L 249.372472 125.590707 
L 249.527783 125.919654 
L 249.70621 126.301049 
L 250.032503 127.011391 
L 250.238125 127.467547 
L 250.351671 127.721734 
L 250.663275 128.432076 
L 250.948467 129.095444 
L 250.968482 129.142418 
L 251.265837 129.852761 
L 251.557072 130.563103 
L 251.65881 130.816028 
L 251.841185 131.273446 
L 252.118745 131.983788 
L 252.369152 132.638429 
L 252.390273 132.69413 
L 252.654553 133.404473 
L 252.913069 134.114815 
L 253.079494 134.581972 
L 253.165388 134.825157 
L 253.411145 135.5355 
L 253.65133 136.245842 
L 253.789837 136.664615 
L 253.885458 136.956184 
L 254.113377 137.666527 
L 254.335904 138.376869 
L 254.500179 138.913787 
L 254.552798 139.087211 
L 254.763527 139.797554 
L 254.969038 140.507896 
L 255.169374 141.218238 
L 255.210521 141.367637 
L 255.363751 141.928581 
L 255.552852 142.638923 
L 255.736941 143.349265 
L 255.91606 144.059608 
L 255.920864 144.079145 
L 256.089353 144.76995 
L 256.257764 145.480292 
L 256.421358 146.190635 
L 256.580175 146.900977 
L 256.631206 147.135818 
L 256.733716 147.611319 
L 256.882319 148.321662 
L 257.026289 149.032004 
L 257.165663 149.742346 
L 257.300478 150.452689 
L 257.341548 150.676187 
L 257.430315 151.163031 
L 257.555482 151.873373 
L 257.676224 152.583716 
L 257.792577 153.294058 
L 257.904575 154.0044 
L 258.012253 154.714743 
L 258.051891 154.98663 
L 258.115326 155.425085 
L 258.21397 156.135428 
L 258.308419 156.84577 
L 258.398705 157.556112 
L 258.484859 158.266455 
L 258.566915 158.976797 
L 258.644902 159.687139 
L 258.718854 160.397482 
L 258.762233 160.8376 
L 258.78867 161.107824 
L 258.85432 161.818166 
L 258.916046 162.528509 
L 258.973878 163.238851 
L 259.027846 163.949193 
L 259.077978 164.659536 
L 259.124303 165.369878 
L 259.166849 166.08022 
L 259.205646 166.790563 
L 259.24072 167.500905 
L 259.2721 168.211247 
L 259.299813 168.92159 
L 259.323886 169.631932 
L 259.344346 170.342274 
L 259.36122 171.052617 
L 259.374533 171.762959 
L 259.384312 172.473301 
L 259.390583 173.183644 
L 259.393372 173.893986 
L 259.392703 174.604328 
L 259.388602 175.314671 
L 259.381093 176.025013 
L 259.370202 176.735355 
L 259.355952 177.445698 
L 259.338367 178.15604 
L 259.317473 178.866382 
L 259.293291 179.576725 
L 259.265847 180.287067 
L 259.235162 180.997409 
L 259.20126 181.707752 
L 259.164164 182.418094 
L 259.123896 183.128437 
L 259.080479 183.838779 
L 259.033935 184.549121 
L 258.984285 185.259464 
L 258.931552 185.969806 
L 258.875757 186.680148 
L 258.816921 187.390491 
L 258.762233 188.018356 
L 258.755034 188.100833 
L 258.689891 188.811175 
L 258.621758 189.521518 
L 258.550656 190.23186 
L 258.476606 190.942202 
L 258.399628 191.652545 
L 258.319742 192.362887 
L 258.236967 193.073229 
L 258.151325 193.783572 
L 258.062834 194.493914 
L 258.051891 194.578867 
L 257.971161 195.204256 
L 257.87662 195.914599 
L 257.779278 196.624941 
L 257.679154 197.335283 
L 257.576266 198.045626 
L 257.470635 198.755968 
L 257.362277 199.46631 
L 257.341548 199.598644 
L 257.25082 200.176653 
L 257.136575 200.886995 
L 257.019649 201.597337 
L 256.90006 202.30768 
L 256.777827 203.018022 
L 256.652967 203.728364 
L 256.631206 203.849406 
L 256.525043 204.438707 
L 256.394425 205.149049 
L 256.261224 205.859391 
L 256.125457 206.569734 
L 255.987141 207.280076 
L 255.920864 207.613944 
L 255.845975 207.990418 
L 255.702002 208.700761 
L 255.555523 209.411103 
L 255.406554 210.121446 
L 255.255111 210.831788 
L 255.210521 211.037275 
L 255.100748 211.54213 
L 254.943747 212.252473 
L 254.784313 212.962815 
L 254.622464 213.673157 
L 254.500179 214.201713 
L 254.458037 214.3835 
L 254.290701 215.093842 
L 254.120989 215.804184 
L 253.948916 216.514527 
L 253.789837 217.16228 
L 253.774435 217.224869 
L 253.596947 217.935211 
L 253.417138 218.645554 
L 253.235024 219.355896 
L 253.079494 219.954802 
L 253.050497 220.066238 
L 252.863037 220.776581 
L 252.67331 221.486923 
L 252.48133 222.197265 
L 252.369152 222.607175 
L 252.28677 222.907608 
L 252.089513 223.61795 
L 251.890041 224.328292 
L 251.688369 225.038635 
L 251.65881 225.141445 
L 251.483788 225.748977 
L 251.276907 226.459319 
L 251.067862 227.169662 
L 250.948467 227.570865 
L 250.856288 227.880004 
L 250.642078 228.590346 
L 250.425741 229.300689 
L 250.238125 229.910581 
L 250.207163 230.011031 
L 249.985705 230.721373 
L 249.762156 231.431716 
L 249.536529 232.142058 
L 249.527783 232.169288 
L 249.307938 232.8524 
L 249.077255 233.562743 
L 248.844529 234.273085 
L 248.81744 234.3549 
L 248.608923 234.983428 
L 248.371185 235.69377 
L 248.131439 236.404112 
L 248.107098 236.4755 
L 247.888809 237.114455 
L 247.644092 237.824797 
L 247.397402 238.535139 
L 247.396756 238.536981 
L 247.147738 239.245482 
L 246.89612 239.955824 
L 246.686413 240.5431 
L 246.642382 240.666166 
L 246.385857 241.376509 
L 246.127412 242.086851 
L 245.976071 242.499403 
L 245.866616 242.797193 
L 245.603306 243.507536 
L 245.338109 244.217878 
L 245.265729 244.410096 
L 245.070248 244.92822 
L 244.800226 245.638563 
L 244.555386 246.278137 
L 244.528242 246.348905 
L 244.253417 247.059247 
L 243.976759 247.76959 
L 243.845044 248.105195 
L 243.697685 248.479932 
L 243.416264 249.190274 
L 243.134702 249.896447 
L 243.133036 249.900617 
L 242.846872 250.610959 
L 242.558928 251.321301 
L 242.424359 251.650875 
L 242.268586 252.031644 
L 241.97594 252.741986 
L 241.714017 253.373827 
L 241.681412 253.452328 
L 241.384083 254.162671 
L 241.085025 254.873013 
L 241.003675 255.064844 
L 240.783363 255.583355 
L 240.479662 256.293698 
L 240.293332 256.726737 
L 240.173783 257.00404 
L 239.86546 257.714382 
L 239.58299 258.361518 
L 239.555347 258.424725 
L 239.242423 259.135067 
L 238.927839 259.845409 
L 238.872648 259.969169 
L 238.610555 260.555752 
L 238.291408 261.266094 
L 238.162305 261.551629 
L 237.96986 261.976437 
L 237.646171 262.686779 
L 237.451963 263.110505 
L 237.320344 263.397121 
L 236.992132 264.107464 
L 236.74162 264.646753 
L 236.662009 264.817806 
L 236.329295 265.528148 
L 236.031278 266.161274 
L 235.994862 266.238491 
L 235.657665 266.948833 
L 235.320936 267.654926 
L 235.318905 267.659175 
L 234.977246 268.369518 
L 234.63405 269.07986 
L 234.610593 269.128102 
L 234.288042 269.790202 
L 233.940422 270.500545 
L 233.900251 270.582127 
L 233.590057 271.210887 
L 233.238033 271.921229 
L 233.189909 272.017756 
L 232.883297 272.631572 
L 232.526888 273.341914 
L 232.479566 273.435672 
L 232.167765 274.052256 
L 231.806991 274.762599 
L 231.769224 274.836524 
L 231.443466 275.472941 
L 231.078346 276.183283 
L 231.058882 276.22093 
L 230.710404 276.893626 
L 230.348539 277.589362 
L 230.340928 277.603968 
L 229.968583 278.31431 
L 229.638197 278.942082 
L 229.594658 279.024653 
L 229.218008 279.734995 
L 228.927855 280.279936 
L 228.839618 280.445337 
L 228.458683 281.15568 
L 228.217512 281.603443 
L 228.075812 281.866022 
L 227.690612 282.576364 
L 227.50717 282.913096 
L 227.303246 283.286707 
L 226.913801 283.997049 
L 226.796828 284.209367 
L 226.521923 284.707391 
L 226.128252 285.417734 
L 226.086485 285.492706 
L 225.731848 286.128076 
L 225.376143 286.762986 
L 225.333801 286.838418 
L 224.933025 287.548761 
L 224.665801 288.020546 
L 224.530419 288.259103 
L 224.125459 288.969446 
L 223.955458 289.26635 
L 223.718279 289.679788 
L 223.309153 290.39013 
L 223.245116 290.50078 
L 222.897383 291.100473 
L 222.534774 291.723577 
L 222.483909 291.810815 
L 222.067738 292.521157 
L 221.824431 292.934865 
L 221.649641 293.2315 
L 221.229347 293.941842 
L 221.114089 294.135787 
L 220.806612 294.652184 
L 220.403747 295.326415 
L 220.382127 295.362527 
L 219.954827 296.072869 
L 219.693404 296.505904 
L 219.525671 296.783211 
L 219.094289 297.493554 
L 218.983062 297.67593 
L 218.660448 298.203896 
L 218.27272 298.836253 
L 218.22481 298.914238 
L 217.78646 299.624581 
L 217.562377 299.986394 
L 217.346104 300.334923 
L 216.903714 301.045265 
L 216.852035 301.127884 
L 216.458623 301.755608 
L 216.141693 302.259611 
L 216.01169 302.46595 
L 215.562373 303.176292 
L 215.43135 303.382621 
L 215.110672 303.886635 
L 214.721008 304.497055 
L 214.657099 304.596977 
L 214.200872 305.307319 
L 214.010666 305.602417 
L 213.742498 306.017662 
L 213.300323 306.700122 
L 213.282223 306.728004 
L 212.819105 307.438346 
L 212.589981 307.788622 
L 212.353994 308.148689 
L 211.886924 308.859031 
L 211.879639 308.870064 
L 211.416963 309.569373 
L 211.169296 309.942518 
L 210.945053 310.279716 
L 210.471132 310.990058 
L 210.458954 311.008236 
L 209.994337 311.7004 
L 209.748611 312.065322 
L 209.515563 312.410743 
L 209.038269 313.115967 
L 209.034798 313.121085 
L 208.551119 313.831428 
L 208.327927 314.158192 
L 208.065416 314.54177 
L 207.617584 315.194116 
L 207.577692 315.252112 
L 207.087198 315.962455 
L 206.907242 316.222227 
L 206.594501 316.672797 
L 206.395489 316.958641 
" clip-path="url(#p82627de7e7)" style="fill: none; stroke: #0000ff; stroke-width: 1.5"/>
   </g>
   <g id="PathCollection_9">
    <path d="M -1 114.109064 
L -0.823497 113.985006 
L -0.596097 113.825662 
L -0.024361 113.425874 
L 0.548328 113.026527 
L 0.774774 112.868952 
L 1.573909 112.31459 
L 1.700036 112.227391 
L 2.373044 111.763078 
L 2.859717 111.428256 
L 3.172179 111.213738 
L 3.971314 110.666715 
L 4.026434 110.629121 
L 4.770449 110.122742 
L 5.20181 109.829986 
L 5.569584 109.580906 
L 6.36872 109.041237 
L 6.384158 109.030851 
L 7.167855 108.504726 
L 7.575687 108.231716 
L 7.96699 107.970316 
L 8.766125 107.438017 
L 8.774319 107.432581 
L 9.56526 106.90889 
L 9.982478 106.633446 
L 10.364395 106.38183 
L 11.16353 105.856916 
L 11.198081 105.83431 
L 11.962666 105.335097 
L 12.423369 105.035175 
L 12.761801 104.81531 
L 13.560936 104.297797 
L 13.656667 104.23604 
L 14.360071 103.783209 
L 14.899602 103.436905 
L 15.159206 103.27062 
L 15.958341 102.760522 
L 16.151356 102.63777 
L 16.757476 102.253091 
L 17.412481 101.838635 
L 17.556611 101.747624 
L 18.355747 101.244956 
L 18.683493 101.0395 
L 19.154882 100.744607 
L 19.954017 100.246214 
L 19.963436 100.240364 
L 20.753152 99.750964 
L 21.25449 99.441229 
L 21.552287 99.257624 
L 22.351422 98.766695 
L 22.555034 98.642094 
L 23.150557 98.278414 
L 23.865831 97.842959 
L 23.949693 97.79201 
L 24.748828 97.308557 
L 25.187898 97.043824 
L 25.547963 96.827172 
L 26.347098 96.348056 
L 26.520217 96.244689 
L 27.146233 95.87167 
L 27.863639 95.445554 
L 27.945368 95.397109 
L 28.744503 94.925503 
L 29.219034 94.646418 
L 29.543639 94.455902 
L 30.342774 93.988672 
L 30.585589 93.847283 
L 31.141909 93.524011 
L 31.941044 93.061176 
L 31.963643 93.048148 
L 32.740179 92.601436 
L 33.354826 92.249013 
L 33.539314 92.143449 
L 34.338449 91.688177 
L 34.758327 91.449878 
L 35.137584 91.235073 
L 35.93672 90.784235 
L 36.17437 90.650743 
L 36.735855 90.335993 
L 37.53499 89.889609 
L 37.603351 89.851608 
L 38.334125 89.446211 
L 39.046304 89.052473 
L 39.13326 89.004496 
L 39.932395 88.565726 
L 40.50344 88.253337 
L 40.73153 88.128816 
L 41.530666 87.694538 
L 41.97472 87.454202 
L 42.329801 87.262415 
L 43.128936 86.832648 
L 43.460606 86.655067 
L 43.928071 86.405291 
L 44.727206 85.980054 
L 44.961577 85.855932 
L 45.526341 85.557446 
L 46.325476 85.136758 
L 46.478137 85.056797 
L 47.124611 84.718879 
L 47.923747 84.302758 
L 48.010812 84.257662 
L 48.722882 83.88959 
L 49.522017 83.478056 
L 49.560149 83.458527 
L 50.321152 83.069579 
L 51.120287 82.662651 
L 51.126725 82.659391 
L 51.919422 82.258846 
L 52.711196 81.860256 
L 52.718557 81.856558 
L 53.517693 81.457391 
L 54.314042 81.061121 
L 54.316828 81.059738 
L 55.115963 80.665215 
L 55.915098 80.272218 
L 55.936028 80.261986 
L 56.714233 79.882316 
L 57.513368 79.494002 
L 57.577855 79.462851 
L 58.312503 79.108696 
L 59.111639 78.725082 
L 59.240224 78.663716 
L 59.910774 78.344354 
L 60.709909 77.96546 
L 60.923896 77.864581 
L 61.509044 77.58929 
L 62.308179 77.215135 
L 62.62967 77.065446 
L 63.107314 76.843504 
L 63.906449 76.474107 
L 64.358384 76.26631 
L 64.705584 76.106996 
L 65.50472 75.742376 
L 66.11092 75.467175 
L 66.303855 75.379766 
L 67.10299 75.019942 
L 67.888206 74.66804 
L 67.902125 74.661815 
L 68.70126 74.306805 
L 69.500395 73.953487 
L 69.69293 73.868905 
L 70.29953 73.602965 
L 71.098666 73.254501 
L 71.524824 73.06977 
L 71.897801 72.908423 
L 72.696936 72.564831 
L 73.384872 72.270635 
L 73.496071 72.223177 
L 74.295206 71.884478 
L 75.094341 71.547541 
L 75.275935 71.4715 
L 75.893476 71.21344 
L 76.692611 70.881434 
L 77.198956 70.672364 
L 77.491747 70.551719 
L 78.290882 70.224663 
L 79.090017 69.899421 
L 79.154858 69.873229 
L 79.889152 69.577227 
L 80.688287 69.256975 
L 81.147685 69.074094 
L 81.487422 68.939127 
L 82.286557 68.623884 
L 83.085693 68.310508 
L 83.177058 68.274959 
L 83.884828 68.000147 
L 84.683963 67.69182 
L 85.247603 67.475824 
L 85.483098 67.385765 
L 86.282233 67.082506 
L 87.081368 66.781167 
L 87.360604 66.676689 
L 87.880503 66.482566 
L 88.679639 66.186336 
L 89.478774 65.892059 
L 89.518508 65.877554 
L 90.277909 65.600897 
L 91.077044 65.31177 
L 91.726733 65.078418 
L 91.876179 65.024852 
L 92.675314 64.740894 
L 93.474449 64.458944 
L 93.987721 64.279283 
L 94.273584 64.17943 
L 95.07272 63.90269 
L 95.871855 63.627992 
L 96.30561 63.480148 
L 96.67099 63.355868 
L 97.470125 63.086422 
L 98.26926 62.819052 
L 98.685511 62.681013 
L 99.068395 62.554303 
L 99.86753 62.292227 
L 100.666666 62.032262 
L 101.133168 61.881878 
L 101.465801 61.774872 
L 102.264936 61.520243 
L 103.064071 61.267761 
L 103.655058 61.082743 
L 103.863206 61.017715 
L 104.662341 60.77061 
L 105.461476 60.52569 
L 106.258507 60.283608 
L 106.260611 60.28297 
L 107.059747 60.043469 
L 107.858882 59.806189 
L 108.658017 59.571143 
L 108.95593 59.484473 
L 109.457152 59.338961 
L 110.256287 59.109401 
L 111.055422 58.882113 
L 111.754492 58.685337 
L 111.854557 58.65723 
L 112.653693 58.435471 
L 113.452828 58.216021 
L 114.251963 57.998896 
L 114.671677 57.886202 
L 115.051098 57.784543 
L 115.850233 57.573014 
L 116.649368 57.363848 
L 117.448503 57.157061 
L 117.722548 57.087067 
L 118.247639 56.953239 
L 119.046774 56.752115 
L 119.845909 56.55341 
L 120.645044 56.357138 
L 120.930774 56.287932 
L 121.444179 56.163847 
L 122.243314 55.973308 
L 123.042449 55.785243 
L 123.841584 55.599668 
L 124.325968 55.488797 
L 124.64072 55.416907 
L 125.439855 55.237136 
L 126.23899 55.059894 
L 127.038125 54.8852 
L 127.83726 54.713069 
L 127.94779 54.689662 
L 128.636395 54.544149 
L 129.43553 54.377918 
L 130.234666 54.214293 
L 131.033801 54.053291 
L 131.832936 53.894928 
L 131.855574 53.890527 
L 132.632071 53.73988 
L 133.431206 53.587516 
L 134.230341 53.437836 
L 135.029476 53.290856 
L 135.828611 53.146595 
L 136.140745 53.091391 
L 136.627747 53.005448 
L 137.426882 52.867287 
L 138.226017 52.731889 
L 139.025152 52.599273 
L 139.824287 52.469456 
L 140.623422 52.342458 
L 140.946961 52.292256 
L 141.422557 52.218623 
L 142.221693 52.097855 
L 143.020828 51.979952 
L 143.819963 51.864933 
L 144.619098 51.752816 
L 145.418233 51.643622 
L 146.217368 51.537371 
L 146.560157 51.493121 
L 147.016503 51.434344 
L 147.815639 51.334485 
L 148.614774 51.237616 
L 149.413909 51.143758 
L 150.213044 51.052931 
L 151.012179 50.965156 
L 151.811314 50.880453 
L 152.610449 50.798842 
L 153.409584 50.720346 
L 153.68952 50.693986 
L 154.20872 50.645207 
L 155.007855 50.573331 
L 155.80699 50.504621 
L 156.606125 50.439098 
L 157.40526 50.376783 
L 158.204395 50.3177 
L 159.00353 50.26187 
L 159.802666 50.209316 
L 160.601801 50.160061 
L 161.400936 50.114126 
L 162.200071 50.071536 
L 162.999206 50.032314 
L 163.798341 49.996483 
L 164.597476 49.964067 
L 165.396611 49.93509 
L 166.195747 49.909576 
L 166.730404 49.894851 
L 166.994882 49.887584 
L 167.794017 49.869157 
L 168.593152 49.85425 
L 169.392287 49.842889 
L 170.191422 49.8351 
L 170.990557 49.830906 
L 171.789693 49.830334 
L 172.588828 49.83341 
L 173.387963 49.840159 
L 174.187098 49.850609 
L 174.986233 49.864785 
L 175.785368 49.882715 
L 176.232554 49.894851 
L 176.584503 49.904472 
L 177.383639 49.930114 
L 178.182774 49.959611 
L 178.981909 49.992991 
L 179.781044 50.030282 
L 180.580179 50.071514 
L 181.379314 50.116715 
L 182.178449 50.165914 
L 182.977584 50.219141 
L 183.77672 50.276426 
L 184.575855 50.3378 
L 185.37499 50.403292 
L 186.174125 50.472933 
L 186.97326 50.546755 
L 187.772395 50.624788 
L 188.444764 50.693986 
L 188.57153 50.707131 
L 189.370666 50.794122 
L 190.169801 50.885444 
L 190.968936 50.981131 
L 191.768071 51.081217 
L 192.567206 51.185735 
L 193.366341 51.294719 
L 194.165476 51.408203 
L 194.740887 51.493121 
L 194.964611 51.526394 
L 195.763747 51.649621 
L 196.562882 51.77748 
L 197.362017 51.910009 
L 198.161152 52.047244 
L 198.960287 52.189222 
L 199.521771 52.292256 
L 199.759422 52.336212 
L 200.558557 52.488592 
L 201.357693 52.645858 
L 202.156828 52.80805 
L 202.955963 52.975207 
L 203.495731 53.091391 
L 203.755098 53.147671 
L 204.554233 53.325835 
L 205.353368 53.509118 
L 206.152503 53.697561 
L 206.948842 53.890527 
L 206.951639 53.89121 
L 207.750774 54.091191 
L 208.549909 54.296496 
L 209.349044 54.507168 
L 210.024244 54.689662 
L 210.148179 54.723439 
L 210.947314 54.946215 
L 211.746449 55.174532 
L 212.545584 55.408435 
L 212.814185 55.488797 
L 213.34472 55.648873 
L 214.143855 55.895485 
L 214.94299 56.147867 
L 215.377055 56.287932 
L 215.742125 56.406747 
L 216.54126 56.67234 
L 217.340395 56.943896 
L 217.753165 57.087067 
L 218.13953 57.22225 
L 218.938666 57.507546 
L 219.737801 57.799009 
L 219.97236 57.886202 
L 220.536936 58.097934 
L 221.336071 58.403696 
L 222.05733 58.685337 
L 222.135206 58.71602 
L 222.934341 59.036508 
L 223.733476 59.36354 
L 224.023695 59.484473 
L 224.532611 59.698466 
L 225.331747 60.040841 
L 225.887903 60.283608 
L 226.130882 60.390647 
L 226.930017 60.748836 
L 227.660972 61.082743 
L 227.729152 61.114178 
L 228.528287 61.488674 
L 229.327422 61.870318 
L 229.351252 61.881878 
L 230.126557 62.261562 
L 230.925693 62.660224 
L 230.966727 62.681013 
L 231.724828 63.068768 
L 232.514683 63.480148 
L 232.523963 63.485028 
L 233.323098 63.91163 
L 233.999832 64.279283 
L 234.122233 64.346434 
L 234.921368 64.79155 
L 235.427923 65.078418 
L 235.720503 65.245759 
L 236.519639 65.710009 
L 236.803629 65.877554 
L 237.318774 66.184535 
L 238.117909 66.668568 
L 238.13113 66.676689 
L 238.917044 67.164372 
L 239.411034 67.475824 
L 239.716179 67.670199 
L 240.515314 68.186974 
L 240.649454 68.274959 
L 241.314449 68.715708 
L 241.846985 69.074094 
L 242.113584 69.255409 
L 242.91272 69.806901 
L 243.007522 69.873229 
L 243.711855 70.371303 
L 244.13139 70.672364 
L 244.51099 70.947724 
L 245.222684 71.4715 
L 245.310125 71.536558 
L 246.10926 72.139192 
L 246.281187 72.270635 
L 246.908395 72.75549 
L 247.309326 73.06977 
L 247.70753 73.385426 
L 248.309127 73.868905 
L 248.506666 74.029466 
L 249.281734 74.66804 
L 249.305801 74.688097 
L 250.104936 75.362641 
L 250.227163 75.467175 
L 250.904071 76.052873 
L 251.147543 76.26631 
L 251.703206 76.759192 
L 252.044042 77.065446 
L 252.502341 77.482176 
L 252.917566 77.864581 
L 253.301476 78.222432 
L 253.768976 78.663716 
L 254.100611 78.980595 
L 254.599093 79.462851 
L 254.899747 79.757331 
L 255.408696 80.261986 
L 255.698882 80.553343 
L 256.198525 81.061121 
L 256.498017 81.369367 
L 256.969287 81.860256 
L 257.297152 82.206177 
L 257.721656 82.659391 
L 258.096287 83.064589 
L 258.456272 83.458527 
L 258.895422 83.945461 
L 259.173749 84.257662 
L 259.694557 84.849697 
L 259.874671 85.056797 
L 260.493693 85.778251 
L 260.559595 85.855932 
L 261.228586 86.655067 
L 261.292828 86.732845 
L 261.882045 87.454202 
L 262.091963 87.714825 
L 262.520956 88.253337 
L 262.891098 88.724627 
L 263.145793 89.052473 
L 263.690233 89.763462 
L 263.757007 89.851608 
L 264.354089 90.650743 
L 264.489368 90.834421 
L 264.937864 91.449878 
L 265.288503 91.938321 
L 265.509209 92.249013 
L 266.068378 93.048148 
L 266.087639 93.076062 
L 266.6143 93.847283 
L 266.886774 94.252566 
L 267.148861 94.646418 
L 267.672315 95.445554 
L 267.685909 95.466606 
L 268.183278 96.244689 
L 268.485044 96.724529 
L 268.683843 97.043824 
L 269.173599 97.842959 
L 269.284179 98.026189 
L 269.652225 98.642094 
L 270.083314 99.375901 
L 270.121319 99.441229 
L 270.579233 100.240364 
L 270.882449 100.778743 
L 271.027896 101.0395 
L 271.466464 101.838635 
L 271.681584 102.237332 
L 271.895594 102.63777 
L 272.315432 103.436905 
L 272.48072 103.75691 
L 272.725879 104.23604 
L 273.127576 105.035175 
L 273.279855 105.343399 
L 273.520146 105.83431 
L 273.904266 106.633446 
L 274.07899 107.003511 
L 274.279721 107.432581 
L 274.646801 108.231716 
L 274.878125 108.74489 
L 275.005864 109.030851 
L 275.356419 109.829986 
L 275.67726 110.576274 
L 275.699777 110.629121 
L 276.034301 111.428256 
L 276.361941 112.227391 
L 276.476395 112.511932 
L 276.681568 113.026527 
L 276.993822 113.825662 
L 277.27553 114.562133 
L 277.299292 114.624797 
L 277.596606 115.423932 
L 277.887437 116.223067 
L 278.074666 116.748619 
L 278.171296 117.022202 
L 278.447772 117.821337 
L 278.717981 118.620473 
L 278.873801 119.091592 
L 278.981374 119.419608 
L 279.237783 120.218743 
L 279.488127 121.017878 
L 279.672936 121.621911 
L 279.732132 121.817013 
L 279.969203 122.616148 
L 280.200402 123.415283 
L 280.425781 124.214418 
L 280.472071 124.382492 
L 280.644455 125.013554 
L 280.857193 125.812689 
L 281.064293 126.611824 
L 281.265802 127.410959 
L 281.271206 127.432938 
L 281.460757 128.210094 
L 281.650219 129.009229 
L 281.834262 129.808364 
L 282.012931 130.6075 
L 282.070341 130.871695 
L 282.185664 131.406635 
L 282.352843 132.20577 
L 282.51481 133.004905 
L 282.671606 133.80404 
L 282.823273 134.603175 
L 282.869476 134.854611 
L 282.969339 135.40231 
L 283.110151 136.201446 
L 283.245986 137.000581 
L 283.376883 137.799716 
L 283.502881 138.598851 
L 283.624019 139.397986 
L 283.668611 139.703859 
L 283.739976 140.197121 
L 283.850951 140.996256 
L 283.957206 141.795391 
L 284.058777 142.594527 
L 284.155701 143.393662 
L 284.248013 144.192797 
L 284.335749 144.991932 
L 284.418945 145.791067 
L 284.467747 146.2862 
L 284.497488 146.590202 
L 284.571344 147.389337 
L 284.640786 148.188473 
L 284.705847 148.987608 
L 284.766561 149.786743 
L 284.822959 150.585878 
L 284.875075 151.385013 
L 284.92294 152.184148 
L 284.966586 152.983283 
L 285.006045 153.782418 
L 285.041347 154.581554 
L 285.072524 155.380689 
L 285.099607 156.179824 
L 285.122624 156.978959 
L 285.141607 157.778094 
L 285.156584 158.577229 
L 285.167586 159.376364 
L 285.174641 160.1755 
L 285.177778 160.974635 
L 285.177025 161.77377 
L 285.172411 162.572905 
L 285.163964 163.37204 
L 285.151711 164.171175 
L 285.13568 164.97031 
L 285.115898 165.769446 
L 285.092391 166.568581 
L 285.065187 167.367716 
L 285.034312 168.166851 
L 284.999792 168.965986 
L 284.961652 169.765121 
L 284.919919 170.564256 
L 284.874618 171.363391 
L 284.825773 172.162527 
L 284.773411 172.961662 
L 284.717555 173.760797 
L 284.65823 174.559932 
L 284.595461 175.359067 
L 284.529271 176.158202 
L 284.467747 176.864551 
L 284.459647 176.957337 
L 284.386362 177.756473 
L 284.309712 178.555608 
L 284.229723 179.354743 
L 284.146416 180.153878 
L 284.059816 180.953013 
L 283.969944 181.752148 
L 283.876823 182.551283 
L 283.780475 183.350418 
L 283.680923 184.149554 
L 283.668611 184.245126 
L 283.577791 184.948689 
L 283.471432 185.747824 
L 283.361922 186.546959 
L 283.249282 187.346094 
L 283.133534 188.145229 
L 283.014698 188.944364 
L 282.892796 189.7435 
L 282.869476 189.892375 
L 282.767407 190.542635 
L 282.638881 191.34177 
L 282.507339 192.140905 
L 282.372802 192.94004 
L 282.23529 193.739175 
L 282.094822 194.53831 
L 282.070341 194.674482 
L 281.950908 195.337446 
L 281.803963 196.136581 
L 281.654112 196.935716 
L 281.501374 197.734851 
L 281.345768 198.533986 
L 281.271206 198.909588 
L 281.186957 199.333121 
L 281.024987 200.132256 
L 280.860198 200.931391 
L 280.692607 201.730527 
L 280.522234 202.529662 
L 280.472071 202.760834 
L 280.348576 203.328797 
L 280.171949 204.127932 
L 279.992587 204.927067 
L 279.810506 205.726202 
L 279.672936 206.320828 
L 279.625526 206.525337 
L 279.437273 207.324473 
L 279.246347 208.123608 
L 279.052765 208.922743 
L 278.873801 209.651465 
L 278.856473 209.721878 
L 278.6568 210.521013 
L 278.454515 211.320148 
L 278.249636 212.119283 
L 278.074666 212.793052 
L 278.042044 212.918418 
L 277.831151 213.717554 
L 277.617708 214.516689 
L 277.40173 215.315824 
L 277.27553 215.776972 
L 277.182851 216.114959 
L 276.960937 216.914094 
L 276.736531 217.713229 
L 276.50965 218.512364 
L 276.476395 218.628026 
L 276.279496 219.3115 
L 276.046755 220.110635 
L 275.811579 220.90977 
L 275.67726 221.361123 
L 275.573558 221.708905 
L 275.332572 222.50804 
L 275.089193 223.307175 
L 274.878125 223.993304 
L 274.843293 224.10631 
L 274.594153 224.905446 
L 274.34266 225.704581 
L 274.088829 226.503716 
L 274.07899 226.534349 
L 273.831664 227.302851 
L 273.572146 228.101986 
L 273.31033 228.901121 
L 273.279855 228.993163 
L 273.045273 229.700256 
L 272.777818 230.499391 
L 272.508103 231.298527 
L 272.48072 231.378838 
L 272.235144 232.097662 
L 271.959838 232.896797 
L 271.682311 233.695932 
L 271.681584 233.698004 
L 271.40144 234.495067 
L 271.118369 235.294202 
L 270.882449 235.954888 
L 270.832915 236.093337 
L 270.544323 236.892473 
L 270.253572 237.691608 
L 270.083314 238.155728 
L 269.960178 238.490743 
L 269.663953 239.289878 
L 269.365607 240.089013 
L 269.284179 240.305258 
L 269.064263 240.888148 
L 268.760489 241.687283 
L 268.485044 242.406804 
L 268.454507 242.486418 
L 268.145329 243.285554 
L 267.834089 244.084689 
L 267.685909 244.462245 
L 267.52013 244.883824 
L 267.203532 245.682959 
L 266.886774 246.477403 
L 266.884899 246.482094 
L 266.562965 247.281229 
L 266.239028 248.080364 
L 266.087639 248.451135 
L 265.912394 248.8795 
L 265.583167 249.678635 
L 265.288503 250.389456 
L 265.251823 250.47777 
L 264.917328 251.276905 
L 264.580887 252.07604 
L 264.489368 252.29185 
L 264.241518 252.875175 
L 263.899855 253.67431 
L 263.690233 254.16148 
L 263.55574 254.473446 
L 263.208877 255.272581 
L 262.891098 256.000608 
L 262.86 256.071716 
L 262.50796 256.870851 
L 262.154053 257.669986 
L 262.091963 257.809216 
L 261.797109 258.469121 
L 261.438068 259.268256 
L 261.292828 259.589483 
L 261.076327 260.067391 
L 260.712177 260.866527 
L 260.493693 261.343219 
L 260.345621 261.665662 
L 259.976383 262.464797 
L 259.694557 263.071497 
L 259.604995 263.263932 
L 259.230691 264.063067 
L 258.895422 264.775334 
L 258.854454 264.862202 
L 258.475107 265.661337 
L 258.096287 266.455692 
L 258.094003 266.460473 
L 257.709636 267.259608 
L 257.323541 268.058743 
L 257.297152 268.113015 
L 256.934281 268.857878 
L 256.543209 269.657013 
L 256.498017 269.748793 
L 256.149049 270.456148 
L 255.753022 271.255283 
L 255.698882 271.363876 
L 255.353944 272.054418 
L 254.952984 272.853554 
L 254.899747 272.959031 
L 254.54897 273.652689 
L 254.143099 274.451824 
L 254.100611 274.53499 
L 253.734133 275.250959 
L 253.323374 276.050094 
L 253.301476 276.092446 
L 252.909439 276.849229 
L 252.502341 277.631933 
L 252.493779 277.648364 
L 252.07489 278.4475 
L 251.703206 279.153742 
L 251.654224 279.246635 
L 251.230493 280.04577 
L 250.904071 280.658829 
L 250.804804 280.844905 
L 250.376253 281.64404 
L 250.104936 282.147774 
L 249.945523 282.443175 
L 249.512173 283.24231 
L 249.305801 283.621134 
L 249.076386 284.041446 
L 248.63826 284.840581 
L 248.506666 285.079439 
L 248.197398 285.639716 
L 247.754518 286.438851 
L 247.70753 286.523195 
L 247.308564 287.237986 
L 246.908395 287.95226 
L 246.86076 288.037121 
L 246.409888 288.836256 
L 246.10926 289.367015 
L 245.956956 289.635391 
L 245.501375 290.434527 
L 245.310125 290.768544 
L 245.043298 291.233662 
L 244.583031 292.032797 
L 244.51099 292.157277 
L 244.119791 292.831932 
L 243.711855 293.532925 
L 243.654631 293.631067 
L 243.18644 294.430202 
L 242.91272 294.895624 
L 242.716081 295.229337 
L 242.24325 296.028473 
L 242.113584 296.246661 
L 241.767673 296.827608 
L 241.314449 297.586117 
L 241.290128 297.626743 
L 240.809415 298.425878 
L 240.515314 298.913043 
L 240.326615 299.225013 
L 239.841309 300.024148 
L 239.716179 300.229322 
L 239.353238 300.823283 
L 238.917044 301.534684 
L 238.863146 301.622418 
L 238.370002 302.421554 
L 238.117909 302.828594 
L 237.874601 303.220689 
L 237.376913 304.019824 
L 237.318774 304.11277 
L 236.876186 304.818959 
L 236.519639 305.385963 
L 236.373386 305.618094 
L 235.867904 306.417229 
L 235.720503 306.649349 
L 235.35974 307.216364 
L 234.921368 307.903088 
L 234.84947 308.0155 
L 234.336215 308.814635 
L 234.122233 309.146619 
L 233.820544 309.61377 
L 233.323098 310.381537 
L 233.302735 310.412905 
L 232.781727 311.21204 
L 232.523963 311.6061 
L 232.258478 312.011175 
L 231.733024 312.81031 
L 231.724828 312.822722 
L 231.204317 313.609446 
L 230.925693 314.029233 
L 230.673418 314.408581 
L 230.140258 315.207716 
L 230.126557 315.228166 
L 229.603864 316.006851 
L 229.327422 316.417388 
L 229.065243 316.805986 
L 228.961927 316.958641 
" clip-path="url(#p82627de7e7)" style="fill: none; stroke: #008000; stroke-width: 1.5"/>
   </g>
   <g id="line2d_15">
    <path d="M 53.118125 277.248797 
" clip-path="url(#p82627de7e7)" style="fill: none; stroke: #ff0000; stroke-width: 1.5; stroke-linecap: square"/>
   </g>
   <g id="line2d_16">
    <path d="M 53.118125 277.248797 
" clip-path="url(#p82627de7e7)" style="fill: none; stroke: #0000ff; stroke-width: 1.5; stroke-linecap: square"/>
   </g>
   <g id="line2d_17">
    <path d="M 53.118125 277.248797 
" clip-path="url(#p82627de7e7)" style="fill: none; stroke: #008000; stroke-width: 1.5; stroke-linecap: square"/>
   </g>
   <g id="patch_3">
    <path d="M 53.118125 277.248797 
L 53.118125 11.136797 
" style="fill: none; stroke: #000000; stroke-width: 0.8; stroke-linejoin: miter; stroke-linecap: square"/>
   </g>
   <g id="patch_4">
    <path d="M 319.230125 277.248797 
L 319.230125 11.136797 
" style="fill: none; stroke: #000000; stroke-width: 0.8; stroke-linejoin: miter; stroke-linecap: square"/>
   </g>
   <g id="patch_5">
    <path d="M 53.118125 277.248797 
L 319.230125 277.248797 
" style="fill: none; stroke: #000000; stroke-width: 0.8; stroke-linejoin: miter; stroke-linecap: square"/>
   </g>
   <g id="patch_6">
    <path d="M 53.118125 11.136797 
L 319.230125 11.136797 
" style="fill: none; stroke: #000000; stroke-width: 0.8; stroke-linejoin: miter; stroke-linecap: square"/>
   </g>
   <g id="legend_1">
    <g id="patch_7">
     <path d="M 328.531725 168.256328 
L 457.891725 168.256328 
Q 460.091725 168.256328 460.091725 166.056328 
L 460.091725 18.836797 
Q 460.091725 16.636797 457.891725 16.636797 
L 328.531725 16.636797 
Q 326.331725 16.636797 326.331725 18.836797 
L 326.331725 166.056328 
Q 326.331725 168.256328 328.531725 168.256328 
z
" style="fill: #ffffff; opacity: 0.8; stroke: #cccccc; stroke-linejoin: miter"/>
    </g>
    <g id="PathCollection_10">
     <g>
      <use xlink:href="#m3d16a013b3" x="341.731725" y="26.179297" style="fill: #ff0000; stroke: #000000"/>
     </g>
    </g>
    <g id="text_17">
     <!-- $\epsilon_p$=0.2% Trial 1 -->
     <g transform="translate(361.531725 29.066797) scale(0.11 -0.11)">
      <defs>
       <path id="DejaVuSans-Oblique-3b5" d="M 1263 1888 
Q 925 1963 778 2166 
Q 669 2309 669 2503 
Q 669 3034 1175 3344 
Q 1575 3588 2188 3588 
Q 2425 3588 2684 3550 
Q 2944 3513 3234 3438 
L 3134 2916 
Q 2847 3006 2606 3047 
Q 2359 3088 2138 3088 
Q 1766 3088 1522 2944 
Q 1228 2772 1228 2522 
Q 1228 2356 1381 2241 
Q 1563 2103 1925 2103 
L 2409 2103 
L 2319 1628 
L 1856 1628 
Q 1425 1628 1172 1469 
Q 828 1253 828 916 
Q 828 703 1013 563 
Q 1244 388 1716 388 
Q 2006 388 2284 444 
Q 2563 503 2806 619 
L 2700 84 
Q 2403 -3 2131 -47 
Q 1859 -91 1609 -91 
Q 866 -91 516 194 
Q 250 413 250 781 
Q 250 1278 600 1584 
Q 859 1813 1263 1888 
z
" transform="scale(0.015625)"/>
       <path id="DejaVuSans-Oblique-70" d="M 3175 2156 
Q 3175 2616 2975 2859 
Q 2775 3103 2400 3103 
Q 2144 3103 1911 2972 
Q 1678 2841 1497 2591 
Q 1319 2344 1212 1994 
Q 1106 1644 1106 1300 
Q 1106 863 1306 627 
Q 1506 391 1875 391 
Q 2147 391 2380 519 
Q 2613 647 2778 891 
Q 2956 1147 3065 1494 
Q 3175 1841 3175 2156 
z
M 1394 2969 
Q 1625 3272 1939 3428 
Q 2253 3584 2638 3584 
Q 3175 3584 3472 3232 
Q 3769 2881 3769 2247 
Q 3769 1728 3584 1258 
Q 3400 788 3053 416 
Q 2822 169 2531 39 
Q 2241 -91 1919 -91 
Q 1547 -91 1294 64 
Q 1041 219 916 525 
L 556 -1331 
L -19 -1331 
L 922 3500 
L 1497 3500 
L 1394 2969 
z
" transform="scale(0.015625)"/>
       <path id="ArialMT-3d" d="M 3381 2694 
L 356 2694 
L 356 3219 
L 3381 3219 
L 3381 2694 
z
M 3381 1303 
L 356 1303 
L 356 1828 
L 3381 1828 
L 3381 1303 
z
" transform="scale(0.015625)"/>
       <path id="ArialMT-2e" d="M 581 0 
L 581 641 
L 1222 641 
L 1222 0 
L 581 0 
z
" transform="scale(0.015625)"/>
       <path id="ArialMT-25" d="M 372 3481 
Q 372 3972 619 4315 
Q 866 4659 1334 4659 
Q 1766 4659 2048 4351 
Q 2331 4044 2331 3447 
Q 2331 2866 2045 2552 
Q 1759 2238 1341 2238 
Q 925 2238 648 2547 
Q 372 2856 372 3481 
z
M 1350 4272 
Q 1141 4272 1002 4090 
Q 863 3909 863 3425 
Q 863 2984 1003 2804 
Q 1144 2625 1350 2625 
Q 1563 2625 1702 2806 
Q 1841 2988 1841 3469 
Q 1841 3913 1700 4092 
Q 1559 4272 1350 4272 
z
M 1353 -169 
L 3859 4659 
L 4316 4659 
L 1819 -169 
L 1353 -169 
z
M 3334 1075 
Q 3334 1569 3581 1911 
Q 3828 2253 4300 2253 
Q 4731 2253 5014 1945 
Q 5297 1638 5297 1041 
Q 5297 459 5011 145 
Q 4725 -169 4303 -169 
Q 3888 -169 3611 142 
Q 3334 453 3334 1075 
z
M 4316 1866 
Q 4103 1866 3964 1684 
Q 3825 1503 3825 1019 
Q 3825 581 3965 400 
Q 4106 219 4313 219 
Q 4528 219 4667 400 
Q 4806 581 4806 1063 
Q 4806 1506 4665 1686 
Q 4525 1866 4316 1866 
z
" transform="scale(0.015625)"/>
       <path id="ArialMT-54" d="M 1659 0 
L 1659 4041 
L 150 4041 
L 150 4581 
L 3781 4581 
L 3781 4041 
L 2266 4041 
L 2266 0 
L 1659 0 
z
" transform="scale(0.015625)"/>
       <path id="ArialMT-72" d="M 416 0 
L 416 3319 
L 922 3319 
L 922 2816 
Q 1116 3169 1280 3281 
Q 1444 3394 1641 3394 
Q 1925 3394 2219 3213 
L 2025 2691 
Q 1819 2813 1613 2813 
Q 1428 2813 1281 2702 
Q 1134 2591 1072 2394 
Q 978 2094 978 1738 
L 978 0 
L 416 0 
z
" transform="scale(0.015625)"/>
       <path id="ArialMT-69" d="M 425 3934 
L 425 4581 
L 988 4581 
L 988 3934 
L 425 3934 
z
M 425 0 
L 425 3319 
L 988 3319 
L 988 0 
L 425 0 
z
" transform="scale(0.015625)"/>
       <path id="ArialMT-6c" d="M 409 0 
L 409 4581 
L 972 4581 
L 972 0 
L 409 0 
z
" transform="scale(0.015625)"/>
      </defs>
      <use xlink:href="#DejaVuSans-Oblique-3b5" transform="translate(0 0.203125)"/>
      <use xlink:href="#DejaVuSans-Oblique-70" transform="translate(54.052734 -16.203125) scale(0.7)"/>
      <use xlink:href="#ArialMT-3d" transform="translate(101.220703 0.203125)"/>
      <use xlink:href="#ArialMT-30" transform="translate(159.619141 0.203125)"/>
      <use xlink:href="#ArialMT-2e" transform="translate(215.234375 0.203125)"/>
      <use xlink:href="#ArialMT-32" transform="translate(243.017578 0.203125)"/>
      <use xlink:href="#ArialMT-25" transform="translate(298.632812 0.203125)"/>
      <use xlink:href="#ArialMT-20" transform="translate(387.548828 0.203125)"/>
      <use xlink:href="#ArialMT-54" transform="translate(415.332031 0.203125)"/>
      <use xlink:href="#ArialMT-72" transform="translate(476.416016 0.203125)"/>
      <use xlink:href="#ArialMT-69" transform="translate(509.716797 0.203125)"/>
      <use xlink:href="#ArialMT-61" transform="translate(531.933594 0.203125)"/>
      <use xlink:href="#ArialMT-6c" transform="translate(587.548828 0.203125)"/>
      <use xlink:href="#ArialMT-20" transform="translate(609.765625 0.203125)"/>
      <use xlink:href="#ArialMT-31" transform="translate(637.548828 0.203125)"/>
     </g>
    </g>
    <g id="PathCollection_11">
     <g>
      <use xlink:href="#m73ac29bf19" x="341.731725" y="43.119297" style="fill: #ff0000; stroke: #000000"/>
     </g>
    </g>
    <g id="text_18">
     <!-- $\epsilon_p$=0.2% Trial 2 -->
     <g transform="translate(361.531725 46.006797) scale(0.11 -0.11)">
      <use xlink:href="#DejaVuSans-Oblique-3b5" transform="translate(0 0.203125)"/>
      <use xlink:href="#DejaVuSans-Oblique-70" transform="translate(54.052734 -16.203125) scale(0.7)"/>
      <use xlink:href="#ArialMT-3d" transform="translate(101.220703 0.203125)"/>
      <use xlink:href="#ArialMT-30" transform="translate(159.619141 0.203125)"/>
      <use xlink:href="#ArialMT-2e" transform="translate(215.234375 0.203125)"/>
      <use xlink:href="#ArialMT-32" transform="translate(243.017578 0.203125)"/>
      <use xlink:href="#ArialMT-25" transform="translate(298.632812 0.203125)"/>
      <use xlink:href="#ArialMT-20" transform="translate(387.548828 0.203125)"/>
      <use xlink:href="#ArialMT-54" transform="translate(415.332031 0.203125)"/>
      <use xlink:href="#ArialMT-72" transform="translate(476.416016 0.203125)"/>
      <use xlink:href="#ArialMT-69" transform="translate(509.716797 0.203125)"/>
      <use xlink:href="#ArialMT-61" transform="translate(531.933594 0.203125)"/>
      <use xlink:href="#ArialMT-6c" transform="translate(587.548828 0.203125)"/>
      <use xlink:href="#ArialMT-20" transform="translate(609.765625 0.203125)"/>
      <use xlink:href="#ArialMT-32" transform="translate(637.548828 0.203125)"/>
     </g>
    </g>
    <g id="PathCollection_12">
     <g>
      <use xlink:href="#m97b58c85aa" x="341.731725" y="60.059297" style="fill: #0000ff; stroke: #000000"/>
     </g>
    </g>
    <g id="text_19">
     <!-- $\epsilon_p$=0.5% Trial 1 -->
     <g transform="translate(361.531725 62.946797) scale(0.11 -0.11)">
      <defs>
       <path id="ArialMT-35" d="M 266 1200 
L 856 1250 
Q 922 819 1161 601 
Q 1400 384 1738 384 
Q 2144 384 2425 690 
Q 2706 997 2706 1503 
Q 2706 1984 2436 2262 
Q 2166 2541 1728 2541 
Q 1456 2541 1237 2417 
Q 1019 2294 894 2097 
L 366 2166 
L 809 4519 
L 3088 4519 
L 3088 3981 
L 1259 3981 
L 1013 2750 
Q 1425 3038 1878 3038 
Q 2478 3038 2890 2622 
Q 3303 2206 3303 1553 
Q 3303 931 2941 478 
Q 2500 -78 1738 -78 
Q 1113 -78 717 272 
Q 322 622 266 1200 
z
" transform="scale(0.015625)"/>
      </defs>
      <use xlink:href="#DejaVuSans-Oblique-3b5" transform="translate(0 0.203125)"/>
      <use xlink:href="#DejaVuSans-Oblique-70" transform="translate(54.052734 -16.203125) scale(0.7)"/>
      <use xlink:href="#ArialMT-3d" transform="translate(101.220703 0.203125)"/>
      <use xlink:href="#ArialMT-30" transform="translate(159.619141 0.203125)"/>
      <use xlink:href="#ArialMT-2e" transform="translate(215.234375 0.203125)"/>
      <use xlink:href="#ArialMT-35" transform="translate(243.017578 0.203125)"/>
      <use xlink:href="#ArialMT-25" transform="translate(298.632812 0.203125)"/>
      <use xlink:href="#ArialMT-20" transform="translate(387.548828 0.203125)"/>
      <use xlink:href="#ArialMT-54" transform="translate(415.332031 0.203125)"/>
      <use xlink:href="#ArialMT-72" transform="translate(476.416016 0.203125)"/>
      <use xlink:href="#ArialMT-69" transform="translate(509.716797 0.203125)"/>
      <use xlink:href="#ArialMT-61" transform="translate(531.933594 0.203125)"/>
      <use xlink:href="#ArialMT-6c" transform="translate(587.548828 0.203125)"/>
      <use xlink:href="#ArialMT-20" transform="translate(609.765625 0.203125)"/>
      <use xlink:href="#ArialMT-31" transform="translate(637.548828 0.203125)"/>
     </g>
    </g>
    <g id="PathCollection_13">
     <g>
      <use xlink:href="#medcdd7ad56" x="341.731725" y="76.999297" style="fill: #0000ff; stroke: #000000"/>
     </g>
    </g>
    <g id="text_20">
     <!-- $\epsilon_p$=0.5% Trial 2 -->
     <g transform="translate(361.531725 79.886797) scale(0.11 -0.11)">
      <use xlink:href="#DejaVuSans-Oblique-3b5" transform="translate(0 0.203125)"/>
      <use xlink:href="#DejaVuSans-Oblique-70" transform="translate(54.052734 -16.203125) scale(0.7)"/>
      <use xlink:href="#ArialMT-3d" transform="translate(101.220703 0.203125)"/>
      <use xlink:href="#ArialMT-30" transform="translate(159.619141 0.203125)"/>
      <use xlink:href="#ArialMT-2e" transform="translate(215.234375 0.203125)"/>
      <use xlink:href="#ArialMT-35" transform="translate(243.017578 0.203125)"/>
      <use xlink:href="#ArialMT-25" transform="translate(298.632812 0.203125)"/>
      <use xlink:href="#ArialMT-20" transform="translate(387.548828 0.203125)"/>
      <use xlink:href="#ArialMT-54" transform="translate(415.332031 0.203125)"/>
      <use xlink:href="#ArialMT-72" transform="translate(476.416016 0.203125)"/>
      <use xlink:href="#ArialMT-69" transform="translate(509.716797 0.203125)"/>
      <use xlink:href="#ArialMT-61" transform="translate(531.933594 0.203125)"/>
      <use xlink:href="#ArialMT-6c" transform="translate(587.548828 0.203125)"/>
      <use xlink:href="#ArialMT-20" transform="translate(609.765625 0.203125)"/>
      <use xlink:href="#ArialMT-32" transform="translate(637.548828 0.203125)"/>
     </g>
    </g>
    <g id="PathCollection_14">
     <g>
      <use xlink:href="#ma65bed4664" x="341.731725" y="93.939297" style="fill: #008000; stroke: #000000"/>
     </g>
    </g>
    <g id="text_21">
     <!-- $\epsilon_p$=1.0% Trial 1 -->
     <g transform="translate(361.531725 96.826797) scale(0.11 -0.11)">
      <use xlink:href="#DejaVuSans-Oblique-3b5" transform="translate(0 0.203125)"/>
      <use xlink:href="#DejaVuSans-Oblique-70" transform="translate(54.052734 -16.203125) scale(0.7)"/>
      <use xlink:href="#ArialMT-3d" transform="translate(101.220703 0.203125)"/>
      <use xlink:href="#ArialMT-31" transform="translate(159.619141 0.203125)"/>
      <use xlink:href="#ArialMT-2e" transform="translate(215.234375 0.203125)"/>
      <use xlink:href="#ArialMT-30" transform="translate(243.017578 0.203125)"/>
      <use xlink:href="#ArialMT-25" transform="translate(298.632812 0.203125)"/>
      <use xlink:href="#ArialMT-20" transform="translate(387.548828 0.203125)"/>
      <use xlink:href="#ArialMT-54" transform="translate(415.332031 0.203125)"/>
      <use xlink:href="#ArialMT-72" transform="translate(476.416016 0.203125)"/>
      <use xlink:href="#ArialMT-69" transform="translate(509.716797 0.203125)"/>
      <use xlink:href="#ArialMT-61" transform="translate(531.933594 0.203125)"/>
      <use xlink:href="#ArialMT-6c" transform="translate(587.548828 0.203125)"/>
      <use xlink:href="#ArialMT-20" transform="translate(609.765625 0.203125)"/>
      <use xlink:href="#ArialMT-31" transform="translate(637.548828 0.203125)"/>
     </g>
    </g>
    <g id="PathCollection_15">
     <g>
      <use xlink:href="#m838db50506" x="341.731725" y="110.879297" style="fill: #008000; stroke: #000000"/>
     </g>
    </g>
    <g id="text_22">
     <!-- $\epsilon_p$=1.0% Trial 2 -->
     <g transform="translate(361.531725 113.766797) scale(0.11 -0.11)">
      <use xlink:href="#DejaVuSans-Oblique-3b5" transform="translate(0 0.203125)"/>
      <use xlink:href="#DejaVuSans-Oblique-70" transform="translate(54.052734 -16.203125) scale(0.7)"/>
      <use xlink:href="#ArialMT-3d" transform="translate(101.220703 0.203125)"/>
      <use xlink:href="#ArialMT-31" transform="translate(159.619141 0.203125)"/>
      <use xlink:href="#ArialMT-2e" transform="translate(215.234375 0.203125)"/>
      <use xlink:href="#ArialMT-30" transform="translate(243.017578 0.203125)"/>
      <use xlink:href="#ArialMT-25" transform="translate(298.632812 0.203125)"/>
      <use xlink:href="#ArialMT-20" transform="translate(387.548828 0.203125)"/>
      <use xlink:href="#ArialMT-54" transform="translate(415.332031 0.203125)"/>
      <use xlink:href="#ArialMT-72" transform="translate(476.416016 0.203125)"/>
      <use xlink:href="#ArialMT-69" transform="translate(509.716797 0.203125)"/>
      <use xlink:href="#ArialMT-61" transform="translate(531.933594 0.203125)"/>
      <use xlink:href="#ArialMT-6c" transform="translate(587.548828 0.203125)"/>
      <use xlink:href="#ArialMT-20" transform="translate(609.765625 0.203125)"/>
      <use xlink:href="#ArialMT-32" transform="translate(637.548828 0.203125)"/>
     </g>
    </g>
    <g id="line2d_18">
     <path d="M 330.731725 126.700391 
L 341.731725 126.700391 
L 352.731725 126.700391 
" style="fill: none; stroke: #ff0000; stroke-width: 1.5; stroke-linecap: square"/>
    </g>
    <g id="text_23">
     <!-- Hill48 $\bar \sigma$ = 690 MPa -->
     <g transform="translate(361.531725 130.550391) scale(0.11 -0.11)">
      <defs>
       <path id="ArialMT-48" d="M 513 0 
L 513 4581 
L 1119 4581 
L 1119 2700 
L 3500 2700 
L 3500 4581 
L 4106 4581 
L 4106 0 
L 3500 0 
L 3500 2159 
L 1119 2159 
L 1119 0 
L 513 0 
z
" transform="scale(0.015625)"/>
       <path id="DejaVuSans-304" d="M -2518 4769 
L -650 4769 
L -650 4306 
L -2518 4306 
L -2518 4769 
z
" transform="scale(0.015625)"/>
       <path id="ArialMT-39" d="M 350 1059 
L 891 1109 
Q 959 728 1153 556 
Q 1347 384 1650 384 
Q 1909 384 2104 503 
Q 2300 622 2425 820 
Q 2550 1019 2634 1356 
Q 2719 1694 2719 2044 
Q 2719 2081 2716 2156 
Q 2547 1888 2255 1720 
Q 1963 1553 1622 1553 
Q 1053 1553 659 1965 
Q 266 2378 266 3053 
Q 266 3750 677 4175 
Q 1088 4600 1706 4600 
Q 2153 4600 2523 4359 
Q 2894 4119 3086 3673 
Q 3278 3228 3278 2384 
Q 3278 1506 3087 986 
Q 2897 466 2520 194 
Q 2144 -78 1638 -78 
Q 1100 -78 759 220 
Q 419 519 350 1059 
z
M 2653 3081 
Q 2653 3566 2395 3850 
Q 2138 4134 1775 4134 
Q 1400 4134 1122 3828 
Q 844 3522 844 3034 
Q 844 2597 1108 2323 
Q 1372 2050 1759 2050 
Q 2150 2050 2401 2323 
Q 2653 2597 2653 3081 
z
" transform="scale(0.015625)"/>
      </defs>
      <use xlink:href="#ArialMT-48" transform="translate(0 0.53125)"/>
      <use xlink:href="#ArialMT-69" transform="translate(72.216797 0.53125)"/>
      <use xlink:href="#ArialMT-6c" transform="translate(94.433594 0.53125)"/>
      <use xlink:href="#ArialMT-6c" transform="translate(116.650391 0.53125)"/>
      <use xlink:href="#ArialMT-34" transform="translate(138.867188 0.53125)"/>
      <use xlink:href="#ArialMT-38" transform="translate(194.482422 0.53125)"/>
      <use xlink:href="#ArialMT-20" transform="translate(250.097656 0.53125)"/>
      <use xlink:href="#DejaVuSans-304" transform="translate(341.947266 0.484375)"/>
      <use xlink:href="#DejaVuSans-Oblique-3c3" transform="translate(277.880859 0.53125)"/>
      <use xlink:href="#ArialMT-20" transform="translate(341.259766 0.53125)"/>
      <use xlink:href="#ArialMT-3d" transform="translate(369.042969 0.53125)"/>
      <use xlink:href="#ArialMT-20" transform="translate(427.441406 0.53125)"/>
      <use xlink:href="#ArialMT-36" transform="translate(455.224609 0.53125)"/>
      <use xlink:href="#ArialMT-39" transform="translate(510.839844 0.53125)"/>
      <use xlink:href="#ArialMT-30" transform="translate(566.455078 0.53125)"/>
      <use xlink:href="#ArialMT-20" transform="translate(622.070312 0.53125)"/>
      <use xlink:href="#ArialMT-4d" transform="translate(649.853516 0.53125)"/>
      <use xlink:href="#ArialMT-50" transform="translate(733.154297 0.53125)"/>
      <use xlink:href="#ArialMT-61" transform="translate(799.853516 0.53125)"/>
     </g>
    </g>
    <g id="line2d_19">
     <path d="M 330.731725 142.260234 
L 341.731725 142.260234 
L 352.731725 142.260234 
" style="fill: none; stroke: #0000ff; stroke-width: 1.5; stroke-linecap: square"/>
    </g>
    <g id="text_24">
     <!-- Hill48 $\bar \sigma$ = 800 MPa -->
     <g transform="translate(361.531725 146.110234) scale(0.11 -0.11)">
      <use xlink:href="#ArialMT-48" transform="translate(0 0.53125)"/>
      <use xlink:href="#ArialMT-69" transform="translate(72.216797 0.53125)"/>
      <use xlink:href="#ArialMT-6c" transform="translate(94.433594 0.53125)"/>
      <use xlink:href="#ArialMT-6c" transform="translate(116.650391 0.53125)"/>
      <use xlink:href="#ArialMT-34" transform="translate(138.867188 0.53125)"/>
      <use xlink:href="#ArialMT-38" transform="translate(194.482422 0.53125)"/>
      <use xlink:href="#ArialMT-20" transform="translate(250.097656 0.53125)"/>
      <use xlink:href="#DejaVuSans-304" transform="translate(341.947266 0.484375)"/>
      <use xlink:href="#DejaVuSans-Oblique-3c3" transform="translate(277.880859 0.53125)"/>
      <use xlink:href="#ArialMT-20" transform="translate(341.259766 0.53125)"/>
      <use xlink:href="#ArialMT-3d" transform="translate(369.042969 0.53125)"/>
      <use xlink:href="#ArialMT-20" transform="translate(427.441406 0.53125)"/>
      <use xlink:href="#ArialMT-38" transform="translate(455.224609 0.53125)"/>
      <use xlink:href="#ArialMT-30" transform="translate(510.839844 0.53125)"/>
      <use xlink:href="#ArialMT-30" transform="translate(566.455078 0.53125)"/>
      <use xlink:href="#ArialMT-20" transform="translate(622.070312 0.53125)"/>
      <use xlink:href="#ArialMT-4d" transform="translate(649.853516 0.53125)"/>
      <use xlink:href="#ArialMT-50" transform="translate(733.154297 0.53125)"/>
      <use xlink:href="#ArialMT-61" transform="translate(799.853516 0.53125)"/>
     </g>
    </g>
    <g id="line2d_20">
     <path d="M 330.731725 157.820078 
L 341.731725 157.820078 
L 352.731725 157.820078 
" style="fill: none; stroke: #008000; stroke-width: 1.5; stroke-linecap: square"/>
    </g>
    <g id="text_25">
     <!-- Hill48 $\bar \sigma$ = 900 MPa -->
     <g transform="translate(361.531725 161.670078) scale(0.11 -0.11)">
      <use xlink:href="#ArialMT-48" transform="translate(0 0.53125)"/>
      <use xlink:href="#ArialMT-69" transform="translate(72.216797 0.53125)"/>
      <use xlink:href="#ArialMT-6c" transform="translate(94.433594 0.53125)"/>
      <use xlink:href="#ArialMT-6c" transform="translate(116.650391 0.53125)"/>
      <use xlink:href="#ArialMT-34" transform="translate(138.867188 0.53125)"/>
      <use xlink:href="#ArialMT-38" transform="translate(194.482422 0.53125)"/>
      <use xlink:href="#ArialMT-20" transform="translate(250.097656 0.53125)"/>
      <use xlink:href="#DejaVuSans-304" transform="translate(341.947266 0.484375)"/>
      <use xlink:href="#DejaVuSans-Oblique-3c3" transform="translate(277.880859 0.53125)"/>
      <use xlink:href="#ArialMT-20" transform="translate(341.259766 0.53125)"/>
      <use xlink:href="#ArialMT-3d" transform="translate(369.042969 0.53125)"/>
      <use xlink:href="#ArialMT-20" transform="translate(427.441406 0.53125)"/>
      <use xlink:href="#ArialMT-39" transform="translate(455.224609 0.53125)"/>
      <use xlink:href="#ArialMT-30" transform="translate(510.839844 0.53125)"/>
      <use xlink:href="#ArialMT-30" transform="translate(566.455078 0.53125)"/>
      <use xlink:href="#ArialMT-20" transform="translate(622.070312 0.53125)"/>
      <use xlink:href="#ArialMT-4d" transform="translate(649.853516 0.53125)"/>
      <use xlink:href="#ArialMT-50" transform="translate(733.154297 0.53125)"/>
      <use xlink:href="#ArialMT-61" transform="translate(799.853516 0.53125)"/>
     </g>
    </g>
   </g>
  </g>
 </g>
 <defs>
  <clipPath id="p82627de7e7">
   <rect x="53.118125" y="11.136797" width="266.112" height="266.112"/>
  </clipPath>
 </defs>
</svg>
