<?xml version="1.0" encoding="utf-8" standalone="no"?>
<!DOCTYPE svg PUBLIC "-//W3C//DTD SVG 1.1//EN"
  "http://www.w3.org/Graphics/SVG/1.1/DTD/svg11.dtd">
<svg xmlns:xlink="http://www.w3.org/1999/xlink" width="467.291725pt" height="315.958641pt" viewBox="0 0 467.291725 315.958641" xmlns="http://www.w3.org/2000/svg" version="1.1">
 <metadata>
  <rdf:RDF xmlns:dc="http://purl.org/dc/elements/1.1/" xmlns:cc="http://creativecommons.org/ns#" xmlns:rdf="http://www.w3.org/1999/02/22-rdf-syntax-ns#">
   <cc:Work>
    <dc:type rdf:resource="http://purl.org/dc/dcmitype/StillImage"/>
    <dc:date>2023-03-09T02:27:12.421560</dc:date>
    <dc:format>image/svg+xml</dc:format>
    <dc:creator>
     <cc:Agent>
      <dc:title>Matplotlib v3.6.2, https://matplotlib.org/</dc:title>
     </cc:Agent>
    </dc:creator>
   </cc:Work>
  </rdf:RDF>
 </metadata>
 <defs>
  <style type="text/css">*{stroke-linejoin: round; stroke-linecap: butt}</style>
 </defs>
 <g id="figure_1">
  <g id="patch_1">
   <path d="M 0 315.958641 
L 467.291725 315.958641 
L 467.291725 0 
L 0 0 
z
" style="fill: #ffffff"/>
  </g>
  <g id="axes_1">
   <g id="patch_2">
    <path d="M 53.118125 277.248797 
L 319.230125 277.248797 
L 319.230125 11.136797 
L 53.118125 11.136797 
z
" style="fill: #ffffff"/>
   </g>
   <g id="PathCollection_1">
    <defs>
     <path id="m3f91b26087" d="M 0 4.472136 
C 1.186024 4.472136 2.323632 4.000923 3.162278 3.162278 
C 4.000923 2.323632 4.472136 1.186024 4.472136 0 
C 4.472136 -1.186024 4.000923 -2.323632 3.162278 -3.162278 
C 2.323632 -4.000923 1.186024 -4.472136 0 -4.472136 
C -1.186024 -4.472136 -2.323632 -4.000923 -3.162278 -3.162278 
C -4.000923 -2.323632 -4.472136 -1.186024 -4.472136 0 
C -4.472136 1.186024 -4.000923 2.323632 -3.162278 3.162278 
C -2.323632 4.000923 -1.186024 4.472136 0 4.472136 
z
" style="stroke: #000000"/>
    </defs>
    <g clip-path="url(#pc0dc793199)">
     <use xlink:href="#m3f91b26087" x="207.789072" y="277.248797" style="fill: #ff0000; stroke: #000000"/>
     <use xlink:href="#m3f91b26087" x="245.526415" y="180.752372" style="fill: #ff0000; stroke: #000000"/>
     <use xlink:href="#m3f91b26087" x="212.435609" y="118.437369" style="fill: #ff0000; stroke: #000000"/>
     <use xlink:href="#m3f91b26087" x="148.227219" y="87.284524" style="fill: #ff0000; stroke: #000000"/>
     <use xlink:href="#m3f91b26087" x="53.118125" y="122.57785" style="fill: #ff0000; stroke: #000000"/>
    </g>
   </g>
   <g id="PathCollection_2">
    <defs>
     <path id="m13ebc2f87f" d="M 0 -4.472136 
L -4.472136 4.472136 
L 4.472136 4.472136 
z
" style="stroke: #000000"/>
    </defs>
    <g clip-path="url(#pc0dc793199)">
     <use xlink:href="#m13ebc2f87f" x="207.789072" y="277.248797" style="fill: #ff0000; stroke: #000000"/>
     <use xlink:href="#m13ebc2f87f" x="241.619447" y="182.586771" style="fill: #ff0000; stroke: #000000"/>
     <use xlink:href="#m13ebc2f87f" x="210.222223" y="120.680249" style="fill: #ff0000; stroke: #000000"/>
     <use xlink:href="#m13ebc2f87f" x="145.127458" y="92.616078" style="fill: #ff0000; stroke: #000000"/>
     <use xlink:href="#m13ebc2f87f" x="53.118125" y="122.57785" style="fill: #ff0000; stroke: #000000"/>
    </g>
   </g>
   <g id="PathCollection_3">
    <defs>
     <path id="m67f1e48e14" d="M 0 4.472136 
C 1.186024 4.472136 2.323632 4.000923 3.162278 3.162278 
C 4.000923 2.323632 4.472136 1.186024 4.472136 0 
C 4.472136 -1.186024 4.000923 -2.323632 3.162278 -3.162278 
C 2.323632 -4.000923 1.186024 -4.472136 0 -4.472136 
C -1.186024 -4.472136 -2.323632 -4.000923 -3.162278 -3.162278 
C -4.000923 -2.323632 -4.472136 -1.186024 -4.472136 0 
C -4.472136 1.186024 -4.000923 2.323632 -3.162278 3.162278 
C -2.323632 4.000923 -1.186024 4.472136 0 4.472136 
z
" style="stroke: #000000"/>
    </defs>
    <g clip-path="url(#pc0dc793199)">
     <use xlink:href="#m67f1e48e14" x="230.260013" y="277.248797" style="fill: #0000ff; stroke: #000000"/>
     <use xlink:href="#m67f1e48e14" x="269.025435" y="169.147671" style="fill: #0000ff; stroke: #000000"/>
     <use xlink:href="#m67f1e48e14" x="234.172303" y="96.463614" style="fill: #0000ff; stroke: #000000"/>
     <use xlink:href="#m67f1e48e14" x="161.931765" y="60.105618" style="fill: #0000ff; stroke: #000000"/>
     <use xlink:href="#m67f1e48e14" x="53.118125" y="100.106909" style="fill: #0000ff; stroke: #000000"/>
    </g>
   </g>
   <g id="PathCollection_4">
    <defs>
     <path id="mbd7002dd64" d="M 0 -4.472136 
L -4.472136 4.472136 
L 4.472136 4.472136 
z
" style="stroke: #000000"/>
    </defs>
    <g clip-path="url(#pc0dc793199)">
     <use xlink:href="#mbd7002dd64" x="230.260013" y="277.248797" style="fill: #0000ff; stroke: #000000"/>
     <use xlink:href="#mbd7002dd64" x="266.973046" y="170.007657" style="fill: #0000ff; stroke: #000000"/>
     <use xlink:href="#mbd7002dd64" x="232.15717" y="98.523099" style="fill: #0000ff; stroke: #000000"/>
     <use xlink:href="#mbd7002dd64" x="160.058559" y="63.280778" style="fill: #0000ff; stroke: #000000"/>
     <use xlink:href="#mbd7002dd64" x="53.118125" y="100.106909" style="fill: #0000ff; stroke: #000000"/>
    </g>
   </g>
   <g id="PathCollection_5">
    <defs>
     <path id="m8da0d4570a" d="M 0 4.472136 
C 1.186024 4.472136 2.323632 4.000923 3.162278 3.162278 
C 4.000923 2.323632 4.472136 1.186024 4.472136 0 
C 4.472136 -1.186024 4.000923 -2.323632 3.162278 -3.162278 
C 2.323632 -4.000923 1.186024 -4.472136 0 -4.472136 
C -1.186024 -4.472136 -2.323632 -4.000923 -3.162278 -3.162278 
C -4.000923 -2.323632 -4.472136 -1.186024 -4.472136 0 
C -4.472136 1.186024 -4.000923 2.323632 -3.162278 3.162278 
C -2.323632 4.000923 -1.186024 4.472136 0 4.472136 
z
" style="stroke: #000000"/>
    </defs>
    <g clip-path="url(#pc0dc793199)">
     <use xlink:href="#m8da0d4570a" x="249.019357" y="277.248797" style="fill: #008000; stroke: #000000"/>
     <use xlink:href="#m8da0d4570a" x="289.062116" y="158.949816" style="fill: #008000; stroke: #000000"/>
     <use xlink:href="#m8da0d4570a" x="253.180018" y="77.287361" style="fill: #008000; stroke: #000000"/>
     <use xlink:href="#m8da0d4570a" x="173.213805" y="37.88194" style="fill: #008000; stroke: #000000"/>
     <use xlink:href="#m8da0d4570a" x="53.118125" y="81.347565" style="fill: #008000; stroke: #000000"/>
    </g>
   </g>
   <g id="PathCollection_6">
    <defs>
     <path id="me310f38e40" d="M 0 -4.472136 
L -4.472136 4.472136 
L 4.472136 4.472136 
z
" style="stroke: #000000"/>
    </defs>
    <g clip-path="url(#pc0dc793199)">
     <use xlink:href="#me310f38e40" x="249.019357" y="277.248797" style="fill: #008000; stroke: #000000"/>
     <use xlink:href="#me310f38e40" x="287.751071" y="159.519739" style="fill: #008000; stroke: #000000"/>
     <use xlink:href="#me310f38e40" x="250.854864" y="79.872418" style="fill: #008000; stroke: #000000"/>
     <use xlink:href="#me310f38e40" x="171.662594" y="40.213746" style="fill: #008000; stroke: #000000"/>
     <use xlink:href="#me310f38e40" x="53.118125" y="81.347565" style="fill: #008000; stroke: #000000"/>
    </g>
   </g>
   <g id="matplotlib.axis_1">
    <g id="xtick_1">
     <g id="line2d_1">
      <defs>
       <path id="macbe7b0fca" d="M 0 0 
L 0 3.5 
" style="stroke: #000000; stroke-width: 0.8"/>
      </defs>
      <g>
       <use xlink:href="#macbe7b0fca" x="53.118125" y="277.248797" style="stroke: #000000; stroke-width: 0.8"/>
      </g>
     </g>
     <g id="text_1">
      <!-- 0 -->
      <g transform="translate(50.059609 292.122391) scale(0.11 -0.11)">
       <defs>
        <path id="ArialMT-30" d="M 266 2259 
Q 266 3072 433 3567 
Q 600 4063 929 4331 
Q 1259 4600 1759 4600 
Q 2128 4600 2406 4451 
Q 2684 4303 2865 4023 
Q 3047 3744 3150 3342 
Q 3253 2941 3253 2259 
Q 3253 1453 3087 958 
Q 2922 463 2592 192 
Q 2263 -78 1759 -78 
Q 1097 -78 719 397 
Q 266 969 266 2259 
z
M 844 2259 
Q 844 1131 1108 757 
Q 1372 384 1759 384 
Q 2147 384 2411 759 
Q 2675 1134 2675 2259 
Q 2675 3391 2411 3762 
Q 2147 4134 1753 4134 
Q 1366 4134 1134 3806 
Q 844 3388 844 2259 
z
" transform="scale(0.015625)"/>
       </defs>
       <use xlink:href="#ArialMT-30"/>
      </g>
     </g>
    </g>
    <g id="xtick_2">
     <g id="line2d_2">
      <g>
       <use xlink:href="#macbe7b0fca" x="97.470125" y="277.248797" style="stroke: #000000; stroke-width: 0.8"/>
      </g>
     </g>
     <g id="text_2">
      <!-- 200 -->
      <g transform="translate(88.294578 292.122391) scale(0.11 -0.11)">
       <defs>
        <path id="ArialMT-32" d="M 3222 541 
L 3222 0 
L 194 0 
Q 188 203 259 391 
Q 375 700 629 1000 
Q 884 1300 1366 1694 
Q 2113 2306 2375 2664 
Q 2638 3022 2638 3341 
Q 2638 3675 2398 3904 
Q 2159 4134 1775 4134 
Q 1369 4134 1125 3890 
Q 881 3647 878 3216 
L 300 3275 
Q 359 3922 746 4261 
Q 1134 4600 1788 4600 
Q 2447 4600 2831 4234 
Q 3216 3869 3216 3328 
Q 3216 3053 3103 2787 
Q 2991 2522 2730 2228 
Q 2469 1934 1863 1422 
Q 1356 997 1212 845 
Q 1069 694 975 541 
L 3222 541 
z
" transform="scale(0.015625)"/>
       </defs>
       <use xlink:href="#ArialMT-32"/>
       <use xlink:href="#ArialMT-30" x="55.615234"/>
       <use xlink:href="#ArialMT-30" x="111.230469"/>
      </g>
     </g>
    </g>
    <g id="xtick_3">
     <g id="line2d_3">
      <g>
       <use xlink:href="#macbe7b0fca" x="141.822125" y="277.248797" style="stroke: #000000; stroke-width: 0.8"/>
      </g>
     </g>
     <g id="text_3">
      <!-- 400 -->
      <g transform="translate(132.646578 292.122391) scale(0.11 -0.11)">
       <defs>
        <path id="ArialMT-34" d="M 2069 0 
L 2069 1097 
L 81 1097 
L 81 1613 
L 2172 4581 
L 2631 4581 
L 2631 1613 
L 3250 1613 
L 3250 1097 
L 2631 1097 
L 2631 0 
L 2069 0 
z
M 2069 1613 
L 2069 3678 
L 634 1613 
L 2069 1613 
z
" transform="scale(0.015625)"/>
       </defs>
       <use xlink:href="#ArialMT-34"/>
       <use xlink:href="#ArialMT-30" x="55.615234"/>
       <use xlink:href="#ArialMT-30" x="111.230469"/>
      </g>
     </g>
    </g>
    <g id="xtick_4">
     <g id="line2d_4">
      <g>
       <use xlink:href="#macbe7b0fca" x="186.174125" y="277.248797" style="stroke: #000000; stroke-width: 0.8"/>
      </g>
     </g>
     <g id="text_4">
      <!-- 600 -->
      <g transform="translate(176.998578 292.122391) scale(0.11 -0.11)">
       <defs>
        <path id="ArialMT-36" d="M 3184 3459 
L 2625 3416 
Q 2550 3747 2413 3897 
Q 2184 4138 1850 4138 
Q 1581 4138 1378 3988 
Q 1113 3794 959 3422 
Q 806 3050 800 2363 
Q 1003 2672 1297 2822 
Q 1591 2972 1913 2972 
Q 2475 2972 2870 2558 
Q 3266 2144 3266 1488 
Q 3266 1056 3080 686 
Q 2894 316 2569 119 
Q 2244 -78 1831 -78 
Q 1128 -78 684 439 
Q 241 956 241 2144 
Q 241 3472 731 4075 
Q 1159 4600 1884 4600 
Q 2425 4600 2770 4297 
Q 3116 3994 3184 3459 
z
M 888 1484 
Q 888 1194 1011 928 
Q 1134 663 1356 523 
Q 1578 384 1822 384 
Q 2178 384 2434 671 
Q 2691 959 2691 1453 
Q 2691 1928 2437 2201 
Q 2184 2475 1800 2475 
Q 1419 2475 1153 2201 
Q 888 1928 888 1484 
z
" transform="scale(0.015625)"/>
       </defs>
       <use xlink:href="#ArialMT-36"/>
       <use xlink:href="#ArialMT-30" x="55.615234"/>
       <use xlink:href="#ArialMT-30" x="111.230469"/>
      </g>
     </g>
    </g>
    <g id="xtick_5">
     <g id="line2d_5">
      <g>
       <use xlink:href="#macbe7b0fca" x="230.526125" y="277.248797" style="stroke: #000000; stroke-width: 0.8"/>
      </g>
     </g>
     <g id="text_5">
      <!-- 800 -->
      <g transform="translate(221.350578 292.122391) scale(0.11 -0.11)">
       <defs>
        <path id="ArialMT-38" d="M 1131 2484 
Q 781 2613 612 2850 
Q 444 3088 444 3419 
Q 444 3919 803 4259 
Q 1163 4600 1759 4600 
Q 2359 4600 2725 4251 
Q 3091 3903 3091 3403 
Q 3091 3084 2923 2848 
Q 2756 2613 2416 2484 
Q 2838 2347 3058 2040 
Q 3278 1734 3278 1309 
Q 3278 722 2862 322 
Q 2447 -78 1769 -78 
Q 1091 -78 675 323 
Q 259 725 259 1325 
Q 259 1772 486 2073 
Q 713 2375 1131 2484 
z
M 1019 3438 
Q 1019 3113 1228 2906 
Q 1438 2700 1772 2700 
Q 2097 2700 2305 2904 
Q 2513 3109 2513 3406 
Q 2513 3716 2298 3927 
Q 2084 4138 1766 4138 
Q 1444 4138 1231 3931 
Q 1019 3725 1019 3438 
z
M 838 1322 
Q 838 1081 952 856 
Q 1066 631 1291 507 
Q 1516 384 1775 384 
Q 2178 384 2440 643 
Q 2703 903 2703 1303 
Q 2703 1709 2433 1975 
Q 2163 2241 1756 2241 
Q 1359 2241 1098 1978 
Q 838 1716 838 1322 
z
" transform="scale(0.015625)"/>
       </defs>
       <use xlink:href="#ArialMT-38"/>
       <use xlink:href="#ArialMT-30" x="55.615234"/>
       <use xlink:href="#ArialMT-30" x="111.230469"/>
      </g>
     </g>
    </g>
    <g id="xtick_6">
     <g id="line2d_6">
      <g>
       <use xlink:href="#macbe7b0fca" x="274.878125" y="277.248797" style="stroke: #000000; stroke-width: 0.8"/>
      </g>
     </g>
     <g id="text_6">
      <!-- 1000 -->
      <g transform="translate(262.644063 292.122391) scale(0.11 -0.11)">
       <defs>
        <path id="ArialMT-31" d="M 2384 0 
L 1822 0 
L 1822 3584 
Q 1619 3391 1289 3197 
Q 959 3003 697 2906 
L 697 3450 
Q 1169 3672 1522 3987 
Q 1875 4303 2022 4600 
L 2384 4600 
L 2384 0 
z
" transform="scale(0.015625)"/>
       </defs>
       <use xlink:href="#ArialMT-31"/>
       <use xlink:href="#ArialMT-30" x="55.615234"/>
       <use xlink:href="#ArialMT-30" x="111.230469"/>
       <use xlink:href="#ArialMT-30" x="166.845703"/>
      </g>
     </g>
    </g>
    <g id="xtick_7">
     <g id="line2d_7">
      <g>
       <use xlink:href="#macbe7b0fca" x="319.230125" y="277.248797" style="stroke: #000000; stroke-width: 0.8"/>
      </g>
     </g>
     <g id="text_7">
      <!-- 1200 -->
      <g transform="translate(306.996062 292.122391) scale(0.11 -0.11)">
       <use xlink:href="#ArialMT-31"/>
       <use xlink:href="#ArialMT-32" x="55.615234"/>
       <use xlink:href="#ArialMT-30" x="111.230469"/>
       <use xlink:href="#ArialMT-30" x="166.845703"/>
      </g>
     </g>
    </g>
    <g id="text_8">
     <!-- $\sigma_L$ (MPa) -->
     <g transform="translate(163.844125 306.338641) scale(0.11 -0.11)">
      <defs>
       <path id="DejaVuSans-Oblique-3c3" d="M 2219 3044 
Q 1744 3044 1422 2700 
Q 1081 2341 969 1747 
Q 844 1119 1044 756 
Q 1241 397 1706 397 
Q 2166 397 2503 759 
Q 2844 1122 2966 1747 
Q 3075 2319 2881 2700 
Q 2700 3044 2219 3044 
z
M 2309 3503 
L 4219 3500 
L 4106 2925 
L 3463 2925 
Q 3706 2438 3575 1747 
Q 3406 888 2884 400 
Q 2359 -91 1609 -91 
Q 856 -91 525 400 
Q 194 888 363 1747 
Q 528 2609 1050 3097 
Q 1484 3503 2309 3503 
z
" transform="scale(0.015625)"/>
       <path id="DejaVuSans-Oblique-4c" d="M 1075 4666 
L 1709 4666 
L 909 525 
L 3181 525 
L 3078 0 
L 172 0 
L 1075 4666 
z
" transform="scale(0.015625)"/>
       <path id="ArialMT-20" transform="scale(0.015625)"/>
       <path id="ArialMT-28" d="M 1497 -1347 
Q 1031 -759 709 28 
Q 388 816 388 1659 
Q 388 2403 628 3084 
Q 909 3875 1497 4659 
L 1900 4659 
Q 1522 4009 1400 3731 
Q 1209 3300 1100 2831 
Q 966 2247 966 1656 
Q 966 153 1900 -1347 
L 1497 -1347 
z
" transform="scale(0.015625)"/>
       <path id="ArialMT-4d" d="M 475 0 
L 475 4581 
L 1388 4581 
L 2472 1338 
Q 2622 884 2691 659 
Q 2769 909 2934 1394 
L 4031 4581 
L 4847 4581 
L 4847 0 
L 4263 0 
L 4263 3834 
L 2931 0 
L 2384 0 
L 1059 3900 
L 1059 0 
L 475 0 
z
" transform="scale(0.015625)"/>
       <path id="ArialMT-50" d="M 494 0 
L 494 4581 
L 2222 4581 
Q 2678 4581 2919 4538 
Q 3256 4481 3484 4323 
Q 3713 4166 3852 3881 
Q 3991 3597 3991 3256 
Q 3991 2672 3619 2267 
Q 3247 1863 2275 1863 
L 1100 1863 
L 1100 0 
L 494 0 
z
M 1100 2403 
L 2284 2403 
Q 2872 2403 3119 2622 
Q 3366 2841 3366 3238 
Q 3366 3525 3220 3729 
Q 3075 3934 2838 4000 
Q 2684 4041 2272 4041 
L 1100 4041 
L 1100 2403 
z
" transform="scale(0.015625)"/>
       <path id="ArialMT-61" d="M 2588 409 
Q 2275 144 1986 34 
Q 1697 -75 1366 -75 
Q 819 -75 525 192 
Q 231 459 231 875 
Q 231 1119 342 1320 
Q 453 1522 633 1644 
Q 813 1766 1038 1828 
Q 1203 1872 1538 1913 
Q 2219 1994 2541 2106 
Q 2544 2222 2544 2253 
Q 2544 2597 2384 2738 
Q 2169 2928 1744 2928 
Q 1347 2928 1158 2789 
Q 969 2650 878 2297 
L 328 2372 
Q 403 2725 575 2942 
Q 747 3159 1072 3276 
Q 1397 3394 1825 3394 
Q 2250 3394 2515 3294 
Q 2781 3194 2906 3042 
Q 3031 2891 3081 2659 
Q 3109 2516 3109 2141 
L 3109 1391 
Q 3109 606 3145 398 
Q 3181 191 3288 0 
L 2700 0 
Q 2613 175 2588 409 
z
M 2541 1666 
Q 2234 1541 1622 1453 
Q 1275 1403 1131 1340 
Q 988 1278 909 1158 
Q 831 1038 831 891 
Q 831 666 1001 516 
Q 1172 366 1500 366 
Q 1825 366 2078 508 
Q 2331 650 2450 897 
Q 2541 1088 2541 1459 
L 2541 1666 
z
" transform="scale(0.015625)"/>
       <path id="ArialMT-29" d="M 791 -1347 
L 388 -1347 
Q 1322 153 1322 1656 
Q 1322 2244 1188 2822 
Q 1081 3291 891 3722 
Q 769 4003 388 4659 
L 791 4659 
Q 1378 3875 1659 3084 
Q 1900 2403 1900 1659 
Q 1900 816 1576 28 
Q 1253 -759 791 -1347 
z
" transform="scale(0.015625)"/>
      </defs>
      <use xlink:href="#DejaVuSans-Oblique-3c3" transform="translate(0 0.203125)"/>
      <use xlink:href="#DejaVuSans-Oblique-4c" transform="translate(63.378906 -16.203125) scale(0.7)"/>
      <use xlink:href="#ArialMT-20" transform="translate(105.112305 0.203125)"/>
      <use xlink:href="#ArialMT-28" transform="translate(132.895508 0.203125)"/>
      <use xlink:href="#ArialMT-4d" transform="translate(166.196289 0.203125)"/>
      <use xlink:href="#ArialMT-50" transform="translate(249.49707 0.203125)"/>
      <use xlink:href="#ArialMT-61" transform="translate(316.196289 0.203125)"/>
      <use xlink:href="#ArialMT-29" transform="translate(371.811523 0.203125)"/>
     </g>
    </g>
   </g>
   <g id="matplotlib.axis_2">
    <g id="ytick_1">
     <g id="line2d_8">
      <defs>
       <path id="mcc2e9b6e91" d="M 0 0 
L -3.5 0 
" style="stroke: #000000; stroke-width: 0.8"/>
      </defs>
      <g>
       <use xlink:href="#mcc2e9b6e91" x="53.118125" y="277.248797" style="stroke: #000000; stroke-width: 0.8"/>
      </g>
     </g>
     <g id="text_9">
      <!-- 0 -->
      <g transform="translate(40.001094 281.185594) scale(0.11 -0.11)">
       <use xlink:href="#ArialMT-30"/>
      </g>
     </g>
    </g>
    <g id="ytick_2">
     <g id="line2d_9">
      <g>
       <use xlink:href="#mcc2e9b6e91" x="53.118125" y="232.896797" style="stroke: #000000; stroke-width: 0.8"/>
      </g>
     </g>
     <g id="text_10">
      <!-- 200 -->
      <g transform="translate(27.767031 236.833594) scale(0.11 -0.11)">
       <use xlink:href="#ArialMT-32"/>
       <use xlink:href="#ArialMT-30" x="55.615234"/>
       <use xlink:href="#ArialMT-30" x="111.230469"/>
      </g>
     </g>
    </g>
    <g id="ytick_3">
     <g id="line2d_10">
      <g>
       <use xlink:href="#mcc2e9b6e91" x="53.118125" y="188.544797" style="stroke: #000000; stroke-width: 0.8"/>
      </g>
     </g>
     <g id="text_11">
      <!-- 400 -->
      <g transform="translate(27.767031 192.481594) scale(0.11 -0.11)">
       <use xlink:href="#ArialMT-34"/>
       <use xlink:href="#ArialMT-30" x="55.615234"/>
       <use xlink:href="#ArialMT-30" x="111.230469"/>
      </g>
     </g>
    </g>
    <g id="ytick_4">
     <g id="line2d_11">
      <g>
       <use xlink:href="#mcc2e9b6e91" x="53.118125" y="144.192797" style="stroke: #000000; stroke-width: 0.8"/>
      </g>
     </g>
     <g id="text_12">
      <!-- 600 -->
      <g transform="translate(27.767031 148.129594) scale(0.11 -0.11)">
       <use xlink:href="#ArialMT-36"/>
       <use xlink:href="#ArialMT-30" x="55.615234"/>
       <use xlink:href="#ArialMT-30" x="111.230469"/>
      </g>
     </g>
    </g>
    <g id="ytick_5">
     <g id="line2d_12">
      <g>
       <use xlink:href="#mcc2e9b6e91" x="53.118125" y="99.840797" style="stroke: #000000; stroke-width: 0.8"/>
      </g>
     </g>
     <g id="text_13">
      <!-- 800 -->
      <g transform="translate(27.767031 103.777594) scale(0.11 -0.11)">
       <use xlink:href="#ArialMT-38"/>
       <use xlink:href="#ArialMT-30" x="55.615234"/>
       <use xlink:href="#ArialMT-30" x="111.230469"/>
      </g>
     </g>
    </g>
    <g id="ytick_6">
     <g id="line2d_13">
      <g>
       <use xlink:href="#mcc2e9b6e91" x="53.118125" y="55.488797" style="stroke: #000000; stroke-width: 0.8"/>
      </g>
     </g>
     <g id="text_14">
      <!-- 1000 -->
      <g transform="translate(21.65 59.425594) scale(0.11 -0.11)">
       <use xlink:href="#ArialMT-31"/>
       <use xlink:href="#ArialMT-30" x="55.615234"/>
       <use xlink:href="#ArialMT-30" x="111.230469"/>
       <use xlink:href="#ArialMT-30" x="166.845703"/>
      </g>
     </g>
    </g>
    <g id="ytick_7">
     <g id="line2d_14">
      <g>
       <use xlink:href="#mcc2e9b6e91" x="53.118125" y="11.136797" style="stroke: #000000; stroke-width: 0.8"/>
      </g>
     </g>
     <g id="text_15">
      <!-- 1200 -->
      <g transform="translate(21.65 15.073594) scale(0.11 -0.11)">
       <use xlink:href="#ArialMT-31"/>
       <use xlink:href="#ArialMT-32" x="55.615234"/>
       <use xlink:href="#ArialMT-30" x="111.230469"/>
       <use xlink:href="#ArialMT-30" x="166.845703"/>
      </g>
     </g>
    </g>
    <g id="text_16">
     <!-- $\sigma_C$ (MPa) -->
     <g transform="translate(15.23 167.017797) rotate(-90) scale(0.11 -0.11)">
      <defs>
       <path id="DejaVuSans-Oblique-43" d="M 4447 4306 
L 4319 3641 
Q 4019 3944 3683 4091 
Q 3347 4238 2956 4238 
Q 2422 4238 2017 3981 
Q 1613 3725 1319 3200 
Q 1131 2863 1032 2486 
Q 934 2109 934 1728 
Q 934 1091 1264 756 
Q 1594 422 2222 422 
Q 2656 422 3056 561 
Q 3456 700 3834 978 
L 3688 231 
Q 3316 72 2936 -9 
Q 2556 -91 2175 -91 
Q 1278 -91 773 396 
Q 269 884 269 1753 
Q 269 2309 461 2846 
Q 653 3384 1013 3828 
Q 1394 4300 1883 4525 
Q 2372 4750 3022 4750 
Q 3422 4750 3780 4639 
Q 4138 4528 4447 4306 
z
" transform="scale(0.015625)"/>
      </defs>
      <use xlink:href="#DejaVuSans-Oblique-3c3" transform="translate(0 0.203125)"/>
      <use xlink:href="#DejaVuSans-Oblique-43" transform="translate(63.378906 -16.203125) scale(0.7)"/>
      <use xlink:href="#ArialMT-20" transform="translate(114.990234 0.203125)"/>
      <use xlink:href="#ArialMT-28" transform="translate(142.773438 0.203125)"/>
      <use xlink:href="#ArialMT-4d" transform="translate(176.074219 0.203125)"/>
      <use xlink:href="#ArialMT-50" transform="translate(259.375 0.203125)"/>
      <use xlink:href="#ArialMT-61" transform="translate(326.074219 0.203125)"/>
      <use xlink:href="#ArialMT-29" transform="translate(381.689453 0.203125)"/>
     </g>
    </g>
   </g>
   <g id="PathCollection_7">
    <path d="M -1 135.617618 
L -0.994293 135.61328 
L -0.464468 135.211361 
L -0.09338 134.930699 
L 0.218113 134.695587 
L 0.812731 134.248119 
L 0.900694 134.182058 
L 1.583274 133.671185 
L 1.724895 133.565538 
L 2.265855 133.162803 
L 2.642894 132.882957 
L 2.948436 132.656633 
L 3.566272 132.200376 
L 3.631017 132.15266 
L 4.313598 131.651406 
L 4.496137 131.517795 
L 4.996178 131.152521 
L 5.431898 130.835215 
L 5.678759 130.655801 
L 6.36134 130.161266 
L 6.3733 130.152634 
L 7.043921 129.669596 
L 7.321821 129.470053 
L 7.726502 129.180057 
L 8.27606 128.787472 
L 8.409082 128.692635 
L 9.091663 128.207729 
L 9.236938 128.104891 
L 9.774244 127.7253 
L 10.204484 127.422311 
L 10.456825 127.244957 
L 11.139406 126.766795 
L 11.178194 126.73973 
L 11.821986 126.291407 
L 12.159464 126.057149 
L 12.504567 125.818073 
L 13.146826 125.374568 
L 13.187148 125.346779 
L 13.869729 124.878252 
L 14.142008 124.691987 
L 14.55231 124.411858 
L 15.1437 124.009406 
L 15.23489 123.947472 
L 15.917471 123.485713 
L 16.153178 123.326826 
L 16.600052 123.026189 
L 17.169664 122.644245 
L 17.282633 122.568645 
L 17.965214 122.113666 
L 18.194091 121.961664 
L 18.647794 121.660946 
L 19.225856 121.279083 
L 19.330375 121.210175 
L 20.012956 120.761991 
L 20.265923 120.596502 
L 20.695537 120.316008 
L 21.313476 119.913922 
L 21.378118 119.871943 
L 22.060698 119.430566 
L 22.369912 119.231341 
L 22.743279 118.991254 
L 23.42586 118.55385 
L 23.433839 118.54876 
L 24.108441 118.119274 
L 24.507363 117.866179 
L 24.791022 117.686566 
L 25.473602 117.256001 
L 25.588881 117.183598 
L 26.156183 116.827994 
L 26.679653 116.501018 
L 26.838764 116.401826 
L 27.521345 115.978112 
L 27.779608 115.818437 
L 28.203926 115.55661 
L 28.886506 115.136922 
L 28.888248 115.135856 
L 29.569087 114.720067 
L 30.007526 114.453275 
L 30.251668 114.305004 
L 30.934249 113.892198 
L 31.136031 113.770694 
L 31.61683 113.481748 
L 32.274223 113.088114 
L 32.29941 113.073061 
L 32.981991 112.667148 
L 33.423582 112.405533 
L 33.664572 112.26304 
L 34.347153 111.861205 
L 34.583041 111.722952 
L 35.029734 111.461658 
L 35.712315 111.06392 
L 35.752933 111.040371 
L 36.394895 110.668916 
L 36.934636 110.35779 
L 37.077476 110.275613 
L 37.760057 109.884814 
L 38.127716 109.67521 
L 38.442638 109.49602 
L 39.125219 109.109353 
L 39.332257 108.992629 
L 39.807799 108.725051 
L 40.49038 108.342531 
L 40.548651 108.310048 
L 41.172961 107.962705 
L 41.777889 107.627467 
L 41.855542 107.584517 
L 42.538123 107.208983 
L 43.020172 106.944886 
L 43.220703 106.835236 
L 43.903284 106.463883 
L 44.275511 106.262306 
L 44.585865 106.094562 
L 45.268446 105.727407 
L 45.54437 105.579725 
L 45.951027 105.362494 
L 46.633607 104.999554 
L 46.827232 104.897144 
L 47.316188 104.639032 
L 47.998769 104.280325 
L 48.124605 104.214563 
L 48.68135 103.924177 
L 49.363931 103.569718 
L 49.437023 103.531982 
L 50.046511 103.217928 
L 50.729092 102.867735 
L 50.765043 102.849402 
L 51.411673 102.520286 
L 52.094254 102.174375 
L 52.109254 102.166821 
L 52.776835 101.83125 
L 53.459415 101.489639 
L 53.470271 101.48424 
L 54.141996 101.150821 
L 54.824577 100.813525 
L 54.848744 100.801659 
L 55.507158 100.478998 
L 56.189739 100.146035 
L 56.245355 100.119078 
L 56.872319 99.815782 
L 57.5549 99.487168 
L 57.660822 99.436498 
L 58.237481 99.161172 
L 58.920062 98.836925 
L 59.095903 98.753917 
L 59.602643 98.515169 
L 60.285223 98.195304 
L 60.551396 98.071336 
L 60.967804 97.877773 
L 61.650385 97.562307 
L 62.028141 97.388755 
L 62.332966 97.248982 
L 63.015547 96.937933 
L 63.527029 96.706174 
L 63.698127 96.628799 
L 64.380708 96.322183 
L 65.048999 96.023594 
L 65.063289 96.017221 
L 65.74587 95.715055 
L 66.428451 95.414536 
L 66.59662 95.341013 
L 67.111031 95.116551 
L 67.793612 94.820516 
L 68.169792 94.658432 
L 68.476193 94.52667 
L 69.158774 94.235136 
L 69.769517 93.975851 
L 69.841355 93.945413 
L 70.523935 93.658396 
L 71.206516 93.373089 
L 71.398906 93.29327 
L 71.889097 93.090297 
L 72.571678 92.809542 
L 73.058417 92.61069 
L 73.254259 92.530837 
L 73.93684 92.254651 
L 74.61942 91.98022 
L 74.750082 91.928109 
L 75.302001 91.708418 
L 75.984582 91.438591 
L 76.476493 91.245528 
L 76.667163 91.170841 
L 77.349744 90.905635 
L 78.032324 90.642231 
L 78.239487 90.562947 
L 78.714905 90.381354 
L 79.397486 90.122606 
L 80.041142 89.880366 
L 80.080067 89.865746 
L 80.762648 89.611671 
L 81.445228 89.359445 
L 81.886274 89.197786 
L 82.127809 89.109428 
L 82.81039 88.86191 
L 83.492971 88.616272 
L 83.776319 88.515205 
L 84.175552 88.373083 
L 84.858132 88.132189 
L 85.540713 87.893203 
L 85.715394 87.832624 
L 86.223294 87.656832 
L 86.905875 87.422626 
L 87.588456 87.190358 
L 87.708132 87.150043 
L 88.271036 86.960791 
L 88.953617 86.73334 
L 89.636198 86.507859 
L 89.759771 86.467462 
L 90.318779 86.285082 
L 91.00136 86.064453 
L 91.68394 85.845825 
L 91.876253 85.784882 
L 92.366521 85.629825 
L 93.049102 85.416086 
L 93.731683 85.204379 
L 94.064347 85.102301 
L 94.414264 84.995142 
L 95.096844 84.788361 
L 95.779425 84.583644 
L 96.331799 84.41972 
L 96.462006 84.381156 
L 97.144587 84.181402 
L 97.827168 83.983744 
L 98.509748 83.788194 
L 98.69018 83.737139 
L 99.192329 83.595334 
L 99.87491 83.404805 
L 100.557491 83.216417 
L 101.15089 83.054558 
L 101.240072 83.030281 
L 101.922652 82.846953 
L 102.605233 82.665798 
L 103.287814 82.486831 
L 103.731634 82.371977 
L 103.970395 82.310314 
L 104.652976 82.136465 
L 105.335556 81.964837 
L 106.018137 81.795444 
L 106.451531 81.689397 
L 106.700718 81.628546 
L 107.383299 81.464331 
L 108.06588 81.302384 
L 108.74846 81.142721 
L 109.338117 81.006816 
L 109.431041 80.985442 
L 110.113622 80.831017 
L 110.796203 80.67891 
L 111.478784 80.529135 
L 112.161365 80.381707 
L 112.432123 80.324235 
L 112.843945 80.236998 
L 113.526526 80.094891 
L 114.209107 79.955167 
L 114.891688 79.817841 
L 115.574269 79.682927 
L 115.787207 79.641654 
L 116.256849 79.550814 
L 116.93943 79.421305 
L 117.622011 79.294246 
L 118.304592 79.169651 
L 118.987173 79.047537 
L 119.492242 78.959073 
L 119.669753 78.928046 
L 120.352334 78.811423 
L 121.034915 78.697318 
L 121.717496 78.585747 
L 122.400077 78.476726 
L 123.082657 78.37027 
L 123.699017 78.276493 
L 123.765238 78.266438 
L 124.447819 78.165585 
L 125.1304 78.067337 
L 125.812981 77.97171 
L 126.495561 77.878722 
L 127.178142 77.788388 
L 127.860723 77.700726 
L 128.543304 77.615752 
L 128.724795 77.593912 
L 129.225885 77.533739 
L 129.908465 77.45453 
L 130.591046 77.378051 
L 131.273627 77.304319 
L 131.956208 77.233352 
L 132.638789 77.165167 
L 133.321369 77.099783 
L 134.00395 77.037217 
L 134.686531 76.977487 
L 135.369112 76.920612 
L 135.486633 76.911331 
L 136.051693 76.866802 
L 136.734273 76.815912 
L 137.416854 76.76792 
L 138.099435 76.722847 
L 138.782016 76.680709 
L 139.464597 76.641528 
L 140.147177 76.605321 
L 140.829758 76.572109 
L 141.512339 76.54191 
L 142.19492 76.514746 
L 142.877501 76.490634 
L 143.560081 76.469597 
L 144.242662 76.451653 
L 144.925243 76.436824 
L 145.607824 76.425131 
L 146.290405 76.416593 
L 146.972985 76.411232 
L 147.655566 76.409069 
L 148.338147 76.410126 
L 149.020728 76.414424 
L 149.703309 76.421984 
L 150.385889 76.43283 
L 151.06847 76.446983 
L 151.751051 76.464465 
L 152.433632 76.485299 
L 153.116213 76.509509 
L 153.798794 76.537115 
L 154.481374 76.568143 
L 155.163955 76.602615 
L 155.846536 76.640555 
L 156.529117 76.681987 
L 157.211698 76.726935 
L 157.894278 76.775423 
L 158.576859 76.827476 
L 159.25944 76.883118 
L 159.584825 76.911331 
L 159.942021 76.942519 
L 160.624602 77.005709 
L 161.307182 77.072582 
L 161.989763 77.143164 
L 162.672344 77.217482 
L 163.354925 77.295562 
L 164.037506 77.377431 
L 164.720086 77.463115 
L 165.402667 77.552642 
L 165.704684 77.593912 
L 166.085248 77.646288 
L 166.767829 77.744049 
L 167.45041 77.845757 
L 168.13299 77.95144 
L 168.815571 78.061127 
L 169.498152 78.174847 
L 170.087408 78.276493 
L 170.180733 78.292709 
L 170.863314 78.415179 
L 171.545894 78.541794 
L 172.228475 78.672585 
L 172.911056 78.807582 
L 173.593637 78.946816 
L 173.652072 78.959073 
L 174.276218 79.090972 
L 174.958798 79.239513 
L 175.641379 79.392413 
L 176.32396 79.549704 
L 176.712493 79.641654 
L 177.006541 79.71177 
L 177.689122 79.878783 
L 178.371702 80.050314 
L 179.054283 80.226397 
L 179.424352 80.324235 
L 179.736864 80.407491 
L 180.419445 80.593737 
L 181.102026 80.784668 
L 181.784606 80.980323 
L 181.875039 81.006816 
L 182.467187 81.181643 
L 183.149768 81.387926 
L 183.832349 81.599075 
L 184.11814 81.689397 
L 184.51493 81.81579 
L 185.19751 82.037953 
L 185.880091 82.26513 
L 186.19459 82.371977 
L 186.562672 82.498031 
L 187.245253 82.736628 
L 187.927834 82.980394 
L 188.131542 83.054558 
L 188.610414 83.230317 
L 189.292995 83.48593 
L 189.950177 83.737139 
L 189.975576 83.746928 
L 190.658157 84.014709 
L 191.340738 84.287949 
L 191.663887 84.41972 
L 192.023319 84.567506 
L 192.705899 84.853381 
L 193.288993 85.102301 
L 193.38848 85.145129 
L 194.071061 85.443993 
L 194.753642 85.748628 
L 194.833548 85.784882 
L 195.436223 86.060645 
L 196.118803 86.37878 
L 196.305963 86.467462 
L 196.801384 86.704235 
L 197.483965 87.03626 
L 197.714092 87.150043 
L 198.166546 87.375706 
L 198.849127 87.722026 
L 199.063663 87.832624 
L 199.531707 88.076042 
L 200.214288 88.437081 
L 200.359743 88.515205 
L 200.896869 88.806276 
L 201.57945 89.182475 
L 201.60683 89.197786 
L 202.262031 89.567489 
L 202.807418 89.880366 
L 202.944611 89.95979 
L 203.627192 90.360819 
L 203.965939 90.562947 
L 204.309773 90.770008 
L 204.992354 91.187454 
L 205.085978 91.245528 
L 205.674935 91.614267 
L 206.168529 91.928109 
L 206.357515 92.049407 
L 207.040096 92.493856 
L 207.217001 92.61069 
L 207.722677 92.94785 
L 208.233118 93.29327 
L 208.405258 93.410885 
L 209.087839 93.883823 
L 209.218858 93.975851 
L 209.770419 94.367059 
L 210.175409 94.658432 
L 210.453 94.860121 
L 211.105626 95.341013 
L 211.135581 95.363306 
L 211.818162 95.877897 
L 212.008813 96.023594 
L 212.500743 96.403332 
L 212.887778 96.706174 
L 213.183323 96.939792 
L 213.743756 97.388755 
L 213.865904 97.487619 
L 214.548485 98.047334 
L 214.577393 98.071336 
L 215.231066 98.619752 
L 215.388931 98.753917 
L 215.913647 99.204577 
L 216.180259 99.436498 
L 216.596227 99.802209 
L 216.952137 100.119078 
L 217.278808 100.413061 
L 217.705283 100.801659 
L 217.961389 101.037569 
L 218.440385 101.48424 
L 218.64397 101.676184 
L 219.158092 102.166821 
L 219.326551 102.32938 
L 219.859028 102.849402 
L 220.009131 102.99765 
L 220.543784 103.531982 
L 220.691712 103.681512 
L 221.212924 104.214563 
L 221.374293 104.381505 
L 221.866987 104.897144 
L 222.056874 105.098197 
L 222.506488 105.579725 
L 222.739455 105.832181 
L 223.131915 106.262306 
L 223.422035 106.584076 
L 223.74374 106.944886 
L 224.104616 107.354535 
L 224.342411 107.627467 
L 224.787197 108.144242 
L 224.928355 108.310048 
L 225.469778 108.953912 
L 225.501985 108.992629 
L 226.063046 109.67521 
L 226.152359 109.785223 
L 226.612261 110.35779 
L 226.834939 110.638582 
L 227.150231 111.040371 
L 227.51752 111.514516 
L 227.677306 111.722952 
L 228.193779 112.405533 
L 228.200101 112.413991 
L 228.698833 113.088114 
L 228.882682 113.339969 
L 229.193916 113.770694 
L 229.565263 114.291636 
L 229.679328 114.453275 
L 230.15473 115.135856 
L 230.247844 115.271314 
L 230.62021 115.818437 
L 230.930424 116.280705 
L 231.076819 116.501018 
L 231.524232 117.183598 
L 231.613005 117.320859 
L 231.962275 117.866179 
L 232.295586 118.394255 
L 232.392172 118.54876 
L 232.813088 119.231341 
L 232.978167 119.502895 
L 233.225664 119.913922 
L 233.630556 120.596502 
L 233.660748 120.648094 
L 234.02655 121.279083 
L 234.343328 121.834114 
L 234.415452 121.961664 
L 234.796022 122.644245 
L 235.025909 123.062997 
L 235.16942 123.326826 
L 235.535217 124.009406 
L 235.70849 124.337733 
L 235.893755 124.691987 
L 236.245216 125.374568 
L 236.391071 125.662241 
L 236.589506 126.057149 
L 236.927049 126.73973 
L 237.073652 127.0409 
L 237.257673 127.422311 
L 237.5817 128.104891 
L 237.756232 128.478617 
L 237.89921 128.787472 
L 238.210106 129.470053 
L 238.438813 129.980913 
L 238.515027 130.152634 
L 238.813162 130.835215 
L 239.105904 131.517795 
L 239.121394 131.554489 
L 239.391723 132.200376 
L 239.672186 132.882957 
L 239.803975 133.209324 
L 239.946605 133.565538 
L 240.215125 134.248119 
L 240.478544 134.930699 
L 240.486556 134.951811 
L 240.73549 135.61328 
L 240.987406 136.295861 
L 241.169136 136.797777 
L 241.234013 136.978442 
L 241.474732 137.661023 
L 241.710619 138.343603 
L 241.851717 138.759942 
L 241.941216 139.026184 
L 242.166309 139.708765 
L 242.386714 140.391346 
L 242.534298 140.857879 
L 242.602096 141.073927 
L 242.81209 141.756507 
L 243.017534 142.439088 
L 243.216879 143.116275 
L 243.218454 143.121669 
L 243.413851 143.80425 
L 243.60483 144.486831 
L 243.791425 145.169411 
L 243.89946 145.573637 
L 243.973276 145.851992 
L 244.150263 146.534573 
L 244.322991 147.217154 
L 244.491491 147.899735 
L 244.58204 148.275493 
L 244.655411 148.582315 
L 244.814719 149.264896 
L 244.969917 149.947477 
L 245.121035 150.630058 
L 245.264621 151.296436 
L 245.268086 151.312639 
L 245.410403 151.995219 
L 245.548752 152.6778 
L 245.683163 153.360381 
L 245.813663 154.042962 
L 245.940281 154.725543 
L 245.947202 154.763937 
L 246.062462 155.408123 
L 246.180802 156.090704 
L 246.295365 156.773285 
L 246.406175 157.455866 
L 246.513261 158.138447 
L 246.616648 158.821027 
L 246.629783 158.910759 
L 246.715934 159.503608 
L 246.811529 160.186189 
L 246.903522 160.86877 
L 246.991937 161.551351 
L 247.076801 162.233931 
L 247.158137 162.916512 
L 247.235969 163.599093 
L 247.310322 164.281674 
L 247.312364 164.301288 
L 247.380887 164.964255 
L 247.448029 165.646836 
L 247.51178 166.329416 
L 247.572163 167.011997 
L 247.629201 167.694578 
L 247.682916 168.377159 
L 247.733331 169.05974 
L 247.780468 169.74232 
L 247.824349 170.424901 
L 247.864996 171.107482 
L 247.90243 171.790063 
L 247.936672 172.472644 
L 247.967744 173.155224 
L 247.994944 173.82011 
L 247.995663 173.837805 
L 248.020342 174.520386 
L 248.041928 175.202967 
L 248.060442 175.885548 
L 248.075902 176.568128 
L 248.08833 177.250709 
L 248.097745 177.93329 
L 248.104166 178.615871 
L 248.107613 179.298452 
L 248.108106 179.981032 
L 248.105662 180.663613 
L 248.100302 181.346194 
L 248.092043 182.028775 
L 248.080905 182.711356 
L 248.066905 183.393936 
L 248.050063 184.076517 
L 248.030395 184.759098 
L 248.007921 185.441679 
L 247.994944 185.791924 
L 247.982602 186.12426 
L 247.954441 186.80684 
L 247.923514 187.489421 
L 247.889839 188.172002 
L 247.853433 188.854583 
L 247.814313 189.537164 
L 247.772496 190.219744 
L 247.727999 190.902325 
L 247.68084 191.584906 
L 247.631034 192.267487 
L 247.578598 192.950068 
L 247.523548 193.632648 
L 247.465901 194.315229 
L 247.405673 194.99781 
L 247.34288 195.680391 
L 247.312364 195.99882 
L 247.277385 196.362972 
L 247.209211 197.045552 
L 247.13851 197.728133 
L 247.065297 198.410714 
L 246.989586 199.093295 
L 246.911394 199.775876 
L 246.830736 200.458456 
L 246.747626 201.141037 
L 246.66208 201.823618 
L 246.629783 202.073903 
L 246.573871 202.506199 
L 246.483107 203.18878 
L 246.389942 203.871361 
L 246.294391 204.553941 
L 246.196467 205.236522 
L 246.096186 205.919103 
L 245.993562 206.601684 
L 245.947202 206.902851 
L 245.888357 207.284265 
L 245.78063 207.966845 
L 245.670594 208.649426 
L 245.558263 209.332007 
L 245.443649 210.014588 
L 245.326768 210.697169 
L 245.264621 211.052897 
L 245.207391 211.379749 
L 245.0855 212.06233 
L 244.961374 212.744911 
L 244.835027 213.427492 
L 244.706471 214.110073 
L 244.58204 214.759597 
L 244.575693 214.792653 
L 244.4422 215.475234 
L 244.30653 216.157815 
L 244.168697 216.840396 
L 244.028713 217.522977 
L 243.89946 218.143644 
L 243.886537 218.205557 
L 243.741686 218.888138 
L 243.594716 219.570719 
L 243.445639 220.2533 
L 243.294468 220.935881 
L 243.216879 221.281122 
L 243.140899 221.618461 
L 242.984929 222.301042 
L 242.826896 222.983623 
L 242.666811 223.666204 
L 242.534298 224.223915 
L 242.504564 224.348785 
L 242.339731 225.031365 
L 242.172876 225.713946 
L 242.004012 226.396527 
L 241.851717 227.004804 
L 241.833073 227.079108 
L 241.65951 227.761689 
L 241.483966 228.444269 
L 241.306454 229.12685 
L 241.169136 229.648879 
L 241.126811 229.809431 
L 240.944649 230.492012 
L 240.760548 231.174593 
L 240.574518 231.857173 
L 240.486556 232.176303 
L 240.386159 232.539754 
L 240.195527 233.222335 
L 240.002995 233.904916 
L 239.808575 234.587497 
L 239.803975 234.603462 
L 239.61149 235.270077 
L 239.412516 235.952658 
L 239.21168 236.635239 
L 239.121394 236.938968 
L 239.008534 237.31782 
L 238.803174 238.000401 
L 238.595981 238.682981 
L 238.438813 239.195999 
L 238.386754 239.365562 
L 238.175067 240.048143 
L 237.961574 240.730724 
L 237.756232 241.381709 
L 237.746245 241.413305 
L 237.528288 242.095885 
L 237.308552 242.778466 
L 237.087047 243.461047 
L 237.073652 243.501929 
L 236.862932 244.143628 
L 236.637009 244.826209 
L 236.409345 245.50879 
L 236.391071 245.56307 
L 236.179092 246.19137 
L 235.947039 246.873951 
L 235.713271 247.556532 
L 235.70849 247.570365 
L 235.476862 248.239113 
L 235.238734 248.921694 
L 235.025909 249.527318 
L 234.998807 249.604274 
L 234.756334 250.286855 
L 234.512186 250.969436 
L 234.343328 251.438049 
L 234.266063 251.652017 
L 234.017599 252.334598 
L 233.767486 253.017178 
L 233.660748 253.306265 
L 233.515149 253.699759 
L 233.260748 254.38234 
L 233.004724 255.064921 
L 232.978167 255.135163 
L 232.746156 255.747502 
L 232.485872 256.430082 
L 232.295586 256.925798 
L 232.223703 257.112663 
L 231.959173 257.795244 
L 231.693062 258.477825 
L 231.613005 258.681694 
L 231.424622 259.160406 
L 231.154292 259.842986 
L 230.930424 260.404825 
L 230.882212 260.525567 
L 230.607677 261.208148 
L 230.331601 261.890729 
L 230.247844 262.096398 
L 230.053212 262.57331 
L 229.772959 263.25589 
L 229.565263 263.758778 
L 229.490891 263.938471 
L 229.206474 264.621052 
L 228.920555 265.303633 
L 228.882682 265.393432 
L 228.632141 265.986214 
L 228.342087 266.668794 
L 228.200101 267.000911 
L 228.049953 267.351375 
L 227.755777 268.033956 
L 227.51752 268.583847 
L 227.459907 268.716537 
L 227.161621 269.399118 
L 226.861887 270.081698 
L 226.834939 270.142667 
L 226.559613 270.764279 
L 226.255797 271.44686 
L 226.152359 271.677882 
L 225.949748 272.129441 
L 225.641864 272.812022 
L 225.469778 273.19148 
L 225.332019 273.494602 
L 225.02008 274.177183 
L 224.787197 274.68426 
L 224.706423 274.859764 
L 224.390442 275.542345 
L 224.104616 276.156982 
L 224.072953 276.224926 
L 223.752943 276.907506 
L 223.431566 277.590087 
L 223.422035 277.610208 
L 223.107577 278.272668 
L 222.7822 278.955249 
L 222.739455 279.044405 
L 222.454341 279.63783 
L 222.124974 280.32041 
L 222.056874 280.460765 
L 221.793227 281.002991 
L 221.459885 281.685572 
L 221.374293 281.859906 
L 221.124231 282.368153 
L 220.786927 283.050734 
L 220.691712 283.242415 
L 220.447348 283.733315 
L 220.106094 284.415895 
L 220.009131 284.608853 
L 219.762571 285.098476 
L 219.417381 285.781057 
L 219.326551 285.959758 
L 219.069896 286.463638 
L 218.720782 287.146219 
L 218.64397 287.295643 
L 218.369316 287.828799 
L 218.016293 288.51138 
L 217.961389 288.616998 
L 217.660827 289.193961 
L 217.303907 289.876542 
L 217.278808 289.924292 
L 216.944423 290.559123 
L 216.596227 291.217806 
L 216.583568 291.241703 
L 216.220098 291.924284 
L 215.913647 292.497712 
L 215.855189 292.606865 
L 215.487847 293.289446 
L 215.231066 293.764773 
L 215.118865 293.972027 
L 214.747665 294.654607 
L 214.548485 295.019391 
L 214.374592 295.337188 
L 213.999546 296.019769 
L 213.865904 296.26195 
L 213.622362 296.70235 
L 213.243485 297.384931 
L 213.183323 297.492817 
L 212.862171 298.067511 
L 212.500743 298.712091 
L 212.479389 298.750092 
L 212.094014 299.432673 
L 211.818162 299.919576 
L 211.707066 300.115254 
L 211.317884 300.797835 
L 211.135581 301.11634 
L 210.926751 301.480415 
L 210.533776 302.162996 
L 210.453 302.302699 
L 210.138439 302.845577 
L 209.770419 303.478636 
L 209.741569 303.528158 
L 209.342125 304.210739 
L 209.087839 304.643802 
L 208.941013 304.893319 
L 208.537803 305.5759 
L 208.405258 305.799406 
L 208.132431 306.258481 
L 207.725467 306.941062 
L 207.722677 306.945721 
L 207.315816 307.623643 
L 207.040096 308.081596 
L 206.904565 308.306223 
L 206.491162 308.988804 
L 206.357515 309.208642 
L 206.075594 309.671385 
L 205.674935 310.326966 
L 205.658398 310.353966 
L 205.23856 311.036547 
L 204.992354 311.435562 
L 204.817008 311.719127 
L 204.393457 312.401708 
L 204.309773 312.536049 
L 203.967529 313.084289 
L 203.627192 313.627804 
L 203.539925 313.76687 
L 203.109957 314.449451 
L 202.944611 314.711041 
L 202.677938 315.132031 
L 202.262031 315.786629 
L 202.244213 315.814612 
L 201.807833 316.497193 
L 201.57945 316.853329 
L 201.511769 316.958641 
" clip-path="url(#pc0dc793199)" style="fill: none; stroke: #ff0000; stroke-width: 1.5"/>
   </g>
   <g id="PathCollection_8">
    <path d="M -1 117.943709 
L 6.316245 112.686029 
L 13.804546 107.555847 
L 21.730487 102.396975 
L 29.529978 97.587003 
L 37.018278 93.214433 
L 44.809283 88.918033 
L 52.011335 85.173883 
L 59.676089 81.429732 
L 66.971481 78.095928 
L 74.459782 74.908414 
L 81.948083 71.960692 
L 89.436384 69.255597 
L 96.924684 66.797372 
L 104.412985 64.590882 
L 111.627914 62.708981 
L 118.188964 61.21132 
L 124.631397 59.944676 
L 131.370868 58.843158 
L 138.110338 57.979188 
L 144.849809 57.36249 
L 150.84045 57.032093 
L 156.83109 56.91616 
L 162.821731 57.026348 
L 168.812371 57.375176 
L 174.054182 57.888694 
L 179.295993 58.608229 
L 184.537803 59.547465 
L 189.779614 60.722634 
L 195.021424 62.151945 
L 199.514405 63.596098 
L 204.007385 65.259981 
L 208.588028 67.201961 
L 212.993346 69.327119 
L 216.737496 71.351698 
L 220.481647 73.597129 
L 224.369533 76.187922 
L 227.969947 78.851007 
L 231.138455 81.429732 
L 234.709418 84.635627 
L 237.704738 87.603518 
L 240.960932 91.164523 
L 244.041271 94.908674 
L 246.815836 98.652824 
L 249.320358 102.396975 
L 251.584986 106.141125 
L 253.633417 109.885275 
L 255.833514 114.378256 
L 257.92315 119.229279 
L 259.491984 123.364217 
L 261.223224 128.606027 
L 262.691277 133.847838 
L 263.917592 139.089648 
L 264.918894 144.331459 
L 265.711758 149.573269 
L 266.379052 155.56391 
L 266.807617 161.55455 
L 267.011561 167.545191 
L 267.003415 173.535832 
L 266.793805 179.526472 
L 266.328721 186.265943 
L 265.631908 193.005414 
L 264.662621 200.075282 
L 263.581112 206.484355 
L 262.243045 213.223826 
L 260.52197 220.712126 
L 258.56184 228.200427 
L 256.368378 235.688728 
L 253.946447 243.177028 
L 251.18368 250.982474 
L 248.135467 258.90246 
L 244.70559 267.139591 
L 241.360275 274.627892 
L 237.430407 282.865022 
L 233.211758 291.154538 
L 228.718777 299.457641 
L 224.064721 307.576415 
L 218.983986 315.960926 
L 218.360393 316.958641 
L 218.360393 316.958641 
" clip-path="url(#pc0dc793199)" style="fill: none; stroke: #0000ff; stroke-width: 1.5"/>
   </g>
   <g id="PathCollection_9">
    <path d="M -1 103.450142 
L -0.788708 103.298426 
L -0.312358 102.957072 
L 0.334527 102.49496 
L 0.491108 102.383328 
L 1.294573 101.812545 
L 1.465577 101.691494 
L 2.098039 101.244678 
L 2.604475 100.888028 
L 2.901505 100.679266 
L 3.704971 100.116421 
L 3.750629 100.084563 
L 4.508437 99.556842 
L 4.905682 99.281097 
L 5.311903 98.99968 
L 6.067906 98.477631 
L 6.115369 98.444921 
L 6.918835 97.893417 
L 7.239334 97.674165 
L 7.722301 97.344424 
L 8.418426 96.870699 
L 8.525767 96.797796 
L 9.329233 96.254259 
L 9.606683 96.067233 
L 10.132699 95.713354 
L 10.803188 95.263767 
L 10.936164 95.174778 
L 11.73963 94.639222 
L 12.009042 94.460301 
L 12.543096 94.106326 
L 13.223533 93.656835 
L 13.346562 93.575723 
L 14.150028 93.048165 
L 14.447796 92.853369 
L 14.953494 92.523199 
L 15.68087 92.049903 
L 15.75696 92.00049 
L 16.560426 91.480946 
L 16.924401 91.246437 
L 17.363892 90.963831 
L 18.167358 90.448963 
L 18.17675 90.442972 
L 18.970824 89.937423 
L 19.440395 89.639506 
L 19.77429 89.428083 
L 20.577755 88.921265 
L 20.713449 88.83604 
L 21.381221 88.417458 
L 21.997398 88.032574 
L 22.184687 87.915816 
L 22.988153 87.417062 
L 23.292155 87.229108 
L 23.791619 86.920911 
L 24.595085 86.426896 
L 24.597135 86.425642 
L 25.398551 85.936216 
L 25.914637 85.622176 
L 26.202017 85.447646 
L 27.005483 84.961732 
L 27.243001 84.81871 
L 27.808949 84.478591 
L 28.582767 84.015244 
L 28.612415 83.997526 
L 29.41588 83.519726 
L 29.935677 83.211778 
L 30.219346 83.044049 
L 31.022812 82.571051 
L 31.300476 82.408312 
L 31.826278 82.100743 
L 32.629744 81.632566 
L 32.677556 81.604847 
L 33.43321 81.167607 
L 34.068539 80.801381 
L 34.236676 80.704649 
L 35.040142 80.24464 
L 35.472913 79.997915 
L 35.843608 79.786991 
L 36.647074 79.331844 
L 36.890779 79.194449 
L 37.45054 78.879483 
L 38.254006 78.429219 
L 38.322596 78.390983 
L 39.057471 77.982126 
L 39.769532 77.587517 
L 39.860937 77.536961 
L 40.664403 77.094919 
L 41.231823 76.784051 
L 41.467869 76.654982 
L 42.271335 76.217862 
L 42.709483 75.980585 
L 43.074801 75.783134 
L 43.878267 75.350956 
L 44.203057 75.177119 
L 44.681733 74.921416 
L 45.485199 74.4942 
L 45.713114 74.373653 
L 46.288665 74.069829 
L 47.092131 73.647595 
L 47.240253 73.570187 
L 47.895597 73.228373 
L 48.699062 72.81114 
L 48.785099 72.766721 
L 49.502528 72.397048 
L 50.305994 71.984836 
L 50.348312 71.963256 
L 51.10946 71.575853 
L 51.912926 71.168682 
L 51.930582 71.15979 
L 52.716392 70.76479 
L 53.519858 70.362679 
L 53.532636 70.356324 
L 54.323324 69.963856 
L 55.12679 69.566825 
L 55.155236 69.552858 
L 55.930256 69.173054 
L 56.733722 68.781123 
L 56.799187 68.749392 
L 57.537188 68.392382 
L 58.340653 68.005571 
L 58.465334 67.945926 
L 59.144119 67.621841 
L 59.947585 67.240169 
L 60.154568 67.14246 
L 60.751051 66.86143 
L 61.554517 66.484917 
L 61.867828 66.338994 
L 62.357983 66.111151 
L 63.161449 65.739816 
L 63.606106 65.535528 
L 63.964915 65.371002 
L 64.768381 65.004866 
L 65.370447 64.732062 
L 65.571847 64.640983 
L 66.375313 64.280066 
L 67.161958 63.928596 
L 67.178779 63.921096 
L 67.982244 63.565416 
L 68.78571 63.211675 
L 68.983663 63.12513 
L 69.589176 62.860917 
L 70.392642 62.512454 
L 70.835444 62.321665 
L 71.196108 62.166568 
L 71.999574 61.823403 
L 72.71848 61.518199 
L 72.80304 61.48237 
L 73.606506 61.144523 
L 74.409972 60.808688 
L 74.636434 60.714733 
L 75.213438 60.475812 
L 76.016904 60.145336 
L 76.589845 59.911267 
L 76.82037 59.817272 
L 77.623835 59.492174 
L 78.427301 59.169142 
L 78.581103 59.107801 
L 79.230767 58.849202 
L 80.034233 58.531589 
L 80.613261 58.304335 
L 80.837699 58.216421 
L 81.641165 57.904247 
L 82.444631 57.594194 
L 82.688482 57.500869 
L 83.248097 57.287115 
L 84.051563 56.982543 
L 84.809211 56.697403 
L 84.855029 56.680193 
L 85.658495 56.381122 
L 86.46196 56.084227 
L 86.981115 55.893937 
L 87.265426 55.789931 
L 88.068892 55.498579 
L 88.872358 55.209437 
L 89.205888 55.090471 
L 89.675824 54.92318 
L 90.47929 54.639624 
L 91.282756 54.358313 
L 91.488372 54.287005 
L 92.086222 54.08008 
L 92.889688 53.804397 
L 93.693154 53.530995 
L 93.834024 53.483539 
L 94.49662 53.260771 
L 95.300086 52.993039 
L 96.103551 52.727624 
L 96.249009 52.680074 
L 96.907017 52.465394 
L 97.710483 52.205692 
L 98.513949 51.948344 
L 98.74032 51.876608 
L 99.317415 51.694091 
L 100.120881 51.442499 
L 100.924347 51.193298 
L 101.315926 51.073142 
L 101.727813 50.947005 
L 102.531279 50.703604 
L 103.334745 50.462631 
L 103.984944 50.269676 
L 104.138211 50.224282 
L 104.941677 49.989152 
L 105.745142 49.756489 
L 106.548608 49.526307 
L 106.760994 49.46621 
L 107.352074 49.299291 
L 108.15554 49.07502 
L 108.959006 48.853268 
L 109.657496 48.662744 
L 109.762472 48.634167 
L 110.565938 48.418371 
L 111.369404 48.205135 
L 112.17287 47.994473 
L 112.69529 47.859278 
L 112.976336 47.786694 
L 113.779802 47.582056 
L 114.583268 47.380033 
L 115.386733 47.180641 
L 115.896882 47.055812 
L 116.190199 46.984185 
L 116.993665 46.790887 
L 117.797131 46.60026 
L 118.600597 46.41232 
L 119.294682 46.252346 
L 119.404063 46.227187 
L 120.207529 46.045413 
L 121.010995 45.866368 
L 121.814461 45.690068 
L 122.617927 45.516531 
L 122.936636 45.44888 
L 123.421393 45.346194 
L 124.224859 45.178919 
L 125.028324 45.01445 
L 125.83179 44.852803 
L 126.635256 44.693996 
L 126.885907 44.645414 
L 127.438722 44.538486 
L 128.242188 44.386041 
L 129.045654 44.23648 
L 129.84912 44.08982 
L 130.652586 43.946079 
L 131.247103 43.841948 
L 131.456052 43.805427 
L 132.259518 43.668149 
L 133.062984 43.533836 
L 133.866449 43.402506 
L 134.669915 43.274177 
L 135.473381 43.148868 
L 136.198898 43.038483 
L 136.276847 43.026647 
L 137.080313 42.907933 
L 137.883779 42.792285 
L 138.687245 42.679723 
L 139.490711 42.570267 
L 140.294177 42.463935 
L 141.097643 42.360748 
L 141.901109 42.260725 
L 142.114742 42.235017 
L 142.704575 42.164187 
L 143.50804 42.07095 
L 144.311506 41.980926 
L 145.114972 41.894137 
L 145.918438 41.810601 
L 146.721904 41.730341 
L 147.52537 41.653377 
L 148.328836 41.579731 
L 149.132302 41.509423 
L 149.935768 41.442475 
L 150.074102 41.431551 
L 150.739234 41.379136 
L 151.5427 41.319233 
L 152.346166 41.262742 
L 153.149631 41.209686 
L 153.953097 41.160086 
L 154.756563 41.113965 
L 155.560029 41.071346 
L 156.363495 41.032252 
L 157.166961 40.996706 
L 157.970427 40.96473 
L 158.773893 40.936349 
L 159.577359 40.911585 
L 160.380825 40.890464 
L 161.184291 40.873009 
L 161.987757 40.859244 
L 162.791222 40.849194 
L 163.594688 40.842884 
L 164.398154 40.840338 
L 165.20162 40.841582 
L 166.005086 40.846641 
L 166.808552 40.855541 
L 167.612018 40.868307 
L 168.415484 40.884967 
L 169.21895 40.905545 
L 170.022416 40.930069 
L 170.825882 40.958565 
L 171.629348 40.991061 
L 172.432813 41.027584 
L 173.236279 41.068161 
L 174.039745 41.112821 
L 174.843211 41.16159 
L 175.646677 41.214498 
L 176.450143 41.271574 
L 177.253609 41.332845 
L 178.057075 41.398341 
L 178.440086 41.431551 
L 178.860541 41.468262 
L 179.664007 41.542642 
L 180.467473 41.621359 
L 181.270938 41.704442 
L 182.074404 41.791922 
L 182.87787 41.88383 
L 183.681336 41.980197 
L 184.484802 42.081056 
L 185.288268 42.186438 
L 185.643773 42.235017 
L 186.091734 42.296668 
L 186.8952 42.411743 
L 187.698666 42.531463 
L 188.502132 42.655863 
L 189.305598 42.784976 
L 190.109064 42.918836 
L 190.802676 43.038483 
L 190.912529 43.05757 
L 191.715995 43.20173 
L 192.519461 43.350769 
L 193.322927 43.504722 
L 194.126393 43.663627 
L 194.929859 43.82752 
L 194.998643 43.841948 
L 195.733325 43.997206 
L 196.536791 44.172054 
L 197.340257 44.352033 
L 198.143723 44.53718 
L 198.601065 44.645414 
L 198.947189 44.727948 
L 199.750655 44.924539 
L 200.55412 45.126448 
L 201.357586 45.333715 
L 201.793194 45.44888 
L 202.161052 45.546881 
L 202.964518 45.766111 
L 203.767984 45.990856 
L 204.57145 46.221162 
L 204.677898 46.252346 
L 205.374916 46.458135 
L 206.178382 46.700951 
L 206.981848 46.949495 
L 207.318252 47.055812 
L 207.785314 47.20459 
L 208.58878 47.466098 
L 209.392246 47.733508 
L 209.762442 47.859278 
L 210.195711 48.007655 
L 210.999177 48.288508 
L 211.802643 48.575445 
L 212.042429 48.662744 
L 212.606109 48.86963 
L 213.409575 49.170511 
L 214.183144 49.46621 
L 214.213041 49.477732 
L 215.016507 49.792938 
L 215.819973 50.114568 
L 216.200351 50.269676 
L 216.623439 50.443635 
L 217.426905 50.780138 
L 218.113264 51.073142 
L 218.230371 51.123555 
L 219.033837 51.475348 
L 219.837302 51.833934 
L 219.931361 51.876608 
L 220.640768 52.201208 
L 221.444234 52.575686 
L 221.66454 52.680074 
L 222.2477 52.958779 
L 223.051166 53.349606 
L 223.322049 53.483539 
L 223.854632 53.749167 
L 224.658098 54.156821 
L 224.910629 54.287005 
L 225.461564 54.573533 
L 226.26503 54.998512 
L 226.436244 55.090471 
L 227.068496 55.433091 
L 227.871962 55.875915 
L 227.904191 55.893937 
L 228.675427 56.329116 
L 229.317403 56.697403 
L 229.478893 56.790892 
L 230.282359 57.262944 
L 230.681098 57.500869 
L 231.085825 57.744601 
L 231.889291 58.235977 
L 231.999496 58.304335 
L 232.692757 58.738378 
L 233.273768 59.107801 
L 233.496223 59.250581 
L 234.299689 59.773742 
L 234.507924 59.911267 
L 235.103155 60.308139 
L 235.703994 60.714733 
L 235.906621 60.853177 
L 236.710087 61.409873 
L 236.86431 61.518199 
L 237.513553 61.978689 
L 237.990266 62.321665 
L 238.317018 62.559073 
L 239.085224 63.12513 
L 239.120484 63.151371 
L 239.92395 63.757097 
L 240.148366 63.928596 
L 240.727416 64.375587 
L 241.182996 64.732062 
L 241.530882 65.007054 
L 242.190567 65.535528 
L 242.334348 65.651901 
L 243.137814 66.310742 
L 243.171842 66.338994 
L 243.94128 66.984534 
L 244.127103 67.14246 
L 244.744746 67.672932 
L 245.058576 67.945926 
L 245.548212 68.376404 
L 245.967153 68.749392 
L 246.351678 69.095439 
L 246.853682 69.552858 
L 247.155144 69.830547 
L 247.718969 70.356324 
L 247.958609 70.582261 
L 248.563783 71.15979 
L 248.762075 71.351138 
L 249.388855 71.963256 
L 249.565541 72.137759 
L 250.194881 72.766721 
L 250.369007 72.942732 
L 250.982526 73.570187 
L 251.172473 73.766695 
L 251.752424 74.373653 
L 251.975939 74.610313 
L 252.505179 75.177119 
L 252.779405 75.474285 
L 253.241371 75.980585 
L 253.582871 76.359341 
L 253.96155 76.784051 
L 254.386337 77.266249 
L 254.666244 77.587517 
L 255.189803 78.195812 
L 255.35596 78.390983 
L 255.993269 79.148875 
L 256.031179 79.194449 
L 256.691605 79.997915 
L 256.796735 80.127411 
L 257.338085 80.801381 
L 257.6002 81.131901 
L 257.97133 81.604847 
L 258.403666 82.162962 
L 258.59175 82.408312 
L 259.19969 83.211778 
L 259.207132 83.221734 
L 259.794189 84.015244 
L 260.010598 84.311703 
L 260.376952 84.81871 
L 260.814064 85.431911 
L 260.948331 85.622176 
L 261.507926 86.425642 
L 261.61753 86.585089 
L 262.055842 87.229108 
L 262.420996 87.773244 
L 262.593318 88.032574 
L 263.119967 88.83604 
L 263.224462 88.997609 
L 263.635587 89.639506 
L 264.027928 90.261103 
L 264.141619 90.442972 
L 264.63708 91.246437 
L 264.831394 91.566084 
L 265.122723 92.049903 
L 265.599321 92.853369 
L 265.63486 92.914098 
L 266.065445 93.656835 
L 266.438326 94.310162 
L 266.523222 94.460301 
L 266.971191 95.263767 
L 267.241791 95.75668 
L 267.410718 96.067233 
L 267.841298 96.870699 
L 268.045257 97.257172 
L 268.263333 97.674165 
L 268.677037 98.477631 
L 268.848723 98.81625 
L 269.082302 99.281097 
L 269.479624 100.084563 
L 269.652189 100.43907 
L 269.868801 100.888028 
L 270.250214 101.691494 
L 270.455655 102.131407 
L 270.623954 102.49496 
L 270.98991 103.298426 
L 271.259121 103.89976 
L 271.348832 104.101892 
L 271.699768 104.905358 
L 272.044354 105.708824 
L 272.062587 105.752017 
L 272.380791 106.51229 
L 272.710924 107.315756 
L 272.866053 107.699922 
L 273.033943 108.119222 
L 273.350018 108.922688 
L 273.660088 109.726154 
L 273.669519 109.751004 
L 273.962539 110.529619 
L 274.259069 111.333085 
L 274.472985 111.923891 
L 274.549351 112.136551 
L 274.832702 112.940017 
L 275.110364 113.743483 
L 275.276451 114.233555 
L 275.3818 114.546949 
L 275.646756 115.350415 
L 275.906195 116.153881 
L 276.079916 116.703037 
L 276.159722 116.957347 
L 276.406906 117.760813 
L 276.648734 118.564279 
L 276.883382 119.361395 
L 276.885237 119.367745 
L 277.115238 120.17121 
L 277.34004 120.974676 
L 277.55968 121.778142 
L 277.686848 122.253956 
L 277.773737 122.581608 
L 277.982069 123.385074 
L 278.185388 124.18854 
L 278.383729 124.992006 
L 278.490314 125.434311 
L 278.576679 125.795472 
L 278.7642 126.598938 
L 278.946884 127.402404 
L 279.124765 128.20587 
L 279.29378 128.990263 
L 279.297859 129.009336 
L 279.46538 129.812801 
L 279.628231 130.616267 
L 279.786446 131.419733 
L 279.940058 132.223199 
L 280.089099 133.026665 
L 280.097246 133.071859 
L 280.232918 133.830131 
L 280.372217 134.633597 
L 280.507068 135.437063 
L 280.637504 136.240529 
L 280.763554 137.043995 
L 280.885251 137.847461 
L 280.900712 137.953084 
L 281.002121 138.650926 
L 281.114645 139.454392 
L 281.22293 140.257858 
L 281.327004 141.061324 
L 281.426897 141.86479 
L 281.522637 142.668256 
L 281.614254 143.471722 
L 281.701775 144.275188 
L 281.704178 144.298275 
L 281.784837 145.078654 
L 281.863869 145.88212 
L 281.938911 146.685586 
L 282.009987 147.489052 
L 282.077127 148.292517 
L 282.140355 149.095983 
L 282.199699 149.899449 
L 282.255184 150.702915 
L 282.306836 151.506381 
L 282.354681 152.309847 
L 282.398745 153.113313 
L 282.439051 153.916779 
L 282.475626 154.720245 
L 282.507644 155.502882 
L 282.50849 155.523711 
L 282.53754 156.327177 
L 282.562949 157.130643 
L 282.58474 157.934108 
L 282.602939 158.737574 
L 282.617568 159.54104 
L 282.62865 160.344506 
L 282.636209 161.147972 
L 282.640267 161.951438 
L 282.640846 162.754904 
L 282.63797 163.55837 
L 282.63166 164.361836 
L 282.621939 165.165302 
L 282.608828 165.968768 
L 282.592349 166.772234 
L 282.572524 167.575699 
L 282.549373 168.379165 
L 282.522919 169.182631 
L 282.507644 169.594905 
L 282.493116 169.986097 
L 282.459967 170.789563 
L 282.423563 171.593029 
L 282.383924 172.396495 
L 282.341071 173.199961 
L 282.295022 174.003427 
L 282.2458 174.806893 
L 282.193423 175.610359 
L 282.137911 176.413825 
L 282.079285 177.21729 
L 282.017562 178.020756 
L 281.952763 178.824222 
L 281.884907 179.627688 
L 281.814013 180.431154 
L 281.740099 181.23462 
L 281.704178 181.609443 
L 281.663004 182.038086 
L 281.582757 182.841552 
L 281.499535 183.645018 
L 281.413356 184.448484 
L 281.324237 185.25195 
L 281.232197 186.055415 
L 281.137254 186.858881 
L 281.039425 187.662347 
L 280.938729 188.465813 
L 280.900712 188.760423 
L 280.834899 189.269279 
L 280.72806 190.072745 
L 280.618396 190.876211 
L 280.505922 191.679677 
L 280.390656 192.483143 
L 280.272615 193.286609 
L 280.151816 194.090075 
L 280.097246 194.444578 
L 280.02798 194.893541 
L 279.901174 195.697006 
L 279.771651 196.500472 
L 279.639426 197.303938 
L 279.504514 198.107404 
L 279.366933 198.91087 
L 279.29378 199.329598 
L 279.226414 199.714336 
L 279.082937 200.517802 
L 278.936828 201.321268 
L 278.788105 202.124734 
L 278.636782 202.9282 
L 278.490314 203.692754 
L 278.482843 203.731666 
L 278.325708 204.535132 
L 278.166011 205.338597 
L 278.003768 206.142063 
L 277.838993 206.945529 
L 277.686848 207.676117 
L 277.671638 207.748995 
L 277.501133 208.552461 
L 277.328135 209.355927 
L 277.152656 210.159393 
L 276.974712 210.962859 
L 276.883382 211.369243 
L 276.793946 211.766325 
L 276.610354 212.569791 
L 276.424333 213.373257 
L 276.235898 214.176723 
L 276.079916 214.833205 
L 276.044916 214.980188 
L 275.850891 215.783654 
L 275.654487 216.58712 
L 275.455717 217.390586 
L 275.276451 218.106589 
L 275.254504 218.194052 
L 275.050203 218.997518 
L 274.843571 219.800984 
L 274.634622 220.60445 
L 274.472985 221.21893 
L 274.423164 221.407916 
L 274.208741 222.211382 
L 273.992035 223.014848 
L 273.773059 223.818314 
L 273.669519 224.193961 
L 273.551342 224.621779 
L 273.326949 225.425245 
L 273.10032 226.228711 
L 272.871468 227.032177 
L 272.866053 227.05097 
L 272.63948 227.835643 
L 272.405266 228.639109 
L 272.168862 229.442575 
L 272.062587 229.800095 
L 271.929739 230.246041 
L 271.68801 231.049507 
L 271.444123 231.852973 
L 271.259121 232.456845 
L 271.197842 232.656439 
L 270.948665 233.459904 
L 270.697362 234.26337 
L 270.455655 235.029645 
L 270.443899 235.066836 
L 270.187341 235.870302 
L 269.92869 236.673768 
L 269.667957 237.477234 
L 269.652189 237.525356 
L 269.404151 238.2807 
L 269.138218 239.084166 
L 268.870234 239.887632 
L 268.848723 239.951526 
L 268.599203 240.691098 
L 268.326054 241.494564 
L 268.050885 242.29803 
L 268.045257 242.314312 
L 267.772608 243.101495 
L 267.492308 243.904961 
L 267.241791 244.617842 
L 267.20989 244.708427 
L 266.924474 245.511893 
L 266.637088 246.315359 
L 266.438326 246.866963 
L 266.347377 247.118825 
L 266.054909 247.922291 
L 265.760501 248.725757 
L 265.63486 249.066041 
L 265.463475 249.529223 
L 265.16402 250.332689 
L 264.862655 251.136155 
L 264.831394 251.218836 
L 264.558293 251.939621 
L 264.251914 252.743086 
L 264.027928 253.326594 
L 263.943314 253.546552 
L 263.631937 254.350018 
L 263.318696 255.153484 
L 263.224462 255.393458 
L 263.002716 255.95695 
L 262.684511 256.760416 
L 262.420996 257.421757 
L 262.364245 257.563882 
L 262.04109 258.367348 
L 261.716121 259.170814 
L 261.61753 259.412907 
L 261.388429 259.97428 
L 261.058544 260.777746 
L 260.814064 261.369695 
L 260.726521 261.581212 
L 260.391734 262.384677 
L 260.055179 263.188143 
L 260.010598 263.293846 
L 259.715686 263.991609 
L 259.374264 264.795075 
L 259.207132 265.186009 
L 259.030393 265.598541 
L 258.684118 266.402007 
L 258.403666 267.049284 
L 258.335849 267.205473 
L 257.984737 268.008939 
L 257.63192 268.812405 
L 257.6002 268.88417 
L 257.276113 269.615871 
L 256.918492 270.419337 
L 256.796735 270.691273 
L 256.558241 271.222803 
L 256.195831 272.026268 
L 255.993269 272.472929 
L 255.831113 272.829734 
L 255.46393 273.6332 
L 255.189803 274.230081 
L 255.094724 274.436666 
L 254.722782 275.240132 
L 254.386337 275.963622 
L 254.349066 276.043598 
L 253.972382 276.847064 
L 253.59409 277.65053 
L 253.582871 277.674214 
L 253.212722 278.453996 
L 252.82972 279.257462 
L 252.779405 279.362407 
L 252.443797 280.060928 
L 252.0561 280.864393 
L 251.975939 281.029605 
L 251.665601 281.667859 
L 251.273224 282.471325 
L 251.172473 282.676534 
L 250.878126 283.274791 
L 250.481085 284.078257 
L 250.369007 284.303885 
L 250.081366 284.881723 
L 249.679676 285.685189 
L 249.565541 285.91232 
L 249.275315 286.488655 
L 248.868992 287.292121 
L 248.762075 287.50247 
L 248.459967 288.095587 
L 248.049025 288.899053 
L 247.958609 289.07494 
L 247.635314 289.702519 
L 247.219771 290.505984 
L 247.155144 290.630307 
L 246.801352 291.30945 
L 246.381221 292.112916 
L 246.351678 292.169123 
L 245.958072 292.916382 
L 245.548212 293.691718 
L 245.53331 293.719848 
L 245.10547 294.523314 
L 244.744746 295.198296 
L 244.675935 295.32678 
L 244.243537 296.130246 
L 243.94128 296.689754 
L 243.809209 296.933712 
L 243.372269 297.737178 
L 243.137814 298.166565 
L 242.933124 298.540644 
L 242.491658 299.34411 
L 242.334348 299.62918 
L 242.047675 300.147575 
L 241.601698 300.951041 
L 241.530882 301.078034 
L 241.152854 301.754507 
L 240.727416 302.513242 
L 240.702281 302.557973 
L 240.248656 303.361439 
L 239.92395 303.934573 
L 239.793179 304.164905 
L 239.335073 304.968371 
L 239.120484 305.343284 
L 238.87467 305.771837 
L 238.4121 306.575303 
L 238.317018 306.739747 
L 237.946748 307.378769 
L 237.513553 308.123942 
L 237.479593 308.182235 
L 237.009407 308.985701 
L 236.710087 309.495459 
L 236.537259 309.789166 
L 236.06264 310.592632 
L 235.906621 310.855721 
L 235.585476 311.396098 
L 235.106439 312.199564 
L 235.103155 312.205049 
L 234.624238 313.00303 
L 234.299689 313.542087 
L 234.140155 313.806496 
L 233.653539 314.609962 
L 233.496223 314.868732 
L 233.164373 315.413428 
L 232.692757 316.185112 
L 232.673292 316.216894 
L 232.217062 316.958641 
" clip-path="url(#pc0dc793199)" style="fill: none; stroke: #008000; stroke-width: 1.5"/>
   </g>
   <g id="line2d_15">
    <path d="M 53.118125 277.248797 
" clip-path="url(#pc0dc793199)" style="fill: none; stroke: #ff0000; stroke-width: 1.5; stroke-linecap: square"/>
   </g>
   <g id="line2d_16">
    <path d="M 53.118125 277.248797 
" clip-path="url(#pc0dc793199)" style="fill: none; stroke: #0000ff; stroke-width: 1.5; stroke-linecap: square"/>
   </g>
   <g id="line2d_17">
    <path d="M 53.118125 277.248797 
" clip-path="url(#pc0dc793199)" style="fill: none; stroke: #008000; stroke-width: 1.5; stroke-linecap: square"/>
   </g>
   <g id="patch_3">
    <path d="M 53.118125 277.248797 
L 53.118125 11.136797 
" style="fill: none; stroke: #000000; stroke-width: 0.8; stroke-linejoin: miter; stroke-linecap: square"/>
   </g>
   <g id="patch_4">
    <path d="M 319.230125 277.248797 
L 319.230125 11.136797 
" style="fill: none; stroke: #000000; stroke-width: 0.8; stroke-linejoin: miter; stroke-linecap: square"/>
   </g>
   <g id="patch_5">
    <path d="M 53.118125 277.248797 
L 319.230125 277.248797 
" style="fill: none; stroke: #000000; stroke-width: 0.8; stroke-linejoin: miter; stroke-linecap: square"/>
   </g>
   <g id="patch_6">
    <path d="M 53.118125 11.136797 
L 319.230125 11.136797 
" style="fill: none; stroke: #000000; stroke-width: 0.8; stroke-linejoin: miter; stroke-linecap: square"/>
   </g>
   <g id="legend_1">
    <g id="patch_7">
     <path d="M 328.531725 168.256328 
L 457.891725 168.256328 
Q 460.091725 168.256328 460.091725 166.056328 
L 460.091725 18.836797 
Q 460.091725 16.636797 457.891725 16.636797 
L 328.531725 16.636797 
Q 326.331725 16.636797 326.331725 18.836797 
L 326.331725 166.056328 
Q 326.331725 168.256328 328.531725 168.256328 
z
" style="fill: #ffffff; opacity: 0.8; stroke: #cccccc; stroke-linejoin: miter"/>
    </g>
    <g id="PathCollection_10">
     <g>
      <use xlink:href="#m3f91b26087" x="341.731725" y="26.179297" style="fill: #ff0000; stroke: #000000"/>
     </g>
    </g>
    <g id="text_17">
     <!-- $\epsilon_p$=0.2% Trial 1 -->
     <g transform="translate(361.531725 29.066797) scale(0.11 -0.11)">
      <defs>
       <path id="DejaVuSans-Oblique-3b5" d="M 1263 1888 
Q 925 1963 778 2166 
Q 669 2309 669 2503 
Q 669 3034 1175 3344 
Q 1575 3588 2188 3588 
Q 2425 3588 2684 3550 
Q 2944 3513 3234 3438 
L 3134 2916 
Q 2847 3006 2606 3047 
Q 2359 3088 2138 3088 
Q 1766 3088 1522 2944 
Q 1228 2772 1228 2522 
Q 1228 2356 1381 2241 
Q 1563 2103 1925 2103 
L 2409 2103 
L 2319 1628 
L 1856 1628 
Q 1425 1628 1172 1469 
Q 828 1253 828 916 
Q 828 703 1013 563 
Q 1244 388 1716 388 
Q 2006 388 2284 444 
Q 2563 503 2806 619 
L 2700 84 
Q 2403 -3 2131 -47 
Q 1859 -91 1609 -91 
Q 866 -91 516 194 
Q 250 413 250 781 
Q 250 1278 600 1584 
Q 859 1813 1263 1888 
z
" transform="scale(0.015625)"/>
       <path id="DejaVuSans-Oblique-70" d="M 3175 2156 
Q 3175 2616 2975 2859 
Q 2775 3103 2400 3103 
Q 2144 3103 1911 2972 
Q 1678 2841 1497 2591 
Q 1319 2344 1212 1994 
Q 1106 1644 1106 1300 
Q 1106 863 1306 627 
Q 1506 391 1875 391 
Q 2147 391 2380 519 
Q 2613 647 2778 891 
Q 2956 1147 3065 1494 
Q 3175 1841 3175 2156 
z
M 1394 2969 
Q 1625 3272 1939 3428 
Q 2253 3584 2638 3584 
Q 3175 3584 3472 3232 
Q 3769 2881 3769 2247 
Q 3769 1728 3584 1258 
Q 3400 788 3053 416 
Q 2822 169 2531 39 
Q 2241 -91 1919 -91 
Q 1547 -91 1294 64 
Q 1041 219 916 525 
L 556 -1331 
L -19 -1331 
L 922 3500 
L 1497 3500 
L 1394 2969 
z
" transform="scale(0.015625)"/>
       <path id="ArialMT-3d" d="M 3381 2694 
L 356 2694 
L 356 3219 
L 3381 3219 
L 3381 2694 
z
M 3381 1303 
L 356 1303 
L 356 1828 
L 3381 1828 
L 3381 1303 
z
" transform="scale(0.015625)"/>
       <path id="ArialMT-2e" d="M 581 0 
L 581 641 
L 1222 641 
L 1222 0 
L 581 0 
z
" transform="scale(0.015625)"/>
       <path id="ArialMT-25" d="M 372 3481 
Q 372 3972 619 4315 
Q 866 4659 1334 4659 
Q 1766 4659 2048 4351 
Q 2331 4044 2331 3447 
Q 2331 2866 2045 2552 
Q 1759 2238 1341 2238 
Q 925 2238 648 2547 
Q 372 2856 372 3481 
z
M 1350 4272 
Q 1141 4272 1002 4090 
Q 863 3909 863 3425 
Q 863 2984 1003 2804 
Q 1144 2625 1350 2625 
Q 1563 2625 1702 2806 
Q 1841 2988 1841 3469 
Q 1841 3913 1700 4092 
Q 1559 4272 1350 4272 
z
M 1353 -169 
L 3859 4659 
L 4316 4659 
L 1819 -169 
L 1353 -169 
z
M 3334 1075 
Q 3334 1569 3581 1911 
Q 3828 2253 4300 2253 
Q 4731 2253 5014 1945 
Q 5297 1638 5297 1041 
Q 5297 459 5011 145 
Q 4725 -169 4303 -169 
Q 3888 -169 3611 142 
Q 3334 453 3334 1075 
z
M 4316 1866 
Q 4103 1866 3964 1684 
Q 3825 1503 3825 1019 
Q 3825 581 3965 400 
Q 4106 219 4313 219 
Q 4528 219 4667 400 
Q 4806 581 4806 1063 
Q 4806 1506 4665 1686 
Q 4525 1866 4316 1866 
z
" transform="scale(0.015625)"/>
       <path id="ArialMT-54" d="M 1659 0 
L 1659 4041 
L 150 4041 
L 150 4581 
L 3781 4581 
L 3781 4041 
L 2266 4041 
L 2266 0 
L 1659 0 
z
" transform="scale(0.015625)"/>
       <path id="ArialMT-72" d="M 416 0 
L 416 3319 
L 922 3319 
L 922 2816 
Q 1116 3169 1280 3281 
Q 1444 3394 1641 3394 
Q 1925 3394 2219 3213 
L 2025 2691 
Q 1819 2813 1613 2813 
Q 1428 2813 1281 2702 
Q 1134 2591 1072 2394 
Q 978 2094 978 1738 
L 978 0 
L 416 0 
z
" transform="scale(0.015625)"/>
       <path id="ArialMT-69" d="M 425 3934 
L 425 4581 
L 988 4581 
L 988 3934 
L 425 3934 
z
M 425 0 
L 425 3319 
L 988 3319 
L 988 0 
L 425 0 
z
" transform="scale(0.015625)"/>
       <path id="ArialMT-6c" d="M 409 0 
L 409 4581 
L 972 4581 
L 972 0 
L 409 0 
z
" transform="scale(0.015625)"/>
      </defs>
      <use xlink:href="#DejaVuSans-Oblique-3b5" transform="translate(0 0.203125)"/>
      <use xlink:href="#DejaVuSans-Oblique-70" transform="translate(54.052734 -16.203125) scale(0.7)"/>
      <use xlink:href="#ArialMT-3d" transform="translate(101.220703 0.203125)"/>
      <use xlink:href="#ArialMT-30" transform="translate(159.619141 0.203125)"/>
      <use xlink:href="#ArialMT-2e" transform="translate(215.234375 0.203125)"/>
      <use xlink:href="#ArialMT-32" transform="translate(243.017578 0.203125)"/>
      <use xlink:href="#ArialMT-25" transform="translate(298.632812 0.203125)"/>
      <use xlink:href="#ArialMT-20" transform="translate(387.548828 0.203125)"/>
      <use xlink:href="#ArialMT-54" transform="translate(415.332031 0.203125)"/>
      <use xlink:href="#ArialMT-72" transform="translate(476.416016 0.203125)"/>
      <use xlink:href="#ArialMT-69" transform="translate(509.716797 0.203125)"/>
      <use xlink:href="#ArialMT-61" transform="translate(531.933594 0.203125)"/>
      <use xlink:href="#ArialMT-6c" transform="translate(587.548828 0.203125)"/>
      <use xlink:href="#ArialMT-20" transform="translate(609.765625 0.203125)"/>
      <use xlink:href="#ArialMT-31" transform="translate(637.548828 0.203125)"/>
     </g>
    </g>
    <g id="PathCollection_11">
     <g>
      <use xlink:href="#m13ebc2f87f" x="341.731725" y="43.119297" style="fill: #ff0000; stroke: #000000"/>
     </g>
    </g>
    <g id="text_18">
     <!-- $\epsilon_p$=0.2% Trial 2 -->
     <g transform="translate(361.531725 46.006797) scale(0.11 -0.11)">
      <use xlink:href="#DejaVuSans-Oblique-3b5" transform="translate(0 0.203125)"/>
      <use xlink:href="#DejaVuSans-Oblique-70" transform="translate(54.052734 -16.203125) scale(0.7)"/>
      <use xlink:href="#ArialMT-3d" transform="translate(101.220703 0.203125)"/>
      <use xlink:href="#ArialMT-30" transform="translate(159.619141 0.203125)"/>
      <use xlink:href="#ArialMT-2e" transform="translate(215.234375 0.203125)"/>
      <use xlink:href="#ArialMT-32" transform="translate(243.017578 0.203125)"/>
      <use xlink:href="#ArialMT-25" transform="translate(298.632812 0.203125)"/>
      <use xlink:href="#ArialMT-20" transform="translate(387.548828 0.203125)"/>
      <use xlink:href="#ArialMT-54" transform="translate(415.332031 0.203125)"/>
      <use xlink:href="#ArialMT-72" transform="translate(476.416016 0.203125)"/>
      <use xlink:href="#ArialMT-69" transform="translate(509.716797 0.203125)"/>
      <use xlink:href="#ArialMT-61" transform="translate(531.933594 0.203125)"/>
      <use xlink:href="#ArialMT-6c" transform="translate(587.548828 0.203125)"/>
      <use xlink:href="#ArialMT-20" transform="translate(609.765625 0.203125)"/>
      <use xlink:href="#ArialMT-32" transform="translate(637.548828 0.203125)"/>
     </g>
    </g>
    <g id="PathCollection_12">
     <g>
      <use xlink:href="#m67f1e48e14" x="341.731725" y="60.059297" style="fill: #0000ff; stroke: #000000"/>
     </g>
    </g>
    <g id="text_19">
     <!-- $\epsilon_p$=0.5% Trial 1 -->
     <g transform="translate(361.531725 62.946797) scale(0.11 -0.11)">
      <defs>
       <path id="ArialMT-35" d="M 266 1200 
L 856 1250 
Q 922 819 1161 601 
Q 1400 384 1738 384 
Q 2144 384 2425 690 
Q 2706 997 2706 1503 
Q 2706 1984 2436 2262 
Q 2166 2541 1728 2541 
Q 1456 2541 1237 2417 
Q 1019 2294 894 2097 
L 366 2166 
L 809 4519 
L 3088 4519 
L 3088 3981 
L 1259 3981 
L 1013 2750 
Q 1425 3038 1878 3038 
Q 2478 3038 2890 2622 
Q 3303 2206 3303 1553 
Q 3303 931 2941 478 
Q 2500 -78 1738 -78 
Q 1113 -78 717 272 
Q 322 622 266 1200 
z
" transform="scale(0.015625)"/>
      </defs>
      <use xlink:href="#DejaVuSans-Oblique-3b5" transform="translate(0 0.203125)"/>
      <use xlink:href="#DejaVuSans-Oblique-70" transform="translate(54.052734 -16.203125) scale(0.7)"/>
      <use xlink:href="#ArialMT-3d" transform="translate(101.220703 0.203125)"/>
      <use xlink:href="#ArialMT-30" transform="translate(159.619141 0.203125)"/>
      <use xlink:href="#ArialMT-2e" transform="translate(215.234375 0.203125)"/>
      <use xlink:href="#ArialMT-35" transform="translate(243.017578 0.203125)"/>
      <use xlink:href="#ArialMT-25" transform="translate(298.632812 0.203125)"/>
      <use xlink:href="#ArialMT-20" transform="translate(387.548828 0.203125)"/>
      <use xlink:href="#ArialMT-54" transform="translate(415.332031 0.203125)"/>
      <use xlink:href="#ArialMT-72" transform="translate(476.416016 0.203125)"/>
      <use xlink:href="#ArialMT-69" transform="translate(509.716797 0.203125)"/>
      <use xlink:href="#ArialMT-61" transform="translate(531.933594 0.203125)"/>
      <use xlink:href="#ArialMT-6c" transform="translate(587.548828 0.203125)"/>
      <use xlink:href="#ArialMT-20" transform="translate(609.765625 0.203125)"/>
      <use xlink:href="#ArialMT-31" transform="translate(637.548828 0.203125)"/>
     </g>
    </g>
    <g id="PathCollection_13">
     <g>
      <use xlink:href="#mbd7002dd64" x="341.731725" y="76.999297" style="fill: #0000ff; stroke: #000000"/>
     </g>
    </g>
    <g id="text_20">
     <!-- $\epsilon_p$=0.5% Trial 2 -->
     <g transform="translate(361.531725 79.886797) scale(0.11 -0.11)">
      <use xlink:href="#DejaVuSans-Oblique-3b5" transform="translate(0 0.203125)"/>
      <use xlink:href="#DejaVuSans-Oblique-70" transform="translate(54.052734 -16.203125) scale(0.7)"/>
      <use xlink:href="#ArialMT-3d" transform="translate(101.220703 0.203125)"/>
      <use xlink:href="#ArialMT-30" transform="translate(159.619141 0.203125)"/>
      <use xlink:href="#ArialMT-2e" transform="translate(215.234375 0.203125)"/>
      <use xlink:href="#ArialMT-35" transform="translate(243.017578 0.203125)"/>
      <use xlink:href="#ArialMT-25" transform="translate(298.632812 0.203125)"/>
      <use xlink:href="#ArialMT-20" transform="translate(387.548828 0.203125)"/>
      <use xlink:href="#ArialMT-54" transform="translate(415.332031 0.203125)"/>
      <use xlink:href="#ArialMT-72" transform="translate(476.416016 0.203125)"/>
      <use xlink:href="#ArialMT-69" transform="translate(509.716797 0.203125)"/>
      <use xlink:href="#ArialMT-61" transform="translate(531.933594 0.203125)"/>
      <use xlink:href="#ArialMT-6c" transform="translate(587.548828 0.203125)"/>
      <use xlink:href="#ArialMT-20" transform="translate(609.765625 0.203125)"/>
      <use xlink:href="#ArialMT-32" transform="translate(637.548828 0.203125)"/>
     </g>
    </g>
    <g id="PathCollection_14">
     <g>
      <use xlink:href="#m8da0d4570a" x="341.731725" y="93.939297" style="fill: #008000; stroke: #000000"/>
     </g>
    </g>
    <g id="text_21">
     <!-- $\epsilon_p$=1.0% Trial 1 -->
     <g transform="translate(361.531725 96.826797) scale(0.11 -0.11)">
      <use xlink:href="#DejaVuSans-Oblique-3b5" transform="translate(0 0.203125)"/>
      <use xlink:href="#DejaVuSans-Oblique-70" transform="translate(54.052734 -16.203125) scale(0.7)"/>
      <use xlink:href="#ArialMT-3d" transform="translate(101.220703 0.203125)"/>
      <use xlink:href="#ArialMT-31" transform="translate(159.619141 0.203125)"/>
      <use xlink:href="#ArialMT-2e" transform="translate(215.234375 0.203125)"/>
      <use xlink:href="#ArialMT-30" transform="translate(243.017578 0.203125)"/>
      <use xlink:href="#ArialMT-25" transform="translate(298.632812 0.203125)"/>
      <use xlink:href="#ArialMT-20" transform="translate(387.548828 0.203125)"/>
      <use xlink:href="#ArialMT-54" transform="translate(415.332031 0.203125)"/>
      <use xlink:href="#ArialMT-72" transform="translate(476.416016 0.203125)"/>
      <use xlink:href="#ArialMT-69" transform="translate(509.716797 0.203125)"/>
      <use xlink:href="#ArialMT-61" transform="translate(531.933594 0.203125)"/>
      <use xlink:href="#ArialMT-6c" transform="translate(587.548828 0.203125)"/>
      <use xlink:href="#ArialMT-20" transform="translate(609.765625 0.203125)"/>
      <use xlink:href="#ArialMT-31" transform="translate(637.548828 0.203125)"/>
     </g>
    </g>
    <g id="PathCollection_15">
     <g>
      <use xlink:href="#me310f38e40" x="341.731725" y="110.879297" style="fill: #008000; stroke: #000000"/>
     </g>
    </g>
    <g id="text_22">
     <!-- $\epsilon_p$=1.0% Trial 2 -->
     <g transform="translate(361.531725 113.766797) scale(0.11 -0.11)">
      <use xlink:href="#DejaVuSans-Oblique-3b5" transform="translate(0 0.203125)"/>
      <use xlink:href="#DejaVuSans-Oblique-70" transform="translate(54.052734 -16.203125) scale(0.7)"/>
      <use xlink:href="#ArialMT-3d" transform="translate(101.220703 0.203125)"/>
      <use xlink:href="#ArialMT-31" transform="translate(159.619141 0.203125)"/>
      <use xlink:href="#ArialMT-2e" transform="translate(215.234375 0.203125)"/>
      <use xlink:href="#ArialMT-30" transform="translate(243.017578 0.203125)"/>
      <use xlink:href="#ArialMT-25" transform="translate(298.632812 0.203125)"/>
      <use xlink:href="#ArialMT-20" transform="translate(387.548828 0.203125)"/>
      <use xlink:href="#ArialMT-54" transform="translate(415.332031 0.203125)"/>
      <use xlink:href="#ArialMT-72" transform="translate(476.416016 0.203125)"/>
      <use xlink:href="#ArialMT-69" transform="translate(509.716797 0.203125)"/>
      <use xlink:href="#ArialMT-61" transform="translate(531.933594 0.203125)"/>
      <use xlink:href="#ArialMT-6c" transform="translate(587.548828 0.203125)"/>
      <use xlink:href="#ArialMT-20" transform="translate(609.765625 0.203125)"/>
      <use xlink:href="#ArialMT-32" transform="translate(637.548828 0.203125)"/>
     </g>
    </g>
    <g id="line2d_18">
     <path d="M 330.731725 126.700391 
L 341.731725 126.700391 
L 352.731725 126.700391 
" style="fill: none; stroke: #ff0000; stroke-width: 1.5; stroke-linecap: square"/>
    </g>
    <g id="text_23">
     <!-- Hill48 $\bar \sigma$ = 768 MPa -->
     <g transform="translate(361.531725 130.550391) scale(0.11 -0.11)">
      <defs>
       <path id="ArialMT-48" d="M 513 0 
L 513 4581 
L 1119 4581 
L 1119 2700 
L 3500 2700 
L 3500 4581 
L 4106 4581 
L 4106 0 
L 3500 0 
L 3500 2159 
L 1119 2159 
L 1119 0 
L 513 0 
z
" transform="scale(0.015625)"/>
       <path id="DejaVuSans-304" d="M -2518 4769 
L -650 4769 
L -650 4306 
L -2518 4306 
L -2518 4769 
z
" transform="scale(0.015625)"/>
       <path id="ArialMT-37" d="M 303 3981 
L 303 4522 
L 3269 4522 
L 3269 4084 
Q 2831 3619 2401 2847 
Q 1972 2075 1738 1259 
Q 1569 684 1522 0 
L 944 0 
Q 953 541 1156 1306 
Q 1359 2072 1739 2783 
Q 2119 3494 2547 3981 
L 303 3981 
z
" transform="scale(0.015625)"/>
      </defs>
      <use xlink:href="#ArialMT-48" transform="translate(0 0.53125)"/>
      <use xlink:href="#ArialMT-69" transform="translate(72.216797 0.53125)"/>
      <use xlink:href="#ArialMT-6c" transform="translate(94.433594 0.53125)"/>
      <use xlink:href="#ArialMT-6c" transform="translate(116.650391 0.53125)"/>
      <use xlink:href="#ArialMT-34" transform="translate(138.867188 0.53125)"/>
      <use xlink:href="#ArialMT-38" transform="translate(194.482422 0.53125)"/>
      <use xlink:href="#ArialMT-20" transform="translate(250.097656 0.53125)"/>
      <use xlink:href="#DejaVuSans-304" transform="translate(341.947266 0.484375)"/>
      <use xlink:href="#DejaVuSans-Oblique-3c3" transform="translate(277.880859 0.53125)"/>
      <use xlink:href="#ArialMT-20" transform="translate(341.259766 0.53125)"/>
      <use xlink:href="#ArialMT-3d" transform="translate(369.042969 0.53125)"/>
      <use xlink:href="#ArialMT-20" transform="translate(427.441406 0.53125)"/>
      <use xlink:href="#ArialMT-37" transform="translate(455.224609 0.53125)"/>
      <use xlink:href="#ArialMT-36" transform="translate(510.839844 0.53125)"/>
      <use xlink:href="#ArialMT-38" transform="translate(566.455078 0.53125)"/>
      <use xlink:href="#ArialMT-20" transform="translate(622.070312 0.53125)"/>
      <use xlink:href="#ArialMT-4d" transform="translate(649.853516 0.53125)"/>
      <use xlink:href="#ArialMT-50" transform="translate(733.154297 0.53125)"/>
      <use xlink:href="#ArialMT-61" transform="translate(799.853516 0.53125)"/>
     </g>
    </g>
    <g id="line2d_19">
     <path d="M 330.731725 142.260234 
L 341.731725 142.260234 
L 352.731725 142.260234 
" style="fill: none; stroke: #0000ff; stroke-width: 1.5; stroke-linecap: square"/>
    </g>
    <g id="text_24">
     <!-- Hill48 $\bar \sigma$ = 843 MPa -->
     <g transform="translate(361.531725 146.110234) scale(0.11 -0.11)">
      <defs>
       <path id="ArialMT-33" d="M 269 1209 
L 831 1284 
Q 928 806 1161 595 
Q 1394 384 1728 384 
Q 2125 384 2398 659 
Q 2672 934 2672 1341 
Q 2672 1728 2419 1979 
Q 2166 2231 1775 2231 
Q 1616 2231 1378 2169 
L 1441 2663 
Q 1497 2656 1531 2656 
Q 1891 2656 2178 2843 
Q 2466 3031 2466 3422 
Q 2466 3731 2256 3934 
Q 2047 4138 1716 4138 
Q 1388 4138 1169 3931 
Q 950 3725 888 3313 
L 325 3413 
Q 428 3978 793 4289 
Q 1159 4600 1703 4600 
Q 2078 4600 2393 4439 
Q 2709 4278 2876 4000 
Q 3044 3722 3044 3409 
Q 3044 3113 2884 2869 
Q 2725 2625 2413 2481 
Q 2819 2388 3044 2092 
Q 3269 1797 3269 1353 
Q 3269 753 2831 336 
Q 2394 -81 1725 -81 
Q 1122 -81 723 278 
Q 325 638 269 1209 
z
" transform="scale(0.015625)"/>
      </defs>
      <use xlink:href="#ArialMT-48" transform="translate(0 0.53125)"/>
      <use xlink:href="#ArialMT-69" transform="translate(72.216797 0.53125)"/>
      <use xlink:href="#ArialMT-6c" transform="translate(94.433594 0.53125)"/>
      <use xlink:href="#ArialMT-6c" transform="translate(116.650391 0.53125)"/>
      <use xlink:href="#ArialMT-34" transform="translate(138.867188 0.53125)"/>
      <use xlink:href="#ArialMT-38" transform="translate(194.482422 0.53125)"/>
      <use xlink:href="#ArialMT-20" transform="translate(250.097656 0.53125)"/>
      <use xlink:href="#DejaVuSans-304" transform="translate(341.947266 0.484375)"/>
      <use xlink:href="#DejaVuSans-Oblique-3c3" transform="translate(277.880859 0.53125)"/>
      <use xlink:href="#ArialMT-20" transform="translate(341.259766 0.53125)"/>
      <use xlink:href="#ArialMT-3d" transform="translate(369.042969 0.53125)"/>
      <use xlink:href="#ArialMT-20" transform="translate(427.441406 0.53125)"/>
      <use xlink:href="#ArialMT-38" transform="translate(455.224609 0.53125)"/>
      <use xlink:href="#ArialMT-34" transform="translate(510.839844 0.53125)"/>
      <use xlink:href="#ArialMT-33" transform="translate(566.455078 0.53125)"/>
      <use xlink:href="#ArialMT-20" transform="translate(622.070312 0.53125)"/>
      <use xlink:href="#ArialMT-4d" transform="translate(649.853516 0.53125)"/>
      <use xlink:href="#ArialMT-50" transform="translate(733.154297 0.53125)"/>
      <use xlink:href="#ArialMT-61" transform="translate(799.853516 0.53125)"/>
     </g>
    </g>
    <g id="line2d_20">
     <path d="M 330.731725 157.820078 
L 341.731725 157.820078 
L 352.731725 157.820078 
" style="fill: none; stroke: #008000; stroke-width: 1.5; stroke-linecap: square"/>
    </g>
    <g id="text_25">
     <!-- Hill48 $\bar \sigma$ = 904 MPa -->
     <g transform="translate(361.531725 161.670078) scale(0.11 -0.11)">
      <defs>
       <path id="ArialMT-39" d="M 350 1059 
L 891 1109 
Q 959 728 1153 556 
Q 1347 384 1650 384 
Q 1909 384 2104 503 
Q 2300 622 2425 820 
Q 2550 1019 2634 1356 
Q 2719 1694 2719 2044 
Q 2719 2081 2716 2156 
Q 2547 1888 2255 1720 
Q 1963 1553 1622 1553 
Q 1053 1553 659 1965 
Q 266 2378 266 3053 
Q 266 3750 677 4175 
Q 1088 4600 1706 4600 
Q 2153 4600 2523 4359 
Q 2894 4119 3086 3673 
Q 3278 3228 3278 2384 
Q 3278 1506 3087 986 
Q 2897 466 2520 194 
Q 2144 -78 1638 -78 
Q 1100 -78 759 220 
Q 419 519 350 1059 
z
M 2653 3081 
Q 2653 3566 2395 3850 
Q 2138 4134 1775 4134 
Q 1400 4134 1122 3828 
Q 844 3522 844 3034 
Q 844 2597 1108 2323 
Q 1372 2050 1759 2050 
Q 2150 2050 2401 2323 
Q 2653 2597 2653 3081 
z
" transform="scale(0.015625)"/>
      </defs>
      <use xlink:href="#ArialMT-48" transform="translate(0 0.53125)"/>
      <use xlink:href="#ArialMT-69" transform="translate(72.216797 0.53125)"/>
      <use xlink:href="#ArialMT-6c" transform="translate(94.433594 0.53125)"/>
      <use xlink:href="#ArialMT-6c" transform="translate(116.650391 0.53125)"/>
      <use xlink:href="#ArialMT-34" transform="translate(138.867188 0.53125)"/>
      <use xlink:href="#ArialMT-38" transform="translate(194.482422 0.53125)"/>
      <use xlink:href="#ArialMT-20" transform="translate(250.097656 0.53125)"/>
      <use xlink:href="#DejaVuSans-304" transform="translate(341.947266 0.484375)"/>
      <use xlink:href="#DejaVuSans-Oblique-3c3" transform="translate(277.880859 0.53125)"/>
      <use xlink:href="#ArialMT-20" transform="translate(341.259766 0.53125)"/>
      <use xlink:href="#ArialMT-3d" transform="translate(369.042969 0.53125)"/>
      <use xlink:href="#ArialMT-20" transform="translate(427.441406 0.53125)"/>
      <use xlink:href="#ArialMT-39" transform="translate(455.224609 0.53125)"/>
      <use xlink:href="#ArialMT-30" transform="translate(510.839844 0.53125)"/>
      <use xlink:href="#ArialMT-34" transform="translate(566.455078 0.53125)"/>
      <use xlink:href="#ArialMT-20" transform="translate(622.070312 0.53125)"/>
      <use xlink:href="#ArialMT-4d" transform="translate(649.853516 0.53125)"/>
      <use xlink:href="#ArialMT-50" transform="translate(733.154297 0.53125)"/>
      <use xlink:href="#ArialMT-61" transform="translate(799.853516 0.53125)"/>
     </g>
    </g>
   </g>
  </g>
 </g>
 <defs>
  <clipPath id="pc0dc793199">
   <rect x="53.118125" y="11.136797" width="266.112" height="266.112"/>
  </clipPath>
 </defs>
</svg>
