<?xml version="1.0" encoding="utf-8" standalone="no"?>
<!DOCTYPE svg PUBLIC "-//W3C//DTD SVG 1.1//EN"
  "http://www.w3.org/Graphics/SVG/1.1/DTD/svg11.dtd">
<svg xmlns:xlink="http://www.w3.org/1999/xlink" width="467.291725pt" height="315.958641pt" viewBox="0 0 467.291725 315.958641" xmlns="http://www.w3.org/2000/svg" version="1.1">
 <metadata>
  <rdf:RDF xmlns:dc="http://purl.org/dc/elements/1.1/" xmlns:cc="http://creativecommons.org/ns#" xmlns:rdf="http://www.w3.org/1999/02/22-rdf-syntax-ns#">
   <cc:Work>
    <dc:type rdf:resource="http://purl.org/dc/dcmitype/StillImage"/>
    <dc:date>2023-03-09T02:47:12.621592</dc:date>
    <dc:format>image/svg+xml</dc:format>
    <dc:creator>
     <cc:Agent>
      <dc:title>Matplotlib v3.6.2, https://matplotlib.org/</dc:title>
     </cc:Agent>
    </dc:creator>
   </cc:Work>
  </rdf:RDF>
 </metadata>
 <defs>
  <style type="text/css">*{stroke-linejoin: round; stroke-linecap: butt}</style>
 </defs>
 <g id="figure_1">
  <g id="patch_1">
   <path d="M 0 315.958641 
L 467.291725 315.958641 
L 467.291725 0 
L 0 0 
z
" style="fill: #ffffff"/>
  </g>
  <g id="axes_1">
   <g id="patch_2">
    <path d="M 53.118125 277.248797 
L 319.230125 277.248797 
L 319.230125 11.136797 
L 53.118125 11.136797 
z
" style="fill: #ffffff"/>
   </g>
   <g id="PathCollection_1">
    <defs>
     <path id="m3791d9e0fd" d="M 0 4.472136 
C 1.186024 4.472136 2.323632 4.000923 3.162278 3.162278 
C 4.000923 2.323632 4.472136 1.186024 4.472136 0 
C 4.472136 -1.186024 4.000923 -2.323632 3.162278 -3.162278 
C 2.323632 -4.000923 1.186024 -4.472136 0 -4.472136 
C -1.186024 -4.472136 -2.323632 -4.000923 -3.162278 -3.162278 
C -4.000923 -2.323632 -4.472136 -1.186024 -4.472136 0 
C -4.472136 1.186024 -4.000923 2.323632 -3.162278 3.162278 
C -2.323632 4.000923 -1.186024 4.472136 0 4.472136 
z
" style="stroke: #000000"/>
    </defs>
    <g clip-path="url(#pfba0fda50d)">
     <use xlink:href="#m3791d9e0fd" x="207.789072" y="277.248797" style="fill: #ff0000; stroke: #000000"/>
     <use xlink:href="#m3791d9e0fd" x="245.526415" y="180.752372" style="fill: #ff0000; stroke: #000000"/>
     <use xlink:href="#m3791d9e0fd" x="212.435609" y="118.437369" style="fill: #ff0000; stroke: #000000"/>
     <use xlink:href="#m3791d9e0fd" x="148.227219" y="87.284524" style="fill: #ff0000; stroke: #000000"/>
     <use xlink:href="#m3791d9e0fd" x="53.118125" y="122.57785" style="fill: #ff0000; stroke: #000000"/>
    </g>
   </g>
   <g id="PathCollection_2">
    <defs>
     <path id="mc385d49e51" d="M 0 -4.472136 
L -4.472136 4.472136 
L 4.472136 4.472136 
z
" style="stroke: #000000"/>
    </defs>
    <g clip-path="url(#pfba0fda50d)">
     <use xlink:href="#mc385d49e51" x="207.789072" y="277.248797" style="fill: #ff0000; stroke: #000000"/>
     <use xlink:href="#mc385d49e51" x="241.619447" y="182.586771" style="fill: #ff0000; stroke: #000000"/>
     <use xlink:href="#mc385d49e51" x="210.222223" y="120.680249" style="fill: #ff0000; stroke: #000000"/>
     <use xlink:href="#mc385d49e51" x="145.127458" y="92.616078" style="fill: #ff0000; stroke: #000000"/>
     <use xlink:href="#mc385d49e51" x="53.118125" y="122.57785" style="fill: #ff0000; stroke: #000000"/>
    </g>
   </g>
   <g id="PathCollection_3">
    <defs>
     <path id="m28e290c7d7" d="M 0 4.472136 
C 1.186024 4.472136 2.323632 4.000923 3.162278 3.162278 
C 4.000923 2.323632 4.472136 1.186024 4.472136 0 
C 4.472136 -1.186024 4.000923 -2.323632 3.162278 -3.162278 
C 2.323632 -4.000923 1.186024 -4.472136 0 -4.472136 
C -1.186024 -4.472136 -2.323632 -4.000923 -3.162278 -3.162278 
C -4.000923 -2.323632 -4.472136 -1.186024 -4.472136 0 
C -4.472136 1.186024 -4.000923 2.323632 -3.162278 3.162278 
C -2.323632 4.000923 -1.186024 4.472136 0 4.472136 
z
" style="stroke: #000000"/>
    </defs>
    <g clip-path="url(#pfba0fda50d)">
     <use xlink:href="#m28e290c7d7" x="230.260013" y="277.248797" style="fill: #0000ff; stroke: #000000"/>
     <use xlink:href="#m28e290c7d7" x="269.025435" y="169.147671" style="fill: #0000ff; stroke: #000000"/>
     <use xlink:href="#m28e290c7d7" x="234.172303" y="96.463614" style="fill: #0000ff; stroke: #000000"/>
     <use xlink:href="#m28e290c7d7" x="161.931765" y="60.105618" style="fill: #0000ff; stroke: #000000"/>
     <use xlink:href="#m28e290c7d7" x="53.118125" y="100.106909" style="fill: #0000ff; stroke: #000000"/>
    </g>
   </g>
   <g id="PathCollection_4">
    <defs>
     <path id="md6254ecd65" d="M 0 -4.472136 
L -4.472136 4.472136 
L 4.472136 4.472136 
z
" style="stroke: #000000"/>
    </defs>
    <g clip-path="url(#pfba0fda50d)">
     <use xlink:href="#md6254ecd65" x="230.260013" y="277.248797" style="fill: #0000ff; stroke: #000000"/>
     <use xlink:href="#md6254ecd65" x="266.973046" y="170.007657" style="fill: #0000ff; stroke: #000000"/>
     <use xlink:href="#md6254ecd65" x="232.15717" y="98.523099" style="fill: #0000ff; stroke: #000000"/>
     <use xlink:href="#md6254ecd65" x="160.058559" y="63.280778" style="fill: #0000ff; stroke: #000000"/>
     <use xlink:href="#md6254ecd65" x="53.118125" y="100.106909" style="fill: #0000ff; stroke: #000000"/>
    </g>
   </g>
   <g id="PathCollection_5">
    <defs>
     <path id="m5324c816c4" d="M 0 4.472136 
C 1.186024 4.472136 2.323632 4.000923 3.162278 3.162278 
C 4.000923 2.323632 4.472136 1.186024 4.472136 0 
C 4.472136 -1.186024 4.000923 -2.323632 3.162278 -3.162278 
C 2.323632 -4.000923 1.186024 -4.472136 0 -4.472136 
C -1.186024 -4.472136 -2.323632 -4.000923 -3.162278 -3.162278 
C -4.000923 -2.323632 -4.472136 -1.186024 -4.472136 0 
C -4.472136 1.186024 -4.000923 2.323632 -3.162278 3.162278 
C -2.323632 4.000923 -1.186024 4.472136 0 4.472136 
z
" style="stroke: #000000"/>
    </defs>
    <g clip-path="url(#pfba0fda50d)">
     <use xlink:href="#m5324c816c4" x="249.019357" y="277.248797" style="fill: #008000; stroke: #000000"/>
     <use xlink:href="#m5324c816c4" x="289.062116" y="158.949816" style="fill: #008000; stroke: #000000"/>
     <use xlink:href="#m5324c816c4" x="253.180018" y="77.287361" style="fill: #008000; stroke: #000000"/>
     <use xlink:href="#m5324c816c4" x="173.213805" y="37.88194" style="fill: #008000; stroke: #000000"/>
     <use xlink:href="#m5324c816c4" x="53.118125" y="81.347565" style="fill: #008000; stroke: #000000"/>
    </g>
   </g>
   <g id="PathCollection_6">
    <defs>
     <path id="mdd7186241f" d="M 0 -4.472136 
L -4.472136 4.472136 
L 4.472136 4.472136 
z
" style="stroke: #000000"/>
    </defs>
    <g clip-path="url(#pfba0fda50d)">
     <use xlink:href="#mdd7186241f" x="249.019357" y="277.248797" style="fill: #008000; stroke: #000000"/>
     <use xlink:href="#mdd7186241f" x="287.751071" y="159.519739" style="fill: #008000; stroke: #000000"/>
     <use xlink:href="#mdd7186241f" x="250.854864" y="79.872418" style="fill: #008000; stroke: #000000"/>
     <use xlink:href="#mdd7186241f" x="171.662594" y="40.213746" style="fill: #008000; stroke: #000000"/>
     <use xlink:href="#mdd7186241f" x="53.118125" y="81.347565" style="fill: #008000; stroke: #000000"/>
    </g>
   </g>
   <g id="matplotlib.axis_1">
    <g id="xtick_1">
     <g id="line2d_1">
      <defs>
       <path id="m5001070590" d="M 0 0 
L 0 3.5 
" style="stroke: #000000; stroke-width: 0.8"/>
      </defs>
      <g>
       <use xlink:href="#m5001070590" x="53.118125" y="277.248797" style="stroke: #000000; stroke-width: 0.8"/>
      </g>
     </g>
     <g id="text_1">
      <!-- 0 -->
      <g transform="translate(50.059609 292.122391) scale(0.11 -0.11)">
       <defs>
        <path id="ArialMT-30" d="M 266 2259 
Q 266 3072 433 3567 
Q 600 4063 929 4331 
Q 1259 4600 1759 4600 
Q 2128 4600 2406 4451 
Q 2684 4303 2865 4023 
Q 3047 3744 3150 3342 
Q 3253 2941 3253 2259 
Q 3253 1453 3087 958 
Q 2922 463 2592 192 
Q 2263 -78 1759 -78 
Q 1097 -78 719 397 
Q 266 969 266 2259 
z
M 844 2259 
Q 844 1131 1108 757 
Q 1372 384 1759 384 
Q 2147 384 2411 759 
Q 2675 1134 2675 2259 
Q 2675 3391 2411 3762 
Q 2147 4134 1753 4134 
Q 1366 4134 1134 3806 
Q 844 3388 844 2259 
z
" transform="scale(0.015625)"/>
       </defs>
       <use xlink:href="#ArialMT-30"/>
      </g>
     </g>
    </g>
    <g id="xtick_2">
     <g id="line2d_2">
      <g>
       <use xlink:href="#m5001070590" x="97.470125" y="277.248797" style="stroke: #000000; stroke-width: 0.8"/>
      </g>
     </g>
     <g id="text_2">
      <!-- 200 -->
      <g transform="translate(88.294578 292.122391) scale(0.11 -0.11)">
       <defs>
        <path id="ArialMT-32" d="M 3222 541 
L 3222 0 
L 194 0 
Q 188 203 259 391 
Q 375 700 629 1000 
Q 884 1300 1366 1694 
Q 2113 2306 2375 2664 
Q 2638 3022 2638 3341 
Q 2638 3675 2398 3904 
Q 2159 4134 1775 4134 
Q 1369 4134 1125 3890 
Q 881 3647 878 3216 
L 300 3275 
Q 359 3922 746 4261 
Q 1134 4600 1788 4600 
Q 2447 4600 2831 4234 
Q 3216 3869 3216 3328 
Q 3216 3053 3103 2787 
Q 2991 2522 2730 2228 
Q 2469 1934 1863 1422 
Q 1356 997 1212 845 
Q 1069 694 975 541 
L 3222 541 
z
" transform="scale(0.015625)"/>
       </defs>
       <use xlink:href="#ArialMT-32"/>
       <use xlink:href="#ArialMT-30" x="55.615234"/>
       <use xlink:href="#ArialMT-30" x="111.230469"/>
      </g>
     </g>
    </g>
    <g id="xtick_3">
     <g id="line2d_3">
      <g>
       <use xlink:href="#m5001070590" x="141.822125" y="277.248797" style="stroke: #000000; stroke-width: 0.8"/>
      </g>
     </g>
     <g id="text_3">
      <!-- 400 -->
      <g transform="translate(132.646578 292.122391) scale(0.11 -0.11)">
       <defs>
        <path id="ArialMT-34" d="M 2069 0 
L 2069 1097 
L 81 1097 
L 81 1613 
L 2172 4581 
L 2631 4581 
L 2631 1613 
L 3250 1613 
L 3250 1097 
L 2631 1097 
L 2631 0 
L 2069 0 
z
M 2069 1613 
L 2069 3678 
L 634 1613 
L 2069 1613 
z
" transform="scale(0.015625)"/>
       </defs>
       <use xlink:href="#ArialMT-34"/>
       <use xlink:href="#ArialMT-30" x="55.615234"/>
       <use xlink:href="#ArialMT-30" x="111.230469"/>
      </g>
     </g>
    </g>
    <g id="xtick_4">
     <g id="line2d_4">
      <g>
       <use xlink:href="#m5001070590" x="186.174125" y="277.248797" style="stroke: #000000; stroke-width: 0.8"/>
      </g>
     </g>
     <g id="text_4">
      <!-- 600 -->
      <g transform="translate(176.998578 292.122391) scale(0.11 -0.11)">
       <defs>
        <path id="ArialMT-36" d="M 3184 3459 
L 2625 3416 
Q 2550 3747 2413 3897 
Q 2184 4138 1850 4138 
Q 1581 4138 1378 3988 
Q 1113 3794 959 3422 
Q 806 3050 800 2363 
Q 1003 2672 1297 2822 
Q 1591 2972 1913 2972 
Q 2475 2972 2870 2558 
Q 3266 2144 3266 1488 
Q 3266 1056 3080 686 
Q 2894 316 2569 119 
Q 2244 -78 1831 -78 
Q 1128 -78 684 439 
Q 241 956 241 2144 
Q 241 3472 731 4075 
Q 1159 4600 1884 4600 
Q 2425 4600 2770 4297 
Q 3116 3994 3184 3459 
z
M 888 1484 
Q 888 1194 1011 928 
Q 1134 663 1356 523 
Q 1578 384 1822 384 
Q 2178 384 2434 671 
Q 2691 959 2691 1453 
Q 2691 1928 2437 2201 
Q 2184 2475 1800 2475 
Q 1419 2475 1153 2201 
Q 888 1928 888 1484 
z
" transform="scale(0.015625)"/>
       </defs>
       <use xlink:href="#ArialMT-36"/>
       <use xlink:href="#ArialMT-30" x="55.615234"/>
       <use xlink:href="#ArialMT-30" x="111.230469"/>
      </g>
     </g>
    </g>
    <g id="xtick_5">
     <g id="line2d_5">
      <g>
       <use xlink:href="#m5001070590" x="230.526125" y="277.248797" style="stroke: #000000; stroke-width: 0.8"/>
      </g>
     </g>
     <g id="text_5">
      <!-- 800 -->
      <g transform="translate(221.350578 292.122391) scale(0.11 -0.11)">
       <defs>
        <path id="ArialMT-38" d="M 1131 2484 
Q 781 2613 612 2850 
Q 444 3088 444 3419 
Q 444 3919 803 4259 
Q 1163 4600 1759 4600 
Q 2359 4600 2725 4251 
Q 3091 3903 3091 3403 
Q 3091 3084 2923 2848 
Q 2756 2613 2416 2484 
Q 2838 2347 3058 2040 
Q 3278 1734 3278 1309 
Q 3278 722 2862 322 
Q 2447 -78 1769 -78 
Q 1091 -78 675 323 
Q 259 725 259 1325 
Q 259 1772 486 2073 
Q 713 2375 1131 2484 
z
M 1019 3438 
Q 1019 3113 1228 2906 
Q 1438 2700 1772 2700 
Q 2097 2700 2305 2904 
Q 2513 3109 2513 3406 
Q 2513 3716 2298 3927 
Q 2084 4138 1766 4138 
Q 1444 4138 1231 3931 
Q 1019 3725 1019 3438 
z
M 838 1322 
Q 838 1081 952 856 
Q 1066 631 1291 507 
Q 1516 384 1775 384 
Q 2178 384 2440 643 
Q 2703 903 2703 1303 
Q 2703 1709 2433 1975 
Q 2163 2241 1756 2241 
Q 1359 2241 1098 1978 
Q 838 1716 838 1322 
z
" transform="scale(0.015625)"/>
       </defs>
       <use xlink:href="#ArialMT-38"/>
       <use xlink:href="#ArialMT-30" x="55.615234"/>
       <use xlink:href="#ArialMT-30" x="111.230469"/>
      </g>
     </g>
    </g>
    <g id="xtick_6">
     <g id="line2d_6">
      <g>
       <use xlink:href="#m5001070590" x="274.878125" y="277.248797" style="stroke: #000000; stroke-width: 0.8"/>
      </g>
     </g>
     <g id="text_6">
      <!-- 1000 -->
      <g transform="translate(262.644063 292.122391) scale(0.11 -0.11)">
       <defs>
        <path id="ArialMT-31" d="M 2384 0 
L 1822 0 
L 1822 3584 
Q 1619 3391 1289 3197 
Q 959 3003 697 2906 
L 697 3450 
Q 1169 3672 1522 3987 
Q 1875 4303 2022 4600 
L 2384 4600 
L 2384 0 
z
" transform="scale(0.015625)"/>
       </defs>
       <use xlink:href="#ArialMT-31"/>
       <use xlink:href="#ArialMT-30" x="55.615234"/>
       <use xlink:href="#ArialMT-30" x="111.230469"/>
       <use xlink:href="#ArialMT-30" x="166.845703"/>
      </g>
     </g>
    </g>
    <g id="xtick_7">
     <g id="line2d_7">
      <g>
       <use xlink:href="#m5001070590" x="319.230125" y="277.248797" style="stroke: #000000; stroke-width: 0.8"/>
      </g>
     </g>
     <g id="text_7">
      <!-- 1200 -->
      <g transform="translate(306.996062 292.122391) scale(0.11 -0.11)">
       <use xlink:href="#ArialMT-31"/>
       <use xlink:href="#ArialMT-32" x="55.615234"/>
       <use xlink:href="#ArialMT-30" x="111.230469"/>
       <use xlink:href="#ArialMT-30" x="166.845703"/>
      </g>
     </g>
    </g>
    <g id="text_8">
     <!-- $\sigma_L$ (MPa) -->
     <g transform="translate(163.844125 306.338641) scale(0.11 -0.11)">
      <defs>
       <path id="DejaVuSans-Oblique-3c3" d="M 2219 3044 
Q 1744 3044 1422 2700 
Q 1081 2341 969 1747 
Q 844 1119 1044 756 
Q 1241 397 1706 397 
Q 2166 397 2503 759 
Q 2844 1122 2966 1747 
Q 3075 2319 2881 2700 
Q 2700 3044 2219 3044 
z
M 2309 3503 
L 4219 3500 
L 4106 2925 
L 3463 2925 
Q 3706 2438 3575 1747 
Q 3406 888 2884 400 
Q 2359 -91 1609 -91 
Q 856 -91 525 400 
Q 194 888 363 1747 
Q 528 2609 1050 3097 
Q 1484 3503 2309 3503 
z
" transform="scale(0.015625)"/>
       <path id="DejaVuSans-Oblique-4c" d="M 1075 4666 
L 1709 4666 
L 909 525 
L 3181 525 
L 3078 0 
L 172 0 
L 1075 4666 
z
" transform="scale(0.015625)"/>
       <path id="ArialMT-20" transform="scale(0.015625)"/>
       <path id="ArialMT-28" d="M 1497 -1347 
Q 1031 -759 709 28 
Q 388 816 388 1659 
Q 388 2403 628 3084 
Q 909 3875 1497 4659 
L 1900 4659 
Q 1522 4009 1400 3731 
Q 1209 3300 1100 2831 
Q 966 2247 966 1656 
Q 966 153 1900 -1347 
L 1497 -1347 
z
" transform="scale(0.015625)"/>
       <path id="ArialMT-4d" d="M 475 0 
L 475 4581 
L 1388 4581 
L 2472 1338 
Q 2622 884 2691 659 
Q 2769 909 2934 1394 
L 4031 4581 
L 4847 4581 
L 4847 0 
L 4263 0 
L 4263 3834 
L 2931 0 
L 2384 0 
L 1059 3900 
L 1059 0 
L 475 0 
z
" transform="scale(0.015625)"/>
       <path id="ArialMT-50" d="M 494 0 
L 494 4581 
L 2222 4581 
Q 2678 4581 2919 4538 
Q 3256 4481 3484 4323 
Q 3713 4166 3852 3881 
Q 3991 3597 3991 3256 
Q 3991 2672 3619 2267 
Q 3247 1863 2275 1863 
L 1100 1863 
L 1100 0 
L 494 0 
z
M 1100 2403 
L 2284 2403 
Q 2872 2403 3119 2622 
Q 3366 2841 3366 3238 
Q 3366 3525 3220 3729 
Q 3075 3934 2838 4000 
Q 2684 4041 2272 4041 
L 1100 4041 
L 1100 2403 
z
" transform="scale(0.015625)"/>
       <path id="ArialMT-61" d="M 2588 409 
Q 2275 144 1986 34 
Q 1697 -75 1366 -75 
Q 819 -75 525 192 
Q 231 459 231 875 
Q 231 1119 342 1320 
Q 453 1522 633 1644 
Q 813 1766 1038 1828 
Q 1203 1872 1538 1913 
Q 2219 1994 2541 2106 
Q 2544 2222 2544 2253 
Q 2544 2597 2384 2738 
Q 2169 2928 1744 2928 
Q 1347 2928 1158 2789 
Q 969 2650 878 2297 
L 328 2372 
Q 403 2725 575 2942 
Q 747 3159 1072 3276 
Q 1397 3394 1825 3394 
Q 2250 3394 2515 3294 
Q 2781 3194 2906 3042 
Q 3031 2891 3081 2659 
Q 3109 2516 3109 2141 
L 3109 1391 
Q 3109 606 3145 398 
Q 3181 191 3288 0 
L 2700 0 
Q 2613 175 2588 409 
z
M 2541 1666 
Q 2234 1541 1622 1453 
Q 1275 1403 1131 1340 
Q 988 1278 909 1158 
Q 831 1038 831 891 
Q 831 666 1001 516 
Q 1172 366 1500 366 
Q 1825 366 2078 508 
Q 2331 650 2450 897 
Q 2541 1088 2541 1459 
L 2541 1666 
z
" transform="scale(0.015625)"/>
       <path id="ArialMT-29" d="M 791 -1347 
L 388 -1347 
Q 1322 153 1322 1656 
Q 1322 2244 1188 2822 
Q 1081 3291 891 3722 
Q 769 4003 388 4659 
L 791 4659 
Q 1378 3875 1659 3084 
Q 1900 2403 1900 1659 
Q 1900 816 1576 28 
Q 1253 -759 791 -1347 
z
" transform="scale(0.015625)"/>
      </defs>
      <use xlink:href="#DejaVuSans-Oblique-3c3" transform="translate(0 0.203125)"/>
      <use xlink:href="#DejaVuSans-Oblique-4c" transform="translate(63.378906 -16.203125) scale(0.7)"/>
      <use xlink:href="#ArialMT-20" transform="translate(105.112305 0.203125)"/>
      <use xlink:href="#ArialMT-28" transform="translate(132.895508 0.203125)"/>
      <use xlink:href="#ArialMT-4d" transform="translate(166.196289 0.203125)"/>
      <use xlink:href="#ArialMT-50" transform="translate(249.49707 0.203125)"/>
      <use xlink:href="#ArialMT-61" transform="translate(316.196289 0.203125)"/>
      <use xlink:href="#ArialMT-29" transform="translate(371.811523 0.203125)"/>
     </g>
    </g>
   </g>
   <g id="matplotlib.axis_2">
    <g id="ytick_1">
     <g id="line2d_8">
      <defs>
       <path id="m5578dd9ddf" d="M 0 0 
L -3.5 0 
" style="stroke: #000000; stroke-width: 0.8"/>
      </defs>
      <g>
       <use xlink:href="#m5578dd9ddf" x="53.118125" y="277.248797" style="stroke: #000000; stroke-width: 0.8"/>
      </g>
     </g>
     <g id="text_9">
      <!-- 0 -->
      <g transform="translate(40.001094 281.185594) scale(0.11 -0.11)">
       <use xlink:href="#ArialMT-30"/>
      </g>
     </g>
    </g>
    <g id="ytick_2">
     <g id="line2d_9">
      <g>
       <use xlink:href="#m5578dd9ddf" x="53.118125" y="232.896797" style="stroke: #000000; stroke-width: 0.8"/>
      </g>
     </g>
     <g id="text_10">
      <!-- 200 -->
      <g transform="translate(27.767031 236.833594) scale(0.11 -0.11)">
       <use xlink:href="#ArialMT-32"/>
       <use xlink:href="#ArialMT-30" x="55.615234"/>
       <use xlink:href="#ArialMT-30" x="111.230469"/>
      </g>
     </g>
    </g>
    <g id="ytick_3">
     <g id="line2d_10">
      <g>
       <use xlink:href="#m5578dd9ddf" x="53.118125" y="188.544797" style="stroke: #000000; stroke-width: 0.8"/>
      </g>
     </g>
     <g id="text_11">
      <!-- 400 -->
      <g transform="translate(27.767031 192.481594) scale(0.11 -0.11)">
       <use xlink:href="#ArialMT-34"/>
       <use xlink:href="#ArialMT-30" x="55.615234"/>
       <use xlink:href="#ArialMT-30" x="111.230469"/>
      </g>
     </g>
    </g>
    <g id="ytick_4">
     <g id="line2d_11">
      <g>
       <use xlink:href="#m5578dd9ddf" x="53.118125" y="144.192797" style="stroke: #000000; stroke-width: 0.8"/>
      </g>
     </g>
     <g id="text_12">
      <!-- 600 -->
      <g transform="translate(27.767031 148.129594) scale(0.11 -0.11)">
       <use xlink:href="#ArialMT-36"/>
       <use xlink:href="#ArialMT-30" x="55.615234"/>
       <use xlink:href="#ArialMT-30" x="111.230469"/>
      </g>
     </g>
    </g>
    <g id="ytick_5">
     <g id="line2d_12">
      <g>
       <use xlink:href="#m5578dd9ddf" x="53.118125" y="99.840797" style="stroke: #000000; stroke-width: 0.8"/>
      </g>
     </g>
     <g id="text_13">
      <!-- 800 -->
      <g transform="translate(27.767031 103.777594) scale(0.11 -0.11)">
       <use xlink:href="#ArialMT-38"/>
       <use xlink:href="#ArialMT-30" x="55.615234"/>
       <use xlink:href="#ArialMT-30" x="111.230469"/>
      </g>
     </g>
    </g>
    <g id="ytick_6">
     <g id="line2d_13">
      <g>
       <use xlink:href="#m5578dd9ddf" x="53.118125" y="55.488797" style="stroke: #000000; stroke-width: 0.8"/>
      </g>
     </g>
     <g id="text_14">
      <!-- 1000 -->
      <g transform="translate(21.65 59.425594) scale(0.11 -0.11)">
       <use xlink:href="#ArialMT-31"/>
       <use xlink:href="#ArialMT-30" x="55.615234"/>
       <use xlink:href="#ArialMT-30" x="111.230469"/>
       <use xlink:href="#ArialMT-30" x="166.845703"/>
      </g>
     </g>
    </g>
    <g id="ytick_7">
     <g id="line2d_14">
      <g>
       <use xlink:href="#m5578dd9ddf" x="53.118125" y="11.136797" style="stroke: #000000; stroke-width: 0.8"/>
      </g>
     </g>
     <g id="text_15">
      <!-- 1200 -->
      <g transform="translate(21.65 15.073594) scale(0.11 -0.11)">
       <use xlink:href="#ArialMT-31"/>
       <use xlink:href="#ArialMT-32" x="55.615234"/>
       <use xlink:href="#ArialMT-30" x="111.230469"/>
       <use xlink:href="#ArialMT-30" x="166.845703"/>
      </g>
     </g>
    </g>
    <g id="text_16">
     <!-- $\sigma_C$ (MPa) -->
     <g transform="translate(15.23 167.017797) rotate(-90) scale(0.11 -0.11)">
      <defs>
       <path id="DejaVuSans-Oblique-43" d="M 4447 4306 
L 4319 3641 
Q 4019 3944 3683 4091 
Q 3347 4238 2956 4238 
Q 2422 4238 2017 3981 
Q 1613 3725 1319 3200 
Q 1131 2863 1032 2486 
Q 934 2109 934 1728 
Q 934 1091 1264 756 
Q 1594 422 2222 422 
Q 2656 422 3056 561 
Q 3456 700 3834 978 
L 3688 231 
Q 3316 72 2936 -9 
Q 2556 -91 2175 -91 
Q 1278 -91 773 396 
Q 269 884 269 1753 
Q 269 2309 461 2846 
Q 653 3384 1013 3828 
Q 1394 4300 1883 4525 
Q 2372 4750 3022 4750 
Q 3422 4750 3780 4639 
Q 4138 4528 4447 4306 
z
" transform="scale(0.015625)"/>
      </defs>
      <use xlink:href="#DejaVuSans-Oblique-3c3" transform="translate(0 0.203125)"/>
      <use xlink:href="#DejaVuSans-Oblique-43" transform="translate(63.378906 -16.203125) scale(0.7)"/>
      <use xlink:href="#ArialMT-20" transform="translate(114.990234 0.203125)"/>
      <use xlink:href="#ArialMT-28" transform="translate(142.773438 0.203125)"/>
      <use xlink:href="#ArialMT-4d" transform="translate(176.074219 0.203125)"/>
      <use xlink:href="#ArialMT-50" transform="translate(259.375 0.203125)"/>
      <use xlink:href="#ArialMT-61" transform="translate(326.074219 0.203125)"/>
      <use xlink:href="#ArialMT-29" transform="translate(381.689453 0.203125)"/>
     </g>
    </g>
   </g>
   <g id="PathCollection_7">
    <path d="M -1 147.558498 
L -0.823997 147.428009 
L -0.201092 146.967531 
L -0.193095 146.961632 
L 0.437807 146.497909 
L 0.65788 146.336629 
L 1.068709 146.036203 
L 1.521963 145.705727 
L 1.699611 145.576479 
L 2.330513 145.118901 
L 2.391497 145.074825 
L 2.961415 144.663807 
L 3.267216 144.443923 
L 3.592317 144.210662 
L 4.148175 143.813021 
L 4.223219 143.759452 
L 4.854121 143.310682 
L 5.035447 143.182119 
L 5.485023 142.864044 
L 5.928518 142.551217 
L 6.115925 142.419309 
L 6.746827 141.97669 
L 6.827474 141.920315 
L 7.377729 141.536487 
L 7.733018 141.289413 
L 8.008631 141.098155 
L 8.639533 140.661695 
L 8.644154 140.658511 
L 9.270435 140.227857 
L 9.562548 140.027609 
L 9.901337 139.795858 
L 10.486654 139.396707 
L 10.532239 139.365687 
L 11.163141 138.938018 
L 11.418023 138.765805 
L 11.794043 138.512282 
L 12.355526 138.134903 
L 12.424945 138.088344 
L 13.055847 137.666838 
L 13.300404 137.504001 
L 13.686749 137.247297 
L 14.25172 136.873099 
L 14.317651 136.829523 
L 14.948553 136.414186 
L 15.210698 136.242197 
L 15.579455 136.000771 
L 16.176266 135.611295 
L 16.210357 135.589094 
L 16.841259 135.179931 
L 17.149967 134.980393 
L 17.472161 134.772575 
L 18.103063 134.366997 
L 18.130409 134.349491 
L 18.733965 133.963944 
L 19.119323 133.718589 
L 19.364867 133.56258 
L 19.995769 133.163194 
L 20.115529 133.087687 
L 20.626671 132.766096 
L 21.119938 132.456785 
L 21.257573 132.370659 
L 21.888475 131.977469 
L 22.132625 131.825883 
L 22.519377 131.586262 
L 23.150279 131.196693 
L 23.153064 131.194981 
L 23.781181 130.809697 
L 24.182973 130.564079 
L 24.412083 130.424314 
L 25.042985 130.040959 
L 25.221098 129.933177 
L 25.673887 129.659751 
L 26.267913 129.302275 
L 26.30479 129.28013 
L 26.935692 128.902991 
L 27.324556 128.671373 
L 27.566594 128.527509 
L 28.197496 128.154029 
L 28.390139 128.040471 
L 28.828398 127.782667 
L 29.4593 127.412859 
L 29.46494 127.409569 
L 30.090202 127.0456 
L 30.550407 126.778667 
L 30.721104 126.679864 
L 31.352006 126.3163 
L 31.645676 126.147765 
L 31.982908 125.954631 
L 32.61381 125.594764 
L 32.751016 125.516863 
L 33.244712 125.237144 
L 33.866814 124.885961 
L 33.875614 124.881004 
L 34.506516 124.527395 
L 34.99423 124.255059 
L 35.137418 124.175269 
L 35.76832 123.825381 
L 36.13267 123.624157 
L 36.399222 123.477251 
L 37.030124 123.131094 
L 37.282498 122.993255 
L 37.661026 122.786942 
L 38.291928 122.44453 
L 38.44409 122.362353 
L 38.92283 122.104339 
L 39.553732 121.765684 
L 39.617843 121.731451 
L 40.184634 121.429434 
L 40.804252 121.100549 
L 40.815536 121.094572 
L 41.446438 120.762224 
L 42.004047 120.469647 
L 42.07734 120.43127 
L 42.708242 120.102702 
L 43.217208 119.838745 
L 43.339144 119.775638 
L 43.970046 119.450863 
L 44.444202 119.207843 
L 44.600948 119.127671 
L 45.23185 118.806701 
L 45.685516 118.576941 
L 45.862752 118.487365 
L 46.493654 118.170211 
L 46.941663 117.946039 
L 47.124556 117.854712 
L 47.755458 117.541388 
L 48.213177 117.315137 
L 48.38636 117.229709 
L 49.017262 116.920226 
L 49.500622 116.684235 
L 49.648164 116.612349 
L 50.279066 116.306719 
L 50.804588 116.053333 
L 50.909968 116.002627 
L 51.54087 115.700863 
L 52.125693 115.422431 
L 52.171772 115.400538 
L 52.802674 115.102652 
L 53.433576 114.806133 
L 53.464848 114.791529 
L 54.064478 114.51208 
L 54.69538 114.219464 
L 54.82303 114.160627 
L 55.326282 113.929141 
L 55.957184 113.640442 
L 56.200592 113.529725 
L 56.588086 113.353831 
L 57.218988 113.06906 
L 57.598306 112.898823 
L 57.84989 112.786145 
L 58.480792 112.505313 
L 59.016985 112.267921 
L 59.111694 112.226076 
L 59.742596 111.949196 
L 60.373498 111.673762 
L 60.458241 111.637019 
L 61.0044 111.400703 
L 61.635302 111.129247 
L 61.923316 111.006117 
L 62.266204 110.859829 
L 62.897106 110.592363 
L 63.412345 110.375215 
L 63.528008 110.326569 
L 64.15891 110.063105 
L 64.789812 109.801138 
L 64.927652 109.744313 
L 65.420714 109.541467 
L 66.051616 109.283528 
L 66.470434 109.113411 
L 66.682518 109.027444 
L 67.31342 108.773545 
L 67.944322 108.52118 
L 68.041744 108.482509 
L 68.575224 108.271184 
L 69.206126 108.022885 
L 69.64432 107.851607 
L 69.837028 107.776438 
L 70.46793 107.532219 
L 71.098832 107.289571 
L 71.279299 107.220705 
L 71.729734 107.049175 
L 72.360636 106.810632 
L 72.948695 106.589803 
L 72.991538 106.573747 
L 73.62244 106.339323 
L 74.253342 106.106508 
L 74.656407 105.958901 
L 74.884244 105.875637 
L 75.515146 105.646967 
L 76.146048 105.419929 
L 76.40365 105.327999 
L 76.77695 105.195056 
L 77.407852 104.972189 
L 78.038754 104.75098 
L 78.193816 104.697097 
L 78.669656 104.532087 
L 79.300558 104.315076 
L 79.93146 104.099747 
L 80.030699 104.066195 
L 80.562363 103.886816 
L 81.193265 103.675712 
L 81.824167 103.466315 
L 81.918554 103.435293 
L 82.455069 103.259327 
L 83.085971 103.054183 
L 83.716873 102.85077 
L 83.862169 102.804391 
L 84.347775 102.649708 
L 84.978677 102.450575 
L 85.609579 102.253198 
L 85.866948 102.173489 
L 86.240481 102.058044 
L 86.871383 101.864976 
L 87.502285 101.673688 
L 87.93902 101.542587 
L 88.133187 101.484423 
L 88.764089 101.297472 
L 89.394991 101.112327 
L 90.025893 100.929 
L 90.086184 100.911685 
L 90.656795 100.748151 
L 91.287697 100.569204 
L 91.918599 100.3921 
L 92.319614 100.280783 
L 92.549501 100.217103 
L 93.180403 100.044407 
L 93.811305 99.873581 
L 94.442207 99.704634 
L 94.649251 99.649881 
L 95.073109 99.538026 
L 95.704011 99.373533 
L 96.334913 99.210946 
L 96.965815 99.050277 
L 97.090396 99.018979 
L 97.596717 98.892047 
L 98.227619 98.735875 
L 98.858521 98.581649 
L 99.489423 98.429379 
L 99.663028 98.388077 
L 100.120325 98.279514 
L 100.751227 98.131787 
L 101.382129 97.986044 
L 102.013031 97.842296 
L 102.3922 97.757175 
L 102.643933 97.700783 
L 103.274835 97.561624 
L 103.905737 97.424489 
L 104.536639 97.289389 
L 105.167541 97.156336 
L 105.312547 97.126273 
L 105.798443 97.02575 
L 106.429345 96.89735 
L 107.060247 96.771025 
L 107.691149 96.646788 
L 108.322051 96.524651 
L 108.476183 96.495371 
L 108.952953 96.404995 
L 109.583855 96.287575 
L 110.214757 96.172285 
L 110.845659 96.059136 
L 111.476561 95.948141 
L 111.961847 95.864469 
L 112.107463 95.839416 
L 112.738365 95.733205 
L 113.369267 95.629178 
L 114.000169 95.527348 
L 114.631071 95.427728 
L 115.261973 95.330331 
L 115.892875 95.23517 
L 115.903783 95.233567 
L 116.523777 95.142635 
L 117.154679 95.052361 
L 117.785581 94.964354 
L 118.416483 94.878627 
L 119.047385 94.795195 
L 119.678287 94.71407 
L 120.309189 94.635266 
L 120.57847 94.602665 
L 120.940091 94.55898 
L 121.570993 94.48517 
L 122.201895 94.413714 
L 122.832797 94.344625 
L 123.463699 94.277919 
L 124.094601 94.213608 
L 124.725503 94.151707 
L 125.356405 94.092231 
L 125.987307 94.035194 
L 126.618209 93.980611 
L 126.725506 93.971763 
L 127.249111 93.928679 
L 127.880013 93.879259 
L 128.510915 93.832327 
L 129.141817 93.787898 
L 129.772719 93.745988 
L 130.403621 93.706611 
L 131.034523 93.669783 
L 131.665425 93.63552 
L 132.296327 93.603836 
L 132.927229 93.574748 
L 133.558131 93.548271 
L 134.189033 93.524422 
L 134.819935 93.503216 
L 135.450838 93.48467 
L 136.08174 93.4688 
L 136.712642 93.455623 
L 137.343544 93.445154 
L 137.974446 93.437411 
L 138.605348 93.432411 
L 139.23625 93.430171 
L 139.867152 93.430708 
L 140.498054 93.434039 
L 141.128956 93.440182 
L 141.759858 93.449154 
L 142.39076 93.460973 
L 143.021662 93.475657 
L 143.652564 93.493224 
L 144.283466 93.513692 
L 144.914368 93.537079 
L 145.54527 93.563405 
L 146.176172 93.592687 
L 146.807074 93.624945 
L 147.437976 93.660198 
L 148.068878 93.698464 
L 148.69978 93.739763 
L 149.330682 93.784115 
L 149.961584 93.831538 
L 150.592486 93.882054 
L 151.223388 93.935681 
L 151.624763 93.971763 
L 151.85429 93.992536 
L 152.485192 94.052725 
L 153.116094 94.116103 
L 153.746996 94.182691 
L 154.377898 94.252509 
L 155.0088 94.32558 
L 155.639702 94.401923 
L 156.270604 94.481562 
L 156.901506 94.564518 
L 157.18074 94.602665 
L 157.532408 94.65104 
L 158.16331 94.741122 
L 158.794212 94.834605 
L 159.425114 94.931512 
L 160.056016 95.031866 
L 160.686918 95.135691 
L 161.262416 95.233567 
L 161.31782 95.243056 
L 161.948722 95.354428 
L 162.579624 95.469362 
L 163.210526 95.58788 
L 163.841428 95.710009 
L 164.47233 95.835773 
L 164.612462 95.864469 
L 165.103232 95.965691 
L 165.734134 96.099456 
L 166.365036 96.236953 
L 166.995938 96.378208 
L 167.505809 96.495371 
L 167.62684 96.523386 
L 168.257742 96.672979 
L 168.888644 96.826432 
L 169.519546 96.983772 
L 170.077223 97.126273 
L 170.150448 97.145122 
L 170.78135 97.311157 
L 171.412252 97.481187 
L 172.043154 97.65524 
L 172.404604 97.757175 
L 172.674056 97.833737 
L 173.304958 98.016861 
L 173.93586 98.204123 
L 174.542185 98.388077 
L 174.566762 98.39559 
L 175.197664 98.592234 
L 175.828566 98.793133 
L 176.459468 98.998318 
L 176.521824 99.018979 
L 177.09037 99.208817 
L 177.721272 99.423802 
L 178.352174 99.643199 
L 178.371052 99.649881 
L 178.983076 99.868199 
L 179.613978 100.097742 
L 180.107576 100.280783 
L 180.24488 100.332102 
L 180.875782 100.572054 
L 181.506684 100.816648 
L 181.747599 100.911685 
L 182.137586 101.066763 
L 182.768488 101.322143 
L 183.303282 101.542587 
L 183.39939 101.582525 
L 184.030292 101.848976 
L 184.661194 102.120319 
L 184.782869 102.173489 
L 185.292096 102.397842 
L 185.922998 102.680668 
L 186.194559 102.804391 
L 186.5539 102.969468 
L 187.184802 103.264089 
L 187.545514 103.435293 
L 187.815704 103.564611 
L 188.446606 103.871354 
L 188.84096 104.066195 
L 189.077508 104.184062 
L 189.70841 104.503265 
L 190.08554 104.697097 
L 190.339313 104.828649 
L 190.970215 105.160665 
L 191.283393 105.327999 
L 191.601117 105.499237 
L 192.232019 105.844435 
L 192.43822 105.958901 
L 192.862921 106.196733 
L 193.493823 106.555494 
L 193.553343 106.589803 
L 194.124725 106.922085 
L 194.630478 107.220705 
L 194.755627 107.295262 
L 195.386529 107.676286 
L 195.672718 107.851607 
L 196.017431 108.064699 
L 196.648333 108.460377 
L 196.68317 108.482509 
L 197.279235 108.864671 
L 197.661709 109.113411 
L 197.910137 109.276474 
L 198.541039 109.696304 
L 198.612269 109.744313 
L 199.171941 110.125072 
L 199.534609 110.375215 
L 199.802843 110.56198 
L 200.43214 111.006117 
L 200.433745 111.00726 
L 201.064647 111.462307 
L 201.303693 111.637019 
L 201.695549 111.926194 
L 202.152606 112.267921 
L 202.326451 112.399173 
L 202.957353 112.88163 
L 202.979568 112.898823 
L 203.588255 113.374555 
L 203.7843 113.529725 
L 204.219157 113.877365 
L 204.569093 114.160627 
L 204.850059 114.390363 
L 205.334679 114.791529 
L 205.480961 114.913859 
L 206.081755 115.422431 
L 206.111863 115.448181 
L 206.742765 115.994088 
L 206.810433 116.053333 
L 207.373667 116.551624 
L 207.521806 116.684235 
L 208.004569 117.120971 
L 208.216713 117.315137 
L 208.635471 117.702511 
L 208.895717 117.946039 
L 209.266373 118.296637 
L 209.55936 118.576941 
L 209.897275 118.903765 
L 210.208156 119.207843 
L 210.528177 119.524324 
L 210.842598 119.838745 
L 211.159079 120.158766 
L 211.463157 120.469647 
L 211.789981 120.807562 
L 212.070285 121.100549 
L 212.420883 121.471204 
L 212.664411 121.731451 
L 213.051785 122.150209 
L 213.245951 122.362353 
L 213.682687 122.845115 
L 213.815298 122.993255 
L 214.313589 123.556489 
L 214.372834 123.624157 
L 214.918741 124.255059 
L 214.944491 124.285167 
L 215.453063 124.885961 
L 215.575393 125.032243 
L 215.976559 125.516863 
L 216.206295 125.797829 
L 216.489556 126.147765 
L 216.837197 126.582622 
L 216.992367 126.778667 
L 217.468099 127.387353 
L 217.485291 127.409569 
L 217.967749 128.040471 
L 218.099001 128.214316 
L 218.440728 128.671373 
L 218.729903 129.063229 
L 218.904615 129.302275 
L 219.359662 129.933177 
L 219.360805 129.934781 
L 219.804942 130.564079 
L 219.991707 130.832313 
L 220.24185 131.194981 
L 220.622609 131.754653 
L 220.670618 131.825883 
L 221.090448 132.456785 
L 221.253511 132.705212 
L 221.502251 133.087687 
L 221.884413 133.683752 
L 221.906545 133.718589 
L 222.302223 134.349491 
L 222.515315 134.694203 
L 222.690636 134.980393 
L 223.07166 135.611295 
L 223.146217 135.736444 
L 223.444837 136.242197 
L 223.777119 136.813579 
L 223.811427 136.873099 
L 224.170189 137.504001 
L 224.408021 137.928702 
L 224.522487 138.134903 
L 224.867685 138.765805 
L 225.038923 139.083529 
L 225.206256 139.396707 
L 225.538273 140.027609 
L 225.669825 140.281382 
L 225.863657 140.658511 
L 226.18286 141.289413 
L 226.300727 141.525962 
L 226.495568 141.920315 
L 226.802311 142.551217 
L 226.931629 142.821408 
L 227.102832 143.182119 
L 227.397454 143.813021 
L 227.562531 144.172363 
L 227.686254 144.443923 
L 227.96908 145.074825 
L 228.193433 145.584052 
L 228.246603 145.705727 
L 228.517946 146.336629 
L 228.784397 146.967531 
L 228.824335 147.06364 
L 229.044779 147.598434 
L 229.300159 148.229336 
L 229.455237 148.619323 
L 229.550273 148.860238 
L 229.794868 149.49114 
L 230.034819 150.122042 
L 230.086139 150.259346 
L 230.269179 150.752944 
L 230.498723 151.383846 
L 230.717041 151.99587 
L 230.723723 152.014748 
L 230.94312 152.64565 
L 231.158105 153.276552 
L 231.347943 153.845098 
L 231.368604 153.907454 
L 231.573789 154.538356 
L 231.774688 155.169258 
L 231.971332 155.80016 
L 231.978845 155.824737 
L 232.162799 156.431062 
L 232.350061 157.061964 
L 232.533185 157.692866 
L 232.609747 157.962317 
L 232.711682 158.323768 
L 232.885735 158.95467 
L 233.055765 159.585572 
L 233.2218 160.216474 
L 233.240649 160.289699 
L 233.38315 160.847376 
L 233.54049 161.478278 
L 233.693943 162.10918 
L 233.843536 162.740082 
L 233.871551 162.861113 
L 233.988714 163.370984 
L 234.129969 164.001886 
L 234.267466 164.632788 
L 234.401231 165.26369 
L 234.502453 165.75446 
L 234.531149 165.894592 
L 234.656913 166.525494 
L 234.779041 167.156396 
L 234.89756 167.787298 
L 235.012494 168.4182 
L 235.123866 169.049102 
L 235.133355 169.104506 
L 235.231231 169.680004 
L 235.335056 170.310906 
L 235.43541 170.941808 
L 235.532317 171.57271 
L 235.6258 172.203612 
L 235.715881 172.834514 
L 235.764257 173.186181 
L 235.802404 173.465416 
L 235.88536 174.096318 
L 235.964998 174.72722 
L 236.041342 175.358122 
L 236.114413 175.989024 
L 236.184231 176.619926 
L 236.250819 177.250828 
L 236.314197 177.88173 
L 236.374386 178.512632 
L 236.395159 178.742159 
L 236.431241 179.143534 
L 236.484868 179.774436 
L 236.535384 180.405338 
L 236.582807 181.03624 
L 236.627159 181.667142 
L 236.668458 182.298044 
L 236.706724 182.928946 
L 236.741976 183.559848 
L 236.774234 184.19075 
L 236.803517 184.821652 
L 236.829843 185.452554 
L 236.85323 186.083456 
L 236.873698 186.714358 
L 236.891265 187.34526 
L 236.905949 187.976162 
L 236.917768 188.607064 
L 236.92674 189.237966 
L 236.932883 189.868868 
L 236.936214 190.49977 
L 236.936751 191.130672 
L 236.93451 191.761574 
L 236.92951 192.392476 
L 236.921768 193.023378 
L 236.911299 193.65428 
L 236.898122 194.285182 
L 236.882252 194.916084 
L 236.863706 195.546986 
L 236.8425 196.177888 
L 236.818651 196.80879 
L 236.792174 197.439692 
L 236.763086 198.070594 
L 236.731402 198.701496 
L 236.697139 199.332398 
L 236.660311 199.9633 
L 236.620934 200.594202 
L 236.579024 201.225104 
L 236.534595 201.856006 
L 236.487663 202.486909 
L 236.438242 203.117811 
L 236.395159 203.641416 
L 236.386311 203.748713 
L 236.331728 204.379615 
L 236.274691 205.010517 
L 236.215215 205.641419 
L 236.153314 206.272321 
L 236.089003 206.903223 
L 236.022297 207.534125 
L 235.953208 208.165027 
L 235.881752 208.795929 
L 235.807942 209.426831 
L 235.764257 209.788452 
L 235.731656 210.057733 
L 235.652852 210.688635 
L 235.571727 211.319537 
L 235.488294 211.950439 
L 235.402568 212.581341 
L 235.314561 213.212243 
L 235.224287 213.843145 
L 235.133355 214.463139 
L 235.131752 214.474047 
L 235.036591 215.104949 
L 234.939193 215.735851 
L 234.839574 216.366753 
L 234.737744 216.997655 
L 234.633717 217.628557 
L 234.527506 218.259459 
L 234.502453 218.405075 
L 234.418781 218.890361 
L 234.307786 219.521263 
L 234.194637 220.152165 
L 234.079347 220.783067 
L 233.961927 221.413969 
L 233.871551 221.890739 
L 233.842271 222.044871 
L 233.720134 222.675773 
L 233.595897 223.306675 
L 233.469572 223.937577 
L 233.341172 224.568479 
L 233.240649 225.054375 
L 233.210586 225.199381 
L 233.077533 225.830283 
L 232.942433 226.461185 
L 232.805298 227.092087 
L 232.666139 227.722989 
L 232.609747 227.974722 
L 232.524626 228.353891 
L 232.380878 228.984793 
L 232.235135 229.615695 
L 232.087408 230.246597 
L 231.978845 230.703894 
L 231.937543 230.877499 
L 231.785273 231.508401 
L 231.631047 232.139303 
L 231.474875 232.770205 
L 231.347943 233.276526 
L 231.316645 233.401107 
L 231.155976 234.032009 
L 230.993389 234.662911 
L 230.828895 235.293813 
L 230.717041 235.717671 
L 230.662288 235.924715 
L 230.493341 236.555617 
L 230.322515 237.186519 
L 230.149819 237.817421 
L 230.086139 238.047308 
L 229.974822 238.448323 
L 229.797718 239.079225 
L 229.61877 239.710127 
L 229.455237 240.280738 
L 229.437922 240.341029 
L 229.254594 240.971931 
L 229.06945 241.602833 
L 228.882499 242.233735 
L 228.824335 242.427902 
L 228.693233 242.864637 
L 228.501946 243.495539 
L 228.308877 244.126441 
L 228.193433 244.499974 
L 228.113724 244.757343 
L 227.916346 245.388245 
L 227.717214 246.019147 
L 227.562531 246.504753 
L 227.516152 246.650049 
L 227.312739 247.280951 
L 227.107594 247.911853 
L 226.931629 248.448367 
L 226.900607 248.542755 
L 226.69121 249.173657 
L 226.480106 249.804559 
L 226.300727 250.336223 
L 226.267175 250.435461 
L 226.051846 251.066363 
L 225.834835 251.697265 
L 225.669825 252.173106 
L 225.615942 252.328167 
L 225.394732 252.959069 
L 225.171866 253.589971 
L 225.038923 253.963272 
L 224.946993 254.220873 
L 224.719955 254.851775 
L 224.491285 255.482677 
L 224.408021 255.710515 
L 224.260414 256.113579 
L 224.027599 256.744482 
L 223.793174 257.375384 
L 223.777119 257.418227 
L 223.556289 258.006286 
L 223.317747 258.637188 
L 223.146217 259.087623 
L 223.077351 259.26809 
L 222.834703 259.898992 
L 222.590484 260.529894 
L 222.515315 260.722602 
L 222.344036 261.160796 
L 222.095738 261.791698 
L 221.884413 262.325178 
L 221.845742 262.4226 
L 221.593377 263.053502 
L 221.339478 263.684404 
L 221.253511 263.896487 
L 221.083394 264.315306 
L 220.825455 264.946208 
L 220.622609 265.43927 
L 220.565784 265.57711 
L 220.303817 266.208012 
L 220.040353 266.838914 
L 219.991707 266.954576 
L 219.774558 267.469816 
L 219.507092 268.100718 
L 219.360805 268.443606 
L 219.237675 268.73162 
L 218.966219 269.362522 
L 218.729903 269.908681 
L 218.69316 269.993424 
L 218.417726 270.624326 
L 218.140846 271.255228 
L 218.099001 271.349937 
L 217.861609 271.88613 
L 217.580777 272.517032 
L 217.468099 272.768616 
L 217.297862 273.147934 
L 217.01309 273.778836 
L 216.837197 274.16633 
L 216.72648 274.409738 
L 216.437781 275.04064 
L 216.206295 275.543892 
L 216.147458 275.671542 
L 215.854842 276.302444 
L 215.575393 276.902074 
L 215.560789 276.933346 
L 215.26427 277.564248 
L 214.966384 278.19515 
L 214.944491 278.241229 
L 214.666059 278.826052 
L 214.364295 279.456954 
L 214.313589 279.562334 
L 214.060202 280.087856 
L 213.754573 280.718758 
L 213.682687 280.866299 
L 213.446696 281.34966 
L 213.137213 281.980562 
L 213.051785 282.153744 
L 212.825534 282.611464 
L 212.512209 283.242366 
L 212.420883 283.425259 
L 212.196711 283.873268 
L 211.879557 284.50417 
L 211.789981 284.681406 
L 211.560221 285.135072 
L 211.23925 285.765974 
L 211.159079 285.92272 
L 210.916059 286.396876 
L 210.591284 287.027778 
L 210.528177 287.149714 
L 210.26422 287.65868 
L 209.935652 288.289582 
L 209.897275 288.362875 
L 209.604698 288.920484 
L 209.27235 289.551386 
L 209.266373 289.56267 
L 208.937488 290.182288 
L 208.635471 290.749079 
L 208.601238 290.81319 
L 208.262583 291.444092 
L 208.004569 291.922831 
L 207.922391 292.074994 
L 207.57998 292.705896 
L 207.373667 293.084424 
L 207.235828 293.336798 
L 206.889671 293.9677 
L 206.742765 294.234251 
L 206.541541 294.598602 
L 206.191653 295.229504 
L 206.111863 295.372692 
L 205.839527 295.860406 
L 205.485918 296.491308 
L 205.480961 296.500108 
L 205.129778 297.12221 
L 204.850059 297.615905 
L 204.772158 297.753112 
L 204.412291 298.384014 
L 204.219157 298.721246 
L 204.050622 299.014916 
L 203.687058 299.645818 
L 203.588255 299.816515 
L 203.321322 300.27672 
L 202.957353 300.901982 
L 202.954063 300.907622 
L 202.584255 301.538524 
L 202.326451 301.976783 
L 202.212893 302.169426 
L 201.839413 302.800328 
L 201.695549 303.042366 
L 201.46393 303.43123 
L 201.086792 304.062132 
L 201.064647 304.099008 
L 200.707171 304.693034 
L 200.433745 305.145824 
L 200.325963 305.323936 
L 199.942608 305.954838 
L 199.802843 306.183949 
L 199.557225 306.58574 
L 199.171941 307.213858 
L 199.170229 307.216642 
L 198.78066 307.847544 
L 198.541039 308.234297 
L 198.389453 308.478446 
L 197.996262 309.109348 
L 197.910137 309.246983 
L 197.600826 309.74025 
L 197.279235 310.251393 
L 197.203728 310.371152 
L 196.804341 311.002054 
L 196.648333 311.247599 
L 196.402978 311.632957 
L 196.017431 312.236512 
L 195.999925 312.263859 
L 195.594346 312.894761 
L 195.386529 313.216955 
L 195.186991 313.525663 
L 194.777828 314.156565 
L 194.755627 314.190656 
L 194.36615 314.787467 
L 194.124725 315.156223 
L 193.952736 315.418369 
L 193.537399 316.049271 
L 193.493823 316.115202 
L 193.119625 316.680173 
L 192.934599 316.958641 
" clip-path="url(#pfba0fda50d)" style="fill: none; stroke: #ff0000; stroke-width: 1.5"/>
   </g>
   <g id="PathCollection_8">
    <path d="M -1 125.695311 
L 6.445068 120.554276 
L 14.283292 115.417202 
L 22.121515 110.555876 
L 29.959738 105.964718 
L 37.797961 101.640003 
L 45.636185 97.579134 
L 53.509728 93.763116 
L 61.408343 90.200288 
L 69.150854 86.966167 
L 76.276512 84.21686 
L 83.514253 81.649499 
L 90.527827 79.381414 
L 97.653484 77.302182 
L 104.779142 75.455035 
L 111.904799 73.84523 
L 119.030457 72.480647 
L 125.443549 71.468917 
L 131.85664 70.669573 
L 138.269732 70.090962 
L 144.682824 69.743203 
L 151.095916 69.637358 
L 156.796442 69.757498 
L 162.496968 70.090072 
L 168.197494 70.648062 
L 173.89802 71.44577 
L 179.04425 72.386144 
L 183.87394 73.472623 
L 188.8619 74.817141 
L 193.849861 76.406196 
L 198.397353 78.08667 
L 202.40065 79.765195 
L 206.676044 81.782622 
L 210.951439 84.055813 
L 215.226833 86.612462 
L 218.789662 88.986096 
L 222.377582 91.625419 
L 225.915319 94.504765 
L 229.478148 97.721925 
L 232.644997 100.888774 
L 235.862157 104.451603 
L 238.204192 107.301866 
L 240.8792 110.866506 
L 243.297834 114.427523 
L 245.86716 118.635693 
L 248.004858 122.552367 
L 250.142555 126.946995 
L 251.816665 130.816535 
L 253.458806 135.09193 
L 255.130515 140.107648 
L 256.555647 145.150554 
L 257.715374 150.055811 
L 258.693344 155.106347 
L 259.542687 160.744297 
L 260.159227 166.444823 
L 260.546618 172.145349 
L 260.718864 177.845875 
L 260.686541 183.546401 
L 260.417948 189.959493 
L 259.915239 196.372584 
L 259.188458 202.785676 
L 258.246525 209.198768 
L 257.097195 215.61186 
L 255.584587 222.737517 
L 253.831716 229.863175 
L 251.844529 236.988832 
L 249.628731 244.11449 
L 247.188462 251.240147 
L 244.442029 258.583457 
L 241.34651 266.204028 
L 237.903889 274.042251 
L 234.199571 281.880474 
L 230.190714 289.801477 
L 225.915319 297.718643 
L 221.511668 305.395144 
L 216.651965 313.388818 
L 214.390068 316.958641 
L 214.390068 316.958641 
" clip-path="url(#pfba0fda50d)" style="fill: none; stroke: #0000ff; stroke-width: 1.5"/>
   </g>
   <g id="PathCollection_9">
    <path d="M -1 106.972383 
L -0.942148 106.932724 
L -0.52165 106.645079 
L 0.204833 106.149662 
L 0.261413 106.11116 
L 1.044475 105.580346 
L 1.360829 105.3666 
L 1.827538 105.051932 
L 2.524438 104.583537 
L 2.6106 104.525749 
L 3.393662 104.002585 
L 3.697201 103.800475 
L 4.176725 103.481859 
L 4.877955 103.017412 
L 4.959787 102.963327 
L 5.74285 102.447819 
L 6.068219 102.23435 
L 6.525912 101.934697 
L 7.266661 101.451288 
L 7.308974 101.423732 
L 8.092037 100.915888 
L 8.475198 100.668225 
L 8.875099 100.410286 
L 9.658162 99.90689 
L 9.692103 99.885163 
L 10.441224 99.406629 
L 10.919522 99.1021 
L 11.224287 98.908466 
L 12.007349 98.412755 
L 12.155992 98.319038 
L 12.790411 97.919886 
L 13.402644 97.535976 
L 13.573474 97.429078 
L 14.356536 96.941058 
L 14.65957 96.752913 
L 15.139599 96.4555 
L 15.922661 95.971976 
L 15.926117 95.969851 
L 16.705723 95.491644 
L 17.204418 95.186788 
L 17.488786 95.013315 
L 18.271848 94.537502 
L 18.492918 94.403726 
L 19.054911 94.064355 
L 19.792203 93.620664 
L 19.837973 93.593177 
L 20.621035 93.125081 
L 21.103686 92.837601 
L 21.404098 92.65904 
L 22.18716 92.195485 
L 22.426266 92.054539 
L 22.970223 91.734558 
L 23.753285 91.27556 
L 23.760286 91.271476 
L 24.536347 90.819725 
L 25.107545 90.488414 
L 25.31941 90.365781 
L 26.102472 89.914534 
L 26.466969 89.705352 
L 26.885535 89.465638 
L 27.668597 89.018978 
L 27.838895 88.922289 
L 28.451659 88.575107 
L 29.2238 88.139227 
L 29.234722 88.133074 
L 30.017784 87.694183 
L 30.623125 87.356164 
L 30.800847 87.257131 
L 31.583909 86.822857 
L 32.036133 86.573102 
L 32.366971 86.390765 
L 33.150034 85.961123 
L 33.463275 85.79004 
L 33.933096 85.533968 
L 34.716159 85.108974 
L 34.90502 85.006977 
L 35.499221 84.686735 
L 36.282283 84.266404 
L 36.361857 84.223915 
L 37.065346 83.849058 
L 37.834403 83.440852 
L 37.848408 83.433434 
L 38.631471 83.02093 
L 39.323563 82.65779 
L 39.414533 82.610157 
L 40.197595 82.202345 
L 40.829314 81.874728 
L 40.980658 81.796401 
L 41.76372 81.393296 
L 42.352233 81.091665 
L 42.546783 80.992158 
L 43.329845 80.593776 
L 43.892926 80.308603 
L 44.112907 80.197423 
L 44.89597 79.803778 
L 45.452029 79.52554 
L 45.679032 79.412188 
L 46.462095 79.023296 
L 47.030207 78.742478 
L 47.245157 78.636447 
L 48.028219 78.252323 
L 48.628156 77.959416 
L 48.811282 77.870192 
L 49.594344 77.490851 
L 50.246611 77.176353 
L 50.377407 77.113418 
L 51.160469 76.738875 
L 51.886339 76.393291 
L 51.943531 76.366118 
L 52.726594 75.996388 
L 53.509656 75.628355 
L 53.54847 75.610228 
L 54.292719 75.263382 
L 55.075781 74.900194 
L 55.234217 74.827166 
L 55.858843 74.539851 
L 56.641906 74.181523 
L 56.944018 74.044104 
L 57.424968 73.825788 
L 58.208031 73.472336 
L 58.678832 73.261041 
L 58.991093 73.121188 
L 59.774155 72.772625 
L 60.439666 72.477979 
L 60.557218 72.426042 
L 61.34028 72.082384 
L 62.123343 71.740521 
L 62.228524 71.694916 
L 62.906405 71.401606 
L 63.689467 71.064681 
L 64.046944 70.911854 
L 64.47253 70.730285 
L 65.255592 70.398312 
L 65.895096 70.128792 
L 66.038655 70.068413 
L 66.821717 69.741408 
L 67.604779 69.416259 
L 67.775864 69.345729 
L 68.387842 69.093961 
L 69.170904 68.773813 
L 69.690733 68.562667 
L 69.953967 68.455966 
L 70.737029 68.140833 
L 71.520091 67.827602 
L 71.641009 67.779604 
L 72.303154 67.517312 
L 73.086216 67.20913 
L 73.630093 66.996542 
L 73.869279 66.903244 
L 74.652341 66.600124 
L 75.435403 66.298955 
L 75.659395 66.21348 
L 76.218466 66.00058 
L 77.001528 65.704506 
L 77.731414 65.430417 
L 77.784591 65.41049 
L 78.567653 65.119527 
L 79.350715 64.830562 
L 79.850991 64.647355 
L 80.133778 64.54401 
L 80.91684 64.260189 
L 81.699903 63.978394 
L 82.019632 63.864292 
L 82.482965 63.699286 
L 83.266027 63.422669 
L 84.04909 63.148109 
L 84.241548 63.08123 
L 84.832152 62.876423 
L 85.615215 62.607074 
L 86.398277 62.339812 
L 86.52145 62.298168 
L 87.181339 62.075526 
L 87.964402 61.813509 
L 88.747464 61.553609 
L 88.864617 61.515105 
L 89.530527 61.296701 
L 90.313589 61.04208 
L 91.096651 60.789607 
L 91.27699 60.732043 
L 91.879714 60.540054 
L 92.662776 60.292895 
L 93.445839 60.047914 
L 93.76528 59.94898 
L 94.228901 59.805693 
L 95.011963 59.566061 
L 95.795026 59.328639 
L 96.337093 59.165918 
L 96.578088 59.093726 
L 97.361151 58.861687 
L 98.144213 58.631889 
L 98.927276 58.404347 
L 99.002108 58.382856 
L 99.710338 58.179882 
L 100.4934 57.957776 
L 101.276463 57.737958 
L 101.774194 57.599793 
L 102.059525 57.520756 
L 102.842588 57.306409 
L 103.62565 57.094383 
L 104.408712 56.88469 
L 104.665691 56.816731 
L 105.191775 56.6779 
L 105.974837 56.473734 
L 106.7579 56.271934 
L 107.540962 56.072515 
L 107.69559 56.033668 
L 108.324024 55.876123 
L 109.107087 55.682286 
L 109.890149 55.490864 
L 110.673212 55.301869 
L 110.888687 55.250606 
L 111.456274 55.11586 
L 112.239336 54.932504 
L 113.022399 54.751611 
L 113.805461 54.573194 
L 114.276078 54.467544 
L 114.588524 54.397551 
L 115.371586 54.224831 
L 116.154648 54.054622 
L 116.937711 53.886938 
L 117.720773 53.721795 
L 117.900751 53.684481 
L 118.503836 53.559715 
L 119.286898 53.400347 
L 120.06996 53.243556 
L 120.853023 53.089355 
L 121.636085 52.937761 
L 121.827391 52.901419 
L 122.419148 52.789246 
L 123.20221 52.643508 
L 123.985272 52.500412 
L 124.768335 52.359974 
L 125.551397 52.222209 
L 126.153724 52.118356 
L 126.33446 52.087262 
L 127.117522 51.955435 
L 127.900584 51.826319 
L 128.683647 51.69993 
L 129.466709 51.576284 
L 130.249772 51.455396 
L 131.032834 51.337284 
L 131.046373 51.335294 
L 131.815896 51.222432 
L 132.598959 51.110385 
L 133.382021 51.001153 
L 134.165084 50.894751 
L 134.948146 50.791196 
L 135.731208 50.690506 
L 136.514271 50.592696 
L 136.848497 50.552232 
L 137.297333 50.498012 
L 138.080396 50.4064 
L 138.863458 50.31771 
L 139.64652 50.231959 
L 140.429583 50.149164 
L 141.212645 50.069343 
L 141.995708 49.992513 
L 142.77877 49.918692 
L 143.561832 49.847899 
L 144.344895 49.780152 
L 144.478069 49.769169 
L 145.127957 49.715695 
L 145.91102 49.654356 
L 146.694082 49.596105 
L 147.477144 49.54096 
L 148.260207 49.488942 
L 149.043269 49.440069 
L 149.826332 49.394359 
L 150.609394 49.351831 
L 151.392456 49.312506 
L 152.175519 49.276403 
L 152.958581 49.243541 
L 153.741644 49.21394 
L 154.524706 49.187619 
L 155.307768 49.1646 
L 156.090831 49.144903 
L 156.873893 49.128547 
L 157.656956 49.115554 
L 158.440018 49.105944 
L 159.22308 49.099738 
L 160.006143 49.096957 
L 160.789205 49.097624 
L 161.572268 49.101758 
L 162.35533 49.109382 
L 163.138392 49.120518 
L 163.921455 49.135188 
L 164.704517 49.153413 
L 165.48758 49.175217 
L 166.270642 49.200621 
L 167.053704 49.229649 
L 167.836767 49.262324 
L 168.619829 49.298669 
L 169.402892 49.338707 
L 170.185954 49.382462 
L 170.969016 49.429957 
L 171.752079 49.481216 
L 172.535141 49.536264 
L 173.318204 49.595126 
L 174.101266 49.657824 
L 174.884328 49.724385 
L 175.382507 49.769169 
L 175.667391 49.794953 
L 176.450453 49.869658 
L 177.233516 49.948322 
L 178.016578 50.030969 
L 178.79964 50.117626 
L 179.582703 50.20832 
L 180.365765 50.303076 
L 181.148828 50.401922 
L 181.93189 50.504885 
L 182.27847 50.552232 
L 182.714952 50.612275 
L 183.498015 50.724082 
L 184.281077 50.840111 
L 185.06414 50.96039 
L 185.847202 51.084948 
L 186.630264 51.213813 
L 187.34456 51.335294 
L 187.413327 51.347072 
L 188.196389 51.485305 
L 188.979452 51.627958 
L 189.762514 51.775061 
L 190.545577 51.926645 
L 191.328639 52.08274 
L 191.502567 52.118356 
L 192.111701 52.243992 
L 192.894764 52.410018 
L 193.677826 52.580676 
L 194.460889 52.755999 
L 195.093729 52.901419 
L 195.243951 52.936191 
L 196.027013 53.121862 
L 196.810076 53.312325 
L 197.593138 53.507613 
L 198.285315 53.684481 
L 198.376201 53.707877 
L 199.159263 53.913956 
L 199.942325 54.124994 
L 200.725388 54.341025 
L 201.174012 54.467544 
L 201.50845 54.562571 
L 202.291513 54.789861 
L 203.074575 55.022286 
L 203.827133 55.250606 
L 203.857637 55.259931 
L 204.6407 55.504002 
L 205.423762 55.753353 
L 206.206825 56.008025 
L 206.284219 56.033668 
L 206.989887 56.269291 
L 207.772949 56.536127 
L 208.556012 56.808438 
L 208.579442 56.816731 
L 209.339074 57.087703 
L 210.122137 57.372608 
L 210.73478 57.599793 
L 210.905199 57.66349 
L 211.688261 57.961314 
L 212.471324 58.264899 
L 212.770341 58.382856 
L 213.254386 58.575336 
L 214.037449 58.892307 
L 214.701223 59.165918 
L 214.820511 59.215488 
L 215.603573 59.546201 
L 216.386636 59.882987 
L 216.537656 59.94898 
L 217.169698 60.227443 
L 217.952761 60.578481 
L 218.289816 60.732043 
L 218.735823 60.936933 
L 219.518885 61.302611 
L 219.966593 61.515105 
L 220.301948 61.675612 
L 221.08501 62.056335 
L 221.574474 62.298168 
L 221.868073 62.444462 
L 222.651135 62.84065 
L 223.11922 63.08123 
L 223.434197 63.24451 
L 224.21726 63.656602 
L 224.60597 63.864292 
L 225.000322 64.07683 
L 225.783385 64.505282 
L 226.039318 64.647355 
L 226.566447 64.942548 
L 227.349509 65.387834 
L 227.423385 65.430417 
L 228.132572 65.842839 
L 228.760303 66.21348 
L 228.915634 66.306018 
L 229.698697 66.778937 
L 230.053909 66.996542 
L 230.481759 67.261027 
L 231.264821 67.752135 
L 231.308061 67.779604 
L 232.047884 68.253936 
L 232.522604 68.562667 
L 232.830946 68.765058 
L 233.614009 69.286142 
L 233.702418 69.345729 
L 234.397071 69.81832 
L 234.847207 70.128792 
L 235.180133 70.3606 
L 235.961205 70.911854 
L 235.963196 70.913273 
L 236.746258 71.478067 
L 237.042958 71.694916 
L 237.529321 72.053834 
L 238.09661 72.477979 
L 238.312383 72.640886 
L 239.095445 73.239702 
L 239.123019 73.261041 
L 239.878508 73.85151 
L 240.121835 74.044104 
L 240.66157 74.475588 
L 241.095904 74.827166 
L 241.444633 75.112309 
L 242.046133 75.610228 
L 242.227695 75.762062 
L 242.973388 76.393291 
L 243.010757 76.425251 
L 243.79382 77.10282 
L 243.877808 77.176353 
L 244.576882 77.794821 
L 244.76075 77.959416 
L 245.359945 78.501484 
L 245.623253 78.742478 
L 246.143007 79.223278 
L 246.46602 79.52554 
L 246.926069 79.960696 
L 247.289719 80.308603 
L 247.709132 80.714249 
L 248.094991 81.091665 
L 248.492194 81.484475 
L 248.882447 81.874728 
L 249.275257 82.271931 
L 249.652672 82.65779 
L 250.058319 83.077203 
L 250.406226 83.440852 
L 250.841381 83.900902 
L 251.143644 84.223915 
L 251.624444 84.743669 
L 251.865438 85.006977 
L 252.407506 85.606172 
L 252.572101 85.79004 
L 253.190569 86.489114 
L 253.264102 86.573102 
L 253.941671 87.356164 
L 253.973631 87.393534 
L 254.60486 88.139227 
L 254.756693 88.320789 
L 255.254613 88.922289 
L 255.539756 89.271018 
L 255.891334 89.705352 
L 256.322818 90.245086 
L 256.515412 90.488414 
L 257.105881 91.243903 
L 257.12722 91.271476 
L 257.726036 92.054539 
L 257.888943 92.270312 
L 258.313088 92.837601 
L 258.672005 93.323964 
L 258.888854 93.620664 
L 259.453649 94.403726 
L 259.455068 94.405717 
L 260.006322 95.186788 
L 260.23813 95.519715 
L 260.548602 95.969851 
L 261.021193 96.664504 
L 261.08078 96.752913 
L 261.601864 97.535976 
L 261.804255 97.844318 
L 262.112986 98.319038 
L 262.587317 99.058861 
L 262.614787 99.1021 
L 263.105895 99.885163 
L 263.37038 100.313012 
L 263.587985 100.668225 
L 264.060904 101.451288 
L 264.153442 101.606619 
L 264.524083 102.23435 
L 264.936505 102.943537 
L 264.979087 103.017412 
L 265.424374 103.800475 
L 265.719567 104.327604 
L 265.86164 104.583537 
L 266.290092 105.3666 
L 266.502629 105.760952 
L 266.71032 106.149662 
L 267.122412 106.932724 
L 267.285692 107.247701 
L 267.526272 107.715787 
L 267.92246 108.498849 
L 268.068754 108.792448 
L 268.310587 109.281912 
L 268.69131 110.064974 
L 268.851817 110.400329 
L 269.064311 110.848037 
L 269.429989 111.631099 
L 269.634879 112.077106 
L 269.788441 112.414161 
L 270.139479 113.197224 
L 270.417941 113.829266 
L 270.483935 113.980286 
L 270.82072 114.763349 
L 271.151434 115.546411 
L 271.201004 115.665699 
L 271.474614 116.329473 
L 271.791586 117.112536 
L 271.984066 117.59658 
L 272.102023 117.895598 
L 272.405608 118.678661 
L 272.703432 119.461723 
L 272.767129 119.632142 
L 272.994314 120.244785 
L 273.279219 121.027848 
L 273.550191 121.78748 
L 273.558484 121.81091 
L 273.830795 122.593973 
L 274.097631 123.377035 
L 274.333253 124.082703 
L 274.358897 124.160097 
L 274.613569 124.94316 
L 274.86292 125.726222 
L 275.106991 126.509285 
L 275.116316 126.539789 
L 275.344636 127.292347 
L 275.577061 128.075409 
L 275.804351 128.858472 
L 275.899378 129.19291 
L 276.025897 129.641534 
L 276.241928 130.424597 
L 276.452966 131.207659 
L 276.659045 131.990721 
L 276.682441 132.081607 
L 276.859309 132.773784 
L 277.054597 133.556846 
L 277.245059 134.339909 
L 277.430731 135.122971 
L 277.465503 135.273192 
L 277.610923 135.906033 
L 277.786245 136.689096 
L 277.956904 137.472158 
L 278.12293 138.255221 
L 278.248565 138.864355 
L 278.284182 139.038283 
L 278.440277 139.821345 
L 278.591861 140.604408 
L 278.738964 141.38747 
L 278.881617 142.170533 
L 279.01985 142.953595 
L 279.031628 143.022362 
L 279.153109 143.736657 
L 279.281974 144.51972 
L 279.406532 145.302782 
L 279.526811 146.085845 
L 279.64284 146.868907 
L 279.754647 147.651969 
L 279.81469 148.088452 
L 279.862037 148.435032 
L 279.965 149.218094 
L 280.063846 150.001157 
L 280.158602 150.784219 
L 280.249296 151.567281 
L 280.335953 152.350344 
L 280.4186 153.133406 
L 280.497264 153.916469 
L 280.571969 154.699531 
L 280.597753 154.984414 
L 280.642536 155.482593 
L 280.709098 156.265656 
L 280.771796 157.048718 
L 280.830658 157.831781 
L 280.885706 158.614843 
L 280.936965 159.397905 
L 280.98446 160.180968 
L 281.028215 160.96403 
L 281.068253 161.747093 
L 281.104597 162.530155 
L 281.137272 163.313217 
L 281.166301 164.09628 
L 281.191705 164.879342 
L 281.213509 165.662405 
L 281.231734 166.445467 
L 281.246404 167.228529 
L 281.25754 168.011592 
L 281.265164 168.794654 
L 281.269298 169.577717 
L 281.269964 170.360779 
L 281.267184 171.143841 
L 281.260978 171.926904 
L 281.251368 172.709966 
L 281.238375 173.493029 
L 281.222019 174.276091 
L 281.202321 175.059153 
L 281.179302 175.842216 
L 281.152982 176.625278 
L 281.123381 177.408341 
L 281.090519 178.191403 
L 281.054416 178.974465 
L 281.015091 179.757528 
L 280.972563 180.54059 
L 280.926853 181.323653 
L 280.87798 182.106715 
L 280.825961 182.889777 
L 280.770817 183.67284 
L 280.712566 184.455902 
L 280.651226 185.238965 
L 280.597753 185.888853 
L 280.58677 186.022027 
L 280.519023 186.805089 
L 280.448229 187.588152 
L 280.374409 188.371214 
L 280.297579 189.154277 
L 280.217758 189.937339 
L 280.134963 190.720401 
L 280.049212 191.503464 
L 279.960522 192.286526 
L 279.86891 193.069589 
L 279.81469 193.518425 
L 279.774226 193.852651 
L 279.676416 194.635713 
L 279.575726 195.418776 
L 279.472171 196.201838 
L 279.365769 196.984901 
L 279.256537 197.767963 
L 279.14449 198.551026 
L 279.031628 199.320549 
L 279.029638 199.334088 
L 278.911526 200.11715 
L 278.790638 200.900213 
L 278.666992 201.683275 
L 278.540603 202.466338 
L 278.411487 203.2494 
L 278.27966 204.032462 
L 278.248565 204.213198 
L 278.144713 204.815525 
L 278.006948 205.598587 
L 277.86651 206.38165 
L 277.723414 207.164712 
L 277.577675 207.947774 
L 277.465503 208.539531 
L 277.429161 208.730837 
L 277.277567 209.513899 
L 277.123366 210.296962 
L 276.966575 211.080024 
L 276.807207 211.863086 
L 276.682441 212.46617 
L 276.645127 212.646149 
L 276.479984 213.429211 
L 276.3123 214.212274 
L 276.142091 214.995336 
L 275.96937 215.778398 
L 275.899378 216.090844 
L 275.793727 216.561461 
L 275.615311 217.344523 
L 275.434418 218.127586 
L 275.251062 218.910648 
L 275.116316 219.478235 
L 275.065052 219.69371 
L 274.876058 220.476773 
L 274.684636 221.259835 
L 274.490799 222.042898 
L 274.333253 222.671332 
L 274.294407 222.82596 
L 274.094988 223.609022 
L 273.893188 224.392085 
L 273.689022 225.175147 
L 273.550191 225.701231 
L 273.482232 225.95821 
L 273.272539 226.741272 
L 273.060513 227.524334 
L 272.846166 228.307397 
L 272.767129 228.592727 
L 272.628964 229.090459 
L 272.409146 229.873522 
L 272.18704 230.656584 
L 271.984066 231.364814 
L 271.962575 231.439646 
L 271.735033 232.222709 
L 271.505235 233.005771 
L 271.273195 233.788834 
L 271.201004 234.029829 
L 271.038283 234.571896 
L 270.800861 235.354958 
L 270.561229 236.138021 
L 270.417941 236.601642 
L 270.319007 236.921083 
L 270.074027 237.704146 
L 269.826868 238.487208 
L 269.634879 239.089932 
L 269.577315 239.27027 
L 269.324842 240.053333 
L 269.070221 240.836395 
L 268.851817 241.502305 
L 268.813313 241.619458 
L 268.553413 242.40252 
L 268.291396 243.185582 
L 268.068754 243.845472 
L 268.02711 243.968645 
L 267.759848 244.751707 
L 267.490499 245.53477 
L 267.285692 246.125373 
L 267.218813 246.317832 
L 266.944253 247.100894 
L 266.667636 247.883957 
L 266.502629 248.34729 
L 266.388528 248.667019 
L 266.106733 249.450082 
L 265.822912 250.233144 
L 265.719567 250.515931 
L 265.53636 251.016206 
L 265.247395 251.799269 
L 264.956432 252.582331 
L 264.936505 252.635507 
L 264.662416 253.365394 
L 264.366342 254.148456 
L 264.153442 254.707527 
L 264.067967 254.931518 
L 263.766798 255.714581 
L 263.463678 256.497643 
L 263.37038 256.736829 
L 263.157792 257.280706 
L 262.84961 258.063768 
L 262.587317 258.725913 
L 262.53932 258.84683 
L 262.226089 259.629893 
L 261.910956 260.412955 
L 261.804255 260.676189 
L 261.593109 261.196018 
L 261.272961 261.97908 
L 261.021193 262.591058 
L 260.950663 262.762142 
L 260.625514 263.545205 
L 260.298508 264.328267 
L 260.23813 264.471826 
L 259.96861 265.11133 
L 259.636637 265.894392 
L 259.455068 266.319978 
L 259.302241 266.677454 
L 258.965315 267.460517 
L 258.672005 268.138398 
L 258.626401 268.243579 
L 258.284538 269.026642 
L 257.94088 269.809704 
L 257.888943 269.927256 
L 257.594297 270.592766 
L 257.245734 271.375829 
L 257.105881 271.68809 
L 256.894586 272.158891 
L 256.541133 272.941954 
L 256.322818 273.422904 
L 256.185399 273.725016 
L 255.827071 274.508078 
L 255.539756 275.132705 
L 255.466728 275.291141 
L 255.10354 276.074203 
L 254.756693 276.818452 
L 254.738567 276.857266 
L 254.370534 277.640328 
L 254.000804 278.42339 
L 253.973631 278.480583 
L 253.628047 279.206453 
L 253.253503 279.989515 
L 253.190569 280.120311 
L 252.876071 280.772578 
L 252.496729 281.55564 
L 252.407506 281.738765 
L 252.114599 282.338702 
L 251.730475 283.121765 
L 251.624444 283.336715 
L 251.343626 283.904827 
L 250.954734 284.68789 
L 250.841381 284.914893 
L 250.563143 285.470952 
L 250.169499 286.254014 
L 250.058319 286.473996 
L 249.773146 287.037077 
L 249.374764 287.820139 
L 249.275257 288.014689 
L 248.973626 288.603202 
L 248.570521 289.386264 
L 248.492194 289.537608 
L 248.164577 290.169327 
L 247.756765 290.952389 
L 247.709132 291.043358 
L 247.345992 291.735451 
L 246.933488 292.518514 
L 246.926069 292.532519 
L 246.517864 293.301576 
L 246.143007 294.005065 
L 246.100518 294.084639 
L 245.680187 294.867701 
L 245.359945 295.461902 
L 245.257948 295.650763 
L 244.832953 296.433826 
L 244.576882 296.903647 
L 244.405799 297.216888 
L 243.976157 297.999951 
L 243.79382 298.330788 
L 243.544065 298.783013 
L 243.109791 299.566075 
L 243.010757 299.743797 
L 242.672739 300.349138 
L 242.233848 301.1322 
L 242.227695 301.143122 
L 241.791814 301.915263 
L 241.444633 302.528027 
L 241.347944 302.698325 
L 240.901284 303.481387 
L 240.66157 303.899953 
L 240.452388 304.26445 
L 240.001141 305.047512 
L 239.878508 305.259377 
L 239.547197 305.830575 
L 239.095445 306.606636 
L 239.091362 306.613637 
L 238.632364 307.396699 
L 238.312383 307.940656 
L 238.171437 308.179762 
L 237.707882 308.962824 
L 237.529321 309.263236 
L 237.241841 309.745887 
L 236.773745 310.528949 
L 236.746258 310.574719 
L 236.302566 311.312011 
L 235.963196 311.874004 
L 235.829419 312.095074 
L 235.353607 312.878136 
L 235.180133 313.162504 
L 234.875278 313.661199 
L 234.397071 314.440804 
L 234.394946 314.444261 
L 233.911422 315.227323 
L 233.614009 315.707352 
L 233.425863 316.010386 
L 232.937844 316.793448 
L 232.834474 316.958641 
" clip-path="url(#pfba0fda50d)" style="fill: none; stroke: #008000; stroke-width: 1.5"/>
   </g>
   <g id="line2d_15">
    <path d="M 53.118125 277.248797 
" clip-path="url(#pfba0fda50d)" style="fill: none; stroke: #ff0000; stroke-width: 1.5; stroke-linecap: square"/>
   </g>
   <g id="line2d_16">
    <path d="M 53.118125 277.248797 
" clip-path="url(#pfba0fda50d)" style="fill: none; stroke: #0000ff; stroke-width: 1.5; stroke-linecap: square"/>
   </g>
   <g id="line2d_17">
    <path d="M 53.118125 277.248797 
" clip-path="url(#pfba0fda50d)" style="fill: none; stroke: #008000; stroke-width: 1.5; stroke-linecap: square"/>
   </g>
   <g id="patch_3">
    <path d="M 53.118125 277.248797 
L 53.118125 11.136797 
" style="fill: none; stroke: #000000; stroke-width: 0.8; stroke-linejoin: miter; stroke-linecap: square"/>
   </g>
   <g id="patch_4">
    <path d="M 319.230125 277.248797 
L 319.230125 11.136797 
" style="fill: none; stroke: #000000; stroke-width: 0.8; stroke-linejoin: miter; stroke-linecap: square"/>
   </g>
   <g id="patch_5">
    <path d="M 53.118125 277.248797 
L 319.230125 277.248797 
" style="fill: none; stroke: #000000; stroke-width: 0.8; stroke-linejoin: miter; stroke-linecap: square"/>
   </g>
   <g id="patch_6">
    <path d="M 53.118125 11.136797 
L 319.230125 11.136797 
" style="fill: none; stroke: #000000; stroke-width: 0.8; stroke-linejoin: miter; stroke-linecap: square"/>
   </g>
   <g id="legend_1">
    <g id="patch_7">
     <path d="M 328.531725 168.256328 
L 457.891725 168.256328 
Q 460.091725 168.256328 460.091725 166.056328 
L 460.091725 18.836797 
Q 460.091725 16.636797 457.891725 16.636797 
L 328.531725 16.636797 
Q 326.331725 16.636797 326.331725 18.836797 
L 326.331725 166.056328 
Q 326.331725 168.256328 328.531725 168.256328 
z
" style="fill: #ffffff; opacity: 0.8; stroke: #cccccc; stroke-linejoin: miter"/>
    </g>
    <g id="PathCollection_10">
     <g>
      <use xlink:href="#m3791d9e0fd" x="341.731725" y="26.179297" style="fill: #ff0000; stroke: #000000"/>
     </g>
    </g>
    <g id="text_17">
     <!-- $\epsilon_p$=0.2% Trial 1 -->
     <g transform="translate(361.531725 29.066797) scale(0.11 -0.11)">
      <defs>
       <path id="DejaVuSans-Oblique-3b5" d="M 1263 1888 
Q 925 1963 778 2166 
Q 669 2309 669 2503 
Q 669 3034 1175 3344 
Q 1575 3588 2188 3588 
Q 2425 3588 2684 3550 
Q 2944 3513 3234 3438 
L 3134 2916 
Q 2847 3006 2606 3047 
Q 2359 3088 2138 3088 
Q 1766 3088 1522 2944 
Q 1228 2772 1228 2522 
Q 1228 2356 1381 2241 
Q 1563 2103 1925 2103 
L 2409 2103 
L 2319 1628 
L 1856 1628 
Q 1425 1628 1172 1469 
Q 828 1253 828 916 
Q 828 703 1013 563 
Q 1244 388 1716 388 
Q 2006 388 2284 444 
Q 2563 503 2806 619 
L 2700 84 
Q 2403 -3 2131 -47 
Q 1859 -91 1609 -91 
Q 866 -91 516 194 
Q 250 413 250 781 
Q 250 1278 600 1584 
Q 859 1813 1263 1888 
z
" transform="scale(0.015625)"/>
       <path id="DejaVuSans-Oblique-70" d="M 3175 2156 
Q 3175 2616 2975 2859 
Q 2775 3103 2400 3103 
Q 2144 3103 1911 2972 
Q 1678 2841 1497 2591 
Q 1319 2344 1212 1994 
Q 1106 1644 1106 1300 
Q 1106 863 1306 627 
Q 1506 391 1875 391 
Q 2147 391 2380 519 
Q 2613 647 2778 891 
Q 2956 1147 3065 1494 
Q 3175 1841 3175 2156 
z
M 1394 2969 
Q 1625 3272 1939 3428 
Q 2253 3584 2638 3584 
Q 3175 3584 3472 3232 
Q 3769 2881 3769 2247 
Q 3769 1728 3584 1258 
Q 3400 788 3053 416 
Q 2822 169 2531 39 
Q 2241 -91 1919 -91 
Q 1547 -91 1294 64 
Q 1041 219 916 525 
L 556 -1331 
L -19 -1331 
L 922 3500 
L 1497 3500 
L 1394 2969 
z
" transform="scale(0.015625)"/>
       <path id="ArialMT-3d" d="M 3381 2694 
L 356 2694 
L 356 3219 
L 3381 3219 
L 3381 2694 
z
M 3381 1303 
L 356 1303 
L 356 1828 
L 3381 1828 
L 3381 1303 
z
" transform="scale(0.015625)"/>
       <path id="ArialMT-2e" d="M 581 0 
L 581 641 
L 1222 641 
L 1222 0 
L 581 0 
z
" transform="scale(0.015625)"/>
       <path id="ArialMT-25" d="M 372 3481 
Q 372 3972 619 4315 
Q 866 4659 1334 4659 
Q 1766 4659 2048 4351 
Q 2331 4044 2331 3447 
Q 2331 2866 2045 2552 
Q 1759 2238 1341 2238 
Q 925 2238 648 2547 
Q 372 2856 372 3481 
z
M 1350 4272 
Q 1141 4272 1002 4090 
Q 863 3909 863 3425 
Q 863 2984 1003 2804 
Q 1144 2625 1350 2625 
Q 1563 2625 1702 2806 
Q 1841 2988 1841 3469 
Q 1841 3913 1700 4092 
Q 1559 4272 1350 4272 
z
M 1353 -169 
L 3859 4659 
L 4316 4659 
L 1819 -169 
L 1353 -169 
z
M 3334 1075 
Q 3334 1569 3581 1911 
Q 3828 2253 4300 2253 
Q 4731 2253 5014 1945 
Q 5297 1638 5297 1041 
Q 5297 459 5011 145 
Q 4725 -169 4303 -169 
Q 3888 -169 3611 142 
Q 3334 453 3334 1075 
z
M 4316 1866 
Q 4103 1866 3964 1684 
Q 3825 1503 3825 1019 
Q 3825 581 3965 400 
Q 4106 219 4313 219 
Q 4528 219 4667 400 
Q 4806 581 4806 1063 
Q 4806 1506 4665 1686 
Q 4525 1866 4316 1866 
z
" transform="scale(0.015625)"/>
       <path id="ArialMT-54" d="M 1659 0 
L 1659 4041 
L 150 4041 
L 150 4581 
L 3781 4581 
L 3781 4041 
L 2266 4041 
L 2266 0 
L 1659 0 
z
" transform="scale(0.015625)"/>
       <path id="ArialMT-72" d="M 416 0 
L 416 3319 
L 922 3319 
L 922 2816 
Q 1116 3169 1280 3281 
Q 1444 3394 1641 3394 
Q 1925 3394 2219 3213 
L 2025 2691 
Q 1819 2813 1613 2813 
Q 1428 2813 1281 2702 
Q 1134 2591 1072 2394 
Q 978 2094 978 1738 
L 978 0 
L 416 0 
z
" transform="scale(0.015625)"/>
       <path id="ArialMT-69" d="M 425 3934 
L 425 4581 
L 988 4581 
L 988 3934 
L 425 3934 
z
M 425 0 
L 425 3319 
L 988 3319 
L 988 0 
L 425 0 
z
" transform="scale(0.015625)"/>
       <path id="ArialMT-6c" d="M 409 0 
L 409 4581 
L 972 4581 
L 972 0 
L 409 0 
z
" transform="scale(0.015625)"/>
      </defs>
      <use xlink:href="#DejaVuSans-Oblique-3b5" transform="translate(0 0.203125)"/>
      <use xlink:href="#DejaVuSans-Oblique-70" transform="translate(54.052734 -16.203125) scale(0.7)"/>
      <use xlink:href="#ArialMT-3d" transform="translate(101.220703 0.203125)"/>
      <use xlink:href="#ArialMT-30" transform="translate(159.619141 0.203125)"/>
      <use xlink:href="#ArialMT-2e" transform="translate(215.234375 0.203125)"/>
      <use xlink:href="#ArialMT-32" transform="translate(243.017578 0.203125)"/>
      <use xlink:href="#ArialMT-25" transform="translate(298.632812 0.203125)"/>
      <use xlink:href="#ArialMT-20" transform="translate(387.548828 0.203125)"/>
      <use xlink:href="#ArialMT-54" transform="translate(415.332031 0.203125)"/>
      <use xlink:href="#ArialMT-72" transform="translate(476.416016 0.203125)"/>
      <use xlink:href="#ArialMT-69" transform="translate(509.716797 0.203125)"/>
      <use xlink:href="#ArialMT-61" transform="translate(531.933594 0.203125)"/>
      <use xlink:href="#ArialMT-6c" transform="translate(587.548828 0.203125)"/>
      <use xlink:href="#ArialMT-20" transform="translate(609.765625 0.203125)"/>
      <use xlink:href="#ArialMT-31" transform="translate(637.548828 0.203125)"/>
     </g>
    </g>
    <g id="PathCollection_11">
     <g>
      <use xlink:href="#mc385d49e51" x="341.731725" y="43.119297" style="fill: #ff0000; stroke: #000000"/>
     </g>
    </g>
    <g id="text_18">
     <!-- $\epsilon_p$=0.2% Trial 2 -->
     <g transform="translate(361.531725 46.006797) scale(0.11 -0.11)">
      <use xlink:href="#DejaVuSans-Oblique-3b5" transform="translate(0 0.203125)"/>
      <use xlink:href="#DejaVuSans-Oblique-70" transform="translate(54.052734 -16.203125) scale(0.7)"/>
      <use xlink:href="#ArialMT-3d" transform="translate(101.220703 0.203125)"/>
      <use xlink:href="#ArialMT-30" transform="translate(159.619141 0.203125)"/>
      <use xlink:href="#ArialMT-2e" transform="translate(215.234375 0.203125)"/>
      <use xlink:href="#ArialMT-32" transform="translate(243.017578 0.203125)"/>
      <use xlink:href="#ArialMT-25" transform="translate(298.632812 0.203125)"/>
      <use xlink:href="#ArialMT-20" transform="translate(387.548828 0.203125)"/>
      <use xlink:href="#ArialMT-54" transform="translate(415.332031 0.203125)"/>
      <use xlink:href="#ArialMT-72" transform="translate(476.416016 0.203125)"/>
      <use xlink:href="#ArialMT-69" transform="translate(509.716797 0.203125)"/>
      <use xlink:href="#ArialMT-61" transform="translate(531.933594 0.203125)"/>
      <use xlink:href="#ArialMT-6c" transform="translate(587.548828 0.203125)"/>
      <use xlink:href="#ArialMT-20" transform="translate(609.765625 0.203125)"/>
      <use xlink:href="#ArialMT-32" transform="translate(637.548828 0.203125)"/>
     </g>
    </g>
    <g id="PathCollection_12">
     <g>
      <use xlink:href="#m28e290c7d7" x="341.731725" y="60.059297" style="fill: #0000ff; stroke: #000000"/>
     </g>
    </g>
    <g id="text_19">
     <!-- $\epsilon_p$=0.5% Trial 1 -->
     <g transform="translate(361.531725 62.946797) scale(0.11 -0.11)">
      <defs>
       <path id="ArialMT-35" d="M 266 1200 
L 856 1250 
Q 922 819 1161 601 
Q 1400 384 1738 384 
Q 2144 384 2425 690 
Q 2706 997 2706 1503 
Q 2706 1984 2436 2262 
Q 2166 2541 1728 2541 
Q 1456 2541 1237 2417 
Q 1019 2294 894 2097 
L 366 2166 
L 809 4519 
L 3088 4519 
L 3088 3981 
L 1259 3981 
L 1013 2750 
Q 1425 3038 1878 3038 
Q 2478 3038 2890 2622 
Q 3303 2206 3303 1553 
Q 3303 931 2941 478 
Q 2500 -78 1738 -78 
Q 1113 -78 717 272 
Q 322 622 266 1200 
z
" transform="scale(0.015625)"/>
      </defs>
      <use xlink:href="#DejaVuSans-Oblique-3b5" transform="translate(0 0.203125)"/>
      <use xlink:href="#DejaVuSans-Oblique-70" transform="translate(54.052734 -16.203125) scale(0.7)"/>
      <use xlink:href="#ArialMT-3d" transform="translate(101.220703 0.203125)"/>
      <use xlink:href="#ArialMT-30" transform="translate(159.619141 0.203125)"/>
      <use xlink:href="#ArialMT-2e" transform="translate(215.234375 0.203125)"/>
      <use xlink:href="#ArialMT-35" transform="translate(243.017578 0.203125)"/>
      <use xlink:href="#ArialMT-25" transform="translate(298.632812 0.203125)"/>
      <use xlink:href="#ArialMT-20" transform="translate(387.548828 0.203125)"/>
      <use xlink:href="#ArialMT-54" transform="translate(415.332031 0.203125)"/>
      <use xlink:href="#ArialMT-72" transform="translate(476.416016 0.203125)"/>
      <use xlink:href="#ArialMT-69" transform="translate(509.716797 0.203125)"/>
      <use xlink:href="#ArialMT-61" transform="translate(531.933594 0.203125)"/>
      <use xlink:href="#ArialMT-6c" transform="translate(587.548828 0.203125)"/>
      <use xlink:href="#ArialMT-20" transform="translate(609.765625 0.203125)"/>
      <use xlink:href="#ArialMT-31" transform="translate(637.548828 0.203125)"/>
     </g>
    </g>
    <g id="PathCollection_13">
     <g>
      <use xlink:href="#md6254ecd65" x="341.731725" y="76.999297" style="fill: #0000ff; stroke: #000000"/>
     </g>
    </g>
    <g id="text_20">
     <!-- $\epsilon_p$=0.5% Trial 2 -->
     <g transform="translate(361.531725 79.886797) scale(0.11 -0.11)">
      <use xlink:href="#DejaVuSans-Oblique-3b5" transform="translate(0 0.203125)"/>
      <use xlink:href="#DejaVuSans-Oblique-70" transform="translate(54.052734 -16.203125) scale(0.7)"/>
      <use xlink:href="#ArialMT-3d" transform="translate(101.220703 0.203125)"/>
      <use xlink:href="#ArialMT-30" transform="translate(159.619141 0.203125)"/>
      <use xlink:href="#ArialMT-2e" transform="translate(215.234375 0.203125)"/>
      <use xlink:href="#ArialMT-35" transform="translate(243.017578 0.203125)"/>
      <use xlink:href="#ArialMT-25" transform="translate(298.632812 0.203125)"/>
      <use xlink:href="#ArialMT-20" transform="translate(387.548828 0.203125)"/>
      <use xlink:href="#ArialMT-54" transform="translate(415.332031 0.203125)"/>
      <use xlink:href="#ArialMT-72" transform="translate(476.416016 0.203125)"/>
      <use xlink:href="#ArialMT-69" transform="translate(509.716797 0.203125)"/>
      <use xlink:href="#ArialMT-61" transform="translate(531.933594 0.203125)"/>
      <use xlink:href="#ArialMT-6c" transform="translate(587.548828 0.203125)"/>
      <use xlink:href="#ArialMT-20" transform="translate(609.765625 0.203125)"/>
      <use xlink:href="#ArialMT-32" transform="translate(637.548828 0.203125)"/>
     </g>
    </g>
    <g id="PathCollection_14">
     <g>
      <use xlink:href="#m5324c816c4" x="341.731725" y="93.939297" style="fill: #008000; stroke: #000000"/>
     </g>
    </g>
    <g id="text_21">
     <!-- $\epsilon_p$=1.0% Trial 1 -->
     <g transform="translate(361.531725 96.826797) scale(0.11 -0.11)">
      <use xlink:href="#DejaVuSans-Oblique-3b5" transform="translate(0 0.203125)"/>
      <use xlink:href="#DejaVuSans-Oblique-70" transform="translate(54.052734 -16.203125) scale(0.7)"/>
      <use xlink:href="#ArialMT-3d" transform="translate(101.220703 0.203125)"/>
      <use xlink:href="#ArialMT-31" transform="translate(159.619141 0.203125)"/>
      <use xlink:href="#ArialMT-2e" transform="translate(215.234375 0.203125)"/>
      <use xlink:href="#ArialMT-30" transform="translate(243.017578 0.203125)"/>
      <use xlink:href="#ArialMT-25" transform="translate(298.632812 0.203125)"/>
      <use xlink:href="#ArialMT-20" transform="translate(387.548828 0.203125)"/>
      <use xlink:href="#ArialMT-54" transform="translate(415.332031 0.203125)"/>
      <use xlink:href="#ArialMT-72" transform="translate(476.416016 0.203125)"/>
      <use xlink:href="#ArialMT-69" transform="translate(509.716797 0.203125)"/>
      <use xlink:href="#ArialMT-61" transform="translate(531.933594 0.203125)"/>
      <use xlink:href="#ArialMT-6c" transform="translate(587.548828 0.203125)"/>
      <use xlink:href="#ArialMT-20" transform="translate(609.765625 0.203125)"/>
      <use xlink:href="#ArialMT-31" transform="translate(637.548828 0.203125)"/>
     </g>
    </g>
    <g id="PathCollection_15">
     <g>
      <use xlink:href="#mdd7186241f" x="341.731725" y="110.879297" style="fill: #008000; stroke: #000000"/>
     </g>
    </g>
    <g id="text_22">
     <!-- $\epsilon_p$=1.0% Trial 2 -->
     <g transform="translate(361.531725 113.766797) scale(0.11 -0.11)">
      <use xlink:href="#DejaVuSans-Oblique-3b5" transform="translate(0 0.203125)"/>
      <use xlink:href="#DejaVuSans-Oblique-70" transform="translate(54.052734 -16.203125) scale(0.7)"/>
      <use xlink:href="#ArialMT-3d" transform="translate(101.220703 0.203125)"/>
      <use xlink:href="#ArialMT-31" transform="translate(159.619141 0.203125)"/>
      <use xlink:href="#ArialMT-2e" transform="translate(215.234375 0.203125)"/>
      <use xlink:href="#ArialMT-30" transform="translate(243.017578 0.203125)"/>
      <use xlink:href="#ArialMT-25" transform="translate(298.632812 0.203125)"/>
      <use xlink:href="#ArialMT-20" transform="translate(387.548828 0.203125)"/>
      <use xlink:href="#ArialMT-54" transform="translate(415.332031 0.203125)"/>
      <use xlink:href="#ArialMT-72" transform="translate(476.416016 0.203125)"/>
      <use xlink:href="#ArialMT-69" transform="translate(509.716797 0.203125)"/>
      <use xlink:href="#ArialMT-61" transform="translate(531.933594 0.203125)"/>
      <use xlink:href="#ArialMT-6c" transform="translate(587.548828 0.203125)"/>
      <use xlink:href="#ArialMT-20" transform="translate(609.765625 0.203125)"/>
      <use xlink:href="#ArialMT-32" transform="translate(637.548828 0.203125)"/>
     </g>
    </g>
    <g id="line2d_18">
     <path d="M 330.731725 126.700391 
L 341.731725 126.700391 
L 352.731725 126.700391 
" style="fill: none; stroke: #ff0000; stroke-width: 1.5; stroke-linecap: square"/>
    </g>
    <g id="text_23">
     <!-- Hill48 $\bar \sigma$ = 710 MPa -->
     <g transform="translate(361.531725 130.550391) scale(0.11 -0.11)">
      <defs>
       <path id="ArialMT-48" d="M 513 0 
L 513 4581 
L 1119 4581 
L 1119 2700 
L 3500 2700 
L 3500 4581 
L 4106 4581 
L 4106 0 
L 3500 0 
L 3500 2159 
L 1119 2159 
L 1119 0 
L 513 0 
z
" transform="scale(0.015625)"/>
       <path id="DejaVuSans-304" d="M -2518 4769 
L -650 4769 
L -650 4306 
L -2518 4306 
L -2518 4769 
z
" transform="scale(0.015625)"/>
       <path id="ArialMT-37" d="M 303 3981 
L 303 4522 
L 3269 4522 
L 3269 4084 
Q 2831 3619 2401 2847 
Q 1972 2075 1738 1259 
Q 1569 684 1522 0 
L 944 0 
Q 953 541 1156 1306 
Q 1359 2072 1739 2783 
Q 2119 3494 2547 3981 
L 303 3981 
z
" transform="scale(0.015625)"/>
      </defs>
      <use xlink:href="#ArialMT-48" transform="translate(0 0.53125)"/>
      <use xlink:href="#ArialMT-69" transform="translate(72.216797 0.53125)"/>
      <use xlink:href="#ArialMT-6c" transform="translate(94.433594 0.53125)"/>
      <use xlink:href="#ArialMT-6c" transform="translate(116.650391 0.53125)"/>
      <use xlink:href="#ArialMT-34" transform="translate(138.867188 0.53125)"/>
      <use xlink:href="#ArialMT-38" transform="translate(194.482422 0.53125)"/>
      <use xlink:href="#ArialMT-20" transform="translate(250.097656 0.53125)"/>
      <use xlink:href="#DejaVuSans-304" transform="translate(341.947266 0.484375)"/>
      <use xlink:href="#DejaVuSans-Oblique-3c3" transform="translate(277.880859 0.53125)"/>
      <use xlink:href="#ArialMT-20" transform="translate(341.259766 0.53125)"/>
      <use xlink:href="#ArialMT-3d" transform="translate(369.042969 0.53125)"/>
      <use xlink:href="#ArialMT-20" transform="translate(427.441406 0.53125)"/>
      <use xlink:href="#ArialMT-37" transform="translate(455.224609 0.53125)"/>
      <use xlink:href="#ArialMT-31" transform="translate(510.839844 0.53125)"/>
      <use xlink:href="#ArialMT-30" transform="translate(566.455078 0.53125)"/>
      <use xlink:href="#ArialMT-20" transform="translate(622.070312 0.53125)"/>
      <use xlink:href="#ArialMT-4d" transform="translate(649.853516 0.53125)"/>
      <use xlink:href="#ArialMT-50" transform="translate(733.154297 0.53125)"/>
      <use xlink:href="#ArialMT-61" transform="translate(799.853516 0.53125)"/>
     </g>
    </g>
    <g id="line2d_19">
     <path d="M 330.731725 142.260234 
L 341.731725 142.260234 
L 352.731725 142.260234 
" style="fill: none; stroke: #0000ff; stroke-width: 1.5; stroke-linecap: square"/>
    </g>
    <g id="text_24">
     <!-- Hill48 $\bar \sigma$ = 802 MPa -->
     <g transform="translate(361.531725 146.110234) scale(0.11 -0.11)">
      <use xlink:href="#ArialMT-48" transform="translate(0 0.53125)"/>
      <use xlink:href="#ArialMT-69" transform="translate(72.216797 0.53125)"/>
      <use xlink:href="#ArialMT-6c" transform="translate(94.433594 0.53125)"/>
      <use xlink:href="#ArialMT-6c" transform="translate(116.650391 0.53125)"/>
      <use xlink:href="#ArialMT-34" transform="translate(138.867188 0.53125)"/>
      <use xlink:href="#ArialMT-38" transform="translate(194.482422 0.53125)"/>
      <use xlink:href="#ArialMT-20" transform="translate(250.097656 0.53125)"/>
      <use xlink:href="#DejaVuSans-304" transform="translate(341.947266 0.484375)"/>
      <use xlink:href="#DejaVuSans-Oblique-3c3" transform="translate(277.880859 0.53125)"/>
      <use xlink:href="#ArialMT-20" transform="translate(341.259766 0.53125)"/>
      <use xlink:href="#ArialMT-3d" transform="translate(369.042969 0.53125)"/>
      <use xlink:href="#ArialMT-20" transform="translate(427.441406 0.53125)"/>
      <use xlink:href="#ArialMT-38" transform="translate(455.224609 0.53125)"/>
      <use xlink:href="#ArialMT-30" transform="translate(510.839844 0.53125)"/>
      <use xlink:href="#ArialMT-32" transform="translate(566.455078 0.53125)"/>
      <use xlink:href="#ArialMT-20" transform="translate(622.070312 0.53125)"/>
      <use xlink:href="#ArialMT-4d" transform="translate(649.853516 0.53125)"/>
      <use xlink:href="#ArialMT-50" transform="translate(733.154297 0.53125)"/>
      <use xlink:href="#ArialMT-61" transform="translate(799.853516 0.53125)"/>
     </g>
    </g>
    <g id="line2d_20">
     <path d="M 330.731725 157.820078 
L 341.731725 157.820078 
L 352.731725 157.820078 
" style="fill: none; stroke: #008000; stroke-width: 1.5; stroke-linecap: square"/>
    </g>
    <g id="text_25">
     <!-- Hill48 $\bar \sigma$ = 881 MPa -->
     <g transform="translate(361.531725 161.670078) scale(0.11 -0.11)">
      <use xlink:href="#ArialMT-48" transform="translate(0 0.53125)"/>
      <use xlink:href="#ArialMT-69" transform="translate(72.216797 0.53125)"/>
      <use xlink:href="#ArialMT-6c" transform="translate(94.433594 0.53125)"/>
      <use xlink:href="#ArialMT-6c" transform="translate(116.650391 0.53125)"/>
      <use xlink:href="#ArialMT-34" transform="translate(138.867188 0.53125)"/>
      <use xlink:href="#ArialMT-38" transform="translate(194.482422 0.53125)"/>
      <use xlink:href="#ArialMT-20" transform="translate(250.097656 0.53125)"/>
      <use xlink:href="#DejaVuSans-304" transform="translate(341.947266 0.484375)"/>
      <use xlink:href="#DejaVuSans-Oblique-3c3" transform="translate(277.880859 0.53125)"/>
      <use xlink:href="#ArialMT-20" transform="translate(341.259766 0.53125)"/>
      <use xlink:href="#ArialMT-3d" transform="translate(369.042969 0.53125)"/>
      <use xlink:href="#ArialMT-20" transform="translate(427.441406 0.53125)"/>
      <use xlink:href="#ArialMT-38" transform="translate(455.224609 0.53125)"/>
      <use xlink:href="#ArialMT-38" transform="translate(510.839844 0.53125)"/>
      <use xlink:href="#ArialMT-31" transform="translate(566.455078 0.53125)"/>
      <use xlink:href="#ArialMT-20" transform="translate(622.070312 0.53125)"/>
      <use xlink:href="#ArialMT-4d" transform="translate(649.853516 0.53125)"/>
      <use xlink:href="#ArialMT-50" transform="translate(733.154297 0.53125)"/>
      <use xlink:href="#ArialMT-61" transform="translate(799.853516 0.53125)"/>
     </g>
    </g>
   </g>
  </g>
 </g>
 <defs>
  <clipPath id="pfba0fda50d">
   <rect x="53.118125" y="11.136797" width="266.112" height="266.112"/>
  </clipPath>
 </defs>
</svg>
