<?xml version="1.0" encoding="utf-8" standalone="no"?>
<!DOCTYPE svg PUBLIC "-//W3C//DTD SVG 1.1//EN"
  "http://www.w3.org/Graphics/SVG/1.1/DTD/svg11.dtd">
<svg xmlns:xlink="http://www.w3.org/1999/xlink" width="467.291725pt" height="315.958641pt" viewBox="0 0 467.291725 315.958641" xmlns="http://www.w3.org/2000/svg" version="1.1">
 <metadata>
  <rdf:RDF xmlns:dc="http://purl.org/dc/elements/1.1/" xmlns:cc="http://creativecommons.org/ns#" xmlns:rdf="http://www.w3.org/1999/02/22-rdf-syntax-ns#">
   <cc:Work>
    <dc:type rdf:resource="http://purl.org/dc/dcmitype/StillImage"/>
    <dc:date>2023-03-09T02:22:43.715512</dc:date>
    <dc:format>image/svg+xml</dc:format>
    <dc:creator>
     <cc:Agent>
      <dc:title>Matplotlib v3.6.2, https://matplotlib.org/</dc:title>
     </cc:Agent>
    </dc:creator>
   </cc:Work>
  </rdf:RDF>
 </metadata>
 <defs>
  <style type="text/css">*{stroke-linejoin: round; stroke-linecap: butt}</style>
 </defs>
 <g id="figure_1">
  <g id="patch_1">
   <path d="M 0 315.958641 
L 467.291725 315.958641 
L 467.291725 0 
L 0 0 
z
" style="fill: #ffffff"/>
  </g>
  <g id="axes_1">
   <g id="patch_2">
    <path d="M 53.118125 277.248797 
L 319.230125 277.248797 
L 319.230125 11.136797 
L 53.118125 11.136797 
z
" style="fill: #ffffff"/>
   </g>
   <g id="PathCollection_1">
    <defs>
     <path id="m20b89cdba7" d="M 0 4.472136 
C 1.186024 4.472136 2.323632 4.000923 3.162278 3.162278 
C 4.000923 2.323632 4.472136 1.186024 4.472136 0 
C 4.472136 -1.186024 4.000923 -2.323632 3.162278 -3.162278 
C 2.323632 -4.000923 1.186024 -4.472136 0 -4.472136 
C -1.186024 -4.472136 -2.323632 -4.000923 -3.162278 -3.162278 
C -4.000923 -2.323632 -4.472136 -1.186024 -4.472136 0 
C -4.472136 1.186024 -4.000923 2.323632 -3.162278 3.162278 
C -2.323632 4.000923 -1.186024 4.472136 0 4.472136 
z
" style="stroke: #000000"/>
    </defs>
    <g clip-path="url(#pb7b7985fe3)">
     <use xlink:href="#m20b89cdba7" x="207.789072" y="277.248797" style="fill: #ff0000; stroke: #000000"/>
     <use xlink:href="#m20b89cdba7" x="245.526415" y="180.752372" style="fill: #ff0000; stroke: #000000"/>
     <use xlink:href="#m20b89cdba7" x="212.435609" y="118.437369" style="fill: #ff0000; stroke: #000000"/>
     <use xlink:href="#m20b89cdba7" x="148.227219" y="87.284524" style="fill: #ff0000; stroke: #000000"/>
     <use xlink:href="#m20b89cdba7" x="53.118125" y="122.57785" style="fill: #ff0000; stroke: #000000"/>
    </g>
   </g>
   <g id="PathCollection_2">
    <defs>
     <path id="m8aacc621ea" d="M 0 -4.472136 
L -4.472136 4.472136 
L 4.472136 4.472136 
z
" style="stroke: #000000"/>
    </defs>
    <g clip-path="url(#pb7b7985fe3)">
     <use xlink:href="#m8aacc621ea" x="207.789072" y="277.248797" style="fill: #ff0000; stroke: #000000"/>
     <use xlink:href="#m8aacc621ea" x="241.619447" y="182.586771" style="fill: #ff0000; stroke: #000000"/>
     <use xlink:href="#m8aacc621ea" x="210.222223" y="120.680249" style="fill: #ff0000; stroke: #000000"/>
     <use xlink:href="#m8aacc621ea" x="145.127458" y="92.616078" style="fill: #ff0000; stroke: #000000"/>
     <use xlink:href="#m8aacc621ea" x="53.118125" y="122.57785" style="fill: #ff0000; stroke: #000000"/>
    </g>
   </g>
   <g id="PathCollection_3">
    <defs>
     <path id="mc6a7b61f00" d="M 0 4.472136 
C 1.186024 4.472136 2.323632 4.000923 3.162278 3.162278 
C 4.000923 2.323632 4.472136 1.186024 4.472136 0 
C 4.472136 -1.186024 4.000923 -2.323632 3.162278 -3.162278 
C 2.323632 -4.000923 1.186024 -4.472136 0 -4.472136 
C -1.186024 -4.472136 -2.323632 -4.000923 -3.162278 -3.162278 
C -4.000923 -2.323632 -4.472136 -1.186024 -4.472136 0 
C -4.472136 1.186024 -4.000923 2.323632 -3.162278 3.162278 
C -2.323632 4.000923 -1.186024 4.472136 0 4.472136 
z
" style="stroke: #000000"/>
    </defs>
    <g clip-path="url(#pb7b7985fe3)">
     <use xlink:href="#mc6a7b61f00" x="230.260013" y="277.248797" style="fill: #0000ff; stroke: #000000"/>
     <use xlink:href="#mc6a7b61f00" x="269.025435" y="169.147671" style="fill: #0000ff; stroke: #000000"/>
     <use xlink:href="#mc6a7b61f00" x="234.172303" y="96.463614" style="fill: #0000ff; stroke: #000000"/>
     <use xlink:href="#mc6a7b61f00" x="161.931765" y="60.105618" style="fill: #0000ff; stroke: #000000"/>
     <use xlink:href="#mc6a7b61f00" x="53.118125" y="100.106909" style="fill: #0000ff; stroke: #000000"/>
    </g>
   </g>
   <g id="PathCollection_4">
    <defs>
     <path id="m4464b08b03" d="M 0 -4.472136 
L -4.472136 4.472136 
L 4.472136 4.472136 
z
" style="stroke: #000000"/>
    </defs>
    <g clip-path="url(#pb7b7985fe3)">
     <use xlink:href="#m4464b08b03" x="230.260013" y="277.248797" style="fill: #0000ff; stroke: #000000"/>
     <use xlink:href="#m4464b08b03" x="266.973046" y="170.007657" style="fill: #0000ff; stroke: #000000"/>
     <use xlink:href="#m4464b08b03" x="232.15717" y="98.523099" style="fill: #0000ff; stroke: #000000"/>
     <use xlink:href="#m4464b08b03" x="160.058559" y="63.280778" style="fill: #0000ff; stroke: #000000"/>
     <use xlink:href="#m4464b08b03" x="53.118125" y="100.106909" style="fill: #0000ff; stroke: #000000"/>
    </g>
   </g>
   <g id="PathCollection_5">
    <defs>
     <path id="mcf1a6423fe" d="M 0 4.472136 
C 1.186024 4.472136 2.323632 4.000923 3.162278 3.162278 
C 4.000923 2.323632 4.472136 1.186024 4.472136 0 
C 4.472136 -1.186024 4.000923 -2.323632 3.162278 -3.162278 
C 2.323632 -4.000923 1.186024 -4.472136 0 -4.472136 
C -1.186024 -4.472136 -2.323632 -4.000923 -3.162278 -3.162278 
C -4.000923 -2.323632 -4.472136 -1.186024 -4.472136 0 
C -4.472136 1.186024 -4.000923 2.323632 -3.162278 3.162278 
C -2.323632 4.000923 -1.186024 4.472136 0 4.472136 
z
" style="stroke: #000000"/>
    </defs>
    <g clip-path="url(#pb7b7985fe3)">
     <use xlink:href="#mcf1a6423fe" x="249.019357" y="277.248797" style="fill: #008000; stroke: #000000"/>
     <use xlink:href="#mcf1a6423fe" x="289.062116" y="158.949816" style="fill: #008000; stroke: #000000"/>
     <use xlink:href="#mcf1a6423fe" x="253.180018" y="77.287361" style="fill: #008000; stroke: #000000"/>
     <use xlink:href="#mcf1a6423fe" x="173.213805" y="37.88194" style="fill: #008000; stroke: #000000"/>
     <use xlink:href="#mcf1a6423fe" x="53.118125" y="81.347565" style="fill: #008000; stroke: #000000"/>
    </g>
   </g>
   <g id="PathCollection_6">
    <defs>
     <path id="mb0edab4df1" d="M 0 -4.472136 
L -4.472136 4.472136 
L 4.472136 4.472136 
z
" style="stroke: #000000"/>
    </defs>
    <g clip-path="url(#pb7b7985fe3)">
     <use xlink:href="#mb0edab4df1" x="249.019357" y="277.248797" style="fill: #008000; stroke: #000000"/>
     <use xlink:href="#mb0edab4df1" x="287.751071" y="159.519739" style="fill: #008000; stroke: #000000"/>
     <use xlink:href="#mb0edab4df1" x="250.854864" y="79.872418" style="fill: #008000; stroke: #000000"/>
     <use xlink:href="#mb0edab4df1" x="171.662594" y="40.213746" style="fill: #008000; stroke: #000000"/>
     <use xlink:href="#mb0edab4df1" x="53.118125" y="81.347565" style="fill: #008000; stroke: #000000"/>
    </g>
   </g>
   <g id="matplotlib.axis_1">
    <g id="xtick_1">
     <g id="line2d_1">
      <defs>
       <path id="mb4617c9eeb" d="M 0 0 
L 0 3.5 
" style="stroke: #000000; stroke-width: 0.8"/>
      </defs>
      <g>
       <use xlink:href="#mb4617c9eeb" x="53.118125" y="277.248797" style="stroke: #000000; stroke-width: 0.8"/>
      </g>
     </g>
     <g id="text_1">
      <!-- 0 -->
      <g transform="translate(50.059609 292.122391) scale(0.11 -0.11)">
       <defs>
        <path id="ArialMT-30" d="M 266 2259 
Q 266 3072 433 3567 
Q 600 4063 929 4331 
Q 1259 4600 1759 4600 
Q 2128 4600 2406 4451 
Q 2684 4303 2865 4023 
Q 3047 3744 3150 3342 
Q 3253 2941 3253 2259 
Q 3253 1453 3087 958 
Q 2922 463 2592 192 
Q 2263 -78 1759 -78 
Q 1097 -78 719 397 
Q 266 969 266 2259 
z
M 844 2259 
Q 844 1131 1108 757 
Q 1372 384 1759 384 
Q 2147 384 2411 759 
Q 2675 1134 2675 2259 
Q 2675 3391 2411 3762 
Q 2147 4134 1753 4134 
Q 1366 4134 1134 3806 
Q 844 3388 844 2259 
z
" transform="scale(0.015625)"/>
       </defs>
       <use xlink:href="#ArialMT-30"/>
      </g>
     </g>
    </g>
    <g id="xtick_2">
     <g id="line2d_2">
      <g>
       <use xlink:href="#mb4617c9eeb" x="97.470125" y="277.248797" style="stroke: #000000; stroke-width: 0.8"/>
      </g>
     </g>
     <g id="text_2">
      <!-- 200 -->
      <g transform="translate(88.294578 292.122391) scale(0.11 -0.11)">
       <defs>
        <path id="ArialMT-32" d="M 3222 541 
L 3222 0 
L 194 0 
Q 188 203 259 391 
Q 375 700 629 1000 
Q 884 1300 1366 1694 
Q 2113 2306 2375 2664 
Q 2638 3022 2638 3341 
Q 2638 3675 2398 3904 
Q 2159 4134 1775 4134 
Q 1369 4134 1125 3890 
Q 881 3647 878 3216 
L 300 3275 
Q 359 3922 746 4261 
Q 1134 4600 1788 4600 
Q 2447 4600 2831 4234 
Q 3216 3869 3216 3328 
Q 3216 3053 3103 2787 
Q 2991 2522 2730 2228 
Q 2469 1934 1863 1422 
Q 1356 997 1212 845 
Q 1069 694 975 541 
L 3222 541 
z
" transform="scale(0.015625)"/>
       </defs>
       <use xlink:href="#ArialMT-32"/>
       <use xlink:href="#ArialMT-30" x="55.615234"/>
       <use xlink:href="#ArialMT-30" x="111.230469"/>
      </g>
     </g>
    </g>
    <g id="xtick_3">
     <g id="line2d_3">
      <g>
       <use xlink:href="#mb4617c9eeb" x="141.822125" y="277.248797" style="stroke: #000000; stroke-width: 0.8"/>
      </g>
     </g>
     <g id="text_3">
      <!-- 400 -->
      <g transform="translate(132.646578 292.122391) scale(0.11 -0.11)">
       <defs>
        <path id="ArialMT-34" d="M 2069 0 
L 2069 1097 
L 81 1097 
L 81 1613 
L 2172 4581 
L 2631 4581 
L 2631 1613 
L 3250 1613 
L 3250 1097 
L 2631 1097 
L 2631 0 
L 2069 0 
z
M 2069 1613 
L 2069 3678 
L 634 1613 
L 2069 1613 
z
" transform="scale(0.015625)"/>
       </defs>
       <use xlink:href="#ArialMT-34"/>
       <use xlink:href="#ArialMT-30" x="55.615234"/>
       <use xlink:href="#ArialMT-30" x="111.230469"/>
      </g>
     </g>
    </g>
    <g id="xtick_4">
     <g id="line2d_4">
      <g>
       <use xlink:href="#mb4617c9eeb" x="186.174125" y="277.248797" style="stroke: #000000; stroke-width: 0.8"/>
      </g>
     </g>
     <g id="text_4">
      <!-- 600 -->
      <g transform="translate(176.998578 292.122391) scale(0.11 -0.11)">
       <defs>
        <path id="ArialMT-36" d="M 3184 3459 
L 2625 3416 
Q 2550 3747 2413 3897 
Q 2184 4138 1850 4138 
Q 1581 4138 1378 3988 
Q 1113 3794 959 3422 
Q 806 3050 800 2363 
Q 1003 2672 1297 2822 
Q 1591 2972 1913 2972 
Q 2475 2972 2870 2558 
Q 3266 2144 3266 1488 
Q 3266 1056 3080 686 
Q 2894 316 2569 119 
Q 2244 -78 1831 -78 
Q 1128 -78 684 439 
Q 241 956 241 2144 
Q 241 3472 731 4075 
Q 1159 4600 1884 4600 
Q 2425 4600 2770 4297 
Q 3116 3994 3184 3459 
z
M 888 1484 
Q 888 1194 1011 928 
Q 1134 663 1356 523 
Q 1578 384 1822 384 
Q 2178 384 2434 671 
Q 2691 959 2691 1453 
Q 2691 1928 2437 2201 
Q 2184 2475 1800 2475 
Q 1419 2475 1153 2201 
Q 888 1928 888 1484 
z
" transform="scale(0.015625)"/>
       </defs>
       <use xlink:href="#ArialMT-36"/>
       <use xlink:href="#ArialMT-30" x="55.615234"/>
       <use xlink:href="#ArialMT-30" x="111.230469"/>
      </g>
     </g>
    </g>
    <g id="xtick_5">
     <g id="line2d_5">
      <g>
       <use xlink:href="#mb4617c9eeb" x="230.526125" y="277.248797" style="stroke: #000000; stroke-width: 0.8"/>
      </g>
     </g>
     <g id="text_5">
      <!-- 800 -->
      <g transform="translate(221.350578 292.122391) scale(0.11 -0.11)">
       <defs>
        <path id="ArialMT-38" d="M 1131 2484 
Q 781 2613 612 2850 
Q 444 3088 444 3419 
Q 444 3919 803 4259 
Q 1163 4600 1759 4600 
Q 2359 4600 2725 4251 
Q 3091 3903 3091 3403 
Q 3091 3084 2923 2848 
Q 2756 2613 2416 2484 
Q 2838 2347 3058 2040 
Q 3278 1734 3278 1309 
Q 3278 722 2862 322 
Q 2447 -78 1769 -78 
Q 1091 -78 675 323 
Q 259 725 259 1325 
Q 259 1772 486 2073 
Q 713 2375 1131 2484 
z
M 1019 3438 
Q 1019 3113 1228 2906 
Q 1438 2700 1772 2700 
Q 2097 2700 2305 2904 
Q 2513 3109 2513 3406 
Q 2513 3716 2298 3927 
Q 2084 4138 1766 4138 
Q 1444 4138 1231 3931 
Q 1019 3725 1019 3438 
z
M 838 1322 
Q 838 1081 952 856 
Q 1066 631 1291 507 
Q 1516 384 1775 384 
Q 2178 384 2440 643 
Q 2703 903 2703 1303 
Q 2703 1709 2433 1975 
Q 2163 2241 1756 2241 
Q 1359 2241 1098 1978 
Q 838 1716 838 1322 
z
" transform="scale(0.015625)"/>
       </defs>
       <use xlink:href="#ArialMT-38"/>
       <use xlink:href="#ArialMT-30" x="55.615234"/>
       <use xlink:href="#ArialMT-30" x="111.230469"/>
      </g>
     </g>
    </g>
    <g id="xtick_6">
     <g id="line2d_6">
      <g>
       <use xlink:href="#mb4617c9eeb" x="274.878125" y="277.248797" style="stroke: #000000; stroke-width: 0.8"/>
      </g>
     </g>
     <g id="text_6">
      <!-- 1000 -->
      <g transform="translate(262.644063 292.122391) scale(0.11 -0.11)">
       <defs>
        <path id="ArialMT-31" d="M 2384 0 
L 1822 0 
L 1822 3584 
Q 1619 3391 1289 3197 
Q 959 3003 697 2906 
L 697 3450 
Q 1169 3672 1522 3987 
Q 1875 4303 2022 4600 
L 2384 4600 
L 2384 0 
z
" transform="scale(0.015625)"/>
       </defs>
       <use xlink:href="#ArialMT-31"/>
       <use xlink:href="#ArialMT-30" x="55.615234"/>
       <use xlink:href="#ArialMT-30" x="111.230469"/>
       <use xlink:href="#ArialMT-30" x="166.845703"/>
      </g>
     </g>
    </g>
    <g id="xtick_7">
     <g id="line2d_7">
      <g>
       <use xlink:href="#mb4617c9eeb" x="319.230125" y="277.248797" style="stroke: #000000; stroke-width: 0.8"/>
      </g>
     </g>
     <g id="text_7">
      <!-- 1200 -->
      <g transform="translate(306.996062 292.122391) scale(0.11 -0.11)">
       <use xlink:href="#ArialMT-31"/>
       <use xlink:href="#ArialMT-32" x="55.615234"/>
       <use xlink:href="#ArialMT-30" x="111.230469"/>
       <use xlink:href="#ArialMT-30" x="166.845703"/>
      </g>
     </g>
    </g>
    <g id="text_8">
     <!-- $\sigma_L$ (MPa) -->
     <g transform="translate(163.844125 306.338641) scale(0.11 -0.11)">
      <defs>
       <path id="DejaVuSans-Oblique-3c3" d="M 2219 3044 
Q 1744 3044 1422 2700 
Q 1081 2341 969 1747 
Q 844 1119 1044 756 
Q 1241 397 1706 397 
Q 2166 397 2503 759 
Q 2844 1122 2966 1747 
Q 3075 2319 2881 2700 
Q 2700 3044 2219 3044 
z
M 2309 3503 
L 4219 3500 
L 4106 2925 
L 3463 2925 
Q 3706 2438 3575 1747 
Q 3406 888 2884 400 
Q 2359 -91 1609 -91 
Q 856 -91 525 400 
Q 194 888 363 1747 
Q 528 2609 1050 3097 
Q 1484 3503 2309 3503 
z
" transform="scale(0.015625)"/>
       <path id="DejaVuSans-Oblique-4c" d="M 1075 4666 
L 1709 4666 
L 909 525 
L 3181 525 
L 3078 0 
L 172 0 
L 1075 4666 
z
" transform="scale(0.015625)"/>
       <path id="ArialMT-20" transform="scale(0.015625)"/>
       <path id="ArialMT-28" d="M 1497 -1347 
Q 1031 -759 709 28 
Q 388 816 388 1659 
Q 388 2403 628 3084 
Q 909 3875 1497 4659 
L 1900 4659 
Q 1522 4009 1400 3731 
Q 1209 3300 1100 2831 
Q 966 2247 966 1656 
Q 966 153 1900 -1347 
L 1497 -1347 
z
" transform="scale(0.015625)"/>
       <path id="ArialMT-4d" d="M 475 0 
L 475 4581 
L 1388 4581 
L 2472 1338 
Q 2622 884 2691 659 
Q 2769 909 2934 1394 
L 4031 4581 
L 4847 4581 
L 4847 0 
L 4263 0 
L 4263 3834 
L 2931 0 
L 2384 0 
L 1059 3900 
L 1059 0 
L 475 0 
z
" transform="scale(0.015625)"/>
       <path id="ArialMT-50" d="M 494 0 
L 494 4581 
L 2222 4581 
Q 2678 4581 2919 4538 
Q 3256 4481 3484 4323 
Q 3713 4166 3852 3881 
Q 3991 3597 3991 3256 
Q 3991 2672 3619 2267 
Q 3247 1863 2275 1863 
L 1100 1863 
L 1100 0 
L 494 0 
z
M 1100 2403 
L 2284 2403 
Q 2872 2403 3119 2622 
Q 3366 2841 3366 3238 
Q 3366 3525 3220 3729 
Q 3075 3934 2838 4000 
Q 2684 4041 2272 4041 
L 1100 4041 
L 1100 2403 
z
" transform="scale(0.015625)"/>
       <path id="ArialMT-61" d="M 2588 409 
Q 2275 144 1986 34 
Q 1697 -75 1366 -75 
Q 819 -75 525 192 
Q 231 459 231 875 
Q 231 1119 342 1320 
Q 453 1522 633 1644 
Q 813 1766 1038 1828 
Q 1203 1872 1538 1913 
Q 2219 1994 2541 2106 
Q 2544 2222 2544 2253 
Q 2544 2597 2384 2738 
Q 2169 2928 1744 2928 
Q 1347 2928 1158 2789 
Q 969 2650 878 2297 
L 328 2372 
Q 403 2725 575 2942 
Q 747 3159 1072 3276 
Q 1397 3394 1825 3394 
Q 2250 3394 2515 3294 
Q 2781 3194 2906 3042 
Q 3031 2891 3081 2659 
Q 3109 2516 3109 2141 
L 3109 1391 
Q 3109 606 3145 398 
Q 3181 191 3288 0 
L 2700 0 
Q 2613 175 2588 409 
z
M 2541 1666 
Q 2234 1541 1622 1453 
Q 1275 1403 1131 1340 
Q 988 1278 909 1158 
Q 831 1038 831 891 
Q 831 666 1001 516 
Q 1172 366 1500 366 
Q 1825 366 2078 508 
Q 2331 650 2450 897 
Q 2541 1088 2541 1459 
L 2541 1666 
z
" transform="scale(0.015625)"/>
       <path id="ArialMT-29" d="M 791 -1347 
L 388 -1347 
Q 1322 153 1322 1656 
Q 1322 2244 1188 2822 
Q 1081 3291 891 3722 
Q 769 4003 388 4659 
L 791 4659 
Q 1378 3875 1659 3084 
Q 1900 2403 1900 1659 
Q 1900 816 1576 28 
Q 1253 -759 791 -1347 
z
" transform="scale(0.015625)"/>
      </defs>
      <use xlink:href="#DejaVuSans-Oblique-3c3" transform="translate(0 0.203125)"/>
      <use xlink:href="#DejaVuSans-Oblique-4c" transform="translate(63.378906 -16.203125) scale(0.7)"/>
      <use xlink:href="#ArialMT-20" transform="translate(105.112305 0.203125)"/>
      <use xlink:href="#ArialMT-28" transform="translate(132.895508 0.203125)"/>
      <use xlink:href="#ArialMT-4d" transform="translate(166.196289 0.203125)"/>
      <use xlink:href="#ArialMT-50" transform="translate(249.49707 0.203125)"/>
      <use xlink:href="#ArialMT-61" transform="translate(316.196289 0.203125)"/>
      <use xlink:href="#ArialMT-29" transform="translate(371.811523 0.203125)"/>
     </g>
    </g>
   </g>
   <g id="matplotlib.axis_2">
    <g id="ytick_1">
     <g id="line2d_8">
      <defs>
       <path id="m472dfbe769" d="M 0 0 
L -3.5 0 
" style="stroke: #000000; stroke-width: 0.8"/>
      </defs>
      <g>
       <use xlink:href="#m472dfbe769" x="53.118125" y="277.248797" style="stroke: #000000; stroke-width: 0.8"/>
      </g>
     </g>
     <g id="text_9">
      <!-- 0 -->
      <g transform="translate(40.001094 281.185594) scale(0.11 -0.11)">
       <use xlink:href="#ArialMT-30"/>
      </g>
     </g>
    </g>
    <g id="ytick_2">
     <g id="line2d_9">
      <g>
       <use xlink:href="#m472dfbe769" x="53.118125" y="232.896797" style="stroke: #000000; stroke-width: 0.8"/>
      </g>
     </g>
     <g id="text_10">
      <!-- 200 -->
      <g transform="translate(27.767031 236.833594) scale(0.11 -0.11)">
       <use xlink:href="#ArialMT-32"/>
       <use xlink:href="#ArialMT-30" x="55.615234"/>
       <use xlink:href="#ArialMT-30" x="111.230469"/>
      </g>
     </g>
    </g>
    <g id="ytick_3">
     <g id="line2d_10">
      <g>
       <use xlink:href="#m472dfbe769" x="53.118125" y="188.544797" style="stroke: #000000; stroke-width: 0.8"/>
      </g>
     </g>
     <g id="text_11">
      <!-- 400 -->
      <g transform="translate(27.767031 192.481594) scale(0.11 -0.11)">
       <use xlink:href="#ArialMT-34"/>
       <use xlink:href="#ArialMT-30" x="55.615234"/>
       <use xlink:href="#ArialMT-30" x="111.230469"/>
      </g>
     </g>
    </g>
    <g id="ytick_4">
     <g id="line2d_11">
      <g>
       <use xlink:href="#m472dfbe769" x="53.118125" y="144.192797" style="stroke: #000000; stroke-width: 0.8"/>
      </g>
     </g>
     <g id="text_12">
      <!-- 600 -->
      <g transform="translate(27.767031 148.129594) scale(0.11 -0.11)">
       <use xlink:href="#ArialMT-36"/>
       <use xlink:href="#ArialMT-30" x="55.615234"/>
       <use xlink:href="#ArialMT-30" x="111.230469"/>
      </g>
     </g>
    </g>
    <g id="ytick_5">
     <g id="line2d_12">
      <g>
       <use xlink:href="#m472dfbe769" x="53.118125" y="99.840797" style="stroke: #000000; stroke-width: 0.8"/>
      </g>
     </g>
     <g id="text_13">
      <!-- 800 -->
      <g transform="translate(27.767031 103.777594) scale(0.11 -0.11)">
       <use xlink:href="#ArialMT-38"/>
       <use xlink:href="#ArialMT-30" x="55.615234"/>
       <use xlink:href="#ArialMT-30" x="111.230469"/>
      </g>
     </g>
    </g>
    <g id="ytick_6">
     <g id="line2d_13">
      <g>
       <use xlink:href="#m472dfbe769" x="53.118125" y="55.488797" style="stroke: #000000; stroke-width: 0.8"/>
      </g>
     </g>
     <g id="text_14">
      <!-- 1000 -->
      <g transform="translate(21.65 59.425594) scale(0.11 -0.11)">
       <use xlink:href="#ArialMT-31"/>
       <use xlink:href="#ArialMT-30" x="55.615234"/>
       <use xlink:href="#ArialMT-30" x="111.230469"/>
       <use xlink:href="#ArialMT-30" x="166.845703"/>
      </g>
     </g>
    </g>
    <g id="ytick_7">
     <g id="line2d_14">
      <g>
       <use xlink:href="#m472dfbe769" x="53.118125" y="11.136797" style="stroke: #000000; stroke-width: 0.8"/>
      </g>
     </g>
     <g id="text_15">
      <!-- 1200 -->
      <g transform="translate(21.65 15.073594) scale(0.11 -0.11)">
       <use xlink:href="#ArialMT-31"/>
       <use xlink:href="#ArialMT-32" x="55.615234"/>
       <use xlink:href="#ArialMT-30" x="111.230469"/>
       <use xlink:href="#ArialMT-30" x="166.845703"/>
      </g>
     </g>
    </g>
    <g id="text_16">
     <!-- $\sigma_C$ (MPa) -->
     <g transform="translate(15.23 167.017797) rotate(-90) scale(0.11 -0.11)">
      <defs>
       <path id="DejaVuSans-Oblique-43" d="M 4447 4306 
L 4319 3641 
Q 4019 3944 3683 4091 
Q 3347 4238 2956 4238 
Q 2422 4238 2017 3981 
Q 1613 3725 1319 3200 
Q 1131 2863 1032 2486 
Q 934 2109 934 1728 
Q 934 1091 1264 756 
Q 1594 422 2222 422 
Q 2656 422 3056 561 
Q 3456 700 3834 978 
L 3688 231 
Q 3316 72 2936 -9 
Q 2556 -91 2175 -91 
Q 1278 -91 773 396 
Q 269 884 269 1753 
Q 269 2309 461 2846 
Q 653 3384 1013 3828 
Q 1394 4300 1883 4525 
Q 2372 4750 3022 4750 
Q 3422 4750 3780 4639 
Q 4138 4528 4447 4306 
z
" transform="scale(0.015625)"/>
      </defs>
      <use xlink:href="#DejaVuSans-Oblique-3c3" transform="translate(0 0.203125)"/>
      <use xlink:href="#DejaVuSans-Oblique-43" transform="translate(63.378906 -16.203125) scale(0.7)"/>
      <use xlink:href="#ArialMT-20" transform="translate(114.990234 0.203125)"/>
      <use xlink:href="#ArialMT-28" transform="translate(142.773438 0.203125)"/>
      <use xlink:href="#ArialMT-4d" transform="translate(176.074219 0.203125)"/>
      <use xlink:href="#ArialMT-50" transform="translate(259.375 0.203125)"/>
      <use xlink:href="#ArialMT-61" transform="translate(326.074219 0.203125)"/>
      <use xlink:href="#ArialMT-29" transform="translate(381.689453 0.203125)"/>
     </g>
    </g>
   </g>
   <g id="PathCollection_7">
    <path d="M -1 156.461363 
L 6.151177 151.200563 
L 13.085894 146.351444 
L 20.65104 141.337677 
L 28.216186 136.6053 
L 35.150903 132.507787 
L 42.987563 128.152379 
L 50.281195 124.357147 
L 58.053248 120.587233 
L 65.411487 117.27831 
L 72.62001 114.282945 
L 79.91135 111.505218 
L 86.846067 109.100594 
L 93.780784 106.933146 
L 100.085073 105.172959 
L 106.617397 103.565655 
L 113.324078 102.154048 
L 119.693206 101.043939 
L 125.932655 100.185686 
L 132.236943 99.557887 
L 137.910802 99.209423 
L 143.584662 99.078872 
L 149.258521 99.178466 
L 154.301952 99.473989 
L 159.345383 99.975832 
L 164.388813 100.700335 
L 169.478789 101.674368 
L 174.475675 102.891069 
L 178.888676 104.199501 
L 183.301678 105.750859 
L 187.214856 107.348228 
L 191.249059 109.239514 
L 194.797806 111.1308 
L 198.43197 113.316535 
L 201.728691 115.543802 
L 205.059902 118.065518 
L 208.041879 120.587233 
L 211.040547 123.416735 
L 213.742661 126.261092 
L 216.424083 129.413237 
L 218.82147 132.565381 
L 221.127408 135.961871 
L 223.259946 139.500098 
L 225.270891 143.282671 
L 227.033778 147.065244 
L 228.692554 151.163322 
L 230.114152 155.260818 
L 231.40495 159.67382 
L 232.475127 164.117579 
L 233.426323 169.130253 
L 234.133493 174.173683 
L 234.607866 179.217114 
L 234.865635 184.260545 
L 234.919926 189.303975 
L 234.75139 194.977835 
L 234.355175 200.651694 
L 233.735984 206.365426 
L 232.815539 212.629842 
L 231.647272 218.93413 
L 230.244981 225.238418 
L 228.617945 231.542707 
L 226.575103 238.477424 
L 224.276932 245.412141 
L 221.727223 252.346858 
L 218.931115 259.281575 
L 215.893621 266.216292 
L 212.615838 273.151009 
L 209.10008 280.085727 
L 204.991068 287.650873 
L 200.953685 294.621571 
L 196.316391 302.150736 
L 191.789627 309.085453 
L 187.012965 316.02017 
L 186.34652 316.958641 
L 186.34652 316.958641 
" clip-path="url(#pb7b7985fe3)" style="fill: none; stroke: #ff0000; stroke-width: 1.5"/>
   </g>
   <g id="PathCollection_8">
    <path d="M -1 131.582094 
L 6.742411 126.16786 
L 14.399384 121.071154 
L 22.46145 115.974447 
L 30.182947 111.347984 
L 38.192057 106.80813 
L 45.546553 102.868631 
L 53.482175 98.86546 
L 60.763184 95.415347 
L 68.772294 91.868285 
L 76.781404 88.583764 
L 84.062413 85.826635 
L 91.585401 83.209907 
L 99.352532 80.762367 
L 106.633541 78.705611 
L 113.91455 76.886576 
L 120.467458 75.458028 
L 127.020366 74.233737 
L 133.573275 73.221143 
L 140.126183 72.428787 
L 146.679091 71.867393 
L 153.231999 71.546711 
L 159.056806 71.477105 
L 164.881613 71.620252 
L 170.70642 71.990427 
L 176.531228 72.601283 
L 181.627934 73.347756 
L 186.72464 74.306394 
L 191.821347 75.494551 
L 196.918053 76.930849 
L 201.286658 78.377263 
L 205.655264 80.040805 
L 210.023869 81.942248 
L 214.392475 84.107127 
L 218.032979 86.133901 
L 221.673484 88.387999 
L 225.313988 90.895537 
L 228.954493 93.689015 
L 232.044151 96.315723 
L 235.149098 99.228127 
L 237.964779 102.14053 
L 240.604107 105.142537 
L 243.516511 108.817653 
L 246.014922 112.333943 
L 248.340482 115.974447 
L 250.427933 119.614952 
L 252.301584 123.255456 
L 254.292315 127.624062 
L 256.029761 131.992667 
L 257.536071 136.361273 
L 258.831269 140.729878 
L 260.094438 145.826584 
L 261.113229 150.923291 
L 261.904639 156.019997 
L 262.485215 161.116703 
L 262.904991 166.94151 
L 263.08365 172.766318 
L 263.033548 178.591125 
L 262.767532 184.415932 
L 262.297149 190.240739 
L 261.533721 196.793647 
L 260.533567 203.346555 
L 259.306717 209.899464 
L 257.861141 216.452372 
L 256.007386 223.733381 
L 254.121693 230.286289 
L 251.792844 237.567298 
L 249.223287 244.848307 
L 246.417345 252.129316 
L 243.060355 260.138426 
L 239.768178 267.419435 
L 235.881818 275.428545 
L 232.110209 282.709554 
L 228.110896 289.990563 
L 223.446106 297.999673 
L 218.76108 305.600752 
L 213.664374 313.435562 
L 211.282315 316.958641 
L 211.282315 316.958641 
" clip-path="url(#pb7b7985fe3)" style="fill: none; stroke: #0000ff; stroke-width: 1.5"/>
   </g>
   <g id="PathCollection_9">
    <path d="M -1 111.409518 
L -0.700779 111.201835 
L -0.614834 111.142455 
L 0.193181 110.585858 
L 0.472295 110.39382 
L 1.001195 110.031608 
L 1.652394 109.585806 
L 1.80921 109.478951 
L 2.617224 108.929689 
L 2.841082 108.777791 
L 3.425239 108.383279 
L 4.037709 107.969777 
L 4.233253 107.838382 
L 5.041267 107.296598 
L 5.242781 107.161763 
L 5.849282 106.757887 
L 6.456345 106.353748 
L 6.657296 106.220611 
L 7.465311 105.686442 
L 7.678597 105.545734 
L 8.273325 105.155289 
L 8.909514 104.737719 
L 9.081339 104.62549 
L 9.889354 104.099066 
L 10.149766 103.929705 
L 10.697368 103.575323 
L 11.398465 103.121691 
L 11.505383 103.052854 
L 12.313397 102.534302 
L 12.657563 102.313676 
L 13.121411 102.017817 
L 13.924484 101.505662 
L 13.929426 101.502526 
L 14.73744 100.991964 
L 15.203301 100.697647 
L 15.545455 100.482583 
L 16.353469 99.975354 
L 16.490449 99.889633 
L 17.161484 99.471858 
L 17.788338 99.081618 
L 17.969498 98.969421 
L 18.777512 98.470403 
L 19.096693 98.273604 
L 19.585527 97.973771 
L 20.393541 97.478271 
L 20.414309 97.46559 
L 21.201556 96.987414 
L 21.744595 96.657575 
L 22.00957 96.497481 
L 22.817584 96.010397 
L 23.085 95.849561 
L 23.625599 95.526153 
L 24.433613 95.042767 
L 24.435662 95.041546 
L 25.241628 94.564178 
L 25.799852 94.233532 
L 26.049642 94.086376 
L 26.857657 93.611596 
L 27.174988 93.425518 
L 27.665671 93.139358 
L 28.473685 92.668445 
L 28.561448 92.617503 
L 29.2817 92.201734 
L 29.96114 91.809489 
L 30.089714 91.735672 
L 30.897729 91.273538 
L 31.373875 91.001474 
L 31.705743 90.812906 
L 32.513757 90.354803 
L 32.799083 90.19346 
L 33.321772 89.899559 
L 34.129786 89.445557 
L 34.237214 89.385446 
L 34.937801 88.995658 
L 35.689391 88.577431 
L 35.745815 88.546212 
L 36.55383 88.101228 
L 37.156519 87.769417 
L 37.361844 87.657024 
L 38.169858 87.216292 
L 38.637848 86.961402 
L 38.977873 86.777282 
L 39.785887 86.340869 
L 40.133883 86.153388 
L 40.593902 85.907005 
L 41.401916 85.474976 
L 41.645145 85.345373 
L 42.20993 85.046208 
L 43.017945 84.618628 
L 43.172174 84.537359 
L 43.825959 84.194903 
L 44.633974 83.771837 
L 44.715526 83.729345 
L 45.441988 83.353102 
L 46.250002 82.93461 
L 46.275783 82.92133 
L 47.058017 82.520811 
L 47.85369 82.113316 
L 47.866031 82.107033 
L 48.674046 81.698034 
L 49.449814 81.305301 
L 49.48206 81.289076 
L 50.290075 80.884775 
L 51.064489 80.497287 
L 51.098089 80.480578 
L 51.906103 80.081031 
L 52.698376 79.689273 
L 52.714118 79.681537 
L 53.522132 79.286801 
L 54.330147 78.892079 
L 54.352428 78.881258 
L 55.138161 78.502076 
L 55.946175 78.112277 
L 56.027538 78.073244 
L 56.75419 77.726848 
L 57.562204 77.342025 
L 57.724274 77.265229 
L 58.370219 76.961106 
L 59.178233 76.581309 
L 59.443423 76.457215 
L 59.986248 76.204835 
L 60.794262 75.830115 
L 61.18581 75.6492 
L 61.602276 75.458018 
L 62.410291 75.088422 
L 62.952293 74.841186 
L 63.218305 74.720634 
L 64.02632 74.356209 
L 64.74377 74.033172 
L 64.834334 73.992662 
L 65.642348 73.633453 
L 66.450363 73.274679 
L 66.562576 73.225157 
L 67.258377 72.920127 
L 68.066392 72.566668 
L 68.409802 72.417143 
L 68.874406 72.216201 
L 69.68242 71.868098 
L 70.285368 71.609128 
L 70.490435 71.521643 
L 71.298449 71.178936 
L 72.106464 70.836854 
L 72.191456 70.801114 
L 72.914478 70.499146 
L 73.722493 70.162552 
L 74.131214 69.9931 
L 74.530507 69.828689 
L 75.338521 69.497619 
L 76.103266 69.185085 
L 76.146536 69.167524 
L 76.95455 68.842011 
L 77.762565 68.517311 
L 78.113499 68.377071 
L 78.570579 68.195684 
L 79.378593 67.876626 
L 80.159834 67.569056 
L 80.186608 67.558589 
L 80.994622 67.245204 
L 81.802637 66.932763 
L 82.249141 66.761042 
L 82.610651 66.622992 
L 83.418666 66.316303 
L 84.22668 66.010637 
L 84.380122 65.953028 
L 85.034694 65.709025 
L 85.842709 65.409188 
L 86.557657 65.145013 
L 86.650723 65.110872 
L 87.458738 64.816886 
L 88.266752 64.524052 
L 88.785892 64.336999 
L 89.074766 64.233669 
L 89.882781 63.946756 
L 90.690795 63.661075 
L 91.067027 63.528984 
L 91.49881 63.378501 
L 92.306824 63.098808 
L 93.114839 62.820424 
L 93.405787 62.72097 
L 93.922853 62.54553 
L 94.730867 62.273198 
L 95.538882 62.002251 
L 95.807419 61.912955 
L 96.346896 61.734903 
L 97.154911 61.470069 
L 97.962925 61.206696 
L 98.27777 61.104941 
L 98.770939 60.946753 
L 99.578954 60.68955 
L 100.386968 60.433883 
L 100.823387 60.296927 
L 101.194983 60.181199 
L 102.002997 59.931754 
L 102.811011 59.683921 
L 103.451631 59.488912 
L 103.619026 59.438346 
L 104.42704 59.196784 
L 105.235055 58.956906 
L 106.043069 58.718743 
L 106.172888 58.680898 
L 106.851084 58.484724 
L 107.659098 58.25292 
L 108.467112 58.022903 
L 108.999085 57.872883 
L 109.275127 57.795647 
L 110.083141 57.572029 
L 110.891156 57.35027 
L 111.69917 57.1304 
L 111.942825 57.064869 
L 112.507184 56.914286 
L 113.315199 56.700891 
L 114.123213 56.489456 
L 114.931228 56.280008 
L 115.021749 56.256855 
L 115.739242 56.0748 
L 116.547257 55.871899 
L 117.355271 55.671055 
L 118.163285 55.472298 
L 118.260015 55.44884 
L 118.9713 55.277743 
L 119.779314 55.085595 
L 120.587329 54.895601 
L 121.395343 54.707792 
L 121.687615 54.640826 
L 122.203357 54.523623 
L 123.011372 54.342478 
L 123.819386 54.163584 
L 124.627401 53.986969 
L 125.34233 53.832811 
L 125.435415 53.812905 
L 126.24343 53.643004 
L 127.051444 53.475446 
L 127.859458 53.31026 
L 128.667473 53.147478 
L 129.286199 53.024797 
L 129.475487 52.987579 
L 130.283502 52.831583 
L 131.091516 52.678051 
L 131.89953 52.527013 
L 132.707545 52.378498 
L 133.515559 52.232535 
L 133.60461 52.216782 
L 134.323574 52.090681 
L 135.131588 51.951596 
L 135.939602 51.815123 
L 136.747617 51.68129 
L 137.555631 51.550126 
L 138.363646 51.421661 
L 138.44675 51.408768 
L 139.17166 51.297271 
L 139.979675 51.175759 
L 140.787689 51.057001 
L 141.595703 50.941027 
L 142.403718 50.827864 
L 143.211732 50.717542 
L 144.019747 50.61009 
L 144.092107 50.600754 
L 144.827761 50.506668 
L 145.635775 50.40625 
L 146.44379 50.308753 
L 147.251804 50.214206 
L 148.059819 50.122636 
L 148.867833 50.034072 
L 149.675848 49.948541 
L 150.483862 49.866074 
L 151.230531 49.792739 
L 151.291876 49.786768 
L 152.099891 49.711412 
L 152.907905 49.639166 
L 153.71592 49.570056 
L 154.523934 49.50411 
L 155.331948 49.441356 
L 156.139963 49.381821 
L 156.947977 49.325532 
L 157.755992 49.272516 
L 158.564006 49.222801 
L 159.37202 49.176414 
L 160.180035 49.133381 
L 160.988049 49.09373 
L 161.796064 49.057487 
L 162.604078 49.024679 
L 163.412093 48.995332 
L 163.744033 48.984725 
L 164.220107 48.969653 
L 165.028121 48.947571 
L 165.836136 48.928989 
L 166.64415 48.91393 
L 167.452165 48.902423 
L 168.260179 48.894491 
L 169.068193 48.890161 
L 169.876208 48.889458 
L 170.684222 48.892407 
L 171.492237 48.899034 
L 172.300251 48.909364 
L 173.108266 48.923422 
L 173.91628 48.941231 
L 174.724294 48.962818 
L 175.421678 48.984725 
L 175.532309 48.988249 
L 176.340323 49.017809 
L 177.148338 49.051265 
L 177.956352 49.088642 
L 178.764366 49.129963 
L 179.572381 49.175252 
L 180.380395 49.224535 
L 181.18841 49.277834 
L 181.996424 49.335174 
L 182.804439 49.396578 
L 183.612453 49.462069 
L 184.420467 49.531672 
L 185.228482 49.60541 
L 186.036496 49.683305 
L 186.844511 49.765381 
L 187.101028 49.792739 
L 187.652525 49.852352 
L 188.460539 49.94392 
L 189.268554 50.039785 
L 190.076568 50.139971 
L 190.884583 50.2445 
L 191.692597 50.353394 
L 192.500611 50.466676 
L 193.308626 50.584368 
L 193.41718 50.600754 
L 194.11664 50.70773 
L 194.924655 50.835789 
L 195.732669 50.968374 
L 196.540684 51.105507 
L 197.348698 51.247211 
L 198.156712 51.393507 
L 198.238522 51.408768 
L 198.964727 51.546002 
L 199.772741 51.703361 
L 200.580756 51.86543 
L 201.38877 52.032228 
L 202.196784 52.203779 
L 202.256441 52.216782 
L 203.004799 52.382007 
L 203.812813 52.565234 
L 204.620828 52.753329 
L 205.428842 52.946315 
L 205.749502 53.024797 
L 206.236857 53.145603 
L 207.044871 53.350792 
L 207.852885 53.560989 
L 208.6609 53.776216 
L 208.86866 53.832811 
L 209.468914 53.998398 
L 210.276929 54.226365 
L 211.084943 54.45948 
L 211.700019 54.640826 
L 211.892957 54.698427 
L 212.700972 54.944732 
L 213.508986 55.196306 
L 214.303393 55.44884 
L 214.317001 55.45322 
L 215.125015 55.718441 
L 215.93303 55.989053 
L 216.716993 56.256855 
L 216.741044 56.265172 
L 217.549058 56.5499 
L 218.357073 56.840141 
L 218.971099 57.064869 
L 219.165087 57.136745 
L 219.973102 57.44158 
L 220.781116 57.752056 
L 221.090063 57.872883 
L 221.58913 58.070465 
L 222.397145 58.396025 
L 223.091924 58.680898 
L 223.205159 58.727895 
L 224.013174 59.068934 
L 224.821188 59.415851 
L 224.988583 59.488912 
L 225.629202 59.771923 
L 226.437217 60.134833 
L 226.792335 60.296927 
L 227.245231 60.506163 
L 228.053246 60.885482 
L 228.51339 61.104941 
L 228.86126 61.272862 
L 229.669275 61.669017 
L 230.159182 61.912955 
L 230.477289 62.073264 
L 231.285303 62.486693 
L 231.736314 62.72097 
L 232.093318 62.908651 
L 232.901332 63.339804 
L 233.250683 63.528984 
L 233.709347 63.780347 
L 234.517361 64.229687 
L 234.707575 64.336999 
L 235.325375 64.689721 
L 236.111446 65.145013 
L 236.13339 65.157875 
L 236.941404 65.638189 
L 237.463645 65.953028 
L 237.749419 66.127375 
L 238.557433 66.627216 
L 238.770819 66.761042 
L 239.365448 67.138433 
L 240.034746 67.569056 
L 240.173462 67.659375 
L 240.981476 68.192608 
L 241.257275 68.377071 
L 241.789491 68.737294 
L 242.442346 69.185085 
L 242.597505 69.292783 
L 243.40552 69.861062 
L 243.590822 69.9931 
L 244.213534 70.44213 
L 244.70495 70.801114 
L 245.021548 71.035167 
L 245.788001 71.609128 
L 245.829563 71.640626 
L 246.637577 72.260845 
L 246.83863 72.417143 
L 247.445592 72.894665 
L 247.860402 73.225157 
L 248.253606 73.542209 
L 248.854909 74.033172 
L 249.06162 74.203989 
L 249.823169 74.841186 
L 249.869635 74.880535 
L 250.677649 75.573315 
L 250.765074 75.6492 
L 251.485664 76.282268 
L 251.682373 76.457215 
L 252.293678 77.007506 
L 252.576509 77.265229 
L 253.101693 77.749634 
L 253.448316 78.073244 
L 253.909707 78.509279 
L 254.298593 78.881258 
L 254.717721 79.287095 
L 255.128107 79.689273 
L 255.525736 80.08376 
L 255.937594 80.497287 
L 256.33375 80.899981 
L 256.727761 81.305301 
L 257.141765 81.736494 
L 257.499287 82.113316 
L 257.949779 82.594069 
L 258.252827 82.92133 
L 258.757793 83.473506 
L 258.989009 83.729345 
L 259.565808 84.375644 
L 259.708441 84.537359 
L 260.373822 85.301358 
L 260.411708 85.345373 
L 261.098404 86.153388 
L 261.181837 86.252825 
L 261.769428 86.961402 
L 261.989851 87.230657 
L 262.425762 87.769417 
L 262.797866 88.23532 
L 263.067921 88.577431 
L 263.60588 89.267893 
L 263.696405 89.385446 
L 264.310506 90.19346 
L 264.413894 90.331308 
L 264.910689 91.001474 
L 265.221909 91.426954 
L 265.498468 91.809489 
L 266.029923 92.554575 
L 266.074288 92.617503 
L 266.636275 93.425518 
L 266.837938 93.719464 
L 267.186522 94.233532 
L 267.645952 94.92052 
L 267.725951 95.041546 
L 268.25267 95.849561 
L 268.453966 96.162737 
L 268.768332 96.657575 
L 269.261981 97.445787 
L 269.274239 97.46559 
L 269.767326 98.273604 
L 270.069995 98.776855 
L 270.251155 99.081618 
L 270.72448 99.889633 
L 270.87801 100.155623 
L 271.187219 100.697647 
L 271.641284 101.505662 
L 271.686024 101.58648 
L 272.083887 102.313676 
L 272.494039 103.075003 
L 272.518897 103.121691 
L 272.942569 103.929705 
L 273.302053 104.626235 
L 273.358916 104.737719 
L 273.764628 105.545734 
L 274.110067 106.244954 
L 274.163184 106.353748 
L 274.551388 107.161763 
L 274.918082 107.937841 
L 274.932993 107.969777 
L 275.304131 108.777791 
L 275.668958 109.585806 
L 275.726096 109.714508 
L 276.024103 110.39382 
L 276.372409 111.201835 
L 276.534111 111.583589 
L 276.712514 112.009849 
L 277.044718 112.817864 
L 277.342125 113.554628 
L 277.370543 113.625878 
L 277.687052 114.433892 
L 277.997618 115.241907 
L 278.150139 115.646286 
L 278.30055 116.049921 
L 278.59593 116.857936 
L 278.8855 117.66595 
L 278.958154 117.872687 
L 279.166904 118.473964 
L 279.441787 119.281979 
L 279.710989 120.089993 
L 279.766168 120.259045 
L 279.972187 120.898008 
L 280.227189 121.706022 
L 280.476641 122.514037 
L 280.574183 122.836956 
L 280.718915 123.322051 
L 280.954643 124.130065 
L 281.184948 124.93808 
L 281.382197 125.646641 
L 281.409541 125.746094 
L 281.626591 126.554109 
L 281.838343 127.362123 
L 282.044822 128.170137 
L 282.190211 128.753746 
L 282.245419 128.978152 
L 282.439204 129.786166 
L 282.62784 130.594181 
L 282.811351 131.402195 
L 282.989759 132.210209 
L 282.998226 132.249631 
L 283.161223 133.018224 
L 283.32759 133.826238 
L 283.488979 134.634253 
L 283.645414 135.442267 
L 283.796919 136.250282 
L 283.80624 136.301591 
L 283.94196 137.058296 
L 284.082066 137.86631 
L 284.217364 138.674325 
L 284.347881 139.482339 
L 284.473638 140.290354 
L 284.594661 141.098368 
L 284.614255 141.234302 
L 284.709875 141.906382 
L 284.820232 142.714397 
L 284.925978 143.522411 
L 285.027138 144.330426 
L 285.123737 145.13844 
L 285.2158 145.946455 
L 285.303351 146.754469 
L 285.386414 147.562483 
L 285.422269 147.930695 
L 285.464529 148.370498 
L 285.537849 149.178512 
L 285.606806 149.986527 
L 285.671427 150.794541 
L 285.731737 151.602555 
L 285.787761 152.41057 
L 285.839526 153.218584 
L 285.887056 154.026599 
L 285.930379 154.834613 
L 285.96952 155.642628 
L 286.004506 156.450642 
L 286.035363 157.258656 
L 286.062117 158.066671 
L 286.084796 158.874685 
L 286.103426 159.6827 
L 286.118034 160.490714 
L 286.128647 161.298728 
L 286.135293 162.106743 
L 286.137999 162.914757 
L 286.136793 163.722772 
L 286.131701 164.530786 
L 286.122753 165.3388 
L 286.109975 166.146815 
L 286.093397 166.954829 
L 286.073046 167.762844 
L 286.04895 168.570858 
L 286.021138 169.378873 
L 285.989638 170.186887 
L 285.954479 170.994901 
L 285.915691 171.802916 
L 285.8733 172.61093 
L 285.827338 173.418945 
L 285.777832 174.226959 
L 285.724813 175.034973 
L 285.668308 175.842988 
L 285.608349 176.651002 
L 285.544963 177.459017 
L 285.478181 178.267031 
L 285.422269 178.910673 
L 285.407865 179.075046 
L 285.333517 179.88306 
L 285.255822 180.691074 
L 285.174811 181.499089 
L 285.090515 182.307103 
L 285.002963 183.115118 
L 284.912187 183.923132 
L 284.818216 184.731146 
L 284.721081 185.539161 
L 284.620812 186.347175 
L 284.614255 186.39828 
L 284.5163 187.15519 
L 284.408603 187.963204 
L 284.297829 188.771218 
L 284.184009 189.579233 
L 284.067174 190.387247 
L 283.947355 191.195262 
L 283.824584 192.003276 
L 283.80624 192.120859 
L 283.697623 192.811291 
L 283.567522 193.619305 
L 283.434529 194.427319 
L 283.298676 195.235334 
L 283.159994 196.043348 
L 283.018515 196.851363 
L 282.998226 196.964674 
L 282.872803 197.659377 
L 282.724086 198.467391 
L 282.572635 199.275406 
L 282.418483 200.08342 
L 282.261661 200.891435 
L 282.190211 201.252756 
L 282.101159 201.699449 
L 281.937173 202.507464 
L 281.770584 203.315478 
L 281.601425 204.123492 
L 281.429728 204.931507 
L 281.382197 205.151362 
L 281.254019 205.739521 
L 281.075243 206.547536 
L 280.893999 207.35555 
L 280.710317 208.163564 
L 280.574183 208.754061 
L 280.523636 208.971579 
L 280.332936 209.779593 
L 280.13987 210.587608 
L 279.944471 211.395622 
L 279.766168 212.12407 
L 279.746539 212.203637 
L 279.544188 213.011651 
L 279.339577 213.819665 
L 279.132738 214.62768 
L 278.958154 215.302072 
L 278.923293 215.435694 
L 278.709577 216.243709 
L 278.493709 217.051723 
L 278.27572 217.859737 
L 278.150139 218.319969 
L 278.054514 218.667752 
L 277.82973 219.475766 
L 277.602902 220.283781 
L 277.374062 221.091795 
L 277.342125 221.203178 
L 277.140865 221.899809 
L 276.90532 222.707824 
L 276.667841 223.515838 
L 276.534111 223.966356 
L 276.427195 224.323853 
L 276.18306 225.131867 
L 275.93707 225.939882 
L 275.726096 226.627319 
L 275.688816 226.747896 
L 275.436224 227.55591 
L 275.181857 228.363925 
L 274.925747 229.171939 
L 274.918082 229.195854 
L 274.664927 229.979954 
L 274.402323 230.787968 
L 274.138056 231.595982 
L 274.110067 231.680678 
L 273.869305 232.403997 
L 273.598606 233.212011 
L 273.326327 234.020026 
L 273.302053 234.091345 
L 273.049505 234.82804 
L 272.770862 235.636055 
L 272.494039 236.434453 
L 272.490681 236.444069 
L 272.205692 237.252083 
L 271.919258 238.060098 
L 271.686024 238.714194 
L 271.630752 238.868112 
L 271.338046 239.676127 
L 271.043979 240.484141 
L 270.87801 240.937135 
L 270.747024 241.292155 
L 270.446763 242.10017 
L 270.145225 242.908184 
L 270.069995 243.108184 
L 269.839704 243.716199 
L 269.532053 244.524213 
L 269.261981 245.230342 
L 269.222744 245.332228 
L 268.909011 246.140242 
L 268.594141 246.948256 
L 268.453966 247.305679 
L 268.276047 247.756271 
L 267.955183 248.564285 
L 267.645952 249.340298 
L 267.633113 249.3723 
L 267.306288 250.180314 
L 266.978467 250.988328 
L 266.837938 251.332641 
L 266.647413 251.796343 
L 266.313725 252.604357 
L 266.029923 253.289149 
L 265.978516 253.412372 
L 265.639 254.220386 
L 265.298632 255.0284 
L 265.221909 255.209335 
L 264.954254 255.836415 
L 264.608158 256.644429 
L 264.413894 257.095873 
L 264.259455 257.452444 
L 263.907673 258.260458 
L 263.60588 258.951707 
L 263.554571 259.068473 
L 263.197147 259.876487 
L 262.839076 260.684501 
L 262.797866 260.776874 
L 262.476555 261.492516 
L 262.112949 262.30053 
L 261.989851 262.572637 
L 261.745873 263.108545 
L 261.376782 263.916559 
L 261.181837 264.341602 
L 261.00508 264.724573 
L 260.630555 265.532588 
L 260.373822 266.08481 
L 260.254159 266.340602 
L 259.874251 267.148617 
L 259.565808 267.803256 
L 259.493094 267.956631 
L 259.107859 268.764646 
L 258.757793 269.497885 
L 258.721874 269.57266 
L 258.331368 270.380674 
L 257.949779 271.169603 
L 257.940491 271.188689 
L 257.544772 271.996703 
L 257.148853 272.804718 
L 257.141765 272.819092 
L 256.748065 273.612732 
L 256.347054 274.420746 
L 256.33375 274.447388 
L 255.941248 275.228761 
L 255.535205 276.036775 
L 255.525736 276.055504 
L 255.124322 276.84479 
L 254.717721 277.644079 
L 254.713256 277.652804 
L 254.297293 278.460818 
L 253.909707 279.213475 
L 253.881033 279.268833 
L 253.460168 280.076847 
L 253.101693 280.764623 
L 253.038659 280.884862 
L 252.61296 281.692876 
L 252.293678 282.298192 
L 252.186147 282.500891 
L 251.755682 283.308905 
L 251.485664 283.814826 
L 251.323513 284.116919 
L 250.888351 284.924934 
L 250.677649 285.315145 
L 250.450775 285.732948 
L 250.010987 286.540963 
L 249.869635 286.799746 
L 249.567957 287.348977 
L 249.123615 288.156991 
L 249.06162 288.269204 
L 248.675082 288.965006 
L 248.253606 289.723485 
L 248.225928 289.77302 
L 247.772178 290.581035 
L 247.445592 291.162205 
L 247.31742 291.389049 
L 246.859277 292.197064 
L 246.637577 292.587237 
L 246.39887 293.005078 
L 245.936411 293.813092 
L 245.829563 293.999087 
L 245.470316 294.621107 
L 245.021548 295.397877 
L 245.003401 295.429121 
L 244.531794 296.237136 
L 244.213534 296.782095 
L 244.059095 297.04515 
L 243.583346 297.853164 
L 243.40552 298.154423 
L 243.104826 298.661179 
L 242.625016 299.469193 
L 242.597505 299.51531 
L 242.14064 300.277208 
L 241.789491 300.862588 
L 241.655251 301.085222 
L 241.166585 301.893237 
L 240.981476 302.198622 
L 240.675253 302.701251 
L 240.182713 303.509265 
L 240.173462 303.524371 
L 239.685407 304.31728 
L 239.365448 304.836878 
L 239.186952 305.125294 
L 238.685769 305.933309 
L 238.557433 306.139611 
L 238.181259 306.741323 
L 237.749419 307.431763 
L 237.675516 307.549337 
L 237.165806 308.357352 
L 236.941404 308.712551 
L 236.653931 309.165366 
L 236.140655 309.973381 
L 236.13339 309.984767 
L 235.622626 310.781395 
L 235.325375 311.244773 
L 235.103231 311.589409 
L 234.581666 312.397424 
L 234.517361 312.49669 
L 234.056045 313.205438 
L 233.709347 313.7378 
L 233.528977 314.013453 
L 232.999255 314.821467 
L 232.901332 314.970383 
L 232.465895 315.629482 
L 232.093318 316.193101 
L 231.931008 316.437496 
L 231.584181 316.958641 
" clip-path="url(#pb7b7985fe3)" style="fill: none; stroke: #008000; stroke-width: 1.5"/>
   </g>
   <g id="line2d_15">
    <path d="M 53.118125 277.248797 
" clip-path="url(#pb7b7985fe3)" style="fill: none; stroke: #ff0000; stroke-width: 1.5; stroke-linecap: square"/>
   </g>
   <g id="line2d_16">
    <path d="M 53.118125 277.248797 
" clip-path="url(#pb7b7985fe3)" style="fill: none; stroke: #0000ff; stroke-width: 1.5; stroke-linecap: square"/>
   </g>
   <g id="line2d_17">
    <path d="M 53.118125 277.248797 
" clip-path="url(#pb7b7985fe3)" style="fill: none; stroke: #008000; stroke-width: 1.5; stroke-linecap: square"/>
   </g>
   <g id="patch_3">
    <path d="M 53.118125 277.248797 
L 53.118125 11.136797 
" style="fill: none; stroke: #000000; stroke-width: 0.8; stroke-linejoin: miter; stroke-linecap: square"/>
   </g>
   <g id="patch_4">
    <path d="M 319.230125 277.248797 
L 319.230125 11.136797 
" style="fill: none; stroke: #000000; stroke-width: 0.8; stroke-linejoin: miter; stroke-linecap: square"/>
   </g>
   <g id="patch_5">
    <path d="M 53.118125 277.248797 
L 319.230125 277.248797 
" style="fill: none; stroke: #000000; stroke-width: 0.8; stroke-linejoin: miter; stroke-linecap: square"/>
   </g>
   <g id="patch_6">
    <path d="M 53.118125 11.136797 
L 319.230125 11.136797 
" style="fill: none; stroke: #000000; stroke-width: 0.8; stroke-linejoin: miter; stroke-linecap: square"/>
   </g>
   <g id="legend_1">
    <g id="patch_7">
     <path d="M 332.161725 168.256328 
L 457.891725 168.256328 
Q 460.091725 168.256328 460.091725 166.056328 
L 460.091725 18.836797 
Q 460.091725 16.636797 457.891725 16.636797 
L 332.161725 16.636797 
Q 329.961725 16.636797 329.961725 18.836797 
L 329.961725 166.056328 
Q 329.961725 168.256328 332.161725 168.256328 
z
" style="fill: #ffffff; opacity: 0.8; stroke: #cccccc; stroke-linejoin: miter"/>
    </g>
    <g id="PathCollection_10">
     <g>
      <use xlink:href="#m20b89cdba7" x="345.361725" y="26.179297" style="fill: #ff0000; stroke: #000000"/>
     </g>
    </g>
    <g id="text_17">
     <!-- $\epsilon_p$=0.2% Trial 1 -->
     <g transform="translate(365.161725 29.066797) scale(0.11 -0.11)">
      <defs>
       <path id="DejaVuSans-Oblique-3b5" d="M 1263 1888 
Q 925 1963 778 2166 
Q 669 2309 669 2503 
Q 669 3034 1175 3344 
Q 1575 3588 2188 3588 
Q 2425 3588 2684 3550 
Q 2944 3513 3234 3438 
L 3134 2916 
Q 2847 3006 2606 3047 
Q 2359 3088 2138 3088 
Q 1766 3088 1522 2944 
Q 1228 2772 1228 2522 
Q 1228 2356 1381 2241 
Q 1563 2103 1925 2103 
L 2409 2103 
L 2319 1628 
L 1856 1628 
Q 1425 1628 1172 1469 
Q 828 1253 828 916 
Q 828 703 1013 563 
Q 1244 388 1716 388 
Q 2006 388 2284 444 
Q 2563 503 2806 619 
L 2700 84 
Q 2403 -3 2131 -47 
Q 1859 -91 1609 -91 
Q 866 -91 516 194 
Q 250 413 250 781 
Q 250 1278 600 1584 
Q 859 1813 1263 1888 
z
" transform="scale(0.015625)"/>
       <path id="DejaVuSans-Oblique-70" d="M 3175 2156 
Q 3175 2616 2975 2859 
Q 2775 3103 2400 3103 
Q 2144 3103 1911 2972 
Q 1678 2841 1497 2591 
Q 1319 2344 1212 1994 
Q 1106 1644 1106 1300 
Q 1106 863 1306 627 
Q 1506 391 1875 391 
Q 2147 391 2380 519 
Q 2613 647 2778 891 
Q 2956 1147 3065 1494 
Q 3175 1841 3175 2156 
z
M 1394 2969 
Q 1625 3272 1939 3428 
Q 2253 3584 2638 3584 
Q 3175 3584 3472 3232 
Q 3769 2881 3769 2247 
Q 3769 1728 3584 1258 
Q 3400 788 3053 416 
Q 2822 169 2531 39 
Q 2241 -91 1919 -91 
Q 1547 -91 1294 64 
Q 1041 219 916 525 
L 556 -1331 
L -19 -1331 
L 922 3500 
L 1497 3500 
L 1394 2969 
z
" transform="scale(0.015625)"/>
       <path id="ArialMT-3d" d="M 3381 2694 
L 356 2694 
L 356 3219 
L 3381 3219 
L 3381 2694 
z
M 3381 1303 
L 356 1303 
L 356 1828 
L 3381 1828 
L 3381 1303 
z
" transform="scale(0.015625)"/>
       <path id="ArialMT-2e" d="M 581 0 
L 581 641 
L 1222 641 
L 1222 0 
L 581 0 
z
" transform="scale(0.015625)"/>
       <path id="ArialMT-25" d="M 372 3481 
Q 372 3972 619 4315 
Q 866 4659 1334 4659 
Q 1766 4659 2048 4351 
Q 2331 4044 2331 3447 
Q 2331 2866 2045 2552 
Q 1759 2238 1341 2238 
Q 925 2238 648 2547 
Q 372 2856 372 3481 
z
M 1350 4272 
Q 1141 4272 1002 4090 
Q 863 3909 863 3425 
Q 863 2984 1003 2804 
Q 1144 2625 1350 2625 
Q 1563 2625 1702 2806 
Q 1841 2988 1841 3469 
Q 1841 3913 1700 4092 
Q 1559 4272 1350 4272 
z
M 1353 -169 
L 3859 4659 
L 4316 4659 
L 1819 -169 
L 1353 -169 
z
M 3334 1075 
Q 3334 1569 3581 1911 
Q 3828 2253 4300 2253 
Q 4731 2253 5014 1945 
Q 5297 1638 5297 1041 
Q 5297 459 5011 145 
Q 4725 -169 4303 -169 
Q 3888 -169 3611 142 
Q 3334 453 3334 1075 
z
M 4316 1866 
Q 4103 1866 3964 1684 
Q 3825 1503 3825 1019 
Q 3825 581 3965 400 
Q 4106 219 4313 219 
Q 4528 219 4667 400 
Q 4806 581 4806 1063 
Q 4806 1506 4665 1686 
Q 4525 1866 4316 1866 
z
" transform="scale(0.015625)"/>
       <path id="ArialMT-54" d="M 1659 0 
L 1659 4041 
L 150 4041 
L 150 4581 
L 3781 4581 
L 3781 4041 
L 2266 4041 
L 2266 0 
L 1659 0 
z
" transform="scale(0.015625)"/>
       <path id="ArialMT-72" d="M 416 0 
L 416 3319 
L 922 3319 
L 922 2816 
Q 1116 3169 1280 3281 
Q 1444 3394 1641 3394 
Q 1925 3394 2219 3213 
L 2025 2691 
Q 1819 2813 1613 2813 
Q 1428 2813 1281 2702 
Q 1134 2591 1072 2394 
Q 978 2094 978 1738 
L 978 0 
L 416 0 
z
" transform="scale(0.015625)"/>
       <path id="ArialMT-69" d="M 425 3934 
L 425 4581 
L 988 4581 
L 988 3934 
L 425 3934 
z
M 425 0 
L 425 3319 
L 988 3319 
L 988 0 
L 425 0 
z
" transform="scale(0.015625)"/>
       <path id="ArialMT-6c" d="M 409 0 
L 409 4581 
L 972 4581 
L 972 0 
L 409 0 
z
" transform="scale(0.015625)"/>
      </defs>
      <use xlink:href="#DejaVuSans-Oblique-3b5" transform="translate(0 0.203125)"/>
      <use xlink:href="#DejaVuSans-Oblique-70" transform="translate(54.052734 -16.203125) scale(0.7)"/>
      <use xlink:href="#ArialMT-3d" transform="translate(101.220703 0.203125)"/>
      <use xlink:href="#ArialMT-30" transform="translate(159.619141 0.203125)"/>
      <use xlink:href="#ArialMT-2e" transform="translate(215.234375 0.203125)"/>
      <use xlink:href="#ArialMT-32" transform="translate(243.017578 0.203125)"/>
      <use xlink:href="#ArialMT-25" transform="translate(298.632812 0.203125)"/>
      <use xlink:href="#ArialMT-20" transform="translate(387.548828 0.203125)"/>
      <use xlink:href="#ArialMT-54" transform="translate(415.332031 0.203125)"/>
      <use xlink:href="#ArialMT-72" transform="translate(476.416016 0.203125)"/>
      <use xlink:href="#ArialMT-69" transform="translate(509.716797 0.203125)"/>
      <use xlink:href="#ArialMT-61" transform="translate(531.933594 0.203125)"/>
      <use xlink:href="#ArialMT-6c" transform="translate(587.548828 0.203125)"/>
      <use xlink:href="#ArialMT-20" transform="translate(609.765625 0.203125)"/>
      <use xlink:href="#ArialMT-31" transform="translate(637.548828 0.203125)"/>
     </g>
    </g>
    <g id="PathCollection_11">
     <g>
      <use xlink:href="#m8aacc621ea" x="345.361725" y="43.119297" style="fill: #ff0000; stroke: #000000"/>
     </g>
    </g>
    <g id="text_18">
     <!-- $\epsilon_p$=0.2% Trial 2 -->
     <g transform="translate(365.161725 46.006797) scale(0.11 -0.11)">
      <use xlink:href="#DejaVuSans-Oblique-3b5" transform="translate(0 0.203125)"/>
      <use xlink:href="#DejaVuSans-Oblique-70" transform="translate(54.052734 -16.203125) scale(0.7)"/>
      <use xlink:href="#ArialMT-3d" transform="translate(101.220703 0.203125)"/>
      <use xlink:href="#ArialMT-30" transform="translate(159.619141 0.203125)"/>
      <use xlink:href="#ArialMT-2e" transform="translate(215.234375 0.203125)"/>
      <use xlink:href="#ArialMT-32" transform="translate(243.017578 0.203125)"/>
      <use xlink:href="#ArialMT-25" transform="translate(298.632812 0.203125)"/>
      <use xlink:href="#ArialMT-20" transform="translate(387.548828 0.203125)"/>
      <use xlink:href="#ArialMT-54" transform="translate(415.332031 0.203125)"/>
      <use xlink:href="#ArialMT-72" transform="translate(476.416016 0.203125)"/>
      <use xlink:href="#ArialMT-69" transform="translate(509.716797 0.203125)"/>
      <use xlink:href="#ArialMT-61" transform="translate(531.933594 0.203125)"/>
      <use xlink:href="#ArialMT-6c" transform="translate(587.548828 0.203125)"/>
      <use xlink:href="#ArialMT-20" transform="translate(609.765625 0.203125)"/>
      <use xlink:href="#ArialMT-32" transform="translate(637.548828 0.203125)"/>
     </g>
    </g>
    <g id="PathCollection_12">
     <g>
      <use xlink:href="#mc6a7b61f00" x="345.361725" y="60.059297" style="fill: #0000ff; stroke: #000000"/>
     </g>
    </g>
    <g id="text_19">
     <!-- $\epsilon_p$=0.5% Trial 1 -->
     <g transform="translate(365.161725 62.946797) scale(0.11 -0.11)">
      <defs>
       <path id="ArialMT-35" d="M 266 1200 
L 856 1250 
Q 922 819 1161 601 
Q 1400 384 1738 384 
Q 2144 384 2425 690 
Q 2706 997 2706 1503 
Q 2706 1984 2436 2262 
Q 2166 2541 1728 2541 
Q 1456 2541 1237 2417 
Q 1019 2294 894 2097 
L 366 2166 
L 809 4519 
L 3088 4519 
L 3088 3981 
L 1259 3981 
L 1013 2750 
Q 1425 3038 1878 3038 
Q 2478 3038 2890 2622 
Q 3303 2206 3303 1553 
Q 3303 931 2941 478 
Q 2500 -78 1738 -78 
Q 1113 -78 717 272 
Q 322 622 266 1200 
z
" transform="scale(0.015625)"/>
      </defs>
      <use xlink:href="#DejaVuSans-Oblique-3b5" transform="translate(0 0.203125)"/>
      <use xlink:href="#DejaVuSans-Oblique-70" transform="translate(54.052734 -16.203125) scale(0.7)"/>
      <use xlink:href="#ArialMT-3d" transform="translate(101.220703 0.203125)"/>
      <use xlink:href="#ArialMT-30" transform="translate(159.619141 0.203125)"/>
      <use xlink:href="#ArialMT-2e" transform="translate(215.234375 0.203125)"/>
      <use xlink:href="#ArialMT-35" transform="translate(243.017578 0.203125)"/>
      <use xlink:href="#ArialMT-25" transform="translate(298.632812 0.203125)"/>
      <use xlink:href="#ArialMT-20" transform="translate(387.548828 0.203125)"/>
      <use xlink:href="#ArialMT-54" transform="translate(415.332031 0.203125)"/>
      <use xlink:href="#ArialMT-72" transform="translate(476.416016 0.203125)"/>
      <use xlink:href="#ArialMT-69" transform="translate(509.716797 0.203125)"/>
      <use xlink:href="#ArialMT-61" transform="translate(531.933594 0.203125)"/>
      <use xlink:href="#ArialMT-6c" transform="translate(587.548828 0.203125)"/>
      <use xlink:href="#ArialMT-20" transform="translate(609.765625 0.203125)"/>
      <use xlink:href="#ArialMT-31" transform="translate(637.548828 0.203125)"/>
     </g>
    </g>
    <g id="PathCollection_13">
     <g>
      <use xlink:href="#m4464b08b03" x="345.361725" y="76.999297" style="fill: #0000ff; stroke: #000000"/>
     </g>
    </g>
    <g id="text_20">
     <!-- $\epsilon_p$=0.5% Trial 2 -->
     <g transform="translate(365.161725 79.886797) scale(0.11 -0.11)">
      <use xlink:href="#DejaVuSans-Oblique-3b5" transform="translate(0 0.203125)"/>
      <use xlink:href="#DejaVuSans-Oblique-70" transform="translate(54.052734 -16.203125) scale(0.7)"/>
      <use xlink:href="#ArialMT-3d" transform="translate(101.220703 0.203125)"/>
      <use xlink:href="#ArialMT-30" transform="translate(159.619141 0.203125)"/>
      <use xlink:href="#ArialMT-2e" transform="translate(215.234375 0.203125)"/>
      <use xlink:href="#ArialMT-35" transform="translate(243.017578 0.203125)"/>
      <use xlink:href="#ArialMT-25" transform="translate(298.632812 0.203125)"/>
      <use xlink:href="#ArialMT-20" transform="translate(387.548828 0.203125)"/>
      <use xlink:href="#ArialMT-54" transform="translate(415.332031 0.203125)"/>
      <use xlink:href="#ArialMT-72" transform="translate(476.416016 0.203125)"/>
      <use xlink:href="#ArialMT-69" transform="translate(509.716797 0.203125)"/>
      <use xlink:href="#ArialMT-61" transform="translate(531.933594 0.203125)"/>
      <use xlink:href="#ArialMT-6c" transform="translate(587.548828 0.203125)"/>
      <use xlink:href="#ArialMT-20" transform="translate(609.765625 0.203125)"/>
      <use xlink:href="#ArialMT-32" transform="translate(637.548828 0.203125)"/>
     </g>
    </g>
    <g id="PathCollection_14">
     <g>
      <use xlink:href="#mcf1a6423fe" x="345.361725" y="93.939297" style="fill: #008000; stroke: #000000"/>
     </g>
    </g>
    <g id="text_21">
     <!-- $\epsilon_p$=1.0% Trial 1 -->
     <g transform="translate(365.161725 96.826797) scale(0.11 -0.11)">
      <use xlink:href="#DejaVuSans-Oblique-3b5" transform="translate(0 0.203125)"/>
      <use xlink:href="#DejaVuSans-Oblique-70" transform="translate(54.052734 -16.203125) scale(0.7)"/>
      <use xlink:href="#ArialMT-3d" transform="translate(101.220703 0.203125)"/>
      <use xlink:href="#ArialMT-31" transform="translate(159.619141 0.203125)"/>
      <use xlink:href="#ArialMT-2e" transform="translate(215.234375 0.203125)"/>
      <use xlink:href="#ArialMT-30" transform="translate(243.017578 0.203125)"/>
      <use xlink:href="#ArialMT-25" transform="translate(298.632812 0.203125)"/>
      <use xlink:href="#ArialMT-20" transform="translate(387.548828 0.203125)"/>
      <use xlink:href="#ArialMT-54" transform="translate(415.332031 0.203125)"/>
      <use xlink:href="#ArialMT-72" transform="translate(476.416016 0.203125)"/>
      <use xlink:href="#ArialMT-69" transform="translate(509.716797 0.203125)"/>
      <use xlink:href="#ArialMT-61" transform="translate(531.933594 0.203125)"/>
      <use xlink:href="#ArialMT-6c" transform="translate(587.548828 0.203125)"/>
      <use xlink:href="#ArialMT-20" transform="translate(609.765625 0.203125)"/>
      <use xlink:href="#ArialMT-31" transform="translate(637.548828 0.203125)"/>
     </g>
    </g>
    <g id="PathCollection_15">
     <g>
      <use xlink:href="#mb0edab4df1" x="345.361725" y="110.879297" style="fill: #008000; stroke: #000000"/>
     </g>
    </g>
    <g id="text_22">
     <!-- $\epsilon_p$=1.0% Trial 2 -->
     <g transform="translate(365.161725 113.766797) scale(0.11 -0.11)">
      <use xlink:href="#DejaVuSans-Oblique-3b5" transform="translate(0 0.203125)"/>
      <use xlink:href="#DejaVuSans-Oblique-70" transform="translate(54.052734 -16.203125) scale(0.7)"/>
      <use xlink:href="#ArialMT-3d" transform="translate(101.220703 0.203125)"/>
      <use xlink:href="#ArialMT-31" transform="translate(159.619141 0.203125)"/>
      <use xlink:href="#ArialMT-2e" transform="translate(215.234375 0.203125)"/>
      <use xlink:href="#ArialMT-30" transform="translate(243.017578 0.203125)"/>
      <use xlink:href="#ArialMT-25" transform="translate(298.632812 0.203125)"/>
      <use xlink:href="#ArialMT-20" transform="translate(387.548828 0.203125)"/>
      <use xlink:href="#ArialMT-54" transform="translate(415.332031 0.203125)"/>
      <use xlink:href="#ArialMT-72" transform="translate(476.416016 0.203125)"/>
      <use xlink:href="#ArialMT-69" transform="translate(509.716797 0.203125)"/>
      <use xlink:href="#ArialMT-61" transform="translate(531.933594 0.203125)"/>
      <use xlink:href="#ArialMT-6c" transform="translate(587.548828 0.203125)"/>
      <use xlink:href="#ArialMT-20" transform="translate(609.765625 0.203125)"/>
      <use xlink:href="#ArialMT-32" transform="translate(637.548828 0.203125)"/>
     </g>
    </g>
    <g id="line2d_18">
     <path d="M 334.361725 126.700391 
L 345.361725 126.700391 
L 356.361725 126.700391 
" style="fill: none; stroke: #ff0000; stroke-width: 1.5; stroke-linecap: square"/>
    </g>
    <g id="text_23">
     <!-- M&amp;A $\bar \sigma$ = 710 MPa -->
     <g transform="translate(365.161725 130.550391) scale(0.11 -0.11)">
      <defs>
       <path id="ArialMT-26" d="M 3041 541 
Q 2763 231 2434 76 
Q 2106 -78 1725 -78 
Q 1022 -78 609 397 
Q 275 784 275 1263 
Q 275 1688 548 2030 
Q 822 2372 1366 2631 
Q 1056 2988 953 3209 
Q 850 3431 850 3638 
Q 850 4050 1173 4354 
Q 1497 4659 1988 4659 
Q 2456 4659 2754 4371 
Q 3053 4084 3053 3681 
Q 3053 3028 2188 2566 
L 3009 1519 
Q 3150 1794 3228 2156 
L 3813 2031 
Q 3663 1431 3406 1044 
Q 3722 625 4122 341 
L 3744 -106 
Q 3403 113 3041 541 
z
M 1897 2928 
Q 2263 3144 2370 3306 
Q 2478 3469 2478 3666 
Q 2478 3900 2329 4048 
Q 2181 4197 1959 4197 
Q 1731 4197 1579 4050 
Q 1428 3903 1428 3691 
Q 1428 3584 1483 3467 
Q 1538 3350 1647 3219 
L 1897 2928 
z
M 2688 984 
L 1656 2263 
Q 1200 1991 1040 1758 
Q 881 1525 881 1297 
Q 881 1019 1103 719 
Q 1325 419 1731 419 
Q 1984 419 2254 576 
Q 2525 734 2688 984 
z
" transform="scale(0.015625)"/>
       <path id="ArialMT-41" d="M -9 0 
L 1750 4581 
L 2403 4581 
L 4278 0 
L 3588 0 
L 3053 1388 
L 1138 1388 
L 634 0 
L -9 0 
z
M 1313 1881 
L 2866 1881 
L 2388 3150 
Q 2169 3728 2063 4100 
Q 1975 3659 1816 3225 
L 1313 1881 
z
" transform="scale(0.015625)"/>
       <path id="DejaVuSans-304" d="M -2518 4769 
L -650 4769 
L -650 4306 
L -2518 4306 
L -2518 4769 
z
" transform="scale(0.015625)"/>
       <path id="ArialMT-37" d="M 303 3981 
L 303 4522 
L 3269 4522 
L 3269 4084 
Q 2831 3619 2401 2847 
Q 1972 2075 1738 1259 
Q 1569 684 1522 0 
L 944 0 
Q 953 541 1156 1306 
Q 1359 2072 1739 2783 
Q 2119 3494 2547 3981 
L 303 3981 
z
" transform="scale(0.015625)"/>
      </defs>
      <use xlink:href="#ArialMT-4d" transform="translate(0 0.53125)"/>
      <use xlink:href="#ArialMT-26" transform="translate(83.300781 0.53125)"/>
      <use xlink:href="#ArialMT-41" transform="translate(150 0.53125)"/>
      <use xlink:href="#ArialMT-20" transform="translate(216.699219 0.53125)"/>
      <use xlink:href="#DejaVuSans-304" transform="translate(308.548828 0.484375)"/>
      <use xlink:href="#DejaVuSans-Oblique-3c3" transform="translate(244.482422 0.53125)"/>
      <use xlink:href="#ArialMT-20" transform="translate(307.861328 0.53125)"/>
      <use xlink:href="#ArialMT-3d" transform="translate(335.644531 0.53125)"/>
      <use xlink:href="#ArialMT-20" transform="translate(394.042969 0.53125)"/>
      <use xlink:href="#ArialMT-37" transform="translate(421.826172 0.53125)"/>
      <use xlink:href="#ArialMT-31" transform="translate(477.441406 0.53125)"/>
      <use xlink:href="#ArialMT-30" transform="translate(533.056641 0.53125)"/>
      <use xlink:href="#ArialMT-20" transform="translate(588.671875 0.53125)"/>
      <use xlink:href="#ArialMT-4d" transform="translate(616.455078 0.53125)"/>
      <use xlink:href="#ArialMT-50" transform="translate(699.755859 0.53125)"/>
      <use xlink:href="#ArialMT-61" transform="translate(766.455078 0.53125)"/>
     </g>
    </g>
    <g id="line2d_19">
     <path d="M 334.361725 142.260234 
L 345.361725 142.260234 
L 356.361725 142.260234 
" style="fill: none; stroke: #0000ff; stroke-width: 1.5; stroke-linecap: square"/>
    </g>
    <g id="text_24">
     <!-- M&amp;A $\bar \sigma$ = 820 MPa -->
     <g transform="translate(365.161725 146.110234) scale(0.11 -0.11)">
      <use xlink:href="#ArialMT-4d" transform="translate(0 0.53125)"/>
      <use xlink:href="#ArialMT-26" transform="translate(83.300781 0.53125)"/>
      <use xlink:href="#ArialMT-41" transform="translate(150 0.53125)"/>
      <use xlink:href="#ArialMT-20" transform="translate(216.699219 0.53125)"/>
      <use xlink:href="#DejaVuSans-304" transform="translate(308.548828 0.484375)"/>
      <use xlink:href="#DejaVuSans-Oblique-3c3" transform="translate(244.482422 0.53125)"/>
      <use xlink:href="#ArialMT-20" transform="translate(307.861328 0.53125)"/>
      <use xlink:href="#ArialMT-3d" transform="translate(335.644531 0.53125)"/>
      <use xlink:href="#ArialMT-20" transform="translate(394.042969 0.53125)"/>
      <use xlink:href="#ArialMT-38" transform="translate(421.826172 0.53125)"/>
      <use xlink:href="#ArialMT-32" transform="translate(477.441406 0.53125)"/>
      <use xlink:href="#ArialMT-30" transform="translate(533.056641 0.53125)"/>
      <use xlink:href="#ArialMT-20" transform="translate(588.671875 0.53125)"/>
      <use xlink:href="#ArialMT-4d" transform="translate(616.455078 0.53125)"/>
      <use xlink:href="#ArialMT-50" transform="translate(699.755859 0.53125)"/>
      <use xlink:href="#ArialMT-61" transform="translate(766.455078 0.53125)"/>
     </g>
    </g>
    <g id="line2d_20">
     <path d="M 334.361725 157.820078 
L 345.361725 157.820078 
L 356.361725 157.820078 
" style="fill: none; stroke: #008000; stroke-width: 1.5; stroke-linecap: square"/>
    </g>
    <g id="text_25">
     <!-- M&amp;A $\bar \sigma$ = 910 MPa -->
     <g transform="translate(365.161725 161.670078) scale(0.11 -0.11)">
      <defs>
       <path id="ArialMT-39" d="M 350 1059 
L 891 1109 
Q 959 728 1153 556 
Q 1347 384 1650 384 
Q 1909 384 2104 503 
Q 2300 622 2425 820 
Q 2550 1019 2634 1356 
Q 2719 1694 2719 2044 
Q 2719 2081 2716 2156 
Q 2547 1888 2255 1720 
Q 1963 1553 1622 1553 
Q 1053 1553 659 1965 
Q 266 2378 266 3053 
Q 266 3750 677 4175 
Q 1088 4600 1706 4600 
Q 2153 4600 2523 4359 
Q 2894 4119 3086 3673 
Q 3278 3228 3278 2384 
Q 3278 1506 3087 986 
Q 2897 466 2520 194 
Q 2144 -78 1638 -78 
Q 1100 -78 759 220 
Q 419 519 350 1059 
z
M 2653 3081 
Q 2653 3566 2395 3850 
Q 2138 4134 1775 4134 
Q 1400 4134 1122 3828 
Q 844 3522 844 3034 
Q 844 2597 1108 2323 
Q 1372 2050 1759 2050 
Q 2150 2050 2401 2323 
Q 2653 2597 2653 3081 
z
" transform="scale(0.015625)"/>
      </defs>
      <use xlink:href="#ArialMT-4d" transform="translate(0 0.53125)"/>
      <use xlink:href="#ArialMT-26" transform="translate(83.300781 0.53125)"/>
      <use xlink:href="#ArialMT-41" transform="translate(150 0.53125)"/>
      <use xlink:href="#ArialMT-20" transform="translate(216.699219 0.53125)"/>
      <use xlink:href="#DejaVuSans-304" transform="translate(308.548828 0.484375)"/>
      <use xlink:href="#DejaVuSans-Oblique-3c3" transform="translate(244.482422 0.53125)"/>
      <use xlink:href="#ArialMT-20" transform="translate(307.861328 0.53125)"/>
      <use xlink:href="#ArialMT-3d" transform="translate(335.644531 0.53125)"/>
      <use xlink:href="#ArialMT-20" transform="translate(394.042969 0.53125)"/>
      <use xlink:href="#ArialMT-39" transform="translate(421.826172 0.53125)"/>
      <use xlink:href="#ArialMT-31" transform="translate(477.441406 0.53125)"/>
      <use xlink:href="#ArialMT-30" transform="translate(533.056641 0.53125)"/>
      <use xlink:href="#ArialMT-20" transform="translate(588.671875 0.53125)"/>
      <use xlink:href="#ArialMT-4d" transform="translate(616.455078 0.53125)"/>
      <use xlink:href="#ArialMT-50" transform="translate(699.755859 0.53125)"/>
      <use xlink:href="#ArialMT-61" transform="translate(766.455078 0.53125)"/>
     </g>
    </g>
   </g>
  </g>
 </g>
 <defs>
  <clipPath id="pb7b7985fe3">
   <rect x="53.118125" y="11.136797" width="266.112" height="266.112"/>
  </clipPath>
 </defs>
</svg>
