<?xml version="1.0" encoding="utf-8" standalone="no"?>
<!DOCTYPE svg PUBLIC "-//W3C//DTD SVG 1.1//EN"
  "http://www.w3.org/Graphics/SVG/1.1/DTD/svg11.dtd">
<svg xmlns:xlink="http://www.w3.org/1999/xlink" width="452.841725pt" height="301.508641pt" viewBox="0 0 452.841725 301.508641" xmlns="http://www.w3.org/2000/svg" version="1.1">
 <metadata>
  <rdf:RDF xmlns:dc="http://purl.org/dc/elements/1.1/" xmlns:cc="http://creativecommons.org/ns#" xmlns:rdf="http://www.w3.org/1999/02/22-rdf-syntax-ns#">
   <cc:Work>
    <dc:type rdf:resource="http://purl.org/dc/dcmitype/StillImage"/>
    <dc:date>2023-02-24T00:03:49.018363</dc:date>
    <dc:format>image/svg+xml</dc:format>
    <dc:creator>
     <cc:Agent>
      <dc:title>Matplotlib v3.6.2, https://matplotlib.org/</dc:title>
     </cc:Agent>
    </dc:creator>
   </cc:Work>
  </rdf:RDF>
 </metadata>
 <defs>
  <style type="text/css">*{stroke-linejoin: round; stroke-linecap: butt}</style>
 </defs>
 <g id="figure_1">
  <g id="patch_1">
   <path d="M 0 301.508641 
L 452.841725 301.508641 
L 452.841725 0 
L 0 0 
z
" style="fill: #ffffff"/>
  </g>
  <g id="axes_1">
   <g id="patch_2">
    <path d="M 38.668125 277.248797 
L 304.780125 277.248797 
L 304.780125 11.136797 
L 38.668125 11.136797 
z
" style="fill: #ffffff"/>
   </g>
   <g id="PathCollection_1">
    <defs>
     <path id="m1c77bb87b2" d="M 0 4.472136 
C 1.186024 4.472136 2.323632 4.000923 3.162278 3.162278 
C 4.000923 2.323632 4.472136 1.186024 4.472136 0 
C 4.472136 -1.186024 4.000923 -2.323632 3.162278 -3.162278 
C 2.323632 -4.000923 1.186024 -4.472136 0 -4.472136 
C -1.186024 -4.472136 -2.323632 -4.000923 -3.162278 -3.162278 
C -4.000923 -2.323632 -4.472136 -1.186024 -4.472136 0 
C -4.472136 1.186024 -4.000923 2.323632 -3.162278 3.162278 
C -2.323632 4.000923 -1.186024 4.472136 0 4.472136 
z
" style="stroke: #000000"/>
    </defs>
    <g clip-path="url(#pef7326ae3b)">
     <use xlink:href="#m1c77bb87b2" x="188.40469" y="277.248797" style="fill: #ff0000; stroke: #000000"/>
     <use xlink:href="#m1c77bb87b2" x="230.448834" y="181.571997" style="fill: #ff0000; stroke: #000000"/>
     <use xlink:href="#m1c77bb87b2" x="196.641522" y="119.870382" style="fill: #ff0000; stroke: #000000"/>
     <use xlink:href="#m1c77bb87b2" x="133.413976" y="88.47471" style="fill: #ff0000; stroke: #000000"/>
     <use xlink:href="#m1c77bb87b2" x="38.668125" y="127.512231" style="fill: #ff0000; stroke: #000000"/>
    </g>
   </g>
   <g id="PathCollection_2">
    <defs>
     <path id="mab3eee4aa7" d="M 0 -4.472136 
L -4.472136 4.472136 
L 4.472136 4.472136 
z
" style="stroke: #000000"/>
    </defs>
    <g clip-path="url(#pef7326ae3b)">
     <use xlink:href="#mab3eee4aa7" x="38.668125" y="277.248797" style="fill: #ff0000; stroke: #000000"/>
     <use xlink:href="#mab3eee4aa7" x="226.004764" y="183.181975" style="fill: #ff0000; stroke: #000000"/>
     <use xlink:href="#mab3eee4aa7" x="194.879639" y="121.514954" style="fill: #ff0000; stroke: #000000"/>
     <use xlink:href="#mab3eee4aa7" x="130.313771" y="93.397117" style="fill: #ff0000; stroke: #000000"/>
     <use xlink:href="#mab3eee4aa7" x="38.668125" y="277.248797" style="fill: #ff0000; stroke: #000000"/>
    </g>
   </g>
   <g id="PathCollection_3">
    <defs>
     <path id="m560c71d62e" d="M 0 4.472136 
C 1.186024 4.472136 2.323632 4.000923 3.162278 3.162278 
C 4.000923 2.323632 4.472136 1.186024 4.472136 0 
C 4.472136 -1.186024 4.000923 -2.323632 3.162278 -3.162278 
C 2.323632 -4.000923 1.186024 -4.472136 0 -4.472136 
C -1.186024 -4.472136 -2.323632 -4.000923 -3.162278 -3.162278 
C -4.000923 -2.323632 -4.472136 -1.186024 -4.472136 0 
C -4.472136 1.186024 -4.000923 2.323632 -3.162278 3.162278 
C -2.323632 4.000923 -1.186024 4.472136 0 4.472136 
z
" style="stroke: #000000"/>
    </defs>
    <g clip-path="url(#pef7326ae3b)">
     <use xlink:href="#m560c71d62e" x="210.036491" y="277.248797" style="fill: #0000ff; stroke: #000000"/>
     <use xlink:href="#m560c71d62e" x="253.412304" y="169.665481" style="fill: #0000ff; stroke: #000000"/>
     <use xlink:href="#m560c71d62e" x="218.646545" y="97.55423" style="fill: #0000ff; stroke: #000000"/>
     <use xlink:href="#m560c71d62e" x="146.912729" y="61.161196" style="fill: #0000ff; stroke: #000000"/>
     <use xlink:href="#m560c71d62e" x="38.668125" y="105.88043" style="fill: #0000ff; stroke: #000000"/>
    </g>
   </g>
   <g id="PathCollection_4">
    <defs>
     <path id="m43167df328" d="M 0 -4.472136 
L -4.472136 4.472136 
L 4.472136 4.472136 
z
" style="stroke: #000000"/>
    </defs>
    <g clip-path="url(#pef7326ae3b)">
     <use xlink:href="#m43167df328" x="38.668125" y="277.248797" style="fill: #0000ff; stroke: #000000"/>
     <use xlink:href="#m43167df328" x="251.498737" y="170.601086" style="fill: #0000ff; stroke: #000000"/>
     <use xlink:href="#m43167df328" x="216.842084" y="99.646092" style="fill: #0000ff; stroke: #000000"/>
     <use xlink:href="#m43167df328" x="144.871428" y="64.519751" style="fill: #0000ff; stroke: #000000"/>
     <use xlink:href="#m43167df328" x="38.668125" y="277.248797" style="fill: #0000ff; stroke: #000000"/>
    </g>
   </g>
   <g id="PathCollection_5">
    <defs>
     <path id="m30b4594ad0" d="M 0 4.472136 
C 1.186024 4.472136 2.323632 4.000923 3.162278 3.162278 
C 4.000923 2.323632 4.472136 1.186024 4.472136 0 
C 4.472136 -1.186024 4.000923 -2.323632 3.162278 -3.162278 
C 2.323632 -4.000923 1.186024 -4.472136 0 -4.472136 
C -1.186024 -4.472136 -2.323632 -4.000923 -3.162278 -3.162278 
C -4.000923 -2.323632 -4.472136 -1.186024 -4.472136 0 
C -4.472136 1.186024 -4.000923 2.323632 -3.162278 3.162278 
C -2.323632 4.000923 -1.186024 4.472136 0 4.472136 
z
" style="stroke: #000000"/>
    </defs>
    <g clip-path="url(#pef7326ae3b)">
     <use xlink:href="#m30b4594ad0" x="227.572385" y="277.248797" style="fill: #008000; stroke: #000000"/>
     <use xlink:href="#m30b4594ad0" x="273.764106" y="159.459864" style="fill: #008000; stroke: #000000"/>
     <use xlink:href="#m30b4594ad0" x="237.89487" y="78.337173" style="fill: #008000; stroke: #000000"/>
     <use xlink:href="#m30b4594ad0" x="158.13822" y="38.951488" style="fill: #008000; stroke: #000000"/>
     <use xlink:href="#m30b4594ad0" x="38.668125" y="88.344537" style="fill: #008000; stroke: #000000"/>
    </g>
   </g>
   <g id="PathCollection_6">
    <defs>
     <path id="mcc670e9677" d="M 0 -4.472136 
L -4.472136 4.472136 
L 4.472136 4.472136 
z
" style="stroke: #000000"/>
    </defs>
    <g clip-path="url(#pef7326ae3b)">
     <use xlink:href="#mcc670e9677" x="38.668125" y="277.248797" style="fill: #008000; stroke: #000000"/>
     <use xlink:href="#mcc670e9677" x="272.36724" y="160.087667" style="fill: #008000; stroke: #000000"/>
     <use xlink:href="#mcc670e9677" x="235.467041" y="80.7976" style="fill: #008000; stroke: #000000"/>
     <use xlink:href="#mcc670e9677" x="156.616503" y="41.214106" style="fill: #008000; stroke: #000000"/>
     <use xlink:href="#mcc670e9677" x="38.668125" y="277.248797" style="fill: #008000; stroke: #000000"/>
    </g>
   </g>
   <g id="matplotlib.axis_1">
    <g id="xtick_1">
     <g id="line2d_1">
      <defs>
       <path id="madd2444146" d="M 0 0 
L 0 3.5 
" style="stroke: #000000; stroke-width: 0.8"/>
      </defs>
      <g>
       <use xlink:href="#madd2444146" x="38.668125" y="277.248797" style="stroke: #000000; stroke-width: 0.8"/>
      </g>
     </g>
     <g id="text_1">
      <!-- 0 -->
      <g transform="translate(35.609609 292.122391) scale(0.11 -0.11)">
       <defs>
        <path id="ArialMT-30" d="M 266 2259 
Q 266 3072 433 3567 
Q 600 4063 929 4331 
Q 1259 4600 1759 4600 
Q 2128 4600 2406 4451 
Q 2684 4303 2865 4023 
Q 3047 3744 3150 3342 
Q 3253 2941 3253 2259 
Q 3253 1453 3087 958 
Q 2922 463 2592 192 
Q 2263 -78 1759 -78 
Q 1097 -78 719 397 
Q 266 969 266 2259 
z
M 844 2259 
Q 844 1131 1108 757 
Q 1372 384 1759 384 
Q 2147 384 2411 759 
Q 2675 1134 2675 2259 
Q 2675 3391 2411 3762 
Q 2147 4134 1753 4134 
Q 1366 4134 1134 3806 
Q 844 3388 844 2259 
z
" transform="scale(0.015625)"/>
       </defs>
       <use xlink:href="#ArialMT-30"/>
      </g>
     </g>
    </g>
    <g id="xtick_2">
     <g id="line2d_2">
      <g>
       <use xlink:href="#madd2444146" x="83.020125" y="277.248797" style="stroke: #000000; stroke-width: 0.8"/>
      </g>
     </g>
     <g id="text_2">
      <!-- 200 -->
      <g transform="translate(73.844578 292.122391) scale(0.11 -0.11)">
       <defs>
        <path id="ArialMT-32" d="M 3222 541 
L 3222 0 
L 194 0 
Q 188 203 259 391 
Q 375 700 629 1000 
Q 884 1300 1366 1694 
Q 2113 2306 2375 2664 
Q 2638 3022 2638 3341 
Q 2638 3675 2398 3904 
Q 2159 4134 1775 4134 
Q 1369 4134 1125 3890 
Q 881 3647 878 3216 
L 300 3275 
Q 359 3922 746 4261 
Q 1134 4600 1788 4600 
Q 2447 4600 2831 4234 
Q 3216 3869 3216 3328 
Q 3216 3053 3103 2787 
Q 2991 2522 2730 2228 
Q 2469 1934 1863 1422 
Q 1356 997 1212 845 
Q 1069 694 975 541 
L 3222 541 
z
" transform="scale(0.015625)"/>
       </defs>
       <use xlink:href="#ArialMT-32"/>
       <use xlink:href="#ArialMT-30" x="55.615234"/>
       <use xlink:href="#ArialMT-30" x="111.230469"/>
      </g>
     </g>
    </g>
    <g id="xtick_3">
     <g id="line2d_3">
      <g>
       <use xlink:href="#madd2444146" x="127.372125" y="277.248797" style="stroke: #000000; stroke-width: 0.8"/>
      </g>
     </g>
     <g id="text_3">
      <!-- 400 -->
      <g transform="translate(118.196578 292.122391) scale(0.11 -0.11)">
       <defs>
        <path id="ArialMT-34" d="M 2069 0 
L 2069 1097 
L 81 1097 
L 81 1613 
L 2172 4581 
L 2631 4581 
L 2631 1613 
L 3250 1613 
L 3250 1097 
L 2631 1097 
L 2631 0 
L 2069 0 
z
M 2069 1613 
L 2069 3678 
L 634 1613 
L 2069 1613 
z
" transform="scale(0.015625)"/>
       </defs>
       <use xlink:href="#ArialMT-34"/>
       <use xlink:href="#ArialMT-30" x="55.615234"/>
       <use xlink:href="#ArialMT-30" x="111.230469"/>
      </g>
     </g>
    </g>
    <g id="xtick_4">
     <g id="line2d_4">
      <g>
       <use xlink:href="#madd2444146" x="171.724125" y="277.248797" style="stroke: #000000; stroke-width: 0.8"/>
      </g>
     </g>
     <g id="text_4">
      <!-- 600 -->
      <g transform="translate(162.548578 292.122391) scale(0.11 -0.11)">
       <defs>
        <path id="ArialMT-36" d="M 3184 3459 
L 2625 3416 
Q 2550 3747 2413 3897 
Q 2184 4138 1850 4138 
Q 1581 4138 1378 3988 
Q 1113 3794 959 3422 
Q 806 3050 800 2363 
Q 1003 2672 1297 2822 
Q 1591 2972 1913 2972 
Q 2475 2972 2870 2558 
Q 3266 2144 3266 1488 
Q 3266 1056 3080 686 
Q 2894 316 2569 119 
Q 2244 -78 1831 -78 
Q 1128 -78 684 439 
Q 241 956 241 2144 
Q 241 3472 731 4075 
Q 1159 4600 1884 4600 
Q 2425 4600 2770 4297 
Q 3116 3994 3184 3459 
z
M 888 1484 
Q 888 1194 1011 928 
Q 1134 663 1356 523 
Q 1578 384 1822 384 
Q 2178 384 2434 671 
Q 2691 959 2691 1453 
Q 2691 1928 2437 2201 
Q 2184 2475 1800 2475 
Q 1419 2475 1153 2201 
Q 888 1928 888 1484 
z
" transform="scale(0.015625)"/>
       </defs>
       <use xlink:href="#ArialMT-36"/>
       <use xlink:href="#ArialMT-30" x="55.615234"/>
       <use xlink:href="#ArialMT-30" x="111.230469"/>
      </g>
     </g>
    </g>
    <g id="xtick_5">
     <g id="line2d_5">
      <g>
       <use xlink:href="#madd2444146" x="216.076125" y="277.248797" style="stroke: #000000; stroke-width: 0.8"/>
      </g>
     </g>
     <g id="text_5">
      <!-- 800 -->
      <g transform="translate(206.900578 292.122391) scale(0.11 -0.11)">
       <defs>
        <path id="ArialMT-38" d="M 1131 2484 
Q 781 2613 612 2850 
Q 444 3088 444 3419 
Q 444 3919 803 4259 
Q 1163 4600 1759 4600 
Q 2359 4600 2725 4251 
Q 3091 3903 3091 3403 
Q 3091 3084 2923 2848 
Q 2756 2613 2416 2484 
Q 2838 2347 3058 2040 
Q 3278 1734 3278 1309 
Q 3278 722 2862 322 
Q 2447 -78 1769 -78 
Q 1091 -78 675 323 
Q 259 725 259 1325 
Q 259 1772 486 2073 
Q 713 2375 1131 2484 
z
M 1019 3438 
Q 1019 3113 1228 2906 
Q 1438 2700 1772 2700 
Q 2097 2700 2305 2904 
Q 2513 3109 2513 3406 
Q 2513 3716 2298 3927 
Q 2084 4138 1766 4138 
Q 1444 4138 1231 3931 
Q 1019 3725 1019 3438 
z
M 838 1322 
Q 838 1081 952 856 
Q 1066 631 1291 507 
Q 1516 384 1775 384 
Q 2178 384 2440 643 
Q 2703 903 2703 1303 
Q 2703 1709 2433 1975 
Q 2163 2241 1756 2241 
Q 1359 2241 1098 1978 
Q 838 1716 838 1322 
z
" transform="scale(0.015625)"/>
       </defs>
       <use xlink:href="#ArialMT-38"/>
       <use xlink:href="#ArialMT-30" x="55.615234"/>
       <use xlink:href="#ArialMT-30" x="111.230469"/>
      </g>
     </g>
    </g>
    <g id="xtick_6">
     <g id="line2d_6">
      <g>
       <use xlink:href="#madd2444146" x="260.428125" y="277.248797" style="stroke: #000000; stroke-width: 0.8"/>
      </g>
     </g>
     <g id="text_6">
      <!-- 1000 -->
      <g transform="translate(248.194063 292.122391) scale(0.11 -0.11)">
       <defs>
        <path id="ArialMT-31" d="M 2384 0 
L 1822 0 
L 1822 3584 
Q 1619 3391 1289 3197 
Q 959 3003 697 2906 
L 697 3450 
Q 1169 3672 1522 3987 
Q 1875 4303 2022 4600 
L 2384 4600 
L 2384 0 
z
" transform="scale(0.015625)"/>
       </defs>
       <use xlink:href="#ArialMT-31"/>
       <use xlink:href="#ArialMT-30" x="55.615234"/>
       <use xlink:href="#ArialMT-30" x="111.230469"/>
       <use xlink:href="#ArialMT-30" x="166.845703"/>
      </g>
     </g>
    </g>
    <g id="xtick_7">
     <g id="line2d_7">
      <g>
       <use xlink:href="#madd2444146" x="304.780125" y="277.248797" style="stroke: #000000; stroke-width: 0.8"/>
      </g>
     </g>
     <g id="text_7">
      <!-- 1200 -->
      <g transform="translate(292.546063 292.122391) scale(0.11 -0.11)">
       <use xlink:href="#ArialMT-31"/>
       <use xlink:href="#ArialMT-32" x="55.615234"/>
       <use xlink:href="#ArialMT-30" x="111.230469"/>
       <use xlink:href="#ArialMT-30" x="166.845703"/>
      </g>
     </g>
    </g>
   </g>
   <g id="matplotlib.axis_2">
    <g id="ytick_1">
     <g id="line2d_8">
      <defs>
       <path id="m6a7270b85e" d="M 0 0 
L -3.5 0 
" style="stroke: #000000; stroke-width: 0.8"/>
      </defs>
      <g>
       <use xlink:href="#m6a7270b85e" x="38.668125" y="277.248797" style="stroke: #000000; stroke-width: 0.8"/>
      </g>
     </g>
     <g id="text_8">
      <!-- 0 -->
      <g transform="translate(25.551094 281.185594) scale(0.11 -0.11)">
       <use xlink:href="#ArialMT-30"/>
      </g>
     </g>
    </g>
    <g id="ytick_2">
     <g id="line2d_9">
      <g>
       <use xlink:href="#m6a7270b85e" x="38.668125" y="232.896797" style="stroke: #000000; stroke-width: 0.8"/>
      </g>
     </g>
     <g id="text_9">
      <!-- 200 -->
      <g transform="translate(13.317031 236.833594) scale(0.11 -0.11)">
       <use xlink:href="#ArialMT-32"/>
       <use xlink:href="#ArialMT-30" x="55.615234"/>
       <use xlink:href="#ArialMT-30" x="111.230469"/>
      </g>
     </g>
    </g>
    <g id="ytick_3">
     <g id="line2d_10">
      <g>
       <use xlink:href="#m6a7270b85e" x="38.668125" y="188.544797" style="stroke: #000000; stroke-width: 0.8"/>
      </g>
     </g>
     <g id="text_10">
      <!-- 400 -->
      <g transform="translate(13.317031 192.481594) scale(0.11 -0.11)">
       <use xlink:href="#ArialMT-34"/>
       <use xlink:href="#ArialMT-30" x="55.615234"/>
       <use xlink:href="#ArialMT-30" x="111.230469"/>
      </g>
     </g>
    </g>
    <g id="ytick_4">
     <g id="line2d_11">
      <g>
       <use xlink:href="#m6a7270b85e" x="38.668125" y="144.192797" style="stroke: #000000; stroke-width: 0.8"/>
      </g>
     </g>
     <g id="text_11">
      <!-- 600 -->
      <g transform="translate(13.317031 148.129594) scale(0.11 -0.11)">
       <use xlink:href="#ArialMT-36"/>
       <use xlink:href="#ArialMT-30" x="55.615234"/>
       <use xlink:href="#ArialMT-30" x="111.230469"/>
      </g>
     </g>
    </g>
    <g id="ytick_5">
     <g id="line2d_12">
      <g>
       <use xlink:href="#m6a7270b85e" x="38.668125" y="99.840797" style="stroke: #000000; stroke-width: 0.8"/>
      </g>
     </g>
     <g id="text_12">
      <!-- 800 -->
      <g transform="translate(13.317031 103.777594) scale(0.11 -0.11)">
       <use xlink:href="#ArialMT-38"/>
       <use xlink:href="#ArialMT-30" x="55.615234"/>
       <use xlink:href="#ArialMT-30" x="111.230469"/>
      </g>
     </g>
    </g>
    <g id="ytick_6">
     <g id="line2d_13">
      <g>
       <use xlink:href="#m6a7270b85e" x="38.668125" y="55.488797" style="stroke: #000000; stroke-width: 0.8"/>
      </g>
     </g>
     <g id="text_13">
      <!-- 1000 -->
      <g transform="translate(7.2 59.425594) scale(0.11 -0.11)">
       <use xlink:href="#ArialMT-31"/>
       <use xlink:href="#ArialMT-30" x="55.615234"/>
       <use xlink:href="#ArialMT-30" x="111.230469"/>
       <use xlink:href="#ArialMT-30" x="166.845703"/>
      </g>
     </g>
    </g>
    <g id="ytick_7">
     <g id="line2d_14">
      <g>
       <use xlink:href="#m6a7270b85e" x="38.668125" y="11.136797" style="stroke: #000000; stroke-width: 0.8"/>
      </g>
     </g>
     <g id="text_14">
      <!-- 1200 -->
      <g transform="translate(7.2 15.073594) scale(0.11 -0.11)">
       <use xlink:href="#ArialMT-31"/>
       <use xlink:href="#ArialMT-32" x="55.615234"/>
       <use xlink:href="#ArialMT-30" x="111.230469"/>
       <use xlink:href="#ArialMT-30" x="166.845703"/>
      </g>
     </g>
    </g>
   </g>
   <g id="PathCollection_7">
    <path d="M -1 141.155868 
L -0.649324 140.913938 
L -0.42086 140.756516 
L -0.010016 140.474695 
L 0.511412 140.117208 
L 0.629293 140.036754 
L 1.268601 139.601555 
L 1.45059 139.4779 
L 1.907909 139.168586 
L 2.396038 138.838591 
L 2.547217 138.736857 
L 3.186525 138.30763 
L 3.348255 138.199283 
L 3.825833 137.880828 
L 4.307216 137.559975 
L 4.465141 137.455205 
L 5.104449 137.032061 
L 5.273121 136.920667 
L 5.743757 136.611316 
L 6.245942 136.281359 
L 6.383066 136.19169 
L 7.022374 135.774733 
L 7.226202 135.642051 
L 7.661682 135.359934 
L 8.213241 135.002743 
L 8.30099 134.94619 
L 8.940298 134.535522 
L 9.208548 134.363435 
L 9.579606 134.126551 
L 10.21017 133.724127 
L 10.218914 133.718573 
L 10.858222 133.314292 
L 11.221239 133.084818 
L 11.49753 132.911029 
L 12.136839 132.509458 
L 12.238983 132.44551 
L 12.776147 132.110894 
L 13.265396 131.806202 
L 13.415455 131.713218 
L 14.054763 131.31821 
L 14.300121 131.166894 
L 14.694071 130.92517 
L 15.333379 130.533021 
L 15.34228 130.527586 
L 15.972687 130.144595 
L 16.394673 129.888278 
L 16.611995 129.756953 
L 17.251303 129.371532 
L 17.455112 129.24897 
L 17.890611 128.988437 
L 18.52387 128.609662 
L 18.52992 128.606062 
L 19.169228 128.227445 
L 19.60343 127.970354 
L 19.808536 127.849549 
L 20.447844 127.474012 
L 20.691787 127.331046 
L 21.087152 127.100567 
L 21.72646 126.728169 
L 21.789271 126.691737 
L 22.365768 126.359146 
L 22.897475 126.052429 
L 23.005076 125.990693 
L 23.644384 125.625317 
L 24.016117 125.413121 
L 24.283693 125.261211 
L 24.923001 124.899105 
L 25.144834 124.773813 
L 25.562309 124.539315 
L 26.201617 124.180535 
L 26.283994 124.134505 
L 26.840925 123.825027 
L 27.434518 123.495197 
L 27.480233 123.469936 
L 28.119541 123.11837 
L 28.597096 122.855889 
L 28.758849 122.767481 
L 29.398157 122.419362 
L 29.771178 122.216581 
L 30.037466 122.072639 
L 30.676774 121.728022 
L 30.957182 121.577273 
L 31.316082 121.385426 
L 31.95539 121.044363 
L 32.155541 120.937964 
L 32.594698 120.705855 
L 33.234006 120.368398 
L 33.366703 120.298656 
L 33.873314 120.033939 
L 34.512622 119.700139 
L 34.591133 119.659348 
L 35.15193 119.369686 
L 35.791239 119.039593 
L 35.829314 119.02004 
L 36.430547 118.713104 
L 37.069855 118.386767 
L 37.081747 118.380732 
L 37.709163 118.064198 
L 38.348471 117.741665 
L 38.348952 117.741424 
L 38.987779 117.42297 
L 39.627087 117.104289 
L 39.631472 117.102116 
L 40.266395 116.789421 
L 40.905703 116.474637 
L 40.929871 116.462808 
L 41.545011 116.163549 
L 42.18432 115.852707 
L 42.244734 115.8235 
L 42.823628 115.545351 
L 43.462936 115.238494 
L 43.576675 115.184191 
L 44.102244 114.934821 
L 44.741552 114.631991 
L 44.926333 114.544883 
L 45.38086 114.331949 
L 46.020168 114.033188 
L 46.294374 113.905575 
L 46.659476 113.736727 
L 47.298784 113.442073 
L 47.681497 113.266267 
L 47.938093 113.14914 
L 48.577401 112.858633 
L 49.08843 112.626959 
L 49.216709 112.569174 
L 49.856017 112.282852 
L 50.495325 111.996924 
L 50.5162 111.987651 
L 51.134633 111.71471 
L 51.773941 111.433047 
L 51.967255 111.348343 
L 52.413249 111.154189 
L 53.052557 110.876825 
L 53.440838 110.709035 
L 53.691866 110.601265 
L 54.331174 110.328232 
L 54.937851 110.069727 
L 54.970482 110.055914 
L 55.60979 109.787245 
L 56.249098 109.519167 
L 56.461984 109.430418 
L 56.888406 109.253833 
L 57.527714 108.990192 
L 58.012295 108.79111 
L 58.167022 108.727969 
L 58.80633 108.468793 
L 59.445639 108.210316 
L 59.591353 108.151802 
L 60.084947 107.954935 
L 60.724255 107.700992 
L 61.20086 107.512494 
L 61.363563 107.448583 
L 62.002871 107.1992 
L 62.642179 106.950622 
L 62.842697 106.873186 
L 63.281487 106.704901 
L 63.920795 106.460947 
L 64.518181 106.233878 
L 64.560103 106.218053 
L 65.199411 105.978746 
L 65.83872 105.740349 
L 66.23194 105.59457 
L 66.478028 105.503975 
L 67.117336 105.270285 
L 67.756644 105.037568 
L 67.984437 104.955262 
L 68.395952 104.807624 
L 69.03526 104.579671 
L 69.674568 104.352755 
L 69.779156 104.315954 
L 70.313876 104.129145 
L 70.953184 103.907049 
L 71.592493 103.68605 
L 71.619961 103.676646 
L 72.231801 103.468675 
L 72.871109 103.252549 
L 73.510417 103.037583 
L 73.511156 103.037337 
L 74.149725 102.826338 
L 74.789033 102.616294 
L 75.428341 102.407472 
L 75.457551 102.398029 
L 76.067649 102.202248 
L 76.706957 101.998394 
L 77.346266 101.795823 
L 77.464551 101.758721 
L 77.985574 101.596505 
L 78.624882 101.398946 
L 79.26419 101.20273 
L 79.538248 101.119413 
L 79.903498 101.009202 
L 80.542806 100.818038 
L 81.182114 100.628277 
L 81.685551 100.480105 
L 81.821422 100.440417 
L 82.46073 100.255745 
L 83.100039 100.072534 
L 83.739347 99.890808 
L 83.917301 99.840797 
L 84.378655 99.71213 
L 85.017963 99.535562 
L 85.657271 99.360536 
L 86.24366 99.201489 
L 86.296579 99.187246 
L 86.935887 99.017408 
L 87.575195 98.849169 
L 88.214503 98.682552 
L 88.681491 98.562181 
L 88.853811 98.518109 
L 89.49312 98.356739 
L 90.132428 98.197047 
L 90.771736 98.039058 
L 91.247558 97.922873 
L 91.411044 97.883267 
L 92.050352 97.730577 
L 92.68966 97.579644 
L 93.328968 97.430491 
L 93.966453 97.283564 
L 93.968276 97.283148 
L 94.607584 97.139342 
L 95.246893 96.997369 
L 95.886201 96.857254 
L 96.525509 96.71902 
L 96.876699 96.644256 
L 97.164817 96.583415 
L 97.804125 96.450597 
L 98.443433 96.319711 
L 99.082741 96.190781 
L 99.722049 96.063832 
L 100.023916 96.004948 
L 100.361357 95.939663 
L 101.000666 95.818189 
L 101.639974 95.698745 
L 102.279282 95.581355 
L 102.91859 95.466041 
L 103.485776 95.36564 
L 103.557898 95.352979 
L 104.197206 95.243192 
L 104.836514 95.135529 
L 105.475822 95.030015 
L 106.11513 94.926671 
L 106.754439 94.825522 
L 107.393747 94.726592 
L 107.395472 94.726332 
L 108.033055 94.63103 
L 108.672363 94.537711 
L 109.311671 94.446654 
L 109.950979 94.357883 
L 110.590287 94.271421 
L 111.229595 94.187292 
L 111.868903 94.105518 
L 112.018174 94.087024 
L 112.508211 94.026832 
L 113.14752 93.950734 
L 113.786828 93.877034 
L 114.426136 93.805753 
L 115.065444 93.736913 
L 115.704752 93.670539 
L 116.34406 93.606651 
L 116.983368 93.545274 
L 117.622676 93.486429 
L 118.06275 93.447716 
L 118.261984 93.430343 
L 118.901293 93.377253 
L 119.540601 93.326732 
L 120.179909 93.278803 
L 120.819217 93.233487 
L 121.458525 93.190806 
L 122.097833 93.150783 
L 122.737141 93.113438 
L 123.376449 93.078794 
L 124.015757 93.046873 
L 124.655066 93.017695 
L 125.294374 92.991282 
L 125.933682 92.967656 
L 126.57299 92.946838 
L 127.212298 92.928849 
L 127.851606 92.913711 
L 128.490914 92.901444 
L 129.130222 92.892069 
L 129.76953 92.885608 
L 130.408839 92.88208 
L 131.048147 92.881508 
L 131.687455 92.88391 
L 132.326763 92.889309 
L 132.966071 92.897723 
L 133.605379 92.909175 
L 134.244687 92.923683 
L 134.883995 92.941267 
L 135.523303 92.961949 
L 136.162611 92.985747 
L 136.80192 93.012682 
L 137.441228 93.042772 
L 138.080536 93.076039 
L 138.719844 93.112501 
L 139.359152 93.152177 
L 139.99846 93.195088 
L 140.637768 93.241252 
L 141.277076 93.290687 
L 141.916384 93.343415 
L 142.555693 93.399452 
L 143.075619 93.447716 
L 143.195001 93.458946 
L 143.834309 93.522382 
L 144.473617 93.589221 
L 145.112925 93.659483 
L 145.752233 93.733187 
L 146.391541 93.810349 
L 147.030849 93.89099 
L 147.670157 93.975127 
L 148.309466 94.062778 
L 148.479659 94.087024 
L 148.948774 94.154729 
L 149.588082 94.250549 
L 150.22739 94.349975 
L 150.866698 94.453027 
L 151.506006 94.559723 
L 152.145314 94.670079 
L 152.460911 94.726332 
L 152.784622 94.784775 
L 153.42393 94.903853 
L 154.063239 95.026684 
L 154.702547 95.153288 
L 155.341855 95.28368 
L 155.732498 95.36564 
L 155.981163 95.418476 
L 156.620471 95.558075 
L 157.259779 95.701557 
L 157.899087 95.848938 
L 158.538395 96.000237 
L 158.55782 96.004948 
L 159.177703 96.157188 
L 159.817011 96.318186 
L 160.45632 96.483196 
L 161.065487 96.644256 
L 161.095628 96.652325 
L 161.734936 96.827382 
L 162.374244 97.006544 
L 163.013552 97.18983 
L 163.333435 97.283564 
L 163.65286 97.378324 
L 164.292168 97.572089 
L 164.931476 97.770072 
L 165.414654 97.922873 
L 165.570784 97.972855 
L 166.210093 98.181679 
L 166.849401 98.394818 
L 167.341491 98.562181 
L 167.488709 98.612862 
L 168.128017 98.837211 
L 168.767325 99.065973 
L 169.138962 99.201489 
L 169.406633 99.30028 
L 170.045941 99.540628 
L 170.685249 99.785491 
L 170.827099 99.840797 
L 171.324557 100.037095 
L 171.963866 100.293928 
L 172.419196 100.480105 
L 172.603174 100.556236 
L 173.242482 100.82535 
L 173.88179 101.099166 
L 173.928287 101.119413 
L 174.521098 101.380645 
L 175.160406 101.667145 
L 175.361452 101.758721 
L 175.799714 101.960731 
L 176.439022 102.260241 
L 176.728476 102.398029 
L 177.07833 102.566551 
L 177.717639 102.879405 
L 178.035372 103.037337 
L 178.356947 103.199076 
L 178.996255 103.525615 
L 179.287476 103.676646 
L 179.635563 103.859304 
L 180.274871 104.199881 
L 180.489541 104.315954 
L 180.914179 104.548268 
L 181.553487 104.903244 
L 181.645823 104.955262 
L 182.192795 105.267033 
L 182.759141 105.59457 
L 182.832103 105.637264 
L 183.471411 106.016699 
L 183.83218 106.233878 
L 184.11072 106.403528 
L 184.750028 106.798404 
L 184.869436 106.873186 
L 185.389336 107.202606 
L 185.871714 107.512494 
L 186.028644 107.614493 
L 186.667952 108.035707 
L 186.841797 108.151802 
L 187.30726 108.466291 
L 187.78161 108.79111 
L 187.946568 108.905395 
L 188.585876 109.354226 
L 188.692985 109.430418 
L 189.225184 109.813444 
L 189.576651 110.069727 
L 189.864493 110.282081 
L 190.435761 110.709035 
L 190.503801 110.760485 
L 191.143109 111.250164 
L 191.269659 111.348343 
L 191.782417 111.750826 
L 192.080322 111.987651 
L 192.421725 112.262255 
L 192.869462 112.626959 
L 193.061033 112.784846 
L 193.637888 113.266267 
L 193.700341 113.319005 
L 194.339649 113.865625 
L 194.385799 113.905575 
L 194.978957 114.425145 
L 195.113982 114.544883 
L 195.618266 114.997396 
L 195.823898 115.184191 
L 196.257574 115.582839 
L 196.516209 115.8235 
L 196.896882 116.181954 
L 197.191548 116.462808 
L 197.53619 116.795238 
L 197.850522 117.102116 
L 198.175498 117.423207 
L 198.493715 117.741424 
L 198.814806 118.0664 
L 199.121684 118.380732 
L 199.454114 118.725374 
L 199.734968 119.02004 
L 200.093422 119.400713 
L 200.334082 119.659348 
L 200.73273 120.093024 
L 200.919526 120.298656 
L 201.372039 120.80294 
L 201.491777 120.937964 
L 202.011347 121.531123 
L 202.051297 121.577273 
L 202.597917 122.216581 
L 202.650655 122.279034 
L 203.132076 122.855889 
L 203.289963 123.04746 
L 203.654666 123.495197 
L 203.929271 123.8366 
L 204.166096 124.134505 
L 204.568579 124.647263 
L 204.666758 124.773813 
L 205.156437 125.413121 
L 205.207887 125.481161 
L 205.634841 126.052429 
L 205.847195 126.340271 
L 206.103478 126.691737 
L 206.486503 127.223936 
L 206.562696 127.331046 
L 207.011527 127.970354 
L 207.125811 128.135312 
L 207.450631 128.609662 
L 207.76512 129.075125 
L 207.881215 129.24897 
L 208.302429 129.888278 
L 208.404428 130.045208 
L 208.714316 130.527586 
L 209.043736 131.047486 
L 209.118518 131.166894 
L 209.513394 131.806202 
L 209.683044 132.084742 
L 209.900223 132.44551 
L 210.279658 133.084818 
L 210.322352 133.157781 
L 210.649889 133.724127 
L 210.96166 134.271099 
L 211.013678 134.363435 
L 211.368654 135.002743 
L 211.600968 135.427381 
L 211.717041 135.642051 
L 212.057618 136.281359 
L 212.240276 136.629446 
L 212.391307 136.920667 
L 212.717846 137.559975 
L 212.879584 137.881549 
L 213.037517 138.199283 
L 213.35037 138.838591 
L 213.518893 139.188446 
L 213.656681 139.4779 
L 213.95619 140.117208 
L 214.158201 140.55547 
L 214.249777 140.756516 
L 214.536277 141.395824 
L 214.797509 141.988634 
L 214.817756 142.035132 
L 215.091572 142.67444 
L 215.360686 143.313748 
L 215.436817 143.497726 
L 215.622993 143.953056 
L 215.879826 144.592364 
L 216.076125 145.089822 
L 216.131431 145.231673 
L 216.376294 145.870981 
L 216.616642 146.510289 
L 216.715433 146.77796 
L 216.850949 147.149597 
L 217.079711 147.788905 
L 217.304059 148.428213 
L 217.354741 148.57543 
L 217.522104 149.067521 
L 217.735243 149.706829 
L 217.944067 150.346137 
L 217.994049 150.502268 
L 218.14685 150.985446 
L 218.344833 151.624754 
L 218.538598 152.264062 
L 218.633357 152.583487 
L 218.727092 152.90337 
L 218.910378 153.542678 
L 219.08954 154.181986 
L 219.264597 154.821294 
L 219.272666 154.851435 
L 219.433726 155.460602 
L 219.598736 156.09991 
L 219.759734 156.739218 
L 219.911974 157.359102 
L 219.916685 157.378527 
L 220.067984 158.017835 
L 220.215365 158.657143 
L 220.358847 159.296451 
L 220.498446 159.935759 
L 220.551282 160.184424 
L 220.633242 160.575067 
L 220.763634 161.214375 
L 220.890237 161.853683 
L 221.013069 162.492991 
L 221.132147 163.1323 
L 221.19059 163.456011 
L 221.246843 163.771608 
L 221.357199 164.410916 
L 221.463895 165.050224 
L 221.566947 165.689532 
L 221.666373 166.32884 
L 221.762193 166.968148 
L 221.829898 167.437263 
L 221.854144 167.607456 
L 221.941795 168.246764 
L 222.025932 168.886073 
L 222.106572 169.525381 
L 222.183735 170.164689 
L 222.257438 170.803997 
L 222.327701 171.443305 
L 222.39454 172.082613 
L 222.457976 172.721921 
L 222.469206 172.841303 
L 222.51747 173.361229 
L 222.573507 174.000537 
L 222.626234 174.639846 
L 222.67567 175.279154 
L 222.721834 175.918462 
L 222.764744 176.55777 
L 222.804421 177.197078 
L 222.840883 177.836386 
L 222.874149 178.475694 
L 222.90424 179.115002 
L 222.931175 179.75431 
L 222.954973 180.393618 
L 222.975655 181.032927 
L 222.993239 181.672235 
L 223.007747 182.311543 
L 223.019198 182.950851 
L 223.027613 183.590159 
L 223.033012 184.229467 
L 223.035414 184.868775 
L 223.034842 185.508083 
L 223.031314 186.147391 
L 223.024853 186.7867 
L 223.015478 187.426008 
L 223.003211 188.065316 
L 222.988073 188.704624 
L 222.970084 189.343932 
L 222.949266 189.98324 
L 222.92564 190.622548 
L 222.899227 191.261856 
L 222.870049 191.901164 
L 222.838127 192.540473 
L 222.803483 193.179781 
L 222.766139 193.819089 
L 222.726115 194.458397 
L 222.683435 195.097705 
L 222.638119 195.737013 
L 222.59019 196.376321 
L 222.539669 197.015629 
L 222.486579 197.654937 
L 222.469206 197.854172 
L 222.430493 198.294246 
L 222.371648 198.933554 
L 222.31027 199.572862 
L 222.246383 200.21217 
L 222.180009 200.851478 
L 222.111169 201.490786 
L 222.039888 202.130094 
L 221.966187 202.769402 
L 221.89009 203.40871 
L 221.829898 203.898748 
L 221.811404 204.048018 
L 221.72963 204.687327 
L 221.645501 205.326635 
L 221.559039 205.965943 
L 221.470268 206.605251 
L 221.379211 207.244559 
L 221.285892 207.883867 
L 221.19059 208.52145 
L 221.19033 208.523175 
L 221.0914 209.162483 
L 220.990251 209.801791 
L 220.886907 210.4411 
L 220.781392 211.080408 
L 220.67373 211.719716 
L 220.563943 212.359024 
L 220.551282 212.431146 
L 220.45088 212.998332 
L 220.335567 213.63764 
L 220.218176 214.276948 
L 220.098733 214.916256 
L 219.977259 215.555564 
L 219.911974 215.893006 
L 219.85309 216.194873 
L 219.72614 216.834181 
L 219.597211 217.473489 
L 219.466325 218.112797 
L 219.333507 218.752105 
L 219.272666 219.040223 
L 219.197902 219.391413 
L 219.059668 220.030721 
L 218.919553 220.670029 
L 218.77758 221.309337 
L 218.633774 221.948646 
L 218.633357 221.950468 
L 218.486431 222.587954 
L 218.337278 223.227262 
L 218.186345 223.86657 
L 218.033655 224.505878 
L 217.994049 224.669364 
L 217.877864 225.145186 
L 217.719875 225.784494 
L 217.560183 226.423802 
L 217.398813 227.06311 
L 217.354741 227.235431 
L 217.23437 227.702418 
L 217.067753 228.341727 
L 216.899514 228.981035 
L 216.729676 229.620343 
L 216.715433 229.673262 
L 216.556386 230.259651 
L 216.38136 230.898959 
L 216.204792 231.538267 
L 216.076125 231.999621 
L 216.026114 232.177575 
L 215.844388 232.816883 
L 215.661177 233.456191 
L 215.476505 234.0955 
L 215.436817 234.231371 
L 215.288645 234.734808 
L 215.098883 235.374116 
L 214.90772 236.013424 
L 214.797509 236.378674 
L 214.714192 236.652732 
L 214.517975 237.29204 
L 214.320416 237.931348 
L 214.158201 238.452371 
L 214.121099 238.570656 
L 213.918528 239.209964 
L 213.714674 239.849273 
L 213.518893 240.459371 
L 213.50945 240.488581 
L 213.300627 241.127889 
L 213.090584 241.767197 
L 212.879584 242.405766 
L 212.879339 242.406505 
L 212.664373 243.045813 
L 212.448247 243.685121 
L 212.240276 244.296961 
L 212.230872 244.324429 
L 212.009873 244.963737 
L 211.787776 245.603046 
L 211.600968 246.137766 
L 211.564167 246.242354 
L 211.33725 246.881662 
L 211.109298 247.52097 
L 210.96166 247.932485 
L 210.879354 248.160278 
L 210.646637 248.799586 
L 210.412946 249.438894 
L 210.322352 249.684982 
L 210.176573 250.078202 
L 209.938176 250.71751 
L 209.698869 251.356818 
L 209.683044 251.398741 
L 209.455975 251.996127 
L 209.212021 252.635435 
L 209.043736 253.074225 
L 208.9663 253.274743 
L 208.717722 253.914051 
L 208.468339 254.553359 
L 208.404428 254.716062 
L 208.21593 255.192667 
L 207.961987 255.831975 
L 207.76512 256.325569 
L 207.706606 256.471283 
L 207.448129 257.110591 
L 207.188953 257.7499 
L 207.125811 257.904627 
L 206.926729 258.389208 
L 206.663088 259.028516 
L 206.486503 259.454938 
L 206.397755 259.667824 
L 206.129677 260.307132 
L 205.861008 260.94644 
L 205.847195 260.979071 
L 205.588689 261.585748 
L 205.315657 262.225056 
L 205.207887 262.476084 
L 205.040097 262.864364 
L 204.762733 263.503673 
L 204.568579 263.949667 
L 204.483875 264.142981 
L 204.202211 264.782289 
L 203.929271 265.400722 
L 203.919998 265.421597 
L 203.63407 266.060905 
L 203.347748 266.700213 
L 203.289963 266.828492 
L 203.058289 267.339521 
L 202.767782 267.978829 
L 202.650655 268.235425 
L 202.474849 268.618137 
L 202.180195 269.257446 
L 202.011347 269.622548 
L 201.883734 269.896754 
L 201.584973 270.536062 
L 201.372039 270.990589 
L 201.284931 271.17537 
L 200.982101 271.814678 
L 200.73273 272.340247 
L 200.678428 272.453986 
L 200.371571 273.093294 
L 200.093422 273.672188 
L 200.064215 273.732602 
L 199.753373 274.37191 
L 199.454114 274.987051 
L 199.442285 275.011218 
L 199.127501 275.650527 
L 198.814806 276.28545 
L 198.812633 276.289835 
L 198.493952 276.929143 
L 198.175498 277.56797 
L 198.175257 277.568451 
L 197.852724 278.207759 
L 197.53619 278.835175 
L 197.530154 278.847067 
L 197.203818 279.486375 
L 196.896882 280.087608 
L 196.877329 280.125683 
L 196.547236 280.764991 
L 196.257574 281.325789 
L 196.216783 281.4043 
L 195.882983 282.043608 
L 195.618266 282.550219 
L 195.548524 282.682916 
L 195.211067 283.322224 
L 194.978957 283.761381 
L 194.872559 283.961532 
L 194.531496 284.60084 
L 194.339649 284.95974 
L 194.1889 285.240148 
L 193.844283 285.879456 
L 193.700341 286.145744 
L 193.497559 286.518764 
L 193.149441 287.158073 
L 193.061033 287.319826 
L 192.798552 287.797381 
L 192.446986 288.436689 
L 192.421725 288.482404 
L 192.091895 289.075997 
L 191.782417 289.632928 
L 191.736387 289.715305 
L 191.377607 290.354613 
L 191.143109 290.772088 
L 191.017817 290.993921 
L 190.655711 291.633229 
L 190.503801 291.900804 
L 190.291605 292.272537 
L 189.926229 292.911846 
L 189.864493 293.019447 
L 189.557775 293.551154 
L 189.225184 294.127651 
L 189.188753 294.190462 
L 188.816355 294.82977 
L 188.585876 295.225135 
L 188.44291 295.469078 
L 188.067373 296.108386 
L 187.946568 296.313492 
L 187.689477 296.747694 
L 187.31086 297.387002 
L 187.30726 297.393052 
L 186.928485 298.02631 
L 186.667952 298.46181 
L 186.54539 298.665618 
L 186.159969 299.304927 
L 186.028644 299.522249 
L 185.772327 299.944235 
L 185.389336 300.574642 
L 185.383901 300.583543 
L 184.991752 301.222851 
L 184.750028 301.616801 
L 184.598712 301.862159 
L 184.203704 302.501467 
L 184.199259 302.508641 
" clip-path="url(#pef7326ae3b)" style="fill: none; stroke: #ff0000; stroke-width: 1.5"/>
   </g>
   <g id="PathCollection_8">
    <path d="M -1 118.515251 
L -0.465132 118.15875 
L -0.285273 118.039429 
L 0.442828 117.557514 
L 0.634926 117.430649 
L 1.170929 117.078333 
L 1.742861 116.702548 
L 1.89903 116.600425 
L 2.62713 116.125557 
L 2.859269 115.974447 
L 3.355231 115.653147 
L 3.983396 115.246346 
L 4.083332 115.181939 
L 4.811433 114.714234 
L 5.11694 114.518246 
L 5.539534 114.248461 
L 6.257676 113.790145 
L 6.267635 113.78382 
L 6.995736 113.323388 
L 7.409172 113.062044 
L 7.723837 112.864117 
L 8.451938 112.406772 
L 8.568268 112.333943 
L 9.180039 111.952852 
L 9.73724 111.605842 
L 9.908139 111.499943 
L 10.63624 111.050073 
L 10.915676 110.877741 
L 11.364341 110.602444 
L 12.092442 110.15583 
L 12.102579 110.14964 
L 12.820543 109.713456 
L 13.301138 109.421539 
L 13.548644 109.271974 
L 14.276745 108.833023 
L 14.50886 108.693438 
L 15.004846 108.39672 
L 15.726056 107.965337 
L 15.732947 107.961238 
L 16.461048 107.530035 
L 16.955556 107.237237 
L 17.189148 107.099653 
L 17.917249 106.671958 
L 18.195073 106.509136 
L 18.64535 106.246646 
L 19.373451 105.822526 
L 19.444985 105.781035 
L 20.101552 105.402251 
L 20.707107 105.052934 
L 20.829653 104.982623 
L 21.557754 104.5665 
L 21.981116 104.324833 
L 22.285855 104.151824 
L 23.013956 103.739425 
L 23.266599 103.596732 
L 23.742057 103.329665 
L 24.470157 102.921054 
L 24.563976 102.868631 
L 25.198258 102.51617 
L 25.874295 102.14053 
L 25.926359 102.111761 
L 26.65446 101.711366 
L 27.198342 101.412429 
L 27.382561 101.311743 
L 28.110662 100.915274 
L 28.535491 100.684328 
L 28.838763 100.520395 
L 29.566864 100.127914 
L 29.886218 99.956228 
L 30.294965 99.737735 
L 31.023066 99.349302 
L 31.251015 99.228127 
L 31.751166 98.96378 
L 32.479267 98.579454 
L 32.630394 98.500026 
L 33.207368 98.198542 
L 33.935469 97.818381 
L 34.024884 97.771925 
L 34.66357 97.442032 
L 35.391671 97.066093 
L 35.435034 97.043824 
L 36.119772 96.694258 
L 36.847873 96.322597 
L 36.861416 96.315723 
L 37.575974 95.955226 
L 38.304075 95.587897 
L 38.304623 95.587622 
L 39.032175 95.224938 
L 39.760276 94.861996 
L 39.765271 94.859521 
L 40.488377 94.503396 
L 41.216478 94.144892 
L 41.244002 94.13142 
L 41.944579 93.790598 
L 42.67268 93.436583 
L 42.741485 93.403319 
L 43.400781 93.086539 
L 44.128882 92.737063 
L 44.258418 92.675218 
L 44.856983 92.391213 
L 45.585084 92.046323 
L 45.795528 91.947118 
L 46.313184 91.704609 
L 47.041285 91.364353 
L 47.353575 91.219017 
L 47.769386 91.026717 
L 48.497487 90.691139 
L 48.933354 90.490916 
L 49.225588 90.357521 
L 49.953689 90.026666 
L 50.535695 89.762815 
L 50.68179 89.697004 
L 51.409891 89.370915 
L 52.137992 89.045275 
L 52.161766 89.034714 
L 52.866093 88.723865 
L 53.594193 88.403082 
L 53.814356 88.306613 
L 54.322294 88.085494 
L 55.050395 87.769606 
L 55.492604 87.578512 
L 55.778496 87.455775 
L 56.506597 87.144821 
L 57.197535 86.850411 
L 57.234698 86.83468 
L 57.962799 86.528696 
L 58.6909 86.223385 
L 58.933354 86.12231 
L 59.419001 85.9212 
L 60.147102 85.620942 
L 60.698986 85.394209 
L 60.875202 85.322298 
L 61.603303 85.027126 
L 62.331404 84.732749 
L 62.497357 84.666109 
L 63.059505 84.441898 
L 63.787606 84.152686 
L 64.330407 83.938008 
L 64.515707 83.86522 
L 65.243808 83.581201 
L 65.971909 83.298098 
L 66.200277 83.209907 
L 66.70001 83.018248 
L 67.428111 82.740413 
L 68.108467 82.481806 
L 68.156211 82.463783 
L 68.884312 82.191239 
L 69.612413 81.919731 
L 70.060248 81.753705 
L 70.340514 81.650528 
L 71.068615 81.384381 
L 71.796716 81.119341 
L 72.056147 81.025604 
L 72.524817 80.857461 
L 73.252918 80.597848 
L 73.981019 80.339415 
L 74.100132 80.297503 
L 74.70912 80.084749 
L 75.43722 79.831806 
L 76.165321 79.580113 
L 76.196605 79.569402 
L 76.893422 79.332547 
L 77.621523 79.086404 
L 78.349624 78.841581 
L 78.350465 78.841301 
L 79.077725 78.600997 
L 79.805826 78.36178 
L 80.533927 78.123955 
L 80.567194 78.1132 
L 81.262028 77.890227 
L 81.990129 77.65806 
L 82.71823 77.427354 
L 82.852943 77.3851 
L 83.44633 77.200354 
L 84.174431 76.975356 
L 84.902532 76.751888 
L 85.214654 76.656999 
L 85.630633 76.531481 
L 86.358734 76.313766 
L 87.086835 76.097649 
L 87.660194 75.928898 
L 87.814936 75.883697 
L 88.543037 75.673377 
L 89.271138 75.46472 
L 89.999239 75.257754 
L 90.201909 75.200797 
L 90.727339 75.05426 
L 91.45544 74.853168 
L 92.183541 74.653833 
L 92.851374 74.472696 
L 92.911642 74.456475 
L 93.639743 74.263048 
L 94.367844 74.071442 
L 95.095945 73.881685 
L 95.627792 73.744595 
L 95.824046 73.694402 
L 96.552147 73.51062 
L 97.280248 73.328748 
L 98.008348 73.148816 
L 98.550257 73.016494 
L 98.736449 72.971388 
L 99.46455 72.797491 
L 100.192651 72.625595 
L 100.920752 72.455726 
L 101.646777 72.288393 
L 101.648853 72.287919 
L 102.376954 72.12414 
L 103.105055 71.962449 
L 103.833156 71.802873 
L 104.561257 71.64544 
L 104.961223 71.560292 
L 105.289357 71.491001 
L 106.017458 71.339735 
L 106.745559 71.190671 
L 107.47366 71.043835 
L 108.201761 70.899254 
L 108.545554 70.832191 
L 108.929862 70.757839 
L 109.657963 70.619494 
L 110.386064 70.483461 
L 111.114165 70.349766 
L 111.842266 70.218437 
L 112.488227 70.104091 
L 112.570366 70.089671 
L 113.298467 69.964636 
L 114.026568 69.84202 
L 114.754669 69.72185 
L 115.48277 69.604154 
L 116.210871 69.488956 
L 116.938972 69.376286 
L 116.940937 69.37599 
L 117.667073 69.267451 
L 118.395174 69.161171 
L 119.123275 69.057467 
L 119.851375 68.956367 
L 120.579476 68.857897 
L 121.307577 68.762083 
L 122.035678 68.668951 
L 122.205681 68.647889 
L 122.763779 68.579336 
L 123.49188 68.49267 
L 124.219981 68.408733 
L 124.948082 68.327552 
L 125.676183 68.249152 
L 126.404284 68.173558 
L 127.132384 68.100798 
L 127.860485 68.030896 
L 128.588586 67.963878 
L 129.089781 67.919788 
L 129.316687 67.900002 
L 130.044788 67.839538 
L 130.772889 67.782001 
L 131.50099 67.727415 
L 132.229091 67.675805 
L 132.957192 67.627197 
L 133.685293 67.581614 
L 134.413393 67.539083 
L 135.141494 67.499627 
L 135.869595 67.463272 
L 136.597696 67.430042 
L 137.325797 67.39996 
L 138.053898 67.373053 
L 138.781999 67.349344 
L 139.5101 67.328856 
L 140.238201 67.311615 
L 140.966302 67.297645 
L 141.694402 67.286968 
L 142.422503 67.279609 
L 143.150604 67.275592 
L 143.878705 67.27494 
L 144.606806 67.277676 
L 145.334907 67.283824 
L 146.063008 67.293408 
L 146.791109 67.306449 
L 147.51921 67.322972 
L 148.247311 67.342999 
L 148.975411 67.366553 
L 149.703512 67.393657 
L 150.431613 67.424332 
L 151.159714 67.458602 
L 151.887815 67.496489 
L 152.615916 67.538015 
L 153.344017 67.583203 
L 154.072118 67.632073 
L 154.800219 67.684648 
L 155.52832 67.74095 
L 156.25642 67.801 
L 156.984521 67.86482 
L 157.57666 67.919788 
L 157.712622 67.932578 
L 158.440723 68.004824 
L 159.168824 68.080947 
L 159.896925 68.160968 
L 160.625026 68.244908 
L 161.353127 68.332787 
L 162.081228 68.424628 
L 162.809329 68.52045 
L 163.53743 68.620275 
L 163.73126 68.647889 
L 164.26553 68.724998 
L 164.993631 68.834125 
L 165.721732 68.947361 
L 166.449833 69.064726 
L 167.177934 69.18624 
L 167.906035 69.311923 
L 168.265464 69.37599 
L 168.634136 69.44255 
L 169.362237 69.578166 
L 170.090338 69.718058 
L 170.818439 69.862245 
L 171.546539 70.010747 
L 171.991439 70.104091 
L 172.27464 70.164265 
L 173.002741 70.323253 
L 173.730842 70.486662 
L 174.458943 70.654513 
L 175.187044 70.826826 
L 175.209166 70.832191 
L 175.915145 71.005575 
L 176.643246 71.188935 
L 177.371347 71.376862 
L 178.06512 71.560292 
L 178.099448 71.569482 
L 178.827548 71.768852 
L 179.555649 71.972898 
L 180.28375 72.18164 
L 180.648062 72.288393 
L 181.011851 72.396314 
L 181.739952 72.61699 
L 182.468053 72.842471 
L 183.018338 73.016494 
L 183.196154 73.073419 
L 183.924255 73.311246 
L 184.652356 73.553988 
L 185.212792 73.744595 
L 185.380457 73.802316 
L 186.108557 74.057824 
L 186.836658 74.318359 
L 187.259911 74.472696 
L 187.564759 74.585209 
L 188.29286 74.858938 
L 189.020961 75.137809 
L 189.182513 75.200797 
L 189.749062 75.424359 
L 190.477163 75.716863 
L 190.995733 75.928898 
L 191.205264 76.015603 
L 191.933365 76.322093 
L 192.661466 76.633939 
L 192.714421 76.656999 
L 193.389566 76.954513 
L 194.117667 77.280805 
L 194.346636 77.3851 
L 194.845768 77.615167 
L 195.573869 77.956275 
L 195.903525 78.1132 
L 196.30197 78.305128 
L 197.030071 78.661434 
L 197.391935 78.841301 
L 197.758172 79.025503 
L 198.486273 79.397395 
L 198.817941 79.569402 
L 199.214374 79.77743 
L 199.942475 80.165309 
L 200.18696 80.297503 
L 200.670575 80.562083 
L 201.398676 80.966361 
L 201.503837 81.025604 
L 202.126777 81.380677 
L 202.771782 81.753705 
L 202.854878 81.802329 
L 203.582979 82.234463 
L 203.993854 82.481806 
L 204.31108 82.675018 
L 205.039181 83.124739 
L 205.175174 83.209907 
L 205.767282 83.585079 
L 206.316657 83.938008 
L 206.495383 84.054173 
L 207.223484 84.533889 
L 207.421473 84.666109 
L 207.951584 85.024276 
L 208.491816 85.394209 
L 208.679685 85.524367 
L 209.407786 86.035535 
L 209.529772 86.12231 
L 210.135887 86.558534 
L 210.536168 86.850411 
L 210.863988 87.092259 
L 211.514599 87.578512 
L 211.592089 87.637108 
L 212.32019 88.194799 
L 212.464316 88.306613 
L 213.048291 88.764996 
L 213.387571 89.034714 
L 213.776392 89.347458 
L 214.286314 89.762815 
L 214.504493 89.942631 
L 215.161467 90.490916 
L 215.232593 90.550978 
L 215.960694 91.173517 
L 216.013254 91.219017 
L 216.688795 91.810749 
L 216.842573 91.947118 
L 217.416896 92.462479 
L 217.651088 92.675218 
L 218.144997 93.129234 
L 218.439553 93.403319 
L 218.873098 93.811559 
L 219.20869 94.13142 
L 219.601199 94.510021 
L 219.959189 94.859521 
L 220.3293 95.225209 
L 220.691713 95.587622 
L 221.057401 95.957733 
L 221.4069 96.315723 
L 221.785502 96.708232 
L 222.105362 97.043824 
L 222.513602 97.477368 
L 222.787688 97.771925 
L 223.241703 98.265834 
L 223.454443 98.500026 
L 223.969804 99.074349 
L 224.106173 99.228127 
L 224.697905 99.903668 
L 224.743404 99.956228 
L 225.365944 100.684328 
L 225.426006 100.755455 
L 225.974291 101.412429 
L 226.154107 101.630608 
L 226.569464 102.14053 
L 226.882208 102.52935 
L 227.151925 102.868631 
L 227.610309 103.452606 
L 227.722123 103.596732 
L 228.279814 104.324833 
L 228.33841 104.402323 
L 228.824663 105.052934 
L 229.066511 105.380754 
L 229.358388 105.781035 
L 229.794611 106.38715 
L 229.881387 106.509136 
L 230.392555 107.237237 
L 230.522712 107.425106 
L 230.892646 107.965337 
L 231.250813 108.495448 
L 231.383033 108.693438 
L 231.862749 109.421539 
L 231.978914 109.600265 
L 232.331843 110.14964 
L 232.707015 110.741748 
L 232.792183 110.877741 
L 233.241904 111.605842 
L 233.435116 111.923068 
L 233.682459 112.333943 
L 234.114593 113.062044 
L 234.163217 113.14514 
L 234.536245 113.790145 
L 234.891318 114.413085 
L 234.950561 114.518246 
L 235.354838 115.246346 
L 235.619419 115.729962 
L 235.751613 115.974447 
L 236.139492 116.702548 
L 236.34752 117.098981 
L 236.519527 117.430649 
L 236.891419 118.15875 
L 237.07562 118.524987 
L 237.255488 118.886851 
L 237.611793 119.614952 
L 237.803721 120.013397 
L 237.960647 120.343053 
L 238.301755 121.071154 
L 238.531822 121.570286 
L 238.636117 121.799255 
L 238.962409 122.527355 
L 239.259923 123.202501 
L 239.282983 123.255456 
L 239.594829 123.983557 
L 239.901319 124.711658 
L 239.988024 124.921189 
L 240.200058 125.439759 
L 240.492563 126.16786 
L 240.716125 126.734409 
L 240.779113 126.895961 
L 241.057984 127.624062 
L 241.331713 128.352163 
L 241.444226 128.65701 
L 241.598563 129.080264 
L 241.859098 129.808364 
L 242.114606 130.536465 
L 242.172327 130.70413 
L 242.362934 131.264566 
L 242.605676 131.992667 
L 242.843503 132.720768 
L 242.900428 132.898584 
L 243.07445 133.448869 
L 243.299932 134.17697 
L 243.520608 134.905071 
L 243.628529 135.26886 
L 243.735282 135.633172 
L 243.944024 136.361273 
L 244.14807 137.089373 
L 244.34744 137.817474 
L 244.35663 137.851802 
L 244.54006 138.545575 
L 244.727987 139.273676 
L 244.911346 140.001777 
L 245.08473 140.707756 
L 245.090096 140.729878 
L 245.262409 141.457979 
L 245.43026 142.18608 
L 245.593669 142.914181 
L 245.752657 143.642282 
L 245.812831 143.925483 
L 245.906175 144.370382 
L 246.054677 145.098483 
L 246.198864 145.826584 
L 246.338756 146.554685 
L 246.474372 147.282786 
L 246.540932 147.651458 
L 246.604998 148.010887 
L 246.730682 148.738988 
L 246.852196 149.467089 
L 246.969561 150.19519 
L 247.082797 150.923291 
L 247.191924 151.651391 
L 247.269033 152.185661 
L 247.296647 152.379492 
L 247.396472 153.107593 
L 247.492294 153.835694 
L 247.584135 154.563795 
L 247.672014 155.291896 
L 247.755954 156.019997 
L 247.835975 156.748098 
L 247.912098 157.476199 
L 247.984344 158.2043 
L 247.997134 158.340262 
L 248.052101 158.9324 
L 248.115922 159.660501 
L 248.175972 160.388602 
L 248.232274 161.116703 
L 248.284849 161.844804 
L 248.333719 162.572905 
L 248.378907 163.301006 
L 248.420433 164.029107 
L 248.45832 164.757208 
L 248.49259 165.485309 
L 248.523265 166.213409 
L 248.550369 166.94151 
L 248.573923 167.669611 
L 248.59395 168.397712 
L 248.610473 169.125813 
L 248.623514 169.853914 
L 248.633098 170.582015 
L 248.639246 171.310116 
L 248.641982 172.038217 
L 248.64133 172.766318 
L 248.637313 173.494418 
L 248.629954 174.222519 
L 248.619277 174.95062 
L 248.605307 175.678721 
L 248.588066 176.406822 
L 248.567578 177.134923 
L 248.543869 177.863024 
L 248.516961 178.591125 
L 248.48688 179.319226 
L 248.45365 180.047327 
L 248.417295 180.775428 
L 248.377839 181.503528 
L 248.335307 182.231629 
L 248.289725 182.95973 
L 248.241117 183.687831 
L 248.189507 184.415932 
L 248.134921 185.144033 
L 248.077383 185.872134 
L 248.01692 186.600235 
L 247.997134 186.827141 
L 247.953044 187.328336 
L 247.886026 188.056437 
L 247.816124 188.784537 
L 247.743363 189.512638 
L 247.66777 190.240739 
L 247.58937 190.96884 
L 247.508188 191.696941 
L 247.424252 192.425042 
L 247.337585 193.153143 
L 247.269033 193.711241 
L 247.24797 193.881244 
L 247.154839 194.609345 
L 247.059025 195.337446 
L 246.960555 196.065546 
L 246.859454 196.793647 
L 246.755751 197.521748 
L 246.64947 198.249849 
L 246.540932 198.975985 
L 246.540636 198.97795 
L 246.427965 199.706051 
L 246.312768 200.434152 
L 246.195072 201.162253 
L 246.074902 201.890354 
L 245.952286 202.618455 
L 245.827251 203.346555 
L 245.812831 203.428694 
L 245.698485 204.074656 
L 245.567156 204.802757 
L 245.433461 205.530858 
L 245.297428 206.258959 
L 245.159083 206.98706 
L 245.08473 207.371368 
L 245.017668 207.715161 
L 244.873087 208.443262 
L 244.726251 209.171363 
L 244.577186 209.899464 
L 244.425921 210.627564 
L 244.35663 210.955699 
L 244.271482 211.355665 
L 244.114049 212.083766 
L 243.954473 212.811867 
L 243.792782 213.539968 
L 243.629003 214.268069 
L 243.628529 214.270145 
L 243.461196 214.99617 
L 243.291327 215.724271 
L 243.119431 216.452372 
L 242.945534 217.180473 
L 242.900428 217.366665 
L 242.768106 217.908573 
L 242.588173 218.636674 
L 242.406302 219.364775 
L 242.22252 220.092876 
L 242.172327 220.28913 
L 242.035237 220.820977 
L 241.845479 221.549078 
L 241.653874 222.277179 
L 241.460447 223.00528 
L 241.444226 223.065548 
L 241.263089 223.733381 
L 241.063754 224.461482 
L 240.862662 225.189582 
L 240.716125 225.715013 
L 240.659168 225.917683 
L 240.452202 226.645784 
L 240.243545 227.373885 
L 240.033225 228.101986 
L 239.988024 228.256728 
L 239.819273 228.830087 
L 239.603155 229.558188 
L 239.385441 230.286289 
L 239.259923 230.702268 
L 239.165034 231.01439 
L 238.941566 231.742491 
L 238.716568 232.470591 
L 238.531822 233.063979 
L 238.489568 233.198692 
L 238.258862 233.926793 
L 238.026695 234.654894 
L 237.803721 235.349728 
L 237.792967 235.382995 
L 237.555142 236.111096 
L 237.315925 236.839197 
L 237.07562 237.566457 
L 237.075341 237.567298 
L 236.830518 238.295399 
L 236.584375 239.0235 
L 236.34752 239.720317 
L 236.336809 239.7516 
L 236.085116 240.479701 
L 235.832173 241.207802 
L 235.619419 241.81679 
L 235.577507 241.935903 
L 235.319073 242.664004 
L 235.059461 243.392105 
L 234.891318 243.860775 
L 234.79758 244.120206 
L 234.532541 244.848307 
L 234.266394 245.576408 
L 234.163217 245.856674 
L 233.99719 246.304509 
L 233.725683 247.032609 
L 233.453138 247.76071 
L 233.435116 247.808455 
L 233.176509 248.488811 
L 232.898674 249.216912 
L 232.707015 249.716645 
L 232.618824 249.945013 
L 232.335721 250.673114 
L 232.051702 251.401215 
L 231.978914 251.586515 
L 231.764236 252.129316 
L 231.475023 252.857417 
L 231.250813 253.419565 
L 231.184173 253.585518 
L 230.889796 254.313618 
L 230.594624 255.041719 
L 230.522712 255.217936 
L 230.29598 255.76982 
L 229.995722 256.497921 
L 229.794611 256.983568 
L 229.693537 257.226022 
L 229.388226 257.954123 
L 229.082242 258.682224 
L 229.066511 258.719387 
L 228.772101 259.410325 
L 228.461147 260.138426 
L 228.33841 260.424318 
L 228.147316 260.866527 
L 227.831428 261.594628 
L 227.610309 262.102566 
L 227.51384 262.322728 
L 227.193057 263.050829 
L 226.882208 263.755156 
L 226.871647 263.77893 
L 226.546007 264.507031 
L 226.219917 265.235132 
L 226.154107 265.381227 
L 225.890256 265.963233 
L 225.559401 266.691334 
L 225.426006 266.983568 
L 225.225782 267.419435 
L 224.890205 268.147536 
L 224.697905 268.563347 
L 224.552569 268.875637 
L 224.212313 269.603737 
L 223.969804 270.121394 
L 223.870599 270.331838 
L 223.525709 271.059939 
L 223.241703 271.658504 
L 223.179859 271.78804 
L 222.830382 272.516141 
L 222.513602 273.175437 
L 222.480339 273.244242 
L 222.126324 273.972343 
L 221.785502 274.67292 
L 221.77203 274.700444 
L 221.413525 275.428545 
L 221.057401 276.151651 
L 221.054926 276.156646 
L 220.691984 276.884746 
L 220.3293 277.612299 
L 220.329025 277.612847 
L 219.961696 278.340948 
L 219.601199 279.055505 
L 219.594325 279.069049 
L 219.222664 279.79715 
L 218.873098 280.481887 
L 218.850829 280.525251 
L 218.47489 281.253352 
L 218.144997 281.892038 
L 218.098541 281.981453 
L 217.71838 282.709554 
L 217.416896 283.286528 
L 217.337468 283.437655 
L 216.953142 284.165755 
L 216.688795 284.665907 
L 216.56762 284.893856 
L 216.179186 285.621957 
L 215.960694 286.030704 
L 215.789008 286.350058 
L 215.396527 287.078159 
L 215.232593 287.381431 
L 215.001648 287.80626 
L 214.605179 288.534361 
L 214.504493 288.71858 
L 214.205556 289.262462 
L 213.805161 289.990563 
L 213.776392 290.042627 
L 213.400751 290.718664 
L 213.048291 291.352946 
L 212.995867 291.446764 
L 212.587257 292.174865 
L 212.32019 292.650323 
L 212.177497 292.902966 
L 211.765097 293.631067 
L 211.592089 293.935806 
L 211.350422 294.359168 
L 210.934299 295.087269 
L 210.863988 295.209815 
L 210.514671 295.81537 
L 210.135887 296.471937 
L 210.094395 296.543471 
L 209.670276 297.271572 
L 209.407786 297.721848 
L 209.244964 297.999673 
L 208.817269 298.727773 
L 208.679685 298.961366 
L 208.386887 299.455874 
L 207.955684 300.183975 
L 207.951584 300.190866 
L 207.520202 300.912076 
L 207.223484 301.408062 
L 207.083899 301.640177 
L 206.644948 302.368278 
L 206.560128 302.508641 
" clip-path="url(#pef7326ae3b)" style="fill: none; stroke: #0000ff; stroke-width: 1.5"/>
   </g>
   <g id="PathCollection_9">
    <path d="M -1 98.227626 
L -0.520574 97.917039 
L 0.176535 97.46559 
L 0.28744 97.394113 
L 1.095455 96.875075 
L 1.434493 96.657575 
L 1.903469 96.358181 
L 2.700431 95.849561 
L 2.711484 95.842542 
L 3.519498 95.331575 
L 3.978311 95.041546 
L 4.327512 94.821896 
L 5.135527 94.314355 
L 5.264626 94.233532 
L 5.943541 93.810614 
L 6.561899 93.425518 
L 6.751556 93.307996 
L 7.55957 92.80875 
L 7.869676 92.617503 
L 8.367584 92.311991 
L 9.175599 91.816358 
L 9.186848 91.809489 
L 9.983613 91.325431 
L 10.516956 91.001474 
L 10.791628 90.835494 
L 11.599642 90.348365 
L 11.857233 90.19346 
L 12.407657 89.864175 
L 13.208024 89.385446 
L 13.215671 89.380896 
L 14.023685 88.902366 
L 14.572469 88.577431 
L 14.8317 88.424747 
L 15.639714 87.95011 
L 15.948031 87.769417 
L 16.447729 87.478117 
L 17.255743 87.007448 
L 17.335129 86.961402 
L 18.063757 86.541044 
L 18.735776 86.153388 
L 18.871772 86.07536 
L 19.679786 85.613565 
L 20.149615 85.345373 
L 20.487801 85.153376 
L 21.295815 84.695714 
L 21.576187 84.537359 
L 22.10383 84.240979 
L 22.911844 83.787522 
L 23.015959 83.729345 
L 23.719858 83.338199 
L 24.470094 82.92133 
L 24.527873 82.889403 
L 25.335887 82.445063 
L 25.939463 82.113316 
L 26.143902 82.001578 
L 26.951916 81.561595 
L 27.423372 81.305301 
L 27.75993 81.123375 
L 28.567945 80.687817 
L 28.92235 80.497287 
L 29.375959 80.254814 
L 30.183974 79.823748 
L 30.436942 79.689273 
L 30.991988 79.395912 
L 31.800002 78.969404 
L 31.967716 78.881258 
L 32.608017 78.546685 
L 33.416031 78.124799 
L 33.51526 78.073244 
L 34.224046 77.707143 
L 35.03206 77.289942 
L 35.080183 77.265229 
L 35.840075 76.877296 
L 36.648089 76.464843 
L 36.663119 76.457215 
L 37.456103 76.057151 
L 38.264118 75.649506 
L 38.264726 75.6492 
L 39.072132 75.24671 
L 39.880147 74.843932 
L 39.885689 74.841186 
L 40.688161 74.445974 
L 41.496175 74.048122 
L 41.52672 74.033172 
L 42.30419 73.654942 
L 43.112204 73.262072 
L 43.188561 73.225157 
L 43.920219 72.873609 
L 44.728233 72.485775 
L 44.871987 72.417143 
L 45.536248 72.101966 
L 46.344262 71.719222 
L 46.577804 71.609128 
L 47.152276 71.340003 
L 47.960291 70.962402 
L 48.306856 70.801114 
L 48.768305 70.587708 
L 49.57632 70.215299 
L 50.060025 69.9931 
L 50.384334 69.845064 
L 51.192348 69.477896 
L 51.838233 69.185085 
L 52.000363 69.112052 
L 52.808377 68.750172 
L 53.616392 68.38879 
L 53.642775 68.377071 
L 54.424406 68.032104 
L 55.23242 67.676113 
L 55.476747 67.569056 
L 56.040435 67.323668 
L 56.848449 66.97311 
L 57.339193 66.761042 
L 57.656464 66.624833 
L 58.464478 66.27975 
L 59.231251 65.953028 
L 59.272493 65.93557 
L 60.080507 65.596002 
L 60.888521 65.257181 
L 61.157586 65.145013 
L 61.696536 64.921829 
L 62.50455 64.588616 
L 63.117007 64.336999 
L 63.312565 64.257195 
L 64.120579 63.929625 
L 64.928593 63.602939 
L 65.11276 63.528984 
L 65.736608 63.280166 
L 66.544622 62.95921 
L 67.146999 62.72097 
L 67.352637 62.640193 
L 68.160651 62.325001 
L 68.968666 62.010826 
L 69.222098 61.912955 
L 69.77668 61.700261 
L 70.584694 61.391931 
L 71.339724 61.104941 
L 71.392709 61.08494 
L 72.200723 60.782483 
L 73.008738 60.481175 
L 73.505725 60.296927 
L 73.816752 60.182425 
L 74.624766 59.887067 
L 75.432781 59.592938 
L 75.720686 59.488912 
L 76.240795 59.302314 
L 77.04881 59.014208 
L 77.856824 58.72741 
L 77.989011 58.680898 
L 78.664839 58.444793 
L 79.472853 58.164087 
L 80.280867 57.88477 
L 80.315584 57.872883 
L 81.088882 57.610032 
L 81.896896 57.336873 
L 82.704911 57.06518 
L 82.705844 57.064869 
L 83.512925 56.798189 
L 84.320939 56.532717 
L 85.128954 56.268789 
L 85.165872 56.256855 
L 85.936968 56.009408 
L 86.744983 55.75176 
L 87.552997 55.495733 
L 87.702496 55.44884 
L 88.361011 55.243817 
L 89.169026 54.994125 
L 89.97704 54.746129 
L 90.323419 54.640826 
L 90.785055 54.501531 
L 91.593069 54.259922 
L 92.401084 54.020084 
L 93.037372 53.832811 
L 93.209098 53.78265 
L 94.017112 53.549245 
L 94.825127 53.317687 
L 95.633141 53.088005 
L 95.858056 53.024797 
L 96.441156 52.862177 
L 97.24917 52.639014 
L 98.057184 52.4178 
L 98.798315 52.216782 
L 98.865199 52.198781 
L 99.673213 51.984125 
L 100.481228 51.771489 
L 101.289242 51.560904 
L 101.879463 51.408768 
L 102.097257 51.353066 
L 102.905271 51.149112 
L 103.713285 50.94728 
L 104.5213 50.747599 
L 105.122686 50.600754 
L 105.329314 50.550697 
L 106.137329 50.357714 
L 106.945343 50.16695 
L 107.753357 49.978438 
L 108.559068 49.792739 
L 108.561372 49.792212 
L 109.369386 49.610458 
L 110.177401 49.43102 
L 110.985415 49.25393 
L 111.79343 49.079217 
L 112.237295 48.984725 
L 112.601444 48.907828 
L 113.409458 48.73996 
L 114.217473 48.574535 
L 115.025487 48.411583 
L 115.833502 48.251133 
L 116.215028 48.17671 
L 116.641516 48.094197 
L 117.44953 47.940668 
L 118.257545 47.789704 
L 119.065559 47.641335 
L 119.873574 47.495592 
L 120.590434 47.368696 
L 120.681588 47.352694 
L 121.489602 47.213935 
L 122.297617 47.077862 
L 123.105631 46.944503 
L 123.913646 46.813888 
L 124.72166 46.686047 
L 125.529675 46.56101 
L 125.531856 46.560682 
L 126.337689 46.440231 
L 127.145703 46.322285 
L 127.953718 46.2072 
L 128.761732 46.095003 
L 129.569747 45.985725 
L 130.377761 45.879395 
L 131.185775 45.776042 
L 131.374437 45.752667 
L 131.99379 45.676591 
L 132.801804 45.580412 
L 133.609819 45.487263 
L 134.417833 45.397171 
L 135.225848 45.310166 
L 136.033862 45.226276 
L 136.841876 45.14553 
L 137.649891 45.067956 
L 138.457905 44.993582 
L 139.014109 44.944653 
L 139.26592 44.922695 
L 140.073934 44.855595 
L 140.881948 44.791743 
L 141.689963 44.731166 
L 142.497977 44.673891 
L 143.305992 44.619948 
L 144.114006 44.569363 
L 144.92202 44.522163 
L 145.730035 44.478377 
L 146.538049 44.438031 
L 147.346064 44.401154 
L 148.154078 44.367771 
L 148.962093 44.33791 
L 149.770107 44.311599 
L 150.578121 44.288863 
L 151.386136 44.26973 
L 152.19415 44.254225 
L 153.002165 44.242377 
L 153.810179 44.23421 
L 154.618193 44.229752 
L 155.426208 44.229028 
L 156.234222 44.232065 
L 157.042237 44.238888 
L 157.850251 44.249523 
L 158.658266 44.263997 
L 159.46628 44.282333 
L 160.274294 44.304558 
L 161.082309 44.330697 
L 161.890323 44.360775 
L 162.698338 44.394818 
L 163.506352 44.432849 
L 164.314366 44.474895 
L 165.122381 44.520978 
L 165.930395 44.571125 
L 166.73841 44.625359 
L 167.546424 44.683705 
L 168.354439 44.746186 
L 169.162453 44.812828 
L 169.970467 44.883652 
L 170.627597 44.944653 
L 170.778482 44.958846 
L 171.586496 45.039022 
L 172.394511 45.1235 
L 173.202525 45.212304 
L 174.010539 45.305456 
L 174.818554 45.402981 
L 175.626568 45.504902 
L 176.434583 45.611241 
L 177.242597 45.722023 
L 177.457702 45.752667 
L 178.050611 45.838239 
L 178.858626 45.959344 
L 179.66664 46.085008 
L 180.474655 46.215255 
L 181.282669 46.350106 
L 182.090684 46.489584 
L 182.489562 46.560682 
L 182.898698 46.634547 
L 183.706712 46.785048 
L 184.514727 46.940294 
L 185.322741 47.100306 
L 186.130756 47.265108 
L 186.624486 47.368696 
L 186.93877 47.435475 
L 187.746784 47.611913 
L 188.554799 47.793257 
L 189.362813 47.979531 
L 190.170828 48.170756 
L 190.195378 48.17671 
L 190.978842 48.369124 
L 191.786857 48.572608 
L 192.594871 48.781162 
L 193.36479 48.984725 
L 193.402885 48.994923 
L 194.2109 49.216175 
L 195.018914 49.442616 
L 195.826929 49.674269 
L 196.231226 49.792739 
L 196.634943 49.912505 
L 197.442957 50.157402 
L 198.250972 50.407631 
L 198.861654 50.600754 
L 199.058986 50.663926 
L 199.867001 50.927856 
L 200.675015 51.197241 
L 201.296963 51.408768 
L 201.48303 51.472824 
L 202.291044 51.756375 
L 203.099058 52.045506 
L 203.568766 52.216782 
L 203.907073 52.341644 
L 204.715087 52.645417 
L 205.523102 52.954896 
L 205.702384 53.024797 
L 206.331116 53.272896 
L 207.13913 53.597505 
L 207.714617 53.832811 
L 207.947145 53.929033 
L 208.755159 54.269162 
L 209.563174 54.615235 
L 209.621941 54.640826 
L 210.371188 54.970994 
L 211.179202 55.333098 
L 211.433302 55.44884 
L 211.987217 55.704159 
L 212.795231 56.082706 
L 213.161069 56.256855 
L 213.603246 56.469848 
L 214.41126 56.86526 
L 214.81284 57.064869 
L 215.219275 57.269288 
L 216.027289 57.681997 
L 216.39536 57.872883 
L 216.835303 58.103743 
L 217.643318 58.534194 
L 217.914637 58.680898 
L 218.451332 58.974517 
L 219.259347 59.423167 
L 219.376049 59.488912 
L 220.067361 59.882956 
L 220.783159 60.296927 
L 220.875375 60.350887 
L 221.68339 60.83045 
L 222.139361 61.104941 
L 222.491404 61.31936 
L 223.299419 61.81844 
L 223.450337 61.912955 
L 224.107433 62.329305 
L 224.717105 62.72097 
L 224.915448 62.849885 
L 225.723462 63.382252 
L 225.943182 63.528984 
L 226.531476 63.926463 
L 227.131001 64.336999 
L 227.339491 64.481442 
L 228.147505 65.048714 
L 228.282879 65.145013 
L 228.95552 65.629115 
L 229.399734 65.953028 
L 229.763534 66.22142 
L 230.485554 66.761042 
L 230.571548 66.826069 
L 231.379563 67.44497 
L 231.539508 67.569056 
L 232.187577 68.07775 
L 232.564096 68.377071 
L 232.995592 68.72414 
L 233.561481 69.185085 
L 233.803606 69.384637 
L 234.532687 69.9931 
L 234.61162 70.059754 
L 235.419635 70.750621 
L 235.477963 70.801114 
L 236.227649 71.457792 
L 236.398305 71.609128 
L 237.035664 72.181054 
L 237.29556 72.417143 
L 237.843678 72.92099 
L 238.170564 73.225157 
L 238.651693 73.678204 
L 239.024118 74.033172 
L 239.459707 74.453327 
L 239.856988 74.841186 
L 240.267721 75.24701 
L 240.669912 75.6492 
L 241.075736 76.059934 
L 241.463595 76.457215 
L 241.88375 76.892804 
L 242.238718 77.265229 
L 242.691765 77.746358 
L 242.995932 78.073244 
L 243.499779 78.621362 
L 243.735868 78.881258 
L 244.307793 79.518617 
L 244.45913 79.689273 
L 245.115808 80.438959 
L 245.166301 80.497287 
L 245.857168 81.305301 
L 245.923822 81.384235 
L 246.532285 82.113316 
L 246.731837 82.35544 
L 247.192782 82.92133 
L 247.539851 83.352826 
L 247.839172 83.729345 
L 248.347866 84.377414 
L 248.471952 84.537359 
L 249.090853 85.345373 
L 249.15588 85.431368 
L 249.695502 86.153388 
L 249.963894 86.517188 
L 250.287807 86.961402 
L 250.771909 87.634043 
L 250.868208 87.769417 
L 251.43548 88.577431 
L 251.579923 88.78592 
L 251.990459 89.385446 
L 252.387938 89.973739 
L 252.53467 90.19346 
L 253.067037 91.001474 
L 253.195952 91.199817 
L 253.587617 91.809489 
L 254.003966 92.466584 
L 254.098482 92.617503 
L 254.597562 93.425518 
L 254.811981 93.777561 
L 255.086471 94.233532 
L 255.566035 95.041546 
L 255.619995 95.133763 
L 256.033966 95.849561 
L 256.42801 96.540873 
L 256.493755 96.657575 
L 256.942405 97.46559 
L 257.236024 98.002285 
L 257.382728 98.273604 
L 257.813179 99.081618 
L 258.044039 99.521562 
L 258.234925 99.889633 
L 258.647634 100.697647 
L 258.852053 101.104081 
L 259.051662 101.505662 
L 259.447074 102.313676 
L 259.660067 102.755853 
L 259.834216 103.121691 
L 260.212763 103.929705 
L 260.468082 104.48362 
L 260.583824 104.737719 
L 260.945928 105.545734 
L 261.276096 106.29498 
L 261.301687 106.353748 
L 261.64776 107.161763 
L 261.987889 107.969777 
L 262.084111 108.202305 
L 262.319417 108.777791 
L 262.644025 109.585806 
L 262.892125 110.214538 
L 262.962026 110.39382 
L 263.271505 111.201835 
L 263.575278 112.009849 
L 263.700139 112.348156 
L 263.871416 112.817864 
L 264.160547 113.625878 
L 264.444098 114.433892 
L 264.508154 114.619959 
L 264.719681 115.241907 
L 264.989066 116.049921 
L 265.252996 116.857936 
L 265.316168 117.055268 
L 265.509291 117.66595 
L 265.75952 118.473964 
L 266.004417 119.281979 
L 266.124183 119.685696 
L 266.242653 120.089993 
L 266.474305 120.898008 
L 266.700747 121.706022 
L 266.921999 122.514037 
L 266.932197 122.552131 
L 267.13576 123.322051 
L 267.344313 124.130065 
L 267.547798 124.93808 
L 267.740211 125.721544 
L 267.746166 125.746094 
L 267.937391 126.554109 
L 268.123665 127.362123 
L 268.305009 128.170137 
L 268.481447 128.978152 
L 268.548226 129.292436 
L 268.651814 129.786166 
L 268.816616 130.594181 
L 268.976628 131.402195 
L 269.131874 132.210209 
L 269.282374 133.018224 
L 269.35624 133.42736 
L 269.427338 133.826238 
L 269.566816 134.634253 
L 269.701667 135.442267 
L 269.831913 136.250282 
L 269.957578 137.058296 
L 270.078683 137.86631 
L 270.164255 138.45922 
L 270.194899 138.674325 
L 270.30568 139.482339 
L 270.41202 140.290354 
L 270.513941 141.098368 
L 270.611466 141.906382 
L 270.704618 142.714397 
L 270.793422 143.522411 
L 270.8779 144.330426 
L 270.958076 145.13844 
L 270.972269 145.289325 
L 271.03327 145.946455 
L 271.104094 146.754469 
L 271.170736 147.562483 
L 271.233217 148.370498 
L 271.291563 149.178512 
L 271.345797 149.986527 
L 271.395943 150.794541 
L 271.442027 151.602555 
L 271.484073 152.41057 
L 271.522104 153.218584 
L 271.556147 154.026599 
L 271.586225 154.834613 
L 271.612364 155.642628 
L 271.634589 156.450642 
L 271.652925 157.258656 
L 271.667398 158.066671 
L 271.678034 158.874685 
L 271.684857 159.6827 
L 271.687893 160.490714 
L 271.68717 161.298728 
L 271.682712 162.106743 
L 271.674545 162.914757 
L 271.662696 163.722772 
L 271.647192 164.530786 
L 271.628059 165.3388 
L 271.605323 166.146815 
L 271.579011 166.954829 
L 271.549151 167.762844 
L 271.515768 168.570858 
L 271.47889 169.378873 
L 271.438545 170.186887 
L 271.394759 170.994901 
L 271.347559 171.802916 
L 271.296974 172.61093 
L 271.24303 173.418945 
L 271.185756 174.226959 
L 271.125179 175.034973 
L 271.061326 175.842988 
L 270.994227 176.651002 
L 270.972269 176.902813 
L 270.92334 177.459017 
L 270.848966 178.267031 
L 270.771392 179.075046 
L 270.690646 179.88306 
L 270.606756 180.691074 
L 270.51975 181.499089 
L 270.429659 182.307103 
L 270.336509 183.115118 
L 270.240331 183.923132 
L 270.164255 184.542485 
L 270.14088 184.731146 
L 270.037527 185.539161 
L 269.931197 186.347175 
L 269.821919 187.15519 
L 269.709722 187.963204 
L 269.594637 188.771218 
L 269.476691 189.579233 
L 269.35624 190.385066 
L 269.355912 190.387247 
L 269.230875 191.195262 
L 269.103034 192.003276 
L 268.972419 192.811291 
L 268.83906 193.619305 
L 268.702987 194.427319 
L 268.564228 195.235334 
L 268.548226 195.326488 
L 268.42133 196.043348 
L 268.275586 196.851363 
L 268.127218 197.659377 
L 267.976254 198.467391 
L 267.822725 199.275406 
L 267.740211 199.701894 
L 267.665788 200.08342 
L 267.505339 200.891435 
L 267.342387 201.699449 
L 267.176961 202.507464 
L 267.009094 203.315478 
L 266.932197 203.679627 
L 266.837704 204.123492 
L 266.662992 204.931507 
L 266.485902 205.739521 
L 266.306464 206.547536 
L 266.124709 207.35555 
L 266.124183 207.357854 
L 265.938484 208.163564 
L 265.749971 208.971579 
L 265.559208 209.779593 
L 265.366225 210.587608 
L 265.316168 210.794236 
L 265.169323 211.395622 
L 264.969642 212.203637 
L 264.76781 213.011651 
L 264.563856 213.819665 
L 264.508154 214.037459 
L 264.356018 214.62768 
L 264.145433 215.435694 
L 263.932797 216.243709 
L 263.718141 217.051723 
L 263.700139 217.118606 
L 263.499122 217.859737 
L 263.277908 218.667752 
L 263.054745 219.475766 
L 262.892125 220.058866 
L 262.828917 220.283781 
L 262.599235 221.091795 
L 262.367676 221.899809 
L 262.134272 222.707824 
L 262.084111 222.87955 
L 261.896838 223.515838 
L 261.657 224.323853 
L 261.415391 225.131867 
L 261.276096 225.593502 
L 261.170793 225.939882 
L 260.922797 226.747896 
L 260.673105 227.55591 
L 260.468082 228.214426 
L 260.421189 228.363925 
L 260.165162 229.171939 
L 259.907514 229.979954 
L 259.660067 230.75105 
L 259.648133 230.787968 
L 259.384204 231.595982 
L 259.118732 232.403997 
L 258.852053 233.211078 
L 258.851742 233.212011 
L 258.580049 234.020026 
L 258.30689 234.82804 
L 258.044039 235.601338 
L 258.032152 235.636055 
L 257.752835 236.444069 
L 257.472129 237.252083 
L 257.236024 237.927911 
L 257.189512 238.060098 
L 256.902714 238.868112 
L 256.614607 239.676127 
L 256.42801 240.196236 
L 256.323984 240.484141 
L 256.029855 241.292155 
L 255.734497 242.10017 
L 255.619995 242.411197 
L 255.435746 242.908184 
L 255.134439 243.716199 
L 254.831981 244.524213 
L 254.811981 244.577198 
L 254.52499 245.332228 
L 254.216661 246.140242 
L 254.003966 246.694823 
L 253.906096 246.948256 
L 253.591921 247.756271 
L 253.276729 248.564285 
L 253.195952 248.769923 
L 252.957711 249.3723 
L 252.636756 250.180314 
L 252.387938 250.804162 
L 252.313983 250.988328 
L 251.987297 251.796343 
L 251.659727 252.604357 
L 251.579923 252.799915 
L 251.328306 253.412372 
L 250.995093 254.220386 
L 250.771909 254.759336 
L 250.659741 255.0284 
L 250.32092 255.836415 
L 249.981352 256.644429 
L 249.963894 256.685671 
L 249.637172 257.452444 
L 249.292089 258.260458 
L 249.15588 258.577729 
L 248.943812 259.068473 
L 248.593254 259.876487 
L 248.347866 260.440175 
L 248.240809 260.684501 
L 247.884818 261.492516 
L 247.539851 262.274147 
L 247.528131 262.30053 
L 247.16675 263.108545 
L 246.80487 263.916559 
L 246.731837 264.078689 
L 246.439026 264.724573 
L 246.071858 265.532588 
L 245.923822 265.856897 
L 245.701623 266.340602 
L 245.329214 267.148617 
L 245.115808 267.610065 
L 244.95452 267.956631 
L 244.576918 268.764646 
L 244.307793 269.339118 
L 244.197699 269.57266 
L 243.814956 270.380674 
L 243.499779 271.044935 
L 243.431147 271.188689 
L 243.043313 271.996703 
L 242.691765 272.72836 
L 242.65485 272.804718 
L 242.261979 273.612732 
L 241.88375 274.390202 
L 241.8688 274.420746 
L 241.470947 275.228761 
L 241.075736 276.031233 
L 241.07299 276.036775 
L 240.670212 276.84479 
L 240.267721 277.652196 
L 240.267416 277.652804 
L 239.859771 278.460818 
L 239.459707 279.253803 
L 239.452079 279.268833 
L 239.039626 280.076847 
L 238.651693 280.836739 
L 238.62698 280.884862 
L 238.209779 281.692876 
L 237.843678 282.401662 
L 237.792123 282.500891 
L 237.370237 283.308905 
L 237.035664 283.949206 
L 236.947518 284.116919 
L 236.52101 284.924934 
L 236.227649 285.47998 
L 236.093174 285.732948 
L 235.662108 286.540963 
L 235.419635 286.994572 
L 235.229105 287.348977 
L 234.793547 288.156991 
L 234.61162 288.493549 
L 234.355327 288.965006 
L 233.915344 289.77302 
L 233.803606 289.977459 
L 233.471859 290.581035 
L 233.027519 291.389049 
L 232.995592 291.446828 
L 232.578723 292.197064 
L 232.187577 292.900963 
L 232.1294 293.005078 
L 231.675943 293.813092 
L 231.379563 294.340735 
L 231.221208 294.621107 
L 230.763546 295.429121 
L 230.571548 295.767306 
L 230.303357 296.237136 
L 229.841562 297.04515 
L 229.763534 297.181146 
L 229.375878 297.853164 
L 228.95552 298.581793 
L 228.909474 298.661179 
L 228.438805 299.469193 
L 228.147505 299.968891 
L 227.966812 300.277208 
L 227.492175 301.085222 
L 227.339491 301.344453 
L 227.014556 301.893237 
L 226.650096 302.508641 
" clip-path="url(#pef7326ae3b)" style="fill: none; stroke: #008000; stroke-width: 1.5"/>
   </g>
   <g id="line2d_15">
    <path d="M 38.668125 277.248797 
" clip-path="url(#pef7326ae3b)" style="fill: none; stroke: #ff0000; stroke-width: 1.5; stroke-linecap: square"/>
   </g>
   <g id="line2d_16">
    <path d="M 38.668125 277.248797 
" clip-path="url(#pef7326ae3b)" style="fill: none; stroke: #0000ff; stroke-width: 1.5; stroke-linecap: square"/>
   </g>
   <g id="line2d_17">
    <path d="M 38.668125 277.248797 
" clip-path="url(#pef7326ae3b)" style="fill: none; stroke: #008000; stroke-width: 1.5; stroke-linecap: square"/>
   </g>
   <g id="patch_3">
    <path d="M 38.668125 277.248797 
L 38.668125 11.136797 
" style="fill: none; stroke: #000000; stroke-width: 0.8; stroke-linejoin: miter; stroke-linecap: square"/>
   </g>
   <g id="patch_4">
    <path d="M 304.780125 277.248797 
L 304.780125 11.136797 
" style="fill: none; stroke: #000000; stroke-width: 0.8; stroke-linejoin: miter; stroke-linecap: square"/>
   </g>
   <g id="patch_5">
    <path d="M 38.668125 277.248797 
L 304.780125 277.248797 
" style="fill: none; stroke: #000000; stroke-width: 0.8; stroke-linejoin: miter; stroke-linecap: square"/>
   </g>
   <g id="patch_6">
    <path d="M 38.668125 11.136797 
L 304.780125 11.136797 
" style="fill: none; stroke: #000000; stroke-width: 0.8; stroke-linejoin: miter; stroke-linecap: square"/>
   </g>
   <g id="legend_1">
    <g id="patch_7">
     <path d="M 317.711725 168.256328 
L 443.441725 168.256328 
Q 445.641725 168.256328 445.641725 166.056328 
L 445.641725 18.836797 
Q 445.641725 16.636797 443.441725 16.636797 
L 317.711725 16.636797 
Q 315.511725 16.636797 315.511725 18.836797 
L 315.511725 166.056328 
Q 315.511725 168.256328 317.711725 168.256328 
z
" style="fill: #ffffff; opacity: 0.8; stroke: #cccccc; stroke-linejoin: miter"/>
    </g>
    <g id="PathCollection_10">
     <g>
      <use xlink:href="#m1c77bb87b2" x="330.911725" y="26.179297" style="fill: #ff0000; stroke: #000000"/>
     </g>
    </g>
    <g id="text_15">
     <!-- $\epsilon_p$=0.2% Trial 1 -->
     <g transform="translate(350.711725 29.066797) scale(0.11 -0.11)">
      <defs>
       <path id="DejaVuSans-Oblique-3b5" d="M 1263 1888 
Q 925 1963 778 2166 
Q 669 2309 669 2503 
Q 669 3034 1175 3344 
Q 1575 3588 2188 3588 
Q 2425 3588 2684 3550 
Q 2944 3513 3234 3438 
L 3134 2916 
Q 2847 3006 2606 3047 
Q 2359 3088 2138 3088 
Q 1766 3088 1522 2944 
Q 1228 2772 1228 2522 
Q 1228 2356 1381 2241 
Q 1563 2103 1925 2103 
L 2409 2103 
L 2319 1628 
L 1856 1628 
Q 1425 1628 1172 1469 
Q 828 1253 828 916 
Q 828 703 1013 563 
Q 1244 388 1716 388 
Q 2006 388 2284 444 
Q 2563 503 2806 619 
L 2700 84 
Q 2403 -3 2131 -47 
Q 1859 -91 1609 -91 
Q 866 -91 516 194 
Q 250 413 250 781 
Q 250 1278 600 1584 
Q 859 1813 1263 1888 
z
" transform="scale(0.015625)"/>
       <path id="DejaVuSans-Oblique-70" d="M 3175 2156 
Q 3175 2616 2975 2859 
Q 2775 3103 2400 3103 
Q 2144 3103 1911 2972 
Q 1678 2841 1497 2591 
Q 1319 2344 1212 1994 
Q 1106 1644 1106 1300 
Q 1106 863 1306 627 
Q 1506 391 1875 391 
Q 2147 391 2380 519 
Q 2613 647 2778 891 
Q 2956 1147 3065 1494 
Q 3175 1841 3175 2156 
z
M 1394 2969 
Q 1625 3272 1939 3428 
Q 2253 3584 2638 3584 
Q 3175 3584 3472 3232 
Q 3769 2881 3769 2247 
Q 3769 1728 3584 1258 
Q 3400 788 3053 416 
Q 2822 169 2531 39 
Q 2241 -91 1919 -91 
Q 1547 -91 1294 64 
Q 1041 219 916 525 
L 556 -1331 
L -19 -1331 
L 922 3500 
L 1497 3500 
L 1394 2969 
z
" transform="scale(0.015625)"/>
       <path id="ArialMT-3d" d="M 3381 2694 
L 356 2694 
L 356 3219 
L 3381 3219 
L 3381 2694 
z
M 3381 1303 
L 356 1303 
L 356 1828 
L 3381 1828 
L 3381 1303 
z
" transform="scale(0.015625)"/>
       <path id="ArialMT-2e" d="M 581 0 
L 581 641 
L 1222 641 
L 1222 0 
L 581 0 
z
" transform="scale(0.015625)"/>
       <path id="ArialMT-25" d="M 372 3481 
Q 372 3972 619 4315 
Q 866 4659 1334 4659 
Q 1766 4659 2048 4351 
Q 2331 4044 2331 3447 
Q 2331 2866 2045 2552 
Q 1759 2238 1341 2238 
Q 925 2238 648 2547 
Q 372 2856 372 3481 
z
M 1350 4272 
Q 1141 4272 1002 4090 
Q 863 3909 863 3425 
Q 863 2984 1003 2804 
Q 1144 2625 1350 2625 
Q 1563 2625 1702 2806 
Q 1841 2988 1841 3469 
Q 1841 3913 1700 4092 
Q 1559 4272 1350 4272 
z
M 1353 -169 
L 3859 4659 
L 4316 4659 
L 1819 -169 
L 1353 -169 
z
M 3334 1075 
Q 3334 1569 3581 1911 
Q 3828 2253 4300 2253 
Q 4731 2253 5014 1945 
Q 5297 1638 5297 1041 
Q 5297 459 5011 145 
Q 4725 -169 4303 -169 
Q 3888 -169 3611 142 
Q 3334 453 3334 1075 
z
M 4316 1866 
Q 4103 1866 3964 1684 
Q 3825 1503 3825 1019 
Q 3825 581 3965 400 
Q 4106 219 4313 219 
Q 4528 219 4667 400 
Q 4806 581 4806 1063 
Q 4806 1506 4665 1686 
Q 4525 1866 4316 1866 
z
" transform="scale(0.015625)"/>
       <path id="ArialMT-20" transform="scale(0.015625)"/>
       <path id="ArialMT-54" d="M 1659 0 
L 1659 4041 
L 150 4041 
L 150 4581 
L 3781 4581 
L 3781 4041 
L 2266 4041 
L 2266 0 
L 1659 0 
z
" transform="scale(0.015625)"/>
       <path id="ArialMT-72" d="M 416 0 
L 416 3319 
L 922 3319 
L 922 2816 
Q 1116 3169 1280 3281 
Q 1444 3394 1641 3394 
Q 1925 3394 2219 3213 
L 2025 2691 
Q 1819 2813 1613 2813 
Q 1428 2813 1281 2702 
Q 1134 2591 1072 2394 
Q 978 2094 978 1738 
L 978 0 
L 416 0 
z
" transform="scale(0.015625)"/>
       <path id="ArialMT-69" d="M 425 3934 
L 425 4581 
L 988 4581 
L 988 3934 
L 425 3934 
z
M 425 0 
L 425 3319 
L 988 3319 
L 988 0 
L 425 0 
z
" transform="scale(0.015625)"/>
       <path id="ArialMT-61" d="M 2588 409 
Q 2275 144 1986 34 
Q 1697 -75 1366 -75 
Q 819 -75 525 192 
Q 231 459 231 875 
Q 231 1119 342 1320 
Q 453 1522 633 1644 
Q 813 1766 1038 1828 
Q 1203 1872 1538 1913 
Q 2219 1994 2541 2106 
Q 2544 2222 2544 2253 
Q 2544 2597 2384 2738 
Q 2169 2928 1744 2928 
Q 1347 2928 1158 2789 
Q 969 2650 878 2297 
L 328 2372 
Q 403 2725 575 2942 
Q 747 3159 1072 3276 
Q 1397 3394 1825 3394 
Q 2250 3394 2515 3294 
Q 2781 3194 2906 3042 
Q 3031 2891 3081 2659 
Q 3109 2516 3109 2141 
L 3109 1391 
Q 3109 606 3145 398 
Q 3181 191 3288 0 
L 2700 0 
Q 2613 175 2588 409 
z
M 2541 1666 
Q 2234 1541 1622 1453 
Q 1275 1403 1131 1340 
Q 988 1278 909 1158 
Q 831 1038 831 891 
Q 831 666 1001 516 
Q 1172 366 1500 366 
Q 1825 366 2078 508 
Q 2331 650 2450 897 
Q 2541 1088 2541 1459 
L 2541 1666 
z
" transform="scale(0.015625)"/>
       <path id="ArialMT-6c" d="M 409 0 
L 409 4581 
L 972 4581 
L 972 0 
L 409 0 
z
" transform="scale(0.015625)"/>
      </defs>
      <use xlink:href="#DejaVuSans-Oblique-3b5" transform="translate(0 0.203125)"/>
      <use xlink:href="#DejaVuSans-Oblique-70" transform="translate(54.052734 -16.203125) scale(0.7)"/>
      <use xlink:href="#ArialMT-3d" transform="translate(101.220703 0.203125)"/>
      <use xlink:href="#ArialMT-30" transform="translate(159.619141 0.203125)"/>
      <use xlink:href="#ArialMT-2e" transform="translate(215.234375 0.203125)"/>
      <use xlink:href="#ArialMT-32" transform="translate(243.017578 0.203125)"/>
      <use xlink:href="#ArialMT-25" transform="translate(298.632812 0.203125)"/>
      <use xlink:href="#ArialMT-20" transform="translate(387.548828 0.203125)"/>
      <use xlink:href="#ArialMT-54" transform="translate(415.332031 0.203125)"/>
      <use xlink:href="#ArialMT-72" transform="translate(476.416016 0.203125)"/>
      <use xlink:href="#ArialMT-69" transform="translate(509.716797 0.203125)"/>
      <use xlink:href="#ArialMT-61" transform="translate(531.933594 0.203125)"/>
      <use xlink:href="#ArialMT-6c" transform="translate(587.548828 0.203125)"/>
      <use xlink:href="#ArialMT-20" transform="translate(609.765625 0.203125)"/>
      <use xlink:href="#ArialMT-31" transform="translate(637.548828 0.203125)"/>
     </g>
    </g>
    <g id="PathCollection_11">
     <g>
      <use xlink:href="#mab3eee4aa7" x="330.911725" y="43.119297" style="fill: #ff0000; stroke: #000000"/>
     </g>
    </g>
    <g id="text_16">
     <!-- $\epsilon_p$=0.2% Trial 2 -->
     <g transform="translate(350.711725 46.006797) scale(0.11 -0.11)">
      <use xlink:href="#DejaVuSans-Oblique-3b5" transform="translate(0 0.203125)"/>
      <use xlink:href="#DejaVuSans-Oblique-70" transform="translate(54.052734 -16.203125) scale(0.7)"/>
      <use xlink:href="#ArialMT-3d" transform="translate(101.220703 0.203125)"/>
      <use xlink:href="#ArialMT-30" transform="translate(159.619141 0.203125)"/>
      <use xlink:href="#ArialMT-2e" transform="translate(215.234375 0.203125)"/>
      <use xlink:href="#ArialMT-32" transform="translate(243.017578 0.203125)"/>
      <use xlink:href="#ArialMT-25" transform="translate(298.632812 0.203125)"/>
      <use xlink:href="#ArialMT-20" transform="translate(387.548828 0.203125)"/>
      <use xlink:href="#ArialMT-54" transform="translate(415.332031 0.203125)"/>
      <use xlink:href="#ArialMT-72" transform="translate(476.416016 0.203125)"/>
      <use xlink:href="#ArialMT-69" transform="translate(509.716797 0.203125)"/>
      <use xlink:href="#ArialMT-61" transform="translate(531.933594 0.203125)"/>
      <use xlink:href="#ArialMT-6c" transform="translate(587.548828 0.203125)"/>
      <use xlink:href="#ArialMT-20" transform="translate(609.765625 0.203125)"/>
      <use xlink:href="#ArialMT-32" transform="translate(637.548828 0.203125)"/>
     </g>
    </g>
    <g id="PathCollection_12">
     <g>
      <use xlink:href="#m560c71d62e" x="330.911725" y="60.059297" style="fill: #0000ff; stroke: #000000"/>
     </g>
    </g>
    <g id="text_17">
     <!-- $\epsilon_p$=0.5% Trial 1 -->
     <g transform="translate(350.711725 62.946797) scale(0.11 -0.11)">
      <defs>
       <path id="ArialMT-35" d="M 266 1200 
L 856 1250 
Q 922 819 1161 601 
Q 1400 384 1738 384 
Q 2144 384 2425 690 
Q 2706 997 2706 1503 
Q 2706 1984 2436 2262 
Q 2166 2541 1728 2541 
Q 1456 2541 1237 2417 
Q 1019 2294 894 2097 
L 366 2166 
L 809 4519 
L 3088 4519 
L 3088 3981 
L 1259 3981 
L 1013 2750 
Q 1425 3038 1878 3038 
Q 2478 3038 2890 2622 
Q 3303 2206 3303 1553 
Q 3303 931 2941 478 
Q 2500 -78 1738 -78 
Q 1113 -78 717 272 
Q 322 622 266 1200 
z
" transform="scale(0.015625)"/>
      </defs>
      <use xlink:href="#DejaVuSans-Oblique-3b5" transform="translate(0 0.203125)"/>
      <use xlink:href="#DejaVuSans-Oblique-70" transform="translate(54.052734 -16.203125) scale(0.7)"/>
      <use xlink:href="#ArialMT-3d" transform="translate(101.220703 0.203125)"/>
      <use xlink:href="#ArialMT-30" transform="translate(159.619141 0.203125)"/>
      <use xlink:href="#ArialMT-2e" transform="translate(215.234375 0.203125)"/>
      <use xlink:href="#ArialMT-35" transform="translate(243.017578 0.203125)"/>
      <use xlink:href="#ArialMT-25" transform="translate(298.632812 0.203125)"/>
      <use xlink:href="#ArialMT-20" transform="translate(387.548828 0.203125)"/>
      <use xlink:href="#ArialMT-54" transform="translate(415.332031 0.203125)"/>
      <use xlink:href="#ArialMT-72" transform="translate(476.416016 0.203125)"/>
      <use xlink:href="#ArialMT-69" transform="translate(509.716797 0.203125)"/>
      <use xlink:href="#ArialMT-61" transform="translate(531.933594 0.203125)"/>
      <use xlink:href="#ArialMT-6c" transform="translate(587.548828 0.203125)"/>
      <use xlink:href="#ArialMT-20" transform="translate(609.765625 0.203125)"/>
      <use xlink:href="#ArialMT-31" transform="translate(637.548828 0.203125)"/>
     </g>
    </g>
    <g id="PathCollection_13">
     <g>
      <use xlink:href="#m43167df328" x="330.911725" y="76.999297" style="fill: #0000ff; stroke: #000000"/>
     </g>
    </g>
    <g id="text_18">
     <!-- $\epsilon_p$=0.5% Trial 2 -->
     <g transform="translate(350.711725 79.886797) scale(0.11 -0.11)">
      <use xlink:href="#DejaVuSans-Oblique-3b5" transform="translate(0 0.203125)"/>
      <use xlink:href="#DejaVuSans-Oblique-70" transform="translate(54.052734 -16.203125) scale(0.7)"/>
      <use xlink:href="#ArialMT-3d" transform="translate(101.220703 0.203125)"/>
      <use xlink:href="#ArialMT-30" transform="translate(159.619141 0.203125)"/>
      <use xlink:href="#ArialMT-2e" transform="translate(215.234375 0.203125)"/>
      <use xlink:href="#ArialMT-35" transform="translate(243.017578 0.203125)"/>
      <use xlink:href="#ArialMT-25" transform="translate(298.632812 0.203125)"/>
      <use xlink:href="#ArialMT-20" transform="translate(387.548828 0.203125)"/>
      <use xlink:href="#ArialMT-54" transform="translate(415.332031 0.203125)"/>
      <use xlink:href="#ArialMT-72" transform="translate(476.416016 0.203125)"/>
      <use xlink:href="#ArialMT-69" transform="translate(509.716797 0.203125)"/>
      <use xlink:href="#ArialMT-61" transform="translate(531.933594 0.203125)"/>
      <use xlink:href="#ArialMT-6c" transform="translate(587.548828 0.203125)"/>
      <use xlink:href="#ArialMT-20" transform="translate(609.765625 0.203125)"/>
      <use xlink:href="#ArialMT-32" transform="translate(637.548828 0.203125)"/>
     </g>
    </g>
    <g id="PathCollection_14">
     <g>
      <use xlink:href="#m30b4594ad0" x="330.911725" y="93.939297" style="fill: #008000; stroke: #000000"/>
     </g>
    </g>
    <g id="text_19">
     <!-- $\epsilon_p$=1.0% Trial 1 -->
     <g transform="translate(350.711725 96.826797) scale(0.11 -0.11)">
      <use xlink:href="#DejaVuSans-Oblique-3b5" transform="translate(0 0.203125)"/>
      <use xlink:href="#DejaVuSans-Oblique-70" transform="translate(54.052734 -16.203125) scale(0.7)"/>
      <use xlink:href="#ArialMT-3d" transform="translate(101.220703 0.203125)"/>
      <use xlink:href="#ArialMT-31" transform="translate(159.619141 0.203125)"/>
      <use xlink:href="#ArialMT-2e" transform="translate(215.234375 0.203125)"/>
      <use xlink:href="#ArialMT-30" transform="translate(243.017578 0.203125)"/>
      <use xlink:href="#ArialMT-25" transform="translate(298.632812 0.203125)"/>
      <use xlink:href="#ArialMT-20" transform="translate(387.548828 0.203125)"/>
      <use xlink:href="#ArialMT-54" transform="translate(415.332031 0.203125)"/>
      <use xlink:href="#ArialMT-72" transform="translate(476.416016 0.203125)"/>
      <use xlink:href="#ArialMT-69" transform="translate(509.716797 0.203125)"/>
      <use xlink:href="#ArialMT-61" transform="translate(531.933594 0.203125)"/>
      <use xlink:href="#ArialMT-6c" transform="translate(587.548828 0.203125)"/>
      <use xlink:href="#ArialMT-20" transform="translate(609.765625 0.203125)"/>
      <use xlink:href="#ArialMT-31" transform="translate(637.548828 0.203125)"/>
     </g>
    </g>
    <g id="PathCollection_15">
     <g>
      <use xlink:href="#mcc670e9677" x="330.911725" y="110.879297" style="fill: #008000; stroke: #000000"/>
     </g>
    </g>
    <g id="text_20">
     <!-- $\epsilon_p$=1.0% Trial 2 -->
     <g transform="translate(350.711725 113.766797) scale(0.11 -0.11)">
      <use xlink:href="#DejaVuSans-Oblique-3b5" transform="translate(0 0.203125)"/>
      <use xlink:href="#DejaVuSans-Oblique-70" transform="translate(54.052734 -16.203125) scale(0.7)"/>
      <use xlink:href="#ArialMT-3d" transform="translate(101.220703 0.203125)"/>
      <use xlink:href="#ArialMT-31" transform="translate(159.619141 0.203125)"/>
      <use xlink:href="#ArialMT-2e" transform="translate(215.234375 0.203125)"/>
      <use xlink:href="#ArialMT-30" transform="translate(243.017578 0.203125)"/>
      <use xlink:href="#ArialMT-25" transform="translate(298.632812 0.203125)"/>
      <use xlink:href="#ArialMT-20" transform="translate(387.548828 0.203125)"/>
      <use xlink:href="#ArialMT-54" transform="translate(415.332031 0.203125)"/>
      <use xlink:href="#ArialMT-72" transform="translate(476.416016 0.203125)"/>
      <use xlink:href="#ArialMT-69" transform="translate(509.716797 0.203125)"/>
      <use xlink:href="#ArialMT-61" transform="translate(531.933594 0.203125)"/>
      <use xlink:href="#ArialMT-6c" transform="translate(587.548828 0.203125)"/>
      <use xlink:href="#ArialMT-20" transform="translate(609.765625 0.203125)"/>
      <use xlink:href="#ArialMT-32" transform="translate(637.548828 0.203125)"/>
     </g>
    </g>
    <g id="line2d_18">
     <path d="M 319.911725 126.700391 
L 330.911725 126.700391 
L 341.911725 126.700391 
" style="fill: none; stroke: #ff0000; stroke-width: 1.5; stroke-linecap: square"/>
    </g>
    <g id="text_21">
     <!-- M&amp;A $ \bar \sigma $ = 778 MPa -->
     <g transform="translate(350.711725 130.550391) scale(0.11 -0.11)">
      <defs>
       <path id="ArialMT-4d" d="M 475 0 
L 475 4581 
L 1388 4581 
L 2472 1338 
Q 2622 884 2691 659 
Q 2769 909 2934 1394 
L 4031 4581 
L 4847 4581 
L 4847 0 
L 4263 0 
L 4263 3834 
L 2931 0 
L 2384 0 
L 1059 3900 
L 1059 0 
L 475 0 
z
" transform="scale(0.015625)"/>
       <path id="ArialMT-26" d="M 3041 541 
Q 2763 231 2434 76 
Q 2106 -78 1725 -78 
Q 1022 -78 609 397 
Q 275 784 275 1263 
Q 275 1688 548 2030 
Q 822 2372 1366 2631 
Q 1056 2988 953 3209 
Q 850 3431 850 3638 
Q 850 4050 1173 4354 
Q 1497 4659 1988 4659 
Q 2456 4659 2754 4371 
Q 3053 4084 3053 3681 
Q 3053 3028 2188 2566 
L 3009 1519 
Q 3150 1794 3228 2156 
L 3813 2031 
Q 3663 1431 3406 1044 
Q 3722 625 4122 341 
L 3744 -106 
Q 3403 113 3041 541 
z
M 1897 2928 
Q 2263 3144 2370 3306 
Q 2478 3469 2478 3666 
Q 2478 3900 2329 4048 
Q 2181 4197 1959 4197 
Q 1731 4197 1579 4050 
Q 1428 3903 1428 3691 
Q 1428 3584 1483 3467 
Q 1538 3350 1647 3219 
L 1897 2928 
z
M 2688 984 
L 1656 2263 
Q 1200 1991 1040 1758 
Q 881 1525 881 1297 
Q 881 1019 1103 719 
Q 1325 419 1731 419 
Q 1984 419 2254 576 
Q 2525 734 2688 984 
z
" transform="scale(0.015625)"/>
       <path id="ArialMT-41" d="M -9 0 
L 1750 4581 
L 2403 4581 
L 4278 0 
L 3588 0 
L 3053 1388 
L 1138 1388 
L 634 0 
L -9 0 
z
M 1313 1881 
L 2866 1881 
L 2388 3150 
Q 2169 3728 2063 4100 
Q 1975 3659 1816 3225 
L 1313 1881 
z
" transform="scale(0.015625)"/>
       <path id="DejaVuSans-304" d="M -2518 4769 
L -650 4769 
L -650 4306 
L -2518 4306 
L -2518 4769 
z
" transform="scale(0.015625)"/>
       <path id="DejaVuSans-Oblique-3c3" d="M 2219 3044 
Q 1744 3044 1422 2700 
Q 1081 2341 969 1747 
Q 844 1119 1044 756 
Q 1241 397 1706 397 
Q 2166 397 2503 759 
Q 2844 1122 2966 1747 
Q 3075 2319 2881 2700 
Q 2700 3044 2219 3044 
z
M 2309 3503 
L 4219 3500 
L 4106 2925 
L 3463 2925 
Q 3706 2438 3575 1747 
Q 3406 888 2884 400 
Q 2359 -91 1609 -91 
Q 856 -91 525 400 
Q 194 888 363 1747 
Q 528 2609 1050 3097 
Q 1484 3503 2309 3503 
z
" transform="scale(0.015625)"/>
       <path id="ArialMT-37" d="M 303 3981 
L 303 4522 
L 3269 4522 
L 3269 4084 
Q 2831 3619 2401 2847 
Q 1972 2075 1738 1259 
Q 1569 684 1522 0 
L 944 0 
Q 953 541 1156 1306 
Q 1359 2072 1739 2783 
Q 2119 3494 2547 3981 
L 303 3981 
z
" transform="scale(0.015625)"/>
       <path id="ArialMT-50" d="M 494 0 
L 494 4581 
L 2222 4581 
Q 2678 4581 2919 4538 
Q 3256 4481 3484 4323 
Q 3713 4166 3852 3881 
Q 3991 3597 3991 3256 
Q 3991 2672 3619 2267 
Q 3247 1863 2275 1863 
L 1100 1863 
L 1100 0 
L 494 0 
z
M 1100 2403 
L 2284 2403 
Q 2872 2403 3119 2622 
Q 3366 2841 3366 3238 
Q 3366 3525 3220 3729 
Q 3075 3934 2838 4000 
Q 2684 4041 2272 4041 
L 1100 4041 
L 1100 2403 
z
" transform="scale(0.015625)"/>
      </defs>
      <use xlink:href="#ArialMT-4d" transform="translate(0 0.53125)"/>
      <use xlink:href="#ArialMT-26" transform="translate(83.300781 0.53125)"/>
      <use xlink:href="#ArialMT-41" transform="translate(150 0.53125)"/>
      <use xlink:href="#ArialMT-20" transform="translate(216.699219 0.53125)"/>
      <use xlink:href="#DejaVuSans-304" transform="translate(308.548828 0.484375)"/>
      <use xlink:href="#DejaVuSans-Oblique-3c3" transform="translate(244.482422 0.53125)"/>
      <use xlink:href="#ArialMT-20" transform="translate(307.861328 0.53125)"/>
      <use xlink:href="#ArialMT-3d" transform="translate(335.644531 0.53125)"/>
      <use xlink:href="#ArialMT-20" transform="translate(394.042969 0.53125)"/>
      <use xlink:href="#ArialMT-37" transform="translate(421.826172 0.53125)"/>
      <use xlink:href="#ArialMT-37" transform="translate(477.441406 0.53125)"/>
      <use xlink:href="#ArialMT-38" transform="translate(533.056641 0.53125)"/>
      <use xlink:href="#ArialMT-20" transform="translate(588.671875 0.53125)"/>
      <use xlink:href="#ArialMT-4d" transform="translate(616.455078 0.53125)"/>
      <use xlink:href="#ArialMT-50" transform="translate(699.755859 0.53125)"/>
      <use xlink:href="#ArialMT-61" transform="translate(766.455078 0.53125)"/>
     </g>
    </g>
    <g id="line2d_19">
     <path d="M 319.911725 142.260234 
L 330.911725 142.260234 
L 341.911725 142.260234 
" style="fill: none; stroke: #0000ff; stroke-width: 1.5; stroke-linecap: square"/>
    </g>
    <g id="text_22">
     <!-- M&amp;A $ \bar \sigma $ = 847 MPa -->
     <g transform="translate(350.711725 146.110234) scale(0.11 -0.11)">
      <use xlink:href="#ArialMT-4d" transform="translate(0 0.53125)"/>
      <use xlink:href="#ArialMT-26" transform="translate(83.300781 0.53125)"/>
      <use xlink:href="#ArialMT-41" transform="translate(150 0.53125)"/>
      <use xlink:href="#ArialMT-20" transform="translate(216.699219 0.53125)"/>
      <use xlink:href="#DejaVuSans-304" transform="translate(308.548828 0.484375)"/>
      <use xlink:href="#DejaVuSans-Oblique-3c3" transform="translate(244.482422 0.53125)"/>
      <use xlink:href="#ArialMT-20" transform="translate(307.861328 0.53125)"/>
      <use xlink:href="#ArialMT-3d" transform="translate(335.644531 0.53125)"/>
      <use xlink:href="#ArialMT-20" transform="translate(394.042969 0.53125)"/>
      <use xlink:href="#ArialMT-38" transform="translate(421.826172 0.53125)"/>
      <use xlink:href="#ArialMT-34" transform="translate(477.441406 0.53125)"/>
      <use xlink:href="#ArialMT-37" transform="translate(533.056641 0.53125)"/>
      <use xlink:href="#ArialMT-20" transform="translate(588.671875 0.53125)"/>
      <use xlink:href="#ArialMT-4d" transform="translate(616.455078 0.53125)"/>
      <use xlink:href="#ArialMT-50" transform="translate(699.755859 0.53125)"/>
      <use xlink:href="#ArialMT-61" transform="translate(766.455078 0.53125)"/>
     </g>
    </g>
    <g id="line2d_20">
     <path d="M 319.911725 157.820078 
L 330.911725 157.820078 
L 341.911725 157.820078 
" style="fill: none; stroke: #008000; stroke-width: 1.5; stroke-linecap: square"/>
    </g>
    <g id="text_23">
     <!-- M&amp;A $ \bar \sigma $ = 907 MPa -->
     <g transform="translate(350.711725 161.670078) scale(0.11 -0.11)">
      <defs>
       <path id="ArialMT-39" d="M 350 1059 
L 891 1109 
Q 959 728 1153 556 
Q 1347 384 1650 384 
Q 1909 384 2104 503 
Q 2300 622 2425 820 
Q 2550 1019 2634 1356 
Q 2719 1694 2719 2044 
Q 2719 2081 2716 2156 
Q 2547 1888 2255 1720 
Q 1963 1553 1622 1553 
Q 1053 1553 659 1965 
Q 266 2378 266 3053 
Q 266 3750 677 4175 
Q 1088 4600 1706 4600 
Q 2153 4600 2523 4359 
Q 2894 4119 3086 3673 
Q 3278 3228 3278 2384 
Q 3278 1506 3087 986 
Q 2897 466 2520 194 
Q 2144 -78 1638 -78 
Q 1100 -78 759 220 
Q 419 519 350 1059 
z
M 2653 3081 
Q 2653 3566 2395 3850 
Q 2138 4134 1775 4134 
Q 1400 4134 1122 3828 
Q 844 3522 844 3034 
Q 844 2597 1108 2323 
Q 1372 2050 1759 2050 
Q 2150 2050 2401 2323 
Q 2653 2597 2653 3081 
z
" transform="scale(0.015625)"/>
      </defs>
      <use xlink:href="#ArialMT-4d" transform="translate(0 0.53125)"/>
      <use xlink:href="#ArialMT-26" transform="translate(83.300781 0.53125)"/>
      <use xlink:href="#ArialMT-41" transform="translate(150 0.53125)"/>
      <use xlink:href="#ArialMT-20" transform="translate(216.699219 0.53125)"/>
      <use xlink:href="#DejaVuSans-304" transform="translate(308.548828 0.484375)"/>
      <use xlink:href="#DejaVuSans-Oblique-3c3" transform="translate(244.482422 0.53125)"/>
      <use xlink:href="#ArialMT-20" transform="translate(307.861328 0.53125)"/>
      <use xlink:href="#ArialMT-3d" transform="translate(335.644531 0.53125)"/>
      <use xlink:href="#ArialMT-20" transform="translate(394.042969 0.53125)"/>
      <use xlink:href="#ArialMT-39" transform="translate(421.826172 0.53125)"/>
      <use xlink:href="#ArialMT-30" transform="translate(477.441406 0.53125)"/>
      <use xlink:href="#ArialMT-37" transform="translate(533.056641 0.53125)"/>
      <use xlink:href="#ArialMT-20" transform="translate(588.671875 0.53125)"/>
      <use xlink:href="#ArialMT-4d" transform="translate(616.455078 0.53125)"/>
      <use xlink:href="#ArialMT-50" transform="translate(699.755859 0.53125)"/>
      <use xlink:href="#ArialMT-61" transform="translate(766.455078 0.53125)"/>
     </g>
    </g>
   </g>
  </g>
 </g>
 <defs>
  <clipPath id="pef7326ae3b">
   <rect x="38.668125" y="11.136797" width="266.112" height="266.112"/>
  </clipPath>
 </defs>
</svg>
