<?xml version="1.0" encoding="utf-8" standalone="no"?>
<!DOCTYPE svg PUBLIC "-//W3C//DTD SVG 1.1//EN"
  "http://www.w3.org/Graphics/SVG/1.1/DTD/svg11.dtd">
<svg xmlns:xlink="http://www.w3.org/1999/xlink" width="467.291725pt" height="315.958641pt" viewBox="0 0 467.291725 315.958641" xmlns="http://www.w3.org/2000/svg" version="1.1">
 <metadata>
  <rdf:RDF xmlns:dc="http://purl.org/dc/elements/1.1/" xmlns:cc="http://creativecommons.org/ns#" xmlns:rdf="http://www.w3.org/1999/02/22-rdf-syntax-ns#">
   <cc:Work>
    <dc:type rdf:resource="http://purl.org/dc/dcmitype/StillImage"/>
    <dc:date>2023-03-09T02:47:16.508583</dc:date>
    <dc:format>image/svg+xml</dc:format>
    <dc:creator>
     <cc:Agent>
      <dc:title>Matplotlib v3.6.2, https://matplotlib.org/</dc:title>
     </cc:Agent>
    </dc:creator>
   </cc:Work>
  </rdf:RDF>
 </metadata>
 <defs>
  <style type="text/css">*{stroke-linejoin: round; stroke-linecap: butt}</style>
 </defs>
 <g id="figure_1">
  <g id="patch_1">
   <path d="M 0 315.958641 
L 467.291725 315.958641 
L 467.291725 0 
L 0 0 
z
" style="fill: #ffffff"/>
  </g>
  <g id="axes_1">
   <g id="patch_2">
    <path d="M 53.118125 277.248797 
L 319.230125 277.248797 
L 319.230125 11.136797 
L 53.118125 11.136797 
z
" style="fill: #ffffff"/>
   </g>
   <g id="PathCollection_1">
    <defs>
     <path id="m8c20d30f4c" d="M 0 4.472136 
C 1.186024 4.472136 2.323632 4.000923 3.162278 3.162278 
C 4.000923 2.323632 4.472136 1.186024 4.472136 0 
C 4.472136 -1.186024 4.000923 -2.323632 3.162278 -3.162278 
C 2.323632 -4.000923 1.186024 -4.472136 0 -4.472136 
C -1.186024 -4.472136 -2.323632 -4.000923 -3.162278 -3.162278 
C -4.000923 -2.323632 -4.472136 -1.186024 -4.472136 0 
C -4.472136 1.186024 -4.000923 2.323632 -3.162278 3.162278 
C -2.323632 4.000923 -1.186024 4.472136 0 4.472136 
z
" style="stroke: #000000"/>
    </defs>
    <g clip-path="url(#pf9cfd66b21)">
     <use xlink:href="#m8c20d30f4c" x="207.789072" y="277.248797" style="fill: #ff0000; stroke: #000000"/>
     <use xlink:href="#m8c20d30f4c" x="245.526415" y="180.752372" style="fill: #ff0000; stroke: #000000"/>
     <use xlink:href="#m8c20d30f4c" x="212.435609" y="118.437369" style="fill: #ff0000; stroke: #000000"/>
     <use xlink:href="#m8c20d30f4c" x="148.227219" y="87.284524" style="fill: #ff0000; stroke: #000000"/>
     <use xlink:href="#m8c20d30f4c" x="53.118125" y="122.57785" style="fill: #ff0000; stroke: #000000"/>
    </g>
   </g>
   <g id="PathCollection_2">
    <defs>
     <path id="mee46af1f87" d="M 0 -4.472136 
L -4.472136 4.472136 
L 4.472136 4.472136 
z
" style="stroke: #000000"/>
    </defs>
    <g clip-path="url(#pf9cfd66b21)">
     <use xlink:href="#mee46af1f87" x="207.789072" y="277.248797" style="fill: #ff0000; stroke: #000000"/>
     <use xlink:href="#mee46af1f87" x="241.619447" y="182.586771" style="fill: #ff0000; stroke: #000000"/>
     <use xlink:href="#mee46af1f87" x="210.222223" y="120.680249" style="fill: #ff0000; stroke: #000000"/>
     <use xlink:href="#mee46af1f87" x="145.127458" y="92.616078" style="fill: #ff0000; stroke: #000000"/>
     <use xlink:href="#mee46af1f87" x="53.118125" y="122.57785" style="fill: #ff0000; stroke: #000000"/>
    </g>
   </g>
   <g id="PathCollection_3">
    <defs>
     <path id="m42edbad66c" d="M 0 4.472136 
C 1.186024 4.472136 2.323632 4.000923 3.162278 3.162278 
C 4.000923 2.323632 4.472136 1.186024 4.472136 0 
C 4.472136 -1.186024 4.000923 -2.323632 3.162278 -3.162278 
C 2.323632 -4.000923 1.186024 -4.472136 0 -4.472136 
C -1.186024 -4.472136 -2.323632 -4.000923 -3.162278 -3.162278 
C -4.000923 -2.323632 -4.472136 -1.186024 -4.472136 0 
C -4.472136 1.186024 -4.000923 2.323632 -3.162278 3.162278 
C -2.323632 4.000923 -1.186024 4.472136 0 4.472136 
z
" style="stroke: #000000"/>
    </defs>
    <g clip-path="url(#pf9cfd66b21)">
     <use xlink:href="#m42edbad66c" x="230.260013" y="277.248797" style="fill: #0000ff; stroke: #000000"/>
     <use xlink:href="#m42edbad66c" x="269.025435" y="169.147671" style="fill: #0000ff; stroke: #000000"/>
     <use xlink:href="#m42edbad66c" x="234.172303" y="96.463614" style="fill: #0000ff; stroke: #000000"/>
     <use xlink:href="#m42edbad66c" x="161.931765" y="60.105618" style="fill: #0000ff; stroke: #000000"/>
     <use xlink:href="#m42edbad66c" x="53.118125" y="100.106909" style="fill: #0000ff; stroke: #000000"/>
    </g>
   </g>
   <g id="PathCollection_4">
    <defs>
     <path id="md1670c6aa6" d="M 0 -4.472136 
L -4.472136 4.472136 
L 4.472136 4.472136 
z
" style="stroke: #000000"/>
    </defs>
    <g clip-path="url(#pf9cfd66b21)">
     <use xlink:href="#md1670c6aa6" x="230.260013" y="277.248797" style="fill: #0000ff; stroke: #000000"/>
     <use xlink:href="#md1670c6aa6" x="266.973046" y="170.007657" style="fill: #0000ff; stroke: #000000"/>
     <use xlink:href="#md1670c6aa6" x="232.15717" y="98.523099" style="fill: #0000ff; stroke: #000000"/>
     <use xlink:href="#md1670c6aa6" x="160.058559" y="63.280778" style="fill: #0000ff; stroke: #000000"/>
     <use xlink:href="#md1670c6aa6" x="53.118125" y="100.106909" style="fill: #0000ff; stroke: #000000"/>
    </g>
   </g>
   <g id="PathCollection_5">
    <defs>
     <path id="mafae097452" d="M 0 4.472136 
C 1.186024 4.472136 2.323632 4.000923 3.162278 3.162278 
C 4.000923 2.323632 4.472136 1.186024 4.472136 0 
C 4.472136 -1.186024 4.000923 -2.323632 3.162278 -3.162278 
C 2.323632 -4.000923 1.186024 -4.472136 0 -4.472136 
C -1.186024 -4.472136 -2.323632 -4.000923 -3.162278 -3.162278 
C -4.000923 -2.323632 -4.472136 -1.186024 -4.472136 0 
C -4.472136 1.186024 -4.000923 2.323632 -3.162278 3.162278 
C -2.323632 4.000923 -1.186024 4.472136 0 4.472136 
z
" style="stroke: #000000"/>
    </defs>
    <g clip-path="url(#pf9cfd66b21)">
     <use xlink:href="#mafae097452" x="249.019357" y="277.248797" style="fill: #008000; stroke: #000000"/>
     <use xlink:href="#mafae097452" x="289.062116" y="158.949816" style="fill: #008000; stroke: #000000"/>
     <use xlink:href="#mafae097452" x="253.180018" y="77.287361" style="fill: #008000; stroke: #000000"/>
     <use xlink:href="#mafae097452" x="173.213805" y="37.88194" style="fill: #008000; stroke: #000000"/>
     <use xlink:href="#mafae097452" x="53.118125" y="81.347565" style="fill: #008000; stroke: #000000"/>
    </g>
   </g>
   <g id="PathCollection_6">
    <defs>
     <path id="m74bf3c951c" d="M 0 -4.472136 
L -4.472136 4.472136 
L 4.472136 4.472136 
z
" style="stroke: #000000"/>
    </defs>
    <g clip-path="url(#pf9cfd66b21)">
     <use xlink:href="#m74bf3c951c" x="249.019357" y="277.248797" style="fill: #008000; stroke: #000000"/>
     <use xlink:href="#m74bf3c951c" x="287.751071" y="159.519739" style="fill: #008000; stroke: #000000"/>
     <use xlink:href="#m74bf3c951c" x="250.854864" y="79.872418" style="fill: #008000; stroke: #000000"/>
     <use xlink:href="#m74bf3c951c" x="171.662594" y="40.213746" style="fill: #008000; stroke: #000000"/>
     <use xlink:href="#m74bf3c951c" x="53.118125" y="81.347565" style="fill: #008000; stroke: #000000"/>
    </g>
   </g>
   <g id="matplotlib.axis_1">
    <g id="xtick_1">
     <g id="line2d_1">
      <defs>
       <path id="mea40f7b0c1" d="M 0 0 
L 0 3.5 
" style="stroke: #000000; stroke-width: 0.8"/>
      </defs>
      <g>
       <use xlink:href="#mea40f7b0c1" x="53.118125" y="277.248797" style="stroke: #000000; stroke-width: 0.8"/>
      </g>
     </g>
     <g id="text_1">
      <!-- 0 -->
      <g transform="translate(50.059609 292.122391) scale(0.11 -0.11)">
       <defs>
        <path id="ArialMT-30" d="M 266 2259 
Q 266 3072 433 3567 
Q 600 4063 929 4331 
Q 1259 4600 1759 4600 
Q 2128 4600 2406 4451 
Q 2684 4303 2865 4023 
Q 3047 3744 3150 3342 
Q 3253 2941 3253 2259 
Q 3253 1453 3087 958 
Q 2922 463 2592 192 
Q 2263 -78 1759 -78 
Q 1097 -78 719 397 
Q 266 969 266 2259 
z
M 844 2259 
Q 844 1131 1108 757 
Q 1372 384 1759 384 
Q 2147 384 2411 759 
Q 2675 1134 2675 2259 
Q 2675 3391 2411 3762 
Q 2147 4134 1753 4134 
Q 1366 4134 1134 3806 
Q 844 3388 844 2259 
z
" transform="scale(0.015625)"/>
       </defs>
       <use xlink:href="#ArialMT-30"/>
      </g>
     </g>
    </g>
    <g id="xtick_2">
     <g id="line2d_2">
      <g>
       <use xlink:href="#mea40f7b0c1" x="97.470125" y="277.248797" style="stroke: #000000; stroke-width: 0.8"/>
      </g>
     </g>
     <g id="text_2">
      <!-- 200 -->
      <g transform="translate(88.294578 292.122391) scale(0.11 -0.11)">
       <defs>
        <path id="ArialMT-32" d="M 3222 541 
L 3222 0 
L 194 0 
Q 188 203 259 391 
Q 375 700 629 1000 
Q 884 1300 1366 1694 
Q 2113 2306 2375 2664 
Q 2638 3022 2638 3341 
Q 2638 3675 2398 3904 
Q 2159 4134 1775 4134 
Q 1369 4134 1125 3890 
Q 881 3647 878 3216 
L 300 3275 
Q 359 3922 746 4261 
Q 1134 4600 1788 4600 
Q 2447 4600 2831 4234 
Q 3216 3869 3216 3328 
Q 3216 3053 3103 2787 
Q 2991 2522 2730 2228 
Q 2469 1934 1863 1422 
Q 1356 997 1212 845 
Q 1069 694 975 541 
L 3222 541 
z
" transform="scale(0.015625)"/>
       </defs>
       <use xlink:href="#ArialMT-32"/>
       <use xlink:href="#ArialMT-30" x="55.615234"/>
       <use xlink:href="#ArialMT-30" x="111.230469"/>
      </g>
     </g>
    </g>
    <g id="xtick_3">
     <g id="line2d_3">
      <g>
       <use xlink:href="#mea40f7b0c1" x="141.822125" y="277.248797" style="stroke: #000000; stroke-width: 0.8"/>
      </g>
     </g>
     <g id="text_3">
      <!-- 400 -->
      <g transform="translate(132.646578 292.122391) scale(0.11 -0.11)">
       <defs>
        <path id="ArialMT-34" d="M 2069 0 
L 2069 1097 
L 81 1097 
L 81 1613 
L 2172 4581 
L 2631 4581 
L 2631 1613 
L 3250 1613 
L 3250 1097 
L 2631 1097 
L 2631 0 
L 2069 0 
z
M 2069 1613 
L 2069 3678 
L 634 1613 
L 2069 1613 
z
" transform="scale(0.015625)"/>
       </defs>
       <use xlink:href="#ArialMT-34"/>
       <use xlink:href="#ArialMT-30" x="55.615234"/>
       <use xlink:href="#ArialMT-30" x="111.230469"/>
      </g>
     </g>
    </g>
    <g id="xtick_4">
     <g id="line2d_4">
      <g>
       <use xlink:href="#mea40f7b0c1" x="186.174125" y="277.248797" style="stroke: #000000; stroke-width: 0.8"/>
      </g>
     </g>
     <g id="text_4">
      <!-- 600 -->
      <g transform="translate(176.998578 292.122391) scale(0.11 -0.11)">
       <defs>
        <path id="ArialMT-36" d="M 3184 3459 
L 2625 3416 
Q 2550 3747 2413 3897 
Q 2184 4138 1850 4138 
Q 1581 4138 1378 3988 
Q 1113 3794 959 3422 
Q 806 3050 800 2363 
Q 1003 2672 1297 2822 
Q 1591 2972 1913 2972 
Q 2475 2972 2870 2558 
Q 3266 2144 3266 1488 
Q 3266 1056 3080 686 
Q 2894 316 2569 119 
Q 2244 -78 1831 -78 
Q 1128 -78 684 439 
Q 241 956 241 2144 
Q 241 3472 731 4075 
Q 1159 4600 1884 4600 
Q 2425 4600 2770 4297 
Q 3116 3994 3184 3459 
z
M 888 1484 
Q 888 1194 1011 928 
Q 1134 663 1356 523 
Q 1578 384 1822 384 
Q 2178 384 2434 671 
Q 2691 959 2691 1453 
Q 2691 1928 2437 2201 
Q 2184 2475 1800 2475 
Q 1419 2475 1153 2201 
Q 888 1928 888 1484 
z
" transform="scale(0.015625)"/>
       </defs>
       <use xlink:href="#ArialMT-36"/>
       <use xlink:href="#ArialMT-30" x="55.615234"/>
       <use xlink:href="#ArialMT-30" x="111.230469"/>
      </g>
     </g>
    </g>
    <g id="xtick_5">
     <g id="line2d_5">
      <g>
       <use xlink:href="#mea40f7b0c1" x="230.526125" y="277.248797" style="stroke: #000000; stroke-width: 0.8"/>
      </g>
     </g>
     <g id="text_5">
      <!-- 800 -->
      <g transform="translate(221.350578 292.122391) scale(0.11 -0.11)">
       <defs>
        <path id="ArialMT-38" d="M 1131 2484 
Q 781 2613 612 2850 
Q 444 3088 444 3419 
Q 444 3919 803 4259 
Q 1163 4600 1759 4600 
Q 2359 4600 2725 4251 
Q 3091 3903 3091 3403 
Q 3091 3084 2923 2848 
Q 2756 2613 2416 2484 
Q 2838 2347 3058 2040 
Q 3278 1734 3278 1309 
Q 3278 722 2862 322 
Q 2447 -78 1769 -78 
Q 1091 -78 675 323 
Q 259 725 259 1325 
Q 259 1772 486 2073 
Q 713 2375 1131 2484 
z
M 1019 3438 
Q 1019 3113 1228 2906 
Q 1438 2700 1772 2700 
Q 2097 2700 2305 2904 
Q 2513 3109 2513 3406 
Q 2513 3716 2298 3927 
Q 2084 4138 1766 4138 
Q 1444 4138 1231 3931 
Q 1019 3725 1019 3438 
z
M 838 1322 
Q 838 1081 952 856 
Q 1066 631 1291 507 
Q 1516 384 1775 384 
Q 2178 384 2440 643 
Q 2703 903 2703 1303 
Q 2703 1709 2433 1975 
Q 2163 2241 1756 2241 
Q 1359 2241 1098 1978 
Q 838 1716 838 1322 
z
" transform="scale(0.015625)"/>
       </defs>
       <use xlink:href="#ArialMT-38"/>
       <use xlink:href="#ArialMT-30" x="55.615234"/>
       <use xlink:href="#ArialMT-30" x="111.230469"/>
      </g>
     </g>
    </g>
    <g id="xtick_6">
     <g id="line2d_6">
      <g>
       <use xlink:href="#mea40f7b0c1" x="274.878125" y="277.248797" style="stroke: #000000; stroke-width: 0.8"/>
      </g>
     </g>
     <g id="text_6">
      <!-- 1000 -->
      <g transform="translate(262.644063 292.122391) scale(0.11 -0.11)">
       <defs>
        <path id="ArialMT-31" d="M 2384 0 
L 1822 0 
L 1822 3584 
Q 1619 3391 1289 3197 
Q 959 3003 697 2906 
L 697 3450 
Q 1169 3672 1522 3987 
Q 1875 4303 2022 4600 
L 2384 4600 
L 2384 0 
z
" transform="scale(0.015625)"/>
       </defs>
       <use xlink:href="#ArialMT-31"/>
       <use xlink:href="#ArialMT-30" x="55.615234"/>
       <use xlink:href="#ArialMT-30" x="111.230469"/>
       <use xlink:href="#ArialMT-30" x="166.845703"/>
      </g>
     </g>
    </g>
    <g id="xtick_7">
     <g id="line2d_7">
      <g>
       <use xlink:href="#mea40f7b0c1" x="319.230125" y="277.248797" style="stroke: #000000; stroke-width: 0.8"/>
      </g>
     </g>
     <g id="text_7">
      <!-- 1200 -->
      <g transform="translate(306.996062 292.122391) scale(0.11 -0.11)">
       <use xlink:href="#ArialMT-31"/>
       <use xlink:href="#ArialMT-32" x="55.615234"/>
       <use xlink:href="#ArialMT-30" x="111.230469"/>
       <use xlink:href="#ArialMT-30" x="166.845703"/>
      </g>
     </g>
    </g>
    <g id="text_8">
     <!-- $\sigma_L$ (MPa) -->
     <g transform="translate(163.844125 306.338641) scale(0.11 -0.11)">
      <defs>
       <path id="DejaVuSans-Oblique-3c3" d="M 2219 3044 
Q 1744 3044 1422 2700 
Q 1081 2341 969 1747 
Q 844 1119 1044 756 
Q 1241 397 1706 397 
Q 2166 397 2503 759 
Q 2844 1122 2966 1747 
Q 3075 2319 2881 2700 
Q 2700 3044 2219 3044 
z
M 2309 3503 
L 4219 3500 
L 4106 2925 
L 3463 2925 
Q 3706 2438 3575 1747 
Q 3406 888 2884 400 
Q 2359 -91 1609 -91 
Q 856 -91 525 400 
Q 194 888 363 1747 
Q 528 2609 1050 3097 
Q 1484 3503 2309 3503 
z
" transform="scale(0.015625)"/>
       <path id="DejaVuSans-Oblique-4c" d="M 1075 4666 
L 1709 4666 
L 909 525 
L 3181 525 
L 3078 0 
L 172 0 
L 1075 4666 
z
" transform="scale(0.015625)"/>
       <path id="ArialMT-20" transform="scale(0.015625)"/>
       <path id="ArialMT-28" d="M 1497 -1347 
Q 1031 -759 709 28 
Q 388 816 388 1659 
Q 388 2403 628 3084 
Q 909 3875 1497 4659 
L 1900 4659 
Q 1522 4009 1400 3731 
Q 1209 3300 1100 2831 
Q 966 2247 966 1656 
Q 966 153 1900 -1347 
L 1497 -1347 
z
" transform="scale(0.015625)"/>
       <path id="ArialMT-4d" d="M 475 0 
L 475 4581 
L 1388 4581 
L 2472 1338 
Q 2622 884 2691 659 
Q 2769 909 2934 1394 
L 4031 4581 
L 4847 4581 
L 4847 0 
L 4263 0 
L 4263 3834 
L 2931 0 
L 2384 0 
L 1059 3900 
L 1059 0 
L 475 0 
z
" transform="scale(0.015625)"/>
       <path id="ArialMT-50" d="M 494 0 
L 494 4581 
L 2222 4581 
Q 2678 4581 2919 4538 
Q 3256 4481 3484 4323 
Q 3713 4166 3852 3881 
Q 3991 3597 3991 3256 
Q 3991 2672 3619 2267 
Q 3247 1863 2275 1863 
L 1100 1863 
L 1100 0 
L 494 0 
z
M 1100 2403 
L 2284 2403 
Q 2872 2403 3119 2622 
Q 3366 2841 3366 3238 
Q 3366 3525 3220 3729 
Q 3075 3934 2838 4000 
Q 2684 4041 2272 4041 
L 1100 4041 
L 1100 2403 
z
" transform="scale(0.015625)"/>
       <path id="ArialMT-61" d="M 2588 409 
Q 2275 144 1986 34 
Q 1697 -75 1366 -75 
Q 819 -75 525 192 
Q 231 459 231 875 
Q 231 1119 342 1320 
Q 453 1522 633 1644 
Q 813 1766 1038 1828 
Q 1203 1872 1538 1913 
Q 2219 1994 2541 2106 
Q 2544 2222 2544 2253 
Q 2544 2597 2384 2738 
Q 2169 2928 1744 2928 
Q 1347 2928 1158 2789 
Q 969 2650 878 2297 
L 328 2372 
Q 403 2725 575 2942 
Q 747 3159 1072 3276 
Q 1397 3394 1825 3394 
Q 2250 3394 2515 3294 
Q 2781 3194 2906 3042 
Q 3031 2891 3081 2659 
Q 3109 2516 3109 2141 
L 3109 1391 
Q 3109 606 3145 398 
Q 3181 191 3288 0 
L 2700 0 
Q 2613 175 2588 409 
z
M 2541 1666 
Q 2234 1541 1622 1453 
Q 1275 1403 1131 1340 
Q 988 1278 909 1158 
Q 831 1038 831 891 
Q 831 666 1001 516 
Q 1172 366 1500 366 
Q 1825 366 2078 508 
Q 2331 650 2450 897 
Q 2541 1088 2541 1459 
L 2541 1666 
z
" transform="scale(0.015625)"/>
       <path id="ArialMT-29" d="M 791 -1347 
L 388 -1347 
Q 1322 153 1322 1656 
Q 1322 2244 1188 2822 
Q 1081 3291 891 3722 
Q 769 4003 388 4659 
L 791 4659 
Q 1378 3875 1659 3084 
Q 1900 2403 1900 1659 
Q 1900 816 1576 28 
Q 1253 -759 791 -1347 
z
" transform="scale(0.015625)"/>
      </defs>
      <use xlink:href="#DejaVuSans-Oblique-3c3" transform="translate(0 0.203125)"/>
      <use xlink:href="#DejaVuSans-Oblique-4c" transform="translate(63.378906 -16.203125) scale(0.7)"/>
      <use xlink:href="#ArialMT-20" transform="translate(105.112305 0.203125)"/>
      <use xlink:href="#ArialMT-28" transform="translate(132.895508 0.203125)"/>
      <use xlink:href="#ArialMT-4d" transform="translate(166.196289 0.203125)"/>
      <use xlink:href="#ArialMT-50" transform="translate(249.49707 0.203125)"/>
      <use xlink:href="#ArialMT-61" transform="translate(316.196289 0.203125)"/>
      <use xlink:href="#ArialMT-29" transform="translate(371.811523 0.203125)"/>
     </g>
    </g>
   </g>
   <g id="matplotlib.axis_2">
    <g id="ytick_1">
     <g id="line2d_8">
      <defs>
       <path id="mee6732465e" d="M 0 0 
L -3.5 0 
" style="stroke: #000000; stroke-width: 0.8"/>
      </defs>
      <g>
       <use xlink:href="#mee6732465e" x="53.118125" y="277.248797" style="stroke: #000000; stroke-width: 0.8"/>
      </g>
     </g>
     <g id="text_9">
      <!-- 0 -->
      <g transform="translate(40.001094 281.185594) scale(0.11 -0.11)">
       <use xlink:href="#ArialMT-30"/>
      </g>
     </g>
    </g>
    <g id="ytick_2">
     <g id="line2d_9">
      <g>
       <use xlink:href="#mee6732465e" x="53.118125" y="232.896797" style="stroke: #000000; stroke-width: 0.8"/>
      </g>
     </g>
     <g id="text_10">
      <!-- 200 -->
      <g transform="translate(27.767031 236.833594) scale(0.11 -0.11)">
       <use xlink:href="#ArialMT-32"/>
       <use xlink:href="#ArialMT-30" x="55.615234"/>
       <use xlink:href="#ArialMT-30" x="111.230469"/>
      </g>
     </g>
    </g>
    <g id="ytick_3">
     <g id="line2d_10">
      <g>
       <use xlink:href="#mee6732465e" x="53.118125" y="188.544797" style="stroke: #000000; stroke-width: 0.8"/>
      </g>
     </g>
     <g id="text_11">
      <!-- 400 -->
      <g transform="translate(27.767031 192.481594) scale(0.11 -0.11)">
       <use xlink:href="#ArialMT-34"/>
       <use xlink:href="#ArialMT-30" x="55.615234"/>
       <use xlink:href="#ArialMT-30" x="111.230469"/>
      </g>
     </g>
    </g>
    <g id="ytick_4">
     <g id="line2d_11">
      <g>
       <use xlink:href="#mee6732465e" x="53.118125" y="144.192797" style="stroke: #000000; stroke-width: 0.8"/>
      </g>
     </g>
     <g id="text_12">
      <!-- 600 -->
      <g transform="translate(27.767031 148.129594) scale(0.11 -0.11)">
       <use xlink:href="#ArialMT-36"/>
       <use xlink:href="#ArialMT-30" x="55.615234"/>
       <use xlink:href="#ArialMT-30" x="111.230469"/>
      </g>
     </g>
    </g>
    <g id="ytick_5">
     <g id="line2d_12">
      <g>
       <use xlink:href="#mee6732465e" x="53.118125" y="99.840797" style="stroke: #000000; stroke-width: 0.8"/>
      </g>
     </g>
     <g id="text_13">
      <!-- 800 -->
      <g transform="translate(27.767031 103.777594) scale(0.11 -0.11)">
       <use xlink:href="#ArialMT-38"/>
       <use xlink:href="#ArialMT-30" x="55.615234"/>
       <use xlink:href="#ArialMT-30" x="111.230469"/>
      </g>
     </g>
    </g>
    <g id="ytick_6">
     <g id="line2d_13">
      <g>
       <use xlink:href="#mee6732465e" x="53.118125" y="55.488797" style="stroke: #000000; stroke-width: 0.8"/>
      </g>
     </g>
     <g id="text_14">
      <!-- 1000 -->
      <g transform="translate(21.65 59.425594) scale(0.11 -0.11)">
       <use xlink:href="#ArialMT-31"/>
       <use xlink:href="#ArialMT-30" x="55.615234"/>
       <use xlink:href="#ArialMT-30" x="111.230469"/>
       <use xlink:href="#ArialMT-30" x="166.845703"/>
      </g>
     </g>
    </g>
    <g id="ytick_7">
     <g id="line2d_14">
      <g>
       <use xlink:href="#mee6732465e" x="53.118125" y="11.136797" style="stroke: #000000; stroke-width: 0.8"/>
      </g>
     </g>
     <g id="text_15">
      <!-- 1200 -->
      <g transform="translate(21.65 15.073594) scale(0.11 -0.11)">
       <use xlink:href="#ArialMT-31"/>
       <use xlink:href="#ArialMT-32" x="55.615234"/>
       <use xlink:href="#ArialMT-30" x="111.230469"/>
       <use xlink:href="#ArialMT-30" x="166.845703"/>
      </g>
     </g>
    </g>
    <g id="text_16">
     <!-- $\sigma_C$ (MPa) -->
     <g transform="translate(15.23 167.017797) rotate(-90) scale(0.11 -0.11)">
      <defs>
       <path id="DejaVuSans-Oblique-43" d="M 4447 4306 
L 4319 3641 
Q 4019 3944 3683 4091 
Q 3347 4238 2956 4238 
Q 2422 4238 2017 3981 
Q 1613 3725 1319 3200 
Q 1131 2863 1032 2486 
Q 934 2109 934 1728 
Q 934 1091 1264 756 
Q 1594 422 2222 422 
Q 2656 422 3056 561 
Q 3456 700 3834 978 
L 3688 231 
Q 3316 72 2936 -9 
Q 2556 -91 2175 -91 
Q 1278 -91 773 396 
Q 269 884 269 1753 
Q 269 2309 461 2846 
Q 653 3384 1013 3828 
Q 1394 4300 1883 4525 
Q 2372 4750 3022 4750 
Q 3422 4750 3780 4639 
Q 4138 4528 4447 4306 
z
" transform="scale(0.015625)"/>
      </defs>
      <use xlink:href="#DejaVuSans-Oblique-3c3" transform="translate(0 0.203125)"/>
      <use xlink:href="#DejaVuSans-Oblique-43" transform="translate(63.378906 -16.203125) scale(0.7)"/>
      <use xlink:href="#ArialMT-20" transform="translate(114.990234 0.203125)"/>
      <use xlink:href="#ArialMT-28" transform="translate(142.773438 0.203125)"/>
      <use xlink:href="#ArialMT-4d" transform="translate(176.074219 0.203125)"/>
      <use xlink:href="#ArialMT-50" transform="translate(259.375 0.203125)"/>
      <use xlink:href="#ArialMT-61" transform="translate(326.074219 0.203125)"/>
      <use xlink:href="#ArialMT-29" transform="translate(381.689453 0.203125)"/>
     </g>
    </g>
   </g>
   <g id="PathCollection_7">
    <path d="M -1 148.928097 
L -0.911075 148.860238 
L -0.823997 148.79404 
L -0.193095 148.3155 
L -0.079277 148.229336 
L 0.437807 147.839392 
L 0.7576 147.598434 
L 1.068709 147.364926 
L 1.598608 146.967531 
L 1.699611 146.89208 
L 2.330513 146.421807 
L 2.445016 146.336629 
L 2.961415 145.954 
L 3.296747 145.705727 
L 3.592317 145.487761 
L 4.1527 145.074825 
L 4.223219 145.023069 
L 4.854121 144.561245 
L 5.014648 144.443923 
L 5.485023 144.101537 
L 5.881674 143.813021 
L 6.115925 143.643324 
L 6.746827 143.186633 
L 6.753085 143.182119 
L 7.377729 142.733378 
L 7.631464 142.551217 
L 8.008631 142.281562 
L 8.514236 141.920315 
L 8.639533 141.831165 
L 9.270435 141.38324 
L 9.402867 141.289413 
L 9.901337 140.937738 
L 10.297357 140.658511 
L 10.532239 140.4936 
L 11.163141 140.051073 
L 11.196704 140.027609 
L 11.794043 139.611797 
L 12.103204 139.396707 
L 12.424945 139.173829 
L 13.014276 138.765805 
L 13.055847 138.737148 
L 13.686749 138.303671 
L 13.932626 138.134903 
L 14.317651 137.871781 
L 14.85609 137.504001 
L 14.948553 137.441122 
L 15.579455 137.013285 
L 15.786494 136.873099 
L 16.210357 136.587377 
L 16.722659 136.242197 
L 16.841259 136.162644 
L 17.472161 135.740551 
L 17.665703 135.611295 
L 18.103063 135.320526 
L 18.614886 134.980393 
L 18.733965 134.901618 
L 19.364867 134.485372 
L 19.571177 134.349491 
L 19.995769 134.071127 
L 20.533702 133.718589 
L 20.626671 133.657942 
L 21.257573 133.24764 
L 21.503866 133.087687 
L 21.888475 132.839069 
L 22.480066 132.456785 
L 22.519377 132.431501 
L 23.150279 132.027236 
L 23.464749 131.825883 
L 23.781181 131.624232 
L 24.412083 131.222489 
L 24.455444 131.194981 
L 25.042985 130.824033 
L 25.454838 130.564079 
L 25.673887 130.426483 
L 26.30479 130.030948 
L 26.46115 129.933177 
L 26.935692 129.637891 
L 27.475177 129.302275 
L 27.566594 129.245682 
L 28.197496 128.856437 
L 28.497816 128.671373 
L 28.828398 128.468663 
L 29.4593 128.082161 
L 29.527605 128.040471 
L 30.090202 127.698802 
L 30.566548 127.409569 
L 30.721104 127.316193 
L 31.352006 126.936133 
L 31.613873 126.778667 
L 31.982908 126.557877 
L 32.61381 126.180693 
L 32.669108 126.147765 
L 33.244712 125.806766 
L 33.734138 125.516863 
L 33.875614 125.43349 
L 34.506516 125.062891 
L 34.808201 124.885961 
L 35.137418 124.693879 
L 35.76832 124.326283 
L 35.89099 124.255059 
L 36.399222 123.961508 
L 36.983348 123.624157 
L 37.030124 123.597284 
L 37.661026 123.236403 
L 38.086347 122.993255 
L 38.291928 122.876347 
L 38.92283 122.51859 
L 39.198949 122.362353 
L 39.553732 122.162672 
L 40.184634 121.808092 
L 40.321498 121.731451 
L 40.815536 121.456282 
L 41.446438 121.104931 
L 41.454346 121.100549 
L 42.07734 120.757196 
L 42.599107 120.469647 
L 42.708242 120.409828 
L 43.339144 120.065433 
L 43.754882 119.838745 
L 43.970046 119.722065 
L 44.600948 119.38101 
L 44.921968 119.207843 
L 45.23185 119.041607 
L 45.862752 118.70394 
L 46.100762 118.576941 
L 46.493654 118.368466 
L 47.124556 118.034237 
L 47.291678 117.946039 
L 47.755458 117.702654 
L 48.38636 117.371911 
L 48.495142 117.315137 
L 49.017262 117.044182 
L 49.648164 116.716971 
L 49.711598 116.684235 
L 50.279066 116.393055 
L 50.909968 116.069423 
L 50.941503 116.053333 
L 51.54087 115.749281 
L 52.171772 115.429271 
L 52.185334 115.422431 
L 52.802674 115.112861 
L 53.433576 114.796519 
L 53.443586 114.791529 
L 54.064478 114.483798 
L 54.69538 114.171167 
L 54.716773 114.160627 
L 55.326282 113.862092 
L 55.957184 113.553213 
L 56.005429 113.529725 
L 56.588086 113.247739 
L 57.218988 112.942654 
L 57.310112 112.898823 
L 57.84989 112.640735 
L 58.480792 112.339484 
L 58.631399 112.267921 
L 59.111694 112.041074 
L 59.742596 111.743696 
L 59.969896 111.637019 
L 60.373498 111.448748 
L 61.0044 111.15528 
L 61.326234 111.006117 
L 61.635302 110.863745 
L 62.266204 110.574224 
L 62.70107 110.375215 
L 62.897106 110.286053 
L 63.528008 110.000515 
L 64.095092 109.744313 
L 64.15891 109.715659 
L 64.789812 109.434138 
L 65.420714 109.153004 
L 65.510108 109.113411 
L 66.051616 108.875074 
L 66.682518 108.598032 
L 66.946842 108.482509 
L 67.31342 108.323305 
L 67.944322 108.050386 
L 68.40532 107.851607 
L 68.575224 107.77881 
L 69.206126 107.510044 
L 69.837028 107.241809 
L 69.887008 107.220705 
L 70.46793 106.976982 
L 71.098832 106.71297 
L 71.394632 106.589803 
L 71.729734 106.451172 
L 72.360636 106.191411 
L 72.927023 105.958901 
L 72.991538 105.932588 
L 73.62244 105.677104 
L 74.253342 105.42229 
L 74.48818 105.327999 
L 74.884244 105.170017 
L 75.515146 104.919545 
L 76.077404 104.697097 
L 76.146048 104.670118 
L 76.77695 104.42401 
L 77.407852 104.178672 
L 77.698802 104.066195 
L 78.038754 103.935651 
L 78.669656 103.694738 
L 79.300558 103.454653 
L 79.351844 103.435293 
L 79.93146 103.217962 
L 80.562363 102.982361 
L 81.041297 102.804391 
L 81.193265 102.748303 
L 81.824167 102.517204 
L 82.455069 102.28703 
L 82.768318 102.173489 
L 83.085971 102.05914 
L 83.716873 101.833522 
L 84.347775 101.608889 
L 84.535442 101.542587 
L 84.978677 101.387077 
L 85.609579 101.167051 
L 86.240481 100.948067 
L 86.346217 100.911685 
L 86.871383 100.732243 
L 87.502285 100.517916 
L 88.133187 100.304689 
L 88.20458 100.280783 
L 88.764089 100.094754 
L 89.394991 99.88623 
L 90.025893 99.678863 
L 90.114916 99.649881 
L 90.656795 99.474719 
L 91.287697 99.272099 
L 91.918599 99.070693 
L 92.082126 99.018979 
L 92.549501 98.872234 
L 93.180403 98.675617 
L 93.811305 98.480269 
L 94.111715 98.388077 
L 94.442207 98.287386 
L 95.073109 98.096866 
L 95.704011 97.907671 
L 96.209891 97.757175 
L 96.334913 97.720253 
L 96.965815 97.53592 
L 97.596717 97.352968 
L 98.227619 97.171418 
L 98.386235 97.126273 
L 98.858521 96.992843 
L 99.489423 96.81622 
L 100.120325 96.641053 
L 100.649844 96.495371 
L 100.751227 96.467686 
L 101.382129 96.297475 
L 102.013031 96.128773 
L 102.643933 95.961603 
L 103.014567 95.864469 
L 103.274835 95.796772 
L 103.905737 95.634614 
L 104.536639 95.474039 
L 105.167541 95.31507 
L 105.494964 95.233567 
L 105.798443 95.158598 
L 106.429345 95.004692 
L 107.060247 94.852443 
L 107.691149 94.701874 
L 108.112125 94.602665 
L 108.322051 94.553573 
L 108.952953 94.408112 
L 109.583855 94.264381 
L 110.214757 94.1224 
L 110.845659 93.982192 
L 110.89336 93.971763 
L 111.476561 93.845242 
L 112.107463 93.710211 
L 112.738365 93.577001 
L 113.369267 93.445635 
L 113.880061 93.340861 
L 114.000169 93.316418 
L 114.631071 93.190263 
L 115.261973 93.065998 
L 115.892875 92.943646 
L 116.523777 92.823229 
L 117.127134 92.709959 
L 117.154679 92.704829 
L 117.785581 92.589674 
L 118.416483 92.4765 
L 119.047385 92.365328 
L 119.678287 92.25618 
L 120.309189 92.149078 
L 120.730241 92.079056 
L 120.940091 92.044441 
L 121.570993 91.942667 
L 122.201895 91.842981 
L 122.832797 91.745406 
L 123.463699 91.649963 
L 124.094601 91.556674 
L 124.725503 91.465562 
L 124.849326 91.448154 
L 125.356405 91.377457 
L 125.987307 91.291743 
L 126.618209 91.208246 
L 127.249111 91.126986 
L 127.880013 91.047984 
L 128.510915 90.971263 
L 129.141817 90.896844 
L 129.772719 90.824747 
L 129.840687 90.817252 
L 130.403621 90.755698 
L 131.034523 90.689072 
L 131.665425 90.624805 
L 132.296327 90.56292 
L 132.927229 90.503435 
L 133.558131 90.446373 
L 134.189033 90.391754 
L 134.819935 90.3396 
L 135.450838 90.289929 
L 136.08174 90.242764 
L 136.712642 90.198125 
L 136.889452 90.18635 
L 137.343544 90.156372 
L 137.974446 90.11729 
L 138.605348 90.080766 
L 139.23625 90.046819 
L 139.867152 90.015471 
L 140.498054 89.986741 
L 141.128956 89.960648 
L 141.759858 89.937214 
L 142.39076 89.916457 
L 143.021662 89.898397 
L 143.652564 89.883054 
L 144.283466 89.870447 
L 144.914368 89.860596 
L 145.54527 89.853521 
L 146.176172 89.84924 
L 146.807074 89.847772 
L 147.437976 89.849137 
L 148.068878 89.853355 
L 148.69978 89.860442 
L 149.330682 89.87042 
L 149.961584 89.883306 
L 150.592486 89.899119 
L 151.223388 89.917877 
L 151.85429 89.9396 
L 152.485192 89.964306 
L 153.116094 89.992012 
L 153.746996 90.022737 
L 154.377898 90.0565 
L 155.0088 90.093318 
L 155.639702 90.13321 
L 156.270604 90.176192 
L 156.409853 90.18635 
L 156.901506 90.222686 
L 157.532408 90.272455 
L 158.16331 90.325403 
L 158.794212 90.381547 
L 159.425114 90.440905 
L 160.056016 90.503494 
L 160.686918 90.569332 
L 161.31782 90.638436 
L 161.948722 90.710823 
L 162.579624 90.78651 
L 162.825362 90.817252 
L 163.210526 90.866053 
L 163.841428 90.94931 
L 164.47233 91.035953 
L 165.103232 91.126001 
L 165.734134 91.219469 
L 166.365036 91.316374 
L 166.995938 91.416734 
L 167.187046 91.448154 
L 167.62684 91.521371 
L 168.257742 91.629881 
L 168.888644 91.741931 
L 169.519546 91.857539 
L 170.150448 91.976721 
L 170.676446 92.079056 
L 170.78135 92.09972 
L 171.412252 92.2275 
L 172.043154 92.35894 
L 172.674056 92.494057 
L 173.304958 92.632867 
L 173.646412 92.709959 
L 173.93586 92.776112 
L 174.566762 92.923975 
L 175.197664 93.075618 
L 175.828566 93.231058 
L 176.263716 93.340861 
L 176.459468 93.390857 
L 177.09037 93.555741 
L 177.721272 93.724509 
L 178.352174 93.897176 
L 178.618811 93.971763 
L 178.983076 94.074889 
L 179.613978 94.257399 
L 180.24488 94.443897 
L 180.770761 94.602665 
L 180.875782 94.634752 
L 181.506684 94.831425 
L 182.137586 95.032177 
L 182.757854 95.233567 
L 182.768488 95.237061 
L 183.39939 95.448326 
L 184.030292 95.663759 
L 184.606912 95.864469 
L 184.661194 95.883587 
L 185.292096 96.10988 
L 185.922998 96.340433 
L 186.33936 96.495371 
L 186.5539 96.576147 
L 187.184802 96.817912 
L 187.815704 97.064032 
L 187.972545 97.126273 
L 188.446606 97.316603 
L 189.077508 97.574296 
L 189.517725 97.757175 
L 189.70841 97.837316 
L 190.339313 98.106872 
L 190.970215 98.380958 
L 190.986342 98.388077 
L 191.601117 98.662595 
L 192.232019 98.948922 
L 192.383983 99.018979 
L 192.862921 99.242325 
L 193.493823 99.541199 
L 193.719746 99.649881 
L 194.124725 99.846946 
L 194.755627 100.158678 
L 194.999063 100.280783 
L 195.386529 100.477367 
L 196.017431 100.802278 
L 196.226777 100.911685 
L 196.648333 101.134523 
L 197.279235 101.472942 
L 197.407223 101.542587 
L 197.910137 101.819381 
L 198.541039 102.171644 
L 198.544296 102.173489 
L 199.171941 102.532934 
L 199.639322 102.804391 
L 199.802843 102.900449 
L 200.433745 103.276212 
L 200.697202 103.435293 
L 201.064647 103.659695 
L 201.695549 104.050276 
L 201.72092 104.066195 
L 202.326451 104.450449 
L 202.709968 104.697097 
L 202.957353 104.858008 
L 203.588255 105.273838 
L 203.66936 105.327999 
L 204.219157 105.699321 
L 204.59853 105.958901 
L 204.850059 106.132966 
L 205.480961 106.575236 
L 205.501478 106.589803 
L 206.111863 107.028122 
L 206.37666 107.220705 
L 206.742765 107.490004 
L 207.228198 107.851607 
L 207.373667 107.961205 
L 208.004569 108.442513 
L 208.056348 108.482509 
L 208.635471 108.934943 
L 208.861109 109.113411 
L 209.266373 109.437619 
L 209.645071 109.744313 
L 209.897275 109.950904 
L 210.408996 110.375215 
L 210.528177 110.475172 
L 211.153611 111.006117 
L 211.159079 111.010812 
L 211.789981 111.559122 
L 211.878544 111.637019 
L 212.420883 112.11954 
L 212.585683 112.267921 
L 213.051785 112.692437 
L 213.275718 112.898823 
L 213.682687 113.278253 
L 213.949248 113.529725 
L 214.313589 113.877442 
L 214.606848 114.160627 
L 214.944491 114.490478 
L 215.249069 114.791529 
L 215.575393 115.117852 
L 215.876444 115.422431 
L 216.206295 115.760074 
L 216.48948 116.053333 
L 216.837197 116.417674 
L 217.088669 116.684235 
L 217.468099 117.091204 
L 217.674485 117.315137 
L 218.099001 117.781239 
L 218.247382 117.946039 
L 218.729903 118.488378 
L 218.8078 118.576941 
L 219.356109 119.207843 
L 219.360805 119.213311 
L 219.89175 119.838745 
L 219.991707 119.957926 
L 220.416018 120.469647 
L 220.622609 120.72185 
L 220.929303 121.100549 
L 221.253511 121.505813 
L 221.431979 121.731451 
L 221.884413 122.310574 
L 221.924408 122.362353 
L 222.405717 122.993255 
L 222.515315 123.138724 
L 222.876918 123.624157 
L 223.146217 123.990262 
L 223.3388 124.255059 
L 223.777119 124.865444 
L 223.791686 124.885961 
L 224.233956 125.516863 
L 224.408021 125.768392 
L 224.667601 126.147765 
L 225.038923 126.697561 
L 225.093084 126.778667 
L 225.508914 127.409569 
L 225.669825 127.656954 
L 225.916473 128.040471 
L 226.300727 128.646002 
L 226.316646 128.671373 
L 226.707227 129.302275 
L 226.931629 129.66972 
L 227.09071 129.933177 
L 227.466473 130.564079 
L 227.562531 130.7276 
L 227.833988 131.194981 
L 228.193433 131.822626 
L 228.195277 131.825883 
L 228.547541 132.456785 
L 228.824335 132.959699 
L 228.89398 133.087687 
L 229.232399 133.718589 
L 229.455237 134.140145 
L 229.564644 134.349491 
L 229.889555 134.980393 
L 230.086139 135.367859 
L 230.208243 135.611295 
L 230.519976 136.242197 
L 230.717041 136.647176 
L 230.825723 136.873099 
L 231.124597 137.504001 
L 231.347943 137.982938 
L 231.417999 138.134903 
L 231.704327 138.765805 
L 231.978845 139.38058 
L 231.985964 139.396707 
L 232.26005 140.027609 
L 232.529606 140.658511 
L 232.609747 140.849197 
L 232.792626 141.289413 
L 233.050319 141.920315 
L 233.240649 142.394377 
L 233.30289 142.551217 
L 233.54901 143.182119 
L 233.790775 143.813021 
L 233.871551 144.027562 
L 234.026489 144.443923 
L 234.257042 145.074825 
L 234.483335 145.705727 
L 234.502453 145.76001 
L 234.703163 146.336629 
L 234.918596 146.967531 
L 235.129861 147.598434 
L 235.133355 147.609068 
L 235.334745 148.229336 
L 235.535497 148.860238 
L 235.73217 149.49114 
L 235.764257 149.596161 
L 235.923025 150.122042 
L 236.109523 150.752944 
L 236.292033 151.383846 
L 236.395159 151.748111 
L 236.469746 152.014748 
L 236.642413 152.64565 
L 236.811181 153.276552 
L 236.976065 153.907454 
L 237.026061 154.103205 
L 237.135864 154.538356 
L 237.291304 155.169258 
L 237.442947 155.80016 
L 237.59081 156.431062 
L 237.656963 156.72051 
L 237.734055 157.061964 
L 237.872865 157.692866 
L 238.007982 158.323768 
L 238.139422 158.95467 
L 238.267202 159.585572 
L 238.287865 159.690475 
L 238.390201 160.216474 
L 238.509382 160.847376 
L 238.62499 161.478278 
L 238.737041 162.10918 
L 238.845551 162.740082 
L 238.918767 163.179876 
L 238.950187 163.370984 
L 239.050547 164.001886 
L 239.147453 164.632788 
L 239.240921 165.26369 
L 239.330969 165.894592 
L 239.417612 166.525494 
L 239.500869 167.156396 
L 239.549669 167.54156 
L 239.580412 167.787298 
L 239.656099 168.4182 
L 239.728486 169.049102 
L 239.79759 169.680004 
L 239.863428 170.310906 
L 239.926017 170.941808 
L 239.985375 171.57271 
L 240.041519 172.203612 
L 240.094467 172.834514 
L 240.144236 173.465416 
L 240.180571 173.957069 
L 240.19073 174.096318 
L 240.233712 174.72722 
L 240.273604 175.358122 
L 240.310422 175.989024 
L 240.344185 176.619926 
L 240.37491 177.250828 
L 240.402616 177.88173 
L 240.427322 178.512632 
L 240.449045 179.143534 
L 240.467803 179.774436 
L 240.483616 180.405338 
L 240.496502 181.03624 
L 240.506479 181.667142 
L 240.513567 182.298044 
L 240.517784 182.928946 
L 240.51915 183.559848 
L 240.517682 184.19075 
L 240.513401 184.821652 
L 240.506325 185.452554 
L 240.496475 186.083456 
L 240.483868 186.714358 
L 240.468525 187.34526 
L 240.450465 187.976162 
L 240.429708 188.607064 
L 240.406274 189.237966 
L 240.380181 189.868868 
L 240.351451 190.49977 
L 240.320103 191.130672 
L 240.286156 191.761574 
L 240.249632 192.392476 
L 240.21055 193.023378 
L 240.180571 193.47747 
L 240.168797 193.65428 
L 240.124158 194.285182 
L 240.076993 194.916084 
L 240.027322 195.546986 
L 239.975167 196.177888 
L 239.920549 196.80879 
L 239.863487 197.439692 
L 239.804002 198.070594 
L 239.742116 198.701496 
L 239.67785 199.332398 
L 239.611224 199.9633 
L 239.549669 200.526235 
L 239.542174 200.594202 
L 239.470078 201.225104 
L 239.395658 201.856006 
L 239.318937 202.486909 
L 239.239936 203.117811 
L 239.158676 203.748713 
L 239.075179 204.379615 
L 238.989465 205.010517 
L 238.918767 205.517596 
L 238.90136 205.641419 
L 238.810248 206.272321 
L 238.716959 206.903223 
L 238.621516 207.534125 
L 238.523941 208.165027 
L 238.424255 208.795929 
L 238.322481 209.426831 
L 238.287865 209.636681 
L 238.217844 210.057733 
L 238.110742 210.688635 
L 238.001594 211.319537 
L 237.890422 211.950439 
L 237.777247 212.581341 
L 237.662093 213.212243 
L 237.656963 213.239788 
L 237.543693 213.843145 
L 237.423276 214.474047 
L 237.300924 215.104949 
L 237.176659 215.735851 
L 237.050504 216.366753 
L 237.026061 216.486861 
L 236.921286 216.997655 
L 236.789921 217.628557 
L 236.656711 218.259459 
L 236.521679 218.890361 
L 236.395159 219.473562 
L 236.38473 219.521263 
L 236.244522 220.152165 
L 236.102541 220.783067 
L 235.958809 221.413969 
L 235.813349 222.044871 
L 235.764257 222.254797 
L 235.665048 222.675773 
L 235.514478 223.306675 
L 235.362229 223.937577 
L 235.208324 224.568479 
L 235.133355 224.871958 
L 235.051852 225.199381 
L 234.892883 225.830283 
L 234.732308 226.461185 
L 234.57015 227.092087 
L 234.502453 227.352355 
L 234.405319 227.722989 
L 234.238148 228.353891 
L 234.069447 228.984793 
L 233.899236 229.615695 
L 233.871551 229.717078 
L 233.725869 230.246597 
L 233.550702 230.877499 
L 233.374079 231.508401 
L 233.240649 231.980687 
L 233.195504 232.139303 
L 233.013954 232.770205 
L 232.831001 233.401107 
L 232.646669 234.032009 
L 232.609747 234.157031 
L 232.459251 234.662911 
L 232.270056 235.293813 
L 232.079536 235.924715 
L 231.978845 236.255207 
L 231.886653 236.555617 
L 231.691305 237.186519 
L 231.494688 237.817421 
L 231.347943 238.284796 
L 231.296228 238.448323 
L 231.094823 239.079225 
L 230.892203 239.710127 
L 230.717041 240.252006 
L 230.688058 240.341029 
L 230.480692 240.971931 
L 230.272168 241.602833 
L 230.086139 242.162341 
L 230.062233 242.233735 
L 229.849006 242.864637 
L 229.634679 243.495539 
L 229.455237 244.020705 
L 229.418854 244.126441 
L 229.19987 244.757343 
L 228.979845 245.388245 
L 228.824335 245.83148 
L 228.758033 246.019147 
L 228.5334 246.650049 
L 228.307782 247.280951 
L 228.193433 247.598603 
L 228.079891 247.911853 
L 227.849718 248.542755 
L 227.618619 249.173657 
L 227.562531 249.325625 
L 227.384561 249.804559 
L 227.14896 250.435461 
L 226.931629 251.015078 
L 226.912269 251.066363 
L 226.672184 251.697265 
L 226.431271 252.328167 
L 226.300727 252.66812 
L 226.18825 252.959069 
L 225.942912 253.589971 
L 225.696804 254.220873 
L 225.669825 254.289518 
L 225.447377 254.851775 
L 225.196905 255.482677 
L 225.038923 255.878742 
L 224.944632 256.113579 
L 224.689818 256.744482 
L 224.434334 257.375384 
L 224.408021 257.439899 
L 224.175511 258.006286 
L 223.91575 258.637188 
L 223.777119 258.97229 
L 223.653952 259.26809 
L 223.38994 259.898992 
L 223.146217 260.479914 
L 223.125113 260.529894 
L 222.856878 261.160796 
L 222.588112 261.791698 
L 222.515315 261.961602 
L 222.316535 262.4226 
L 222.043617 263.053502 
L 221.884413 263.420079 
L 221.76889 263.684404 
L 221.491848 264.315306 
L 221.253511 264.856814 
L 221.213918 264.946208 
L 220.932784 265.57711 
L 220.651263 266.208012 
L 220.622609 266.271829 
L 220.366407 266.838914 
L 220.080869 267.469816 
L 219.991707 267.665852 
L 219.792698 268.100718 
L 219.503177 268.73162 
L 219.360805 269.040688 
L 219.211642 269.362522 
L 218.918174 269.993424 
L 218.729903 270.397025 
L 218.623226 270.624326 
L 218.325848 271.255228 
L 218.099001 271.735523 
L 218.027437 271.88613 
L 217.726187 272.517032 
L 217.468099 273.05681 
L 217.424268 273.147934 
L 217.119183 273.778836 
L 216.837197 274.361492 
L 216.813709 274.409738 
L 216.50483 275.04064 
L 216.206295 275.650149 
L 216.195755 275.671542 
L 215.883124 276.302444 
L 215.575393 276.923336 
L 215.570402 276.933346 
L 215.254061 277.564248 
L 214.944491 278.181588 
L 214.93765 278.19515 
L 214.617641 278.826052 
L 214.313589 279.425419 
L 214.297499 279.456954 
L 213.973867 280.087856 
L 213.682687 280.655324 
L 213.649951 280.718758 
L 213.32274 281.34966 
L 213.051785 281.871779 
L 212.995011 281.980562 
L 212.664267 282.611464 
L 212.420883 283.075244 
L 212.332685 283.242366 
L 211.998456 283.873268 
L 211.789981 284.26616 
L 211.662982 284.50417 
L 211.325315 285.135072 
L 211.159079 285.444954 
L 210.985912 285.765974 
L 210.644857 286.396876 
L 210.528177 286.61204 
L 210.301489 287.027778 
L 209.957094 287.65868 
L 209.897275 287.767815 
L 209.609726 288.289582 
L 209.266373 288.912576 
L 209.261991 288.920484 
L 208.91064 289.551386 
L 208.635471 290.045424 
L 208.558829 290.182288 
L 208.204249 290.81319 
L 208.004569 291.167973 
L 207.848332 291.444092 
L 207.490575 292.074994 
L 207.373667 292.280575 
L 207.130519 292.705896 
L 206.769638 293.336798 
L 206.742765 293.383574 
L 206.405414 293.9677 
L 206.111863 294.475932 
L 206.040639 294.598602 
L 205.673042 295.229504 
L 205.480961 295.558721 
L 205.304031 295.860406 
L 204.933432 296.491308 
L 204.850059 296.632784 
L 204.560156 297.12221 
L 204.219157 297.697814 
L 204.186229 297.753112 
L 203.809045 298.384014 
L 203.588255 298.753049 
L 203.430789 299.014916 
L 203.050729 299.645818 
L 202.957353 299.800374 
L 202.66812 300.27672 
L 202.326451 300.839317 
L 202.284761 300.907622 
L 201.898258 301.538524 
L 201.695549 301.869106 
L 201.510485 302.169426 
L 201.12124 302.800328 
L 201.064647 302.891744 
L 200.729031 303.43123 
L 200.433745 303.905772 
L 200.335974 304.062132 
L 199.940439 304.693034 
L 199.802843 304.912084 
L 199.542889 305.323936 
L 199.171941 305.911478 
L 199.144433 305.954838 
L 198.74269 306.58574 
L 198.541039 306.902173 
L 198.339686 307.216642 
L 197.935421 307.847544 
L 197.910137 307.886856 
L 197.527852 308.478446 
L 197.279235 308.863056 
L 197.119282 309.109348 
L 196.70898 309.74025 
L 196.648333 309.83322 
L 196.295795 310.371152 
L 196.017431 310.795745 
L 195.88155 311.002054 
L 195.465304 311.632957 
L 195.386529 311.752035 
L 195.046396 312.263859 
L 194.755627 312.701219 
L 194.62637 312.894761 
L 194.204278 313.525663 
L 194.124725 313.644263 
L 193.779545 314.156565 
L 193.493823 314.580428 
L 193.353637 314.787467 
L 192.9258 315.418369 
L 192.862921 315.510832 
L 192.495141 316.049271 
L 192.232019 316.434296 
L 192.063251 316.680173 
L 191.871923 316.958641 
" clip-path="url(#pf9cfd66b21)" style="fill: none; stroke: #ff0000; stroke-width: 1.5"/>
   </g>
   <g id="PathCollection_8">
    <path d="M -1 127.099501 
L -0.680589 126.867002 
L -0.232596 126.541141 
L 0.031977 126.349478 
L 0.744542 125.833673 
L 0.75161 125.828575 
L 1.457108 125.321748 
L 1.743686 125.116009 
L 2.169674 124.81145 
L 2.740724 124.403444 
L 2.88224 124.302753 
L 3.594805 123.796849 
L 3.744379 123.690878 
L 4.307371 123.293682 
L 4.754651 122.978312 
L 5.019937 122.792055 
L 5.732503 122.292247 
L 5.77041 122.265746 
L 6.445068 121.796111 
L 6.794247 121.553181 
L 7.157634 121.301453 
L 7.823247 120.840615 
L 7.8702 120.808248 
L 8.582766 120.318662 
L 8.860469 120.128049 
L 9.295331 119.830869 
L 9.903466 119.415483 
L 10.007897 119.344465 
L 10.720463 118.861249 
L 10.9543 118.702918 
L 11.433029 118.380212 
L 12.011643 117.990352 
L 12.145594 117.900501 
L 12.85816 117.423773 
L 13.076754 117.277786 
L 13.570726 116.94938 
L 14.148799 116.56522 
L 14.283292 116.476249 
L 14.995857 116.006124 
L 15.228872 115.852655 
L 15.708423 115.538259 
L 16.315986 115.140089 
L 16.420989 115.071592 
L 17.133555 114.60818 
L 17.411727 114.427523 
L 17.84612 114.146724 
L 18.514286 113.714957 
L 18.558686 113.686401 
L 19.271252 113.229808 
L 19.626426 113.002392 
L 19.983818 112.774638 
L 20.696383 112.320894 
L 20.745357 112.289826 
L 21.408949 111.870862 
L 21.874111 111.57726 
L 22.121515 111.421853 
L 22.834081 110.97512 
L 23.010681 110.864694 
L 23.546646 110.531186 
L 24.155963 110.152129 
L 24.259212 110.08821 
L 24.971778 109.648581 
L 25.310971 109.439563 
L 25.684344 109.210614 
L 26.396909 108.774083 
L 26.474056 108.726997 
L 27.109475 108.341102 
L 27.64748 108.014431 
L 27.822041 107.908968 
L 28.534607 107.479714 
L 28.83037 107.301866 
L 29.247172 107.052497 
L 29.959738 106.626489 
L 30.022195 106.5893 
L 30.672304 106.204162 
L 31.225082 105.876734 
L 31.38487 105.782569 
L 32.097435 105.364 
L 32.438171 105.164168 
L 32.810001 104.947224 
L 33.522567 104.532045 
L 33.661115 104.451603 
L 34.235133 104.120054 
L 34.894868 103.739037 
L 34.947698 103.708685 
L 35.660264 103.301092 
L 36.140639 103.026471 
L 36.37283 102.894431 
L 37.085396 102.490366 
L 37.397256 102.313905 
L 37.797961 102.088378 
L 38.510527 101.687901 
L 38.665107 101.60134 
L 39.223093 101.290553 
L 39.935659 100.893723 
L 39.944591 100.888774 
L 40.648224 100.500978 
L 41.237529 100.176208 
L 41.36079 100.108646 
L 42.073356 99.719673 
L 42.542907 99.463642 
L 42.785922 99.331859 
L 43.498487 98.946658 
L 43.86106 98.751077 
L 44.211053 98.563323 
L 44.923619 98.181949 
L 45.192437 98.038511 
L 45.636185 97.803051 
L 46.34875 97.42556 
L 46.537505 97.325945 
L 47.061316 97.051057 
L 47.773882 96.677502 
L 47.896745 96.613379 
L 48.486448 96.307352 
L 49.199013 95.937787 
L 49.270658 95.900814 
L 49.911579 95.571944 
L 50.624145 95.20642 
L 50.659762 95.188248 
L 51.336711 94.844839 
L 52.049276 94.483408 
L 52.064594 94.475682 
L 52.761842 94.126042 
L 53.474408 93.768753 
L 53.485714 93.763116 
L 54.186974 93.415553 
L 54.899539 93.062455 
L 54.923702 93.050551 
L 55.612105 92.713373 
L 56.324671 92.364514 
L 56.379161 92.337985 
L 57.037237 92.019499 
L 57.749802 91.674924 
L 57.852721 91.625419 
L 58.462368 91.333925 
L 59.174934 90.99368 
L 59.345035 90.912853 
L 59.8875 90.656644 
L 60.600065 90.320773 
L 60.856787 90.200288 
L 61.312631 89.987647 
L 62.025197 89.656192 
L 62.388689 89.487722 
L 62.737763 89.326921 
L 63.450328 88.999925 
L 63.941483 88.775156 
L 64.162894 88.674454 
L 64.87546 88.351955 
L 65.515947 88.06259 
L 65.588026 88.030228 
L 66.300591 87.712266 
L 67.013157 87.394743 
L 67.114122 87.350025 
L 67.725723 87.080838 
L 68.438289 86.767936 
L 68.736827 86.637459 
L 69.150854 86.457648 
L 69.86342 86.149403 
L 70.384089 85.924893 
L 70.575986 85.842673 
L 71.288552 85.539119 
L 72.001117 85.236163 
L 72.057566 85.212327 
L 72.713683 84.937057 
L 73.426249 84.638871 
L 73.760337 84.499762 
L 74.138815 84.343187 
L 74.85138 84.049802 
L 75.49108 83.787196 
L 75.563946 83.757477 
L 76.276512 83.468923 
L 76.989078 83.181126 
L 77.254312 83.07463 
L 77.701643 82.896199 
L 78.414209 82.613306 
L 79.049245 82.362064 
L 79.126775 82.331593 
L 79.839341 82.05363 
L 80.551906 81.776535 
L 80.880516 81.649499 
L 81.264472 81.502057 
L 81.977038 81.22996 
L 82.689604 80.958799 
L 82.747528 80.936933 
L 83.402169 80.691471 
L 84.114735 80.425373 
L 84.655662 80.224367 
L 84.827301 80.161019 
L 85.539867 79.900007 
L 86.252432 79.64004 
L 86.606229 79.511801 
L 86.964998 79.382651 
L 87.677564 79.12783 
L 88.39013 78.87412 
L 88.602089 78.799236 
L 89.102695 78.623597 
L 89.815261 78.375091 
L 90.527827 78.127762 
L 90.64725 78.08667 
L 91.240393 77.884001 
L 91.952958 77.641932 
L 92.665524 77.401104 
L 92.746159 77.374104 
L 93.37809 77.163996 
L 94.090656 76.928481 
L 94.803221 76.694273 
L 94.903768 76.661538 
L 95.515787 76.463703 
L 96.228353 76.234857 
L 96.940919 76.007381 
L 97.125613 75.948973 
L 97.653484 75.783233 
L 98.36605 75.561166 
L 99.078616 75.340533 
L 99.417911 75.236407 
L 99.791182 75.122683 
L 100.503747 74.907502 
L 101.216313 74.693818 
L 101.787674 74.523841 
L 101.928879 74.48214 
L 102.641445 74.273948 
L 103.35401 74.067314 
L 104.066576 73.862264 
L 104.245723 73.811275 
L 104.779142 73.660575 
L 105.491708 73.46109 
L 106.204273 73.263249 
L 106.802334 73.09871 
L 106.916839 73.067441 
L 107.629405 72.875199 
L 108.341971 72.68466 
L 109.054536 72.495851 
L 109.473145 72.386144 
L 109.767102 72.309684 
L 110.479668 72.126537 
L 111.192234 71.945177 
L 111.904799 71.765631 
L 112.274604 71.673578 
L 112.617365 71.588905 
L 113.329931 71.415079 
L 114.042497 71.243123 
L 114.755062 71.073063 
L 115.230529 70.961012 
L 115.467628 70.905566 
L 116.180194 70.741277 
L 116.89276 70.578941 
L 117.605325 70.418582 
L 118.317891 70.260226 
L 118.371766 70.248447 
L 119.030457 70.10555 
L 119.743023 69.95304 
L 120.455588 69.802588 
L 121.168154 69.654218 
L 121.745065 69.535881 
L 121.88072 69.508274 
L 122.593286 69.36579 
L 123.305851 69.22544 
L 124.018417 69.087251 
L 124.730983 68.951247 
L 125.412438 68.823315 
L 125.443549 68.817521 
L 126.156114 68.687462 
L 126.86868 68.559638 
L 127.581246 68.434076 
L 128.293812 68.310799 
L 129.006377 68.189834 
L 129.48193 68.110749 
L 129.718943 68.071653 
L 130.431509 67.956705 
L 131.144075 67.844116 
L 131.85664 67.733911 
L 132.569206 67.626114 
L 133.281772 67.52075 
L 133.994338 67.417844 
L 134.134188 67.398184 
L 134.706903 67.318335 
L 135.419469 67.221526 
L 136.132035 67.127221 
L 136.844601 67.035443 
L 137.557166 66.946216 
L 138.269732 66.859564 
L 138.982298 66.775512 
L 139.694864 66.694083 
L 139.771629 66.685618 
L 140.407429 66.616096 
L 141.119995 66.540846 
L 141.832561 66.468261 
L 142.545127 66.398364 
L 143.257692 66.33118 
L 143.970258 66.266732 
L 144.682824 66.205044 
L 145.39539 66.146138 
L 146.107955 66.090038 
L 146.820521 66.036768 
L 147.533087 65.98635 
L 147.732783 65.973052 
L 148.245653 65.939194 
L 148.958218 65.895052 
L 149.670784 65.8538 
L 150.38335 65.81546 
L 151.095916 65.780054 
L 151.808481 65.747605 
L 152.521047 65.718135 
L 153.233613 65.691667 
L 153.946179 65.668223 
L 154.658744 65.647826 
L 155.37131 65.630497 
L 156.083876 65.616259 
L 156.796442 65.605133 
L 157.509007 65.597141 
L 158.221573 65.592306 
L 158.934139 65.590648 
L 159.646705 65.59219 
L 160.35927 65.596953 
L 161.071836 65.604959 
L 161.784402 65.616228 
L 162.496968 65.630781 
L 163.209533 65.648641 
L 163.922099 65.669828 
L 164.634665 65.694362 
L 165.347231 65.722266 
L 166.059796 65.753558 
L 166.772362 65.788261 
L 167.484928 65.826394 
L 168.197494 65.867978 
L 168.910059 65.913033 
L 169.622625 65.961579 
L 169.779899 65.973052 
L 170.335191 66.014091 
L 171.047757 66.070302 
L 171.760322 66.130103 
L 172.472888 66.193515 
L 173.185454 66.260556 
L 173.89802 66.331246 
L 174.610585 66.405606 
L 175.323151 66.483655 
L 176.035717 66.565412 
L 176.748283 66.650896 
L 177.025828 66.685618 
L 177.460848 66.740735 
L 178.173414 66.834768 
L 178.88598 66.932627 
L 179.598546 67.03433 
L 180.311111 67.139897 
L 181.023677 67.249346 
L 181.736243 67.362697 
L 181.952087 67.398184 
L 182.448809 67.480877 
L 183.161374 67.603432 
L 183.87394 67.729987 
L 184.586506 67.860559 
L 185.299072 67.995168 
L 185.893155 68.110749 
L 186.011637 68.134087 
L 186.724203 68.278407 
L 187.436769 68.426861 
L 188.149335 68.579468 
L 188.8619 68.736245 
L 189.247552 68.823315 
L 189.574466 68.898031 
L 190.287032 69.065034 
L 190.999598 69.236306 
L 191.712163 69.411865 
L 192.203639 69.535881 
L 192.424729 69.592349 
L 193.137295 69.778575 
L 193.849861 69.969188 
L 194.562426 70.164206 
L 194.863576 70.248447 
L 195.274992 70.364921 
L 195.987558 70.571055 
L 196.700124 70.781694 
L 197.294074 70.961012 
L 197.412689 70.997253 
L 198.125255 71.219384 
L 198.837821 71.44612 
L 199.538375 71.673578 
L 199.550387 71.677524 
L 200.262952 71.916135 
L 200.975518 72.159455 
L 201.626775 72.386144 
L 201.688084 72.407737 
L 202.40065 72.663321 
L 203.113215 72.923717 
L 203.58347 73.09871 
L 203.825781 73.189941 
L 204.538347 73.463001 
L 205.250913 73.740978 
L 205.428055 73.811275 
L 205.963478 74.026242 
L 206.676044 74.317291 
L 207.173242 74.523841 
L 207.38861 74.614356 
L 208.101176 74.918803 
L 208.813741 75.228367 
L 208.831956 75.236407 
L 209.526307 75.546459 
L 210.238873 75.869848 
L 210.410508 75.948973 
L 210.951439 76.201229 
L 211.664004 76.538789 
L 211.919171 76.661538 
L 212.37657 76.884112 
L 213.089136 77.236195 
L 213.364083 77.374104 
L 213.801702 77.596134 
L 214.514267 77.963101 
L 214.750712 78.08667 
L 215.226833 78.338353 
L 215.939399 78.720576 
L 216.083954 78.799236 
L 216.651965 79.111858 
L 217.36453 79.509718 
L 217.368209 79.511801 
L 218.077096 79.917773 
L 218.604975 80.224367 
L 218.789662 80.332859 
L 219.502228 80.75726 
L 219.799787 80.936933 
L 220.214793 81.190382 
L 220.927359 81.631519 
L 220.956015 81.649499 
L 221.639925 82.083491 
L 222.073084 82.362064 
L 222.352491 82.543804 
L 223.065056 83.013459 
L 223.15666 83.07463 
L 223.777622 83.494016 
L 224.206102 83.787196 
L 224.490188 83.983792 
L 225.202754 84.483309 
L 225.225926 84.499762 
L 225.915319 84.994816 
L 226.214391 85.212327 
L 226.627885 85.516484 
L 227.176152 85.924893 
L 227.340451 86.048677 
L 228.053017 86.592286 
L 228.111498 86.637459 
L 228.765582 87.148456 
L 229.020427 87.350025 
L 229.478148 87.716198 
L 229.905865 88.06259 
L 230.190714 88.295922 
L 230.768672 88.775156 
L 230.90328 88.888052 
L 231.609669 89.487722 
L 231.615845 89.493025 
L 232.328411 90.112308 
L 232.428438 90.200288 
L 233.040977 90.745266 
L 233.227108 90.912853 
L 233.753543 91.392319 
L 234.006461 91.625419 
L 234.466108 92.053962 
L 234.767173 92.337985 
L 235.178674 92.73071 
L 235.509892 93.050551 
L 235.89124 93.423098 
L 236.235243 93.763116 
L 236.603806 94.131679 
L 236.943824 94.475682 
L 237.316371 94.85703 
L 237.636212 95.188248 
L 238.028937 95.599749 
L 238.31296 95.900814 
L 238.741503 96.360461 
L 238.974603 96.613379 
L 239.454069 97.139813 
L 239.621656 97.325945 
L 240.166634 97.938484 
L 240.254614 98.038511 
L 240.873897 98.751077 
L 240.8792 98.757253 
L 241.47887 99.463642 
L 241.591766 99.59825 
L 242.071 100.176208 
L 242.304332 100.461057 
L 242.650724 100.888774 
L 243.016897 101.346495 
L 243.218466 101.60134 
L 243.729463 102.255424 
L 243.774635 102.313905 
L 244.318244 103.026471 
L 244.442029 103.19077 
L 244.850438 103.739037 
L 245.154595 104.15253 
L 245.372106 104.451603 
L 245.86716 105.140996 
L 245.883613 105.164168 
L 246.38313 105.876734 
L 246.579726 106.16082 
L 246.872906 106.5893 
L 247.292292 107.210262 
L 247.353463 107.301866 
L 247.823118 108.014431 
L 248.004858 108.293837 
L 248.283431 108.726997 
L 248.717423 109.410907 
L 248.735403 109.439563 
L 249.17654 110.152129 
L 249.429989 110.567135 
L 249.609661 110.864694 
L 250.034062 111.57726 
L 250.142555 111.761946 
L 250.449148 112.289826 
L 250.855121 112.998713 
L 250.857203 113.002392 
L 251.255064 113.714957 
L 251.567686 114.282968 
L 251.646346 114.427523 
L 252.028569 115.140089 
L 252.280252 115.61621 
L 252.40382 115.852655 
L 252.770788 116.56522 
L 252.992818 117.002839 
L 253.130727 117.277786 
L 253.48281 117.990352 
L 253.705384 118.447751 
L 253.828133 118.702918 
L 254.165693 119.415483 
L 254.417949 119.956414 
L 254.497074 120.128049 
L 254.820463 120.840615 
L 255.130515 121.534966 
L 255.138555 121.553181 
L 255.448119 122.265746 
L 255.752566 122.978312 
L 255.843081 123.19368 
L 256.049631 123.690878 
L 256.340679 124.403444 
L 256.555647 124.938867 
L 256.625944 125.116009 
L 256.903921 125.828575 
L 257.176981 126.541141 
L 257.268212 126.783452 
L 257.443205 127.253707 
L 257.703601 127.966272 
L 257.959185 128.678838 
L 257.980778 128.740146 
L 258.207467 129.391404 
L 258.450786 130.10397 
L 258.689397 130.816535 
L 258.693344 130.828547 
L 258.920802 131.529101 
L 259.147538 132.241667 
L 259.369669 132.954233 
L 259.40591 133.072848 
L 259.585228 133.666798 
L 259.795866 134.379364 
L 260.002001 135.09193 
L 260.118475 135.503345 
L 260.202716 135.804496 
L 260.397734 136.517061 
L 260.588347 137.229627 
L 260.774573 137.942193 
L 260.831041 138.163283 
L 260.955057 138.654759 
L 261.130616 139.367324 
L 261.301888 140.07989 
L 261.468891 140.792456 
L 261.543607 141.11937 
L 261.630677 141.505022 
L 261.787454 142.217587 
L 261.940061 142.930153 
L 262.088515 143.642719 
L 262.232835 144.355285 
L 262.256173 144.473767 
L 262.371754 145.06785 
L 262.506363 145.780416 
L 262.636935 146.492982 
L 262.76349 147.205548 
L 262.886045 147.918113 
L 262.968738 148.414835 
L 263.004225 148.630679 
L 263.117576 149.343245 
L 263.227025 150.055811 
L 263.332592 150.768376 
L 263.434295 151.480942 
L 263.532153 152.193508 
L 263.626186 152.906074 
L 263.681304 153.341094 
L 263.716026 153.618639 
L 263.80151 154.331205 
L 263.883267 155.043771 
L 263.961315 155.756337 
L 264.035675 156.468902 
L 264.106366 157.181468 
L 264.173407 157.894034 
L 264.236819 158.6066 
L 264.29662 159.319165 
L 264.352831 160.031731 
L 264.39387 160.587023 
L 264.405343 160.744297 
L 264.453889 161.456863 
L 264.498944 162.169428 
L 264.540528 162.881994 
L 264.578661 163.59456 
L 264.613364 164.307126 
L 264.644656 165.019691 
L 264.672559 165.732257 
L 264.697094 166.444823 
L 264.718281 167.157389 
L 264.736141 167.869954 
L 264.750694 168.58252 
L 264.761963 169.295086 
L 264.769969 170.007652 
L 264.774732 170.720217 
L 264.776274 171.432783 
L 264.774616 172.145349 
L 264.769781 172.857915 
L 264.761789 173.57048 
L 264.750663 174.283046 
L 264.736425 174.995612 
L 264.719096 175.708178 
L 264.698698 176.420743 
L 264.675255 177.133309 
L 264.648787 177.845875 
L 264.619317 178.558441 
L 264.586868 179.271006 
L 264.551462 179.983572 
L 264.513122 180.696138 
L 264.471869 181.408704 
L 264.427728 182.121269 
L 264.39387 182.634139 
L 264.380572 182.833835 
L 264.330154 183.546401 
L 264.276884 184.258967 
L 264.220784 184.971532 
L 264.161878 185.684098 
L 264.10019 186.396664 
L 264.035742 187.10923 
L 263.968558 187.821795 
L 263.898661 188.534361 
L 263.826076 189.246927 
L 263.750826 189.959493 
L 263.681304 190.595293 
L 263.672839 190.672058 
L 263.59141 191.384624 
L 263.507358 192.09719 
L 263.420706 192.809756 
L 263.331479 193.522321 
L 263.239701 194.234887 
L 263.145395 194.947453 
L 263.048587 195.660019 
L 262.968738 196.232734 
L 262.949078 196.372584 
L 262.846172 197.08515 
L 262.740808 197.797716 
L 262.633011 198.510282 
L 262.522806 199.222847 
L 262.410217 199.935413 
L 262.295269 200.647979 
L 262.256173 200.884992 
L 262.177088 201.360545 
L 262.056123 202.07311 
L 261.932846 202.785676 
L 261.807284 203.498242 
L 261.67946 204.210808 
L 261.549401 204.923373 
L 261.543607 204.954484 
L 261.415675 205.635939 
L 261.279671 206.348505 
L 261.141482 207.061071 
L 261.001132 207.773636 
L 260.858648 208.486202 
L 260.831041 208.621856 
L 260.712704 209.198768 
L 260.564334 209.911334 
L 260.413882 210.623899 
L 260.261372 211.336465 
L 260.118475 211.995156 
L 260.106696 212.049031 
L 259.94834 212.761597 
L 259.787981 213.474162 
L 259.625644 214.186728 
L 259.461356 214.899294 
L 259.40591 215.136393 
L 259.293859 215.61186 
L 259.123799 216.324425 
L 258.951843 217.036991 
L 258.778016 217.749557 
L 258.693344 218.092318 
L 258.60129 218.462123 
L 258.421745 219.174688 
L 258.240385 219.887254 
L 258.057238 220.59982 
L 257.980778 220.893777 
L 257.87107 221.312386 
L 257.682262 222.024951 
L 257.491723 222.737517 
L 257.299481 223.450083 
L 257.268212 223.564588 
L 257.103673 224.162649 
L 256.905832 224.875214 
L 256.706347 225.58778 
L 256.555647 226.121199 
L 256.504658 226.300346 
L 256.299608 227.012912 
L 256.092974 227.725477 
L 255.884782 228.438043 
L 255.843081 228.579248 
L 255.673104 229.150609 
L 255.45942 229.863175 
L 255.244239 230.57574 
L 255.130515 230.949011 
L 255.026389 231.288306 
L 254.805756 232.000872 
L 254.583689 232.713438 
L 254.417949 233.241309 
L 254.359541 233.426003 
L 254.132065 234.138569 
L 253.903219 234.851135 
L 253.705384 235.463154 
L 253.672649 235.563701 
L 253.438441 236.276266 
L 253.202926 236.988832 
L 252.992818 237.620763 
L 252.965818 237.701398 
L 252.72499 238.413964 
L 252.482921 239.126529 
L 252.280252 239.719672 
L 252.23916 239.839095 
L 251.991831 240.551661 
L 251.743325 241.264227 
L 251.567686 241.764833 
L 251.492802 241.976792 
L 251.239092 242.689358 
L 250.984271 243.401924 
L 250.855121 243.760693 
L 250.726882 244.11449 
L 250.466915 244.827055 
L 250.205902 245.539621 
L 250.142555 245.711259 
L 249.941548 246.252187 
L 249.675451 246.964753 
L 249.429989 247.619394 
L 249.408123 247.677318 
L 249.136961 248.389884 
L 248.864865 249.10245 
L 248.717423 249.486406 
L 248.590387 249.815016 
L 248.313292 250.527581 
L 248.035328 251.240147 
L 248.004858 251.317677 
L 247.753616 251.952713 
L 247.470723 252.665279 
L 247.292292 253.112609 
L 247.185796 253.377844 
L 246.897999 254.09041 
L 246.609445 254.802976 
L 246.579726 254.875842 
L 246.31712 255.515542 
L 246.023735 256.228107 
L 245.86716 256.606585 
L 245.728051 256.940673 
L 245.429865 257.653239 
L 245.154595 258.309355 
L 245.130759 258.365805 
L 244.827803 259.07837 
L 244.524249 259.790936 
L 244.442029 259.982833 
L 244.217519 260.503502 
L 243.909274 261.216068 
L 243.729463 261.630095 
L 243.598986 261.928633 
L 243.286084 262.641199 
L 243.016897 263.2528 
L 242.972179 263.353765 
L 242.654656 264.066331 
L 242.336694 264.778896 
L 242.304332 264.850975 
L 242.014966 265.491462 
L 241.692468 266.204028 
L 241.591766 266.425439 
L 241.366997 266.916594 
L 241.040001 267.629159 
L 240.8792 267.978233 
L 240.710729 268.341725 
L 240.379275 269.054291 
L 240.166634 269.510135 
L 240.046149 269.766857 
L 239.710278 270.479422 
L 239.454069 271.021886 
L 239.373242 271.191988 
L 239.032997 271.904554 
L 238.741503 272.514201 
L 238.691998 272.61712 
L 238.347423 273.329685 
L 238.028937 273.987761 
L 238.002408 274.042251 
L 237.653549 274.754817 
L 237.316371 275.44322 
L 237.304467 275.467383 
L 236.951369 276.179948 
L 236.603806 276.881208 
L 236.598169 276.892514 
L 236.24088 277.60508 
L 235.89124 278.302328 
L 235.883514 278.317645 
L 235.522083 279.030211 
L 235.178674 279.70716 
L 235.160502 279.742777 
L 234.794978 280.455343 
L 234.466108 281.096264 
L 234.429135 281.167908 
L 234.05957 281.880474 
L 233.753543 282.470177 
L 233.689419 282.59304 
L 233.315865 283.305606 
L 233.040977 283.829417 
L 232.941362 284.018171 
L 232.563871 284.730737 
L 232.328411 285.174485 
L 232.184973 285.443303 
L 231.803599 286.155869 
L 231.615845 286.505862 
L 231.420264 286.868434 
L 231.035062 287.581 
L 230.90328 287.824015 
L 230.647249 288.293566 
L 230.258275 289.006132 
L 230.190714 289.129393 
L 229.865944 289.718697 
L 229.478148 290.422331 
L 229.473198 290.431263 
L 229.076369 291.143829 
L 228.765582 291.701815 
L 228.679021 291.856395 
L 228.278544 292.56896 
L 228.053017 292.969666 
L 227.876556 293.281526 
L 227.472491 293.994092 
L 227.340451 294.226283 
L 227.06583 294.706658 
L 226.658237 295.419223 
L 226.627885 295.472053 
L 226.246868 296.131789 
L 225.915319 296.705807 
L 225.834876 296.844355 
L 225.419698 297.556921 
L 225.202754 297.928751 
L 225.002922 298.269486 
L 224.584352 298.982052 
L 224.490188 299.14184 
L 224.16276 299.694618 
L 223.777622 300.344727 
L 223.740432 300.407184 
L 223.314425 301.119749 
L 223.065056 301.536552 
L 222.887208 301.832315 
L 222.457954 302.544881 
L 222.352491 302.719442 
L 222.02582 303.257447 
L 221.639925 303.892866 
L 221.592839 303.970012 
L 221.156307 304.682578 
L 220.927359 305.05595 
L 220.718341 305.395144 
L 220.278712 306.10771 
L 220.214793 306.210959 
L 219.835736 306.820275 
L 219.502228 307.356241 
L 219.391802 307.532841 
L 218.945069 308.245407 
L 218.789662 308.49281 
L 218.49606 308.957973 
L 218.077096 309.621565 
L 218.046028 309.670538 
L 217.592284 310.383104 
L 217.36453 310.740496 
L 217.137114 311.09567 
L 216.680521 311.808236 
L 216.651965 311.852636 
L 216.220198 312.520801 
L 215.939399 312.955195 
L 215.758742 313.233367 
L 215.29533 313.945933 
L 215.226833 314.050936 
L 214.828663 314.658499 
L 214.514267 315.13805 
L 214.360798 315.371064 
L 213.890673 316.08363 
L 213.801702 316.218123 
L 213.417542 316.796196 
L 213.309544 316.958641 
" clip-path="url(#pf9cfd66b21)" style="fill: none; stroke: #0000ff; stroke-width: 1.5"/>
   </g>
   <g id="PathCollection_9">
    <path d="M -1 108.399838 
L 7.308974 102.66278 
L 15.139599 97.504594 
L 23.838064 92.054539 
L 32.366971 86.991815 
L 40.197595 82.583544 
L 48.890014 77.959416 
L 57.424968 73.694108 
L 65.255592 70.018126 
L 73.931312 66.21348 
L 82.482965 62.742281 
L 90.313589 59.807053 
L 98.144213 57.110083 
L 105.191775 54.889161 
L 113.022399 52.655795 
L 120.853023 50.675368 
L 127.900584 49.116151 
L 134.948146 47.775296 
L 142.149393 46.63692 
L 149.043269 45.777457 
L 156.090831 45.140814 
L 162.35533 44.790658 
L 168.619829 44.65238 
L 174.884328 44.737572 
L 181.148828 45.058186 
L 186.630264 45.546143 
L 192.111701 46.237069 
L 197.593138 47.14504 
L 203.074575 48.285152 
L 208.556012 49.676594 
L 213.254386 51.085333 
L 217.952761 52.709113 
L 222.651135 54.567013 
L 227.349509 56.681837 
L 231.264821 58.659438 
L 235.180133 60.851269 
L 239.095445 63.28095 
L 243.010757 65.97445 
L 246.423064 68.562667 
L 250.168242 71.694916 
L 253.554555 74.827166 
L 256.634941 77.959416 
L 259.455068 81.098452 
L 262.636959 85.006977 
L 265.503521 88.922289 
L 268.088512 92.837601 
L 270.42023 96.752913 
L 272.918682 101.451288 
L 275.125151 106.149662 
L 277.065172 110.848037 
L 278.765073 115.546411 
L 280.243227 120.244785 
L 281.5171 124.94316 
L 282.762695 130.424597 
L 283.769 135.906033 
L 284.551221 141.38747 
L 285.123538 146.868907 
L 285.4992 152.350344 
L 285.700637 158.614843 
L 285.672572 164.879342 
L 285.427177 171.143841 
L 284.973392 177.408341 
L 284.226685 184.455902 
L 283.239952 191.503464 
L 282.023288 198.551026 
L 280.584808 205.598587 
L 278.733158 213.429211 
L 276.626407 221.259835 
L 274.269066 229.090459 
L 271.66711 236.921083 
L 268.827787 244.751707 
L 265.719567 252.662407 
L 262.100073 261.196018 
L 258.5396 269.026642 
L 254.357863 277.640328 
L 250.317074 285.470952 
L 246.047881 293.301576 
L 241.084811 301.915263 
L 236.329699 309.745887 
L 231.741922 316.958641 
L 231.741922 316.958641 
" clip-path="url(#pf9cfd66b21)" style="fill: none; stroke: #008000; stroke-width: 1.5"/>
   </g>
   <g id="line2d_15">
    <path d="M 53.118125 277.248797 
" clip-path="url(#pf9cfd66b21)" style="fill: none; stroke: #ff0000; stroke-width: 1.5; stroke-linecap: square"/>
   </g>
   <g id="line2d_16">
    <path d="M 53.118125 277.248797 
" clip-path="url(#pf9cfd66b21)" style="fill: none; stroke: #0000ff; stroke-width: 1.5; stroke-linecap: square"/>
   </g>
   <g id="line2d_17">
    <path d="M 53.118125 277.248797 
" clip-path="url(#pf9cfd66b21)" style="fill: none; stroke: #008000; stroke-width: 1.5; stroke-linecap: square"/>
   </g>
   <g id="patch_3">
    <path d="M 53.118125 277.248797 
L 53.118125 11.136797 
" style="fill: none; stroke: #000000; stroke-width: 0.8; stroke-linejoin: miter; stroke-linecap: square"/>
   </g>
   <g id="patch_4">
    <path d="M 319.230125 277.248797 
L 319.230125 11.136797 
" style="fill: none; stroke: #000000; stroke-width: 0.8; stroke-linejoin: miter; stroke-linecap: square"/>
   </g>
   <g id="patch_5">
    <path d="M 53.118125 277.248797 
L 319.230125 277.248797 
" style="fill: none; stroke: #000000; stroke-width: 0.8; stroke-linejoin: miter; stroke-linecap: square"/>
   </g>
   <g id="patch_6">
    <path d="M 53.118125 11.136797 
L 319.230125 11.136797 
" style="fill: none; stroke: #000000; stroke-width: 0.8; stroke-linejoin: miter; stroke-linecap: square"/>
   </g>
   <g id="legend_1">
    <g id="patch_7">
     <path d="M 332.161725 168.256328 
L 457.891725 168.256328 
Q 460.091725 168.256328 460.091725 166.056328 
L 460.091725 18.836797 
Q 460.091725 16.636797 457.891725 16.636797 
L 332.161725 16.636797 
Q 329.961725 16.636797 329.961725 18.836797 
L 329.961725 166.056328 
Q 329.961725 168.256328 332.161725 168.256328 
z
" style="fill: #ffffff; opacity: 0.8; stroke: #cccccc; stroke-linejoin: miter"/>
    </g>
    <g id="PathCollection_10">
     <g>
      <use xlink:href="#m8c20d30f4c" x="345.361725" y="26.179297" style="fill: #ff0000; stroke: #000000"/>
     </g>
    </g>
    <g id="text_17">
     <!-- $\epsilon_p$=0.2% Trial 1 -->
     <g transform="translate(365.161725 29.066797) scale(0.11 -0.11)">
      <defs>
       <path id="DejaVuSans-Oblique-3b5" d="M 1263 1888 
Q 925 1963 778 2166 
Q 669 2309 669 2503 
Q 669 3034 1175 3344 
Q 1575 3588 2188 3588 
Q 2425 3588 2684 3550 
Q 2944 3513 3234 3438 
L 3134 2916 
Q 2847 3006 2606 3047 
Q 2359 3088 2138 3088 
Q 1766 3088 1522 2944 
Q 1228 2772 1228 2522 
Q 1228 2356 1381 2241 
Q 1563 2103 1925 2103 
L 2409 2103 
L 2319 1628 
L 1856 1628 
Q 1425 1628 1172 1469 
Q 828 1253 828 916 
Q 828 703 1013 563 
Q 1244 388 1716 388 
Q 2006 388 2284 444 
Q 2563 503 2806 619 
L 2700 84 
Q 2403 -3 2131 -47 
Q 1859 -91 1609 -91 
Q 866 -91 516 194 
Q 250 413 250 781 
Q 250 1278 600 1584 
Q 859 1813 1263 1888 
z
" transform="scale(0.015625)"/>
       <path id="DejaVuSans-Oblique-70" d="M 3175 2156 
Q 3175 2616 2975 2859 
Q 2775 3103 2400 3103 
Q 2144 3103 1911 2972 
Q 1678 2841 1497 2591 
Q 1319 2344 1212 1994 
Q 1106 1644 1106 1300 
Q 1106 863 1306 627 
Q 1506 391 1875 391 
Q 2147 391 2380 519 
Q 2613 647 2778 891 
Q 2956 1147 3065 1494 
Q 3175 1841 3175 2156 
z
M 1394 2969 
Q 1625 3272 1939 3428 
Q 2253 3584 2638 3584 
Q 3175 3584 3472 3232 
Q 3769 2881 3769 2247 
Q 3769 1728 3584 1258 
Q 3400 788 3053 416 
Q 2822 169 2531 39 
Q 2241 -91 1919 -91 
Q 1547 -91 1294 64 
Q 1041 219 916 525 
L 556 -1331 
L -19 -1331 
L 922 3500 
L 1497 3500 
L 1394 2969 
z
" transform="scale(0.015625)"/>
       <path id="ArialMT-3d" d="M 3381 2694 
L 356 2694 
L 356 3219 
L 3381 3219 
L 3381 2694 
z
M 3381 1303 
L 356 1303 
L 356 1828 
L 3381 1828 
L 3381 1303 
z
" transform="scale(0.015625)"/>
       <path id="ArialMT-2e" d="M 581 0 
L 581 641 
L 1222 641 
L 1222 0 
L 581 0 
z
" transform="scale(0.015625)"/>
       <path id="ArialMT-25" d="M 372 3481 
Q 372 3972 619 4315 
Q 866 4659 1334 4659 
Q 1766 4659 2048 4351 
Q 2331 4044 2331 3447 
Q 2331 2866 2045 2552 
Q 1759 2238 1341 2238 
Q 925 2238 648 2547 
Q 372 2856 372 3481 
z
M 1350 4272 
Q 1141 4272 1002 4090 
Q 863 3909 863 3425 
Q 863 2984 1003 2804 
Q 1144 2625 1350 2625 
Q 1563 2625 1702 2806 
Q 1841 2988 1841 3469 
Q 1841 3913 1700 4092 
Q 1559 4272 1350 4272 
z
M 1353 -169 
L 3859 4659 
L 4316 4659 
L 1819 -169 
L 1353 -169 
z
M 3334 1075 
Q 3334 1569 3581 1911 
Q 3828 2253 4300 2253 
Q 4731 2253 5014 1945 
Q 5297 1638 5297 1041 
Q 5297 459 5011 145 
Q 4725 -169 4303 -169 
Q 3888 -169 3611 142 
Q 3334 453 3334 1075 
z
M 4316 1866 
Q 4103 1866 3964 1684 
Q 3825 1503 3825 1019 
Q 3825 581 3965 400 
Q 4106 219 4313 219 
Q 4528 219 4667 400 
Q 4806 581 4806 1063 
Q 4806 1506 4665 1686 
Q 4525 1866 4316 1866 
z
" transform="scale(0.015625)"/>
       <path id="ArialMT-54" d="M 1659 0 
L 1659 4041 
L 150 4041 
L 150 4581 
L 3781 4581 
L 3781 4041 
L 2266 4041 
L 2266 0 
L 1659 0 
z
" transform="scale(0.015625)"/>
       <path id="ArialMT-72" d="M 416 0 
L 416 3319 
L 922 3319 
L 922 2816 
Q 1116 3169 1280 3281 
Q 1444 3394 1641 3394 
Q 1925 3394 2219 3213 
L 2025 2691 
Q 1819 2813 1613 2813 
Q 1428 2813 1281 2702 
Q 1134 2591 1072 2394 
Q 978 2094 978 1738 
L 978 0 
L 416 0 
z
" transform="scale(0.015625)"/>
       <path id="ArialMT-69" d="M 425 3934 
L 425 4581 
L 988 4581 
L 988 3934 
L 425 3934 
z
M 425 0 
L 425 3319 
L 988 3319 
L 988 0 
L 425 0 
z
" transform="scale(0.015625)"/>
       <path id="ArialMT-6c" d="M 409 0 
L 409 4581 
L 972 4581 
L 972 0 
L 409 0 
z
" transform="scale(0.015625)"/>
      </defs>
      <use xlink:href="#DejaVuSans-Oblique-3b5" transform="translate(0 0.203125)"/>
      <use xlink:href="#DejaVuSans-Oblique-70" transform="translate(54.052734 -16.203125) scale(0.7)"/>
      <use xlink:href="#ArialMT-3d" transform="translate(101.220703 0.203125)"/>
      <use xlink:href="#ArialMT-30" transform="translate(159.619141 0.203125)"/>
      <use xlink:href="#ArialMT-2e" transform="translate(215.234375 0.203125)"/>
      <use xlink:href="#ArialMT-32" transform="translate(243.017578 0.203125)"/>
      <use xlink:href="#ArialMT-25" transform="translate(298.632812 0.203125)"/>
      <use xlink:href="#ArialMT-20" transform="translate(387.548828 0.203125)"/>
      <use xlink:href="#ArialMT-54" transform="translate(415.332031 0.203125)"/>
      <use xlink:href="#ArialMT-72" transform="translate(476.416016 0.203125)"/>
      <use xlink:href="#ArialMT-69" transform="translate(509.716797 0.203125)"/>
      <use xlink:href="#ArialMT-61" transform="translate(531.933594 0.203125)"/>
      <use xlink:href="#ArialMT-6c" transform="translate(587.548828 0.203125)"/>
      <use xlink:href="#ArialMT-20" transform="translate(609.765625 0.203125)"/>
      <use xlink:href="#ArialMT-31" transform="translate(637.548828 0.203125)"/>
     </g>
    </g>
    <g id="PathCollection_11">
     <g>
      <use xlink:href="#mee46af1f87" x="345.361725" y="43.119297" style="fill: #ff0000; stroke: #000000"/>
     </g>
    </g>
    <g id="text_18">
     <!-- $\epsilon_p$=0.2% Trial 2 -->
     <g transform="translate(365.161725 46.006797) scale(0.11 -0.11)">
      <use xlink:href="#DejaVuSans-Oblique-3b5" transform="translate(0 0.203125)"/>
      <use xlink:href="#DejaVuSans-Oblique-70" transform="translate(54.052734 -16.203125) scale(0.7)"/>
      <use xlink:href="#ArialMT-3d" transform="translate(101.220703 0.203125)"/>
      <use xlink:href="#ArialMT-30" transform="translate(159.619141 0.203125)"/>
      <use xlink:href="#ArialMT-2e" transform="translate(215.234375 0.203125)"/>
      <use xlink:href="#ArialMT-32" transform="translate(243.017578 0.203125)"/>
      <use xlink:href="#ArialMT-25" transform="translate(298.632812 0.203125)"/>
      <use xlink:href="#ArialMT-20" transform="translate(387.548828 0.203125)"/>
      <use xlink:href="#ArialMT-54" transform="translate(415.332031 0.203125)"/>
      <use xlink:href="#ArialMT-72" transform="translate(476.416016 0.203125)"/>
      <use xlink:href="#ArialMT-69" transform="translate(509.716797 0.203125)"/>
      <use xlink:href="#ArialMT-61" transform="translate(531.933594 0.203125)"/>
      <use xlink:href="#ArialMT-6c" transform="translate(587.548828 0.203125)"/>
      <use xlink:href="#ArialMT-20" transform="translate(609.765625 0.203125)"/>
      <use xlink:href="#ArialMT-32" transform="translate(637.548828 0.203125)"/>
     </g>
    </g>
    <g id="PathCollection_12">
     <g>
      <use xlink:href="#m42edbad66c" x="345.361725" y="60.059297" style="fill: #0000ff; stroke: #000000"/>
     </g>
    </g>
    <g id="text_19">
     <!-- $\epsilon_p$=0.5% Trial 1 -->
     <g transform="translate(365.161725 62.946797) scale(0.11 -0.11)">
      <defs>
       <path id="ArialMT-35" d="M 266 1200 
L 856 1250 
Q 922 819 1161 601 
Q 1400 384 1738 384 
Q 2144 384 2425 690 
Q 2706 997 2706 1503 
Q 2706 1984 2436 2262 
Q 2166 2541 1728 2541 
Q 1456 2541 1237 2417 
Q 1019 2294 894 2097 
L 366 2166 
L 809 4519 
L 3088 4519 
L 3088 3981 
L 1259 3981 
L 1013 2750 
Q 1425 3038 1878 3038 
Q 2478 3038 2890 2622 
Q 3303 2206 3303 1553 
Q 3303 931 2941 478 
Q 2500 -78 1738 -78 
Q 1113 -78 717 272 
Q 322 622 266 1200 
z
" transform="scale(0.015625)"/>
      </defs>
      <use xlink:href="#DejaVuSans-Oblique-3b5" transform="translate(0 0.203125)"/>
      <use xlink:href="#DejaVuSans-Oblique-70" transform="translate(54.052734 -16.203125) scale(0.7)"/>
      <use xlink:href="#ArialMT-3d" transform="translate(101.220703 0.203125)"/>
      <use xlink:href="#ArialMT-30" transform="translate(159.619141 0.203125)"/>
      <use xlink:href="#ArialMT-2e" transform="translate(215.234375 0.203125)"/>
      <use xlink:href="#ArialMT-35" transform="translate(243.017578 0.203125)"/>
      <use xlink:href="#ArialMT-25" transform="translate(298.632812 0.203125)"/>
      <use xlink:href="#ArialMT-20" transform="translate(387.548828 0.203125)"/>
      <use xlink:href="#ArialMT-54" transform="translate(415.332031 0.203125)"/>
      <use xlink:href="#ArialMT-72" transform="translate(476.416016 0.203125)"/>
      <use xlink:href="#ArialMT-69" transform="translate(509.716797 0.203125)"/>
      <use xlink:href="#ArialMT-61" transform="translate(531.933594 0.203125)"/>
      <use xlink:href="#ArialMT-6c" transform="translate(587.548828 0.203125)"/>
      <use xlink:href="#ArialMT-20" transform="translate(609.765625 0.203125)"/>
      <use xlink:href="#ArialMT-31" transform="translate(637.548828 0.203125)"/>
     </g>
    </g>
    <g id="PathCollection_13">
     <g>
      <use xlink:href="#md1670c6aa6" x="345.361725" y="76.999297" style="fill: #0000ff; stroke: #000000"/>
     </g>
    </g>
    <g id="text_20">
     <!-- $\epsilon_p$=0.5% Trial 2 -->
     <g transform="translate(365.161725 79.886797) scale(0.11 -0.11)">
      <use xlink:href="#DejaVuSans-Oblique-3b5" transform="translate(0 0.203125)"/>
      <use xlink:href="#DejaVuSans-Oblique-70" transform="translate(54.052734 -16.203125) scale(0.7)"/>
      <use xlink:href="#ArialMT-3d" transform="translate(101.220703 0.203125)"/>
      <use xlink:href="#ArialMT-30" transform="translate(159.619141 0.203125)"/>
      <use xlink:href="#ArialMT-2e" transform="translate(215.234375 0.203125)"/>
      <use xlink:href="#ArialMT-35" transform="translate(243.017578 0.203125)"/>
      <use xlink:href="#ArialMT-25" transform="translate(298.632812 0.203125)"/>
      <use xlink:href="#ArialMT-20" transform="translate(387.548828 0.203125)"/>
      <use xlink:href="#ArialMT-54" transform="translate(415.332031 0.203125)"/>
      <use xlink:href="#ArialMT-72" transform="translate(476.416016 0.203125)"/>
      <use xlink:href="#ArialMT-69" transform="translate(509.716797 0.203125)"/>
      <use xlink:href="#ArialMT-61" transform="translate(531.933594 0.203125)"/>
      <use xlink:href="#ArialMT-6c" transform="translate(587.548828 0.203125)"/>
      <use xlink:href="#ArialMT-20" transform="translate(609.765625 0.203125)"/>
      <use xlink:href="#ArialMT-32" transform="translate(637.548828 0.203125)"/>
     </g>
    </g>
    <g id="PathCollection_14">
     <g>
      <use xlink:href="#mafae097452" x="345.361725" y="93.939297" style="fill: #008000; stroke: #000000"/>
     </g>
    </g>
    <g id="text_21">
     <!-- $\epsilon_p$=1.0% Trial 1 -->
     <g transform="translate(365.161725 96.826797) scale(0.11 -0.11)">
      <use xlink:href="#DejaVuSans-Oblique-3b5" transform="translate(0 0.203125)"/>
      <use xlink:href="#DejaVuSans-Oblique-70" transform="translate(54.052734 -16.203125) scale(0.7)"/>
      <use xlink:href="#ArialMT-3d" transform="translate(101.220703 0.203125)"/>
      <use xlink:href="#ArialMT-31" transform="translate(159.619141 0.203125)"/>
      <use xlink:href="#ArialMT-2e" transform="translate(215.234375 0.203125)"/>
      <use xlink:href="#ArialMT-30" transform="translate(243.017578 0.203125)"/>
      <use xlink:href="#ArialMT-25" transform="translate(298.632812 0.203125)"/>
      <use xlink:href="#ArialMT-20" transform="translate(387.548828 0.203125)"/>
      <use xlink:href="#ArialMT-54" transform="translate(415.332031 0.203125)"/>
      <use xlink:href="#ArialMT-72" transform="translate(476.416016 0.203125)"/>
      <use xlink:href="#ArialMT-69" transform="translate(509.716797 0.203125)"/>
      <use xlink:href="#ArialMT-61" transform="translate(531.933594 0.203125)"/>
      <use xlink:href="#ArialMT-6c" transform="translate(587.548828 0.203125)"/>
      <use xlink:href="#ArialMT-20" transform="translate(609.765625 0.203125)"/>
      <use xlink:href="#ArialMT-31" transform="translate(637.548828 0.203125)"/>
     </g>
    </g>
    <g id="PathCollection_15">
     <g>
      <use xlink:href="#m74bf3c951c" x="345.361725" y="110.879297" style="fill: #008000; stroke: #000000"/>
     </g>
    </g>
    <g id="text_22">
     <!-- $\epsilon_p$=1.0% Trial 2 -->
     <g transform="translate(365.161725 113.766797) scale(0.11 -0.11)">
      <use xlink:href="#DejaVuSans-Oblique-3b5" transform="translate(0 0.203125)"/>
      <use xlink:href="#DejaVuSans-Oblique-70" transform="translate(54.052734 -16.203125) scale(0.7)"/>
      <use xlink:href="#ArialMT-3d" transform="translate(101.220703 0.203125)"/>
      <use xlink:href="#ArialMT-31" transform="translate(159.619141 0.203125)"/>
      <use xlink:href="#ArialMT-2e" transform="translate(215.234375 0.203125)"/>
      <use xlink:href="#ArialMT-30" transform="translate(243.017578 0.203125)"/>
      <use xlink:href="#ArialMT-25" transform="translate(298.632812 0.203125)"/>
      <use xlink:href="#ArialMT-20" transform="translate(387.548828 0.203125)"/>
      <use xlink:href="#ArialMT-54" transform="translate(415.332031 0.203125)"/>
      <use xlink:href="#ArialMT-72" transform="translate(476.416016 0.203125)"/>
      <use xlink:href="#ArialMT-69" transform="translate(509.716797 0.203125)"/>
      <use xlink:href="#ArialMT-61" transform="translate(531.933594 0.203125)"/>
      <use xlink:href="#ArialMT-6c" transform="translate(587.548828 0.203125)"/>
      <use xlink:href="#ArialMT-20" transform="translate(609.765625 0.203125)"/>
      <use xlink:href="#ArialMT-32" transform="translate(637.548828 0.203125)"/>
     </g>
    </g>
    <g id="line2d_18">
     <path d="M 334.361725 126.700391 
L 345.361725 126.700391 
L 356.361725 126.700391 
" style="fill: none; stroke: #ff0000; stroke-width: 1.5; stroke-linecap: square"/>
    </g>
    <g id="text_23">
     <!-- M&amp;A $ \bar \sigma $ = 710 MPa -->
     <g transform="translate(365.161725 130.550391) scale(0.11 -0.11)">
      <defs>
       <path id="ArialMT-26" d="M 3041 541 
Q 2763 231 2434 76 
Q 2106 -78 1725 -78 
Q 1022 -78 609 397 
Q 275 784 275 1263 
Q 275 1688 548 2030 
Q 822 2372 1366 2631 
Q 1056 2988 953 3209 
Q 850 3431 850 3638 
Q 850 4050 1173 4354 
Q 1497 4659 1988 4659 
Q 2456 4659 2754 4371 
Q 3053 4084 3053 3681 
Q 3053 3028 2188 2566 
L 3009 1519 
Q 3150 1794 3228 2156 
L 3813 2031 
Q 3663 1431 3406 1044 
Q 3722 625 4122 341 
L 3744 -106 
Q 3403 113 3041 541 
z
M 1897 2928 
Q 2263 3144 2370 3306 
Q 2478 3469 2478 3666 
Q 2478 3900 2329 4048 
Q 2181 4197 1959 4197 
Q 1731 4197 1579 4050 
Q 1428 3903 1428 3691 
Q 1428 3584 1483 3467 
Q 1538 3350 1647 3219 
L 1897 2928 
z
M 2688 984 
L 1656 2263 
Q 1200 1991 1040 1758 
Q 881 1525 881 1297 
Q 881 1019 1103 719 
Q 1325 419 1731 419 
Q 1984 419 2254 576 
Q 2525 734 2688 984 
z
" transform="scale(0.015625)"/>
       <path id="ArialMT-41" d="M -9 0 
L 1750 4581 
L 2403 4581 
L 4278 0 
L 3588 0 
L 3053 1388 
L 1138 1388 
L 634 0 
L -9 0 
z
M 1313 1881 
L 2866 1881 
L 2388 3150 
Q 2169 3728 2063 4100 
Q 1975 3659 1816 3225 
L 1313 1881 
z
" transform="scale(0.015625)"/>
       <path id="DejaVuSans-304" d="M -2518 4769 
L -650 4769 
L -650 4306 
L -2518 4306 
L -2518 4769 
z
" transform="scale(0.015625)"/>
       <path id="ArialMT-37" d="M 303 3981 
L 303 4522 
L 3269 4522 
L 3269 4084 
Q 2831 3619 2401 2847 
Q 1972 2075 1738 1259 
Q 1569 684 1522 0 
L 944 0 
Q 953 541 1156 1306 
Q 1359 2072 1739 2783 
Q 2119 3494 2547 3981 
L 303 3981 
z
" transform="scale(0.015625)"/>
      </defs>
      <use xlink:href="#ArialMT-4d" transform="translate(0 0.53125)"/>
      <use xlink:href="#ArialMT-26" transform="translate(83.300781 0.53125)"/>
      <use xlink:href="#ArialMT-41" transform="translate(150 0.53125)"/>
      <use xlink:href="#ArialMT-20" transform="translate(216.699219 0.53125)"/>
      <use xlink:href="#DejaVuSans-304" transform="translate(308.548828 0.484375)"/>
      <use xlink:href="#DejaVuSans-Oblique-3c3" transform="translate(244.482422 0.53125)"/>
      <use xlink:href="#ArialMT-20" transform="translate(307.861328 0.53125)"/>
      <use xlink:href="#ArialMT-3d" transform="translate(335.644531 0.53125)"/>
      <use xlink:href="#ArialMT-20" transform="translate(394.042969 0.53125)"/>
      <use xlink:href="#ArialMT-37" transform="translate(421.826172 0.53125)"/>
      <use xlink:href="#ArialMT-31" transform="translate(477.441406 0.53125)"/>
      <use xlink:href="#ArialMT-30" transform="translate(533.056641 0.53125)"/>
      <use xlink:href="#ArialMT-20" transform="translate(588.671875 0.53125)"/>
      <use xlink:href="#ArialMT-4d" transform="translate(616.455078 0.53125)"/>
      <use xlink:href="#ArialMT-50" transform="translate(699.755859 0.53125)"/>
      <use xlink:href="#ArialMT-61" transform="translate(766.455078 0.53125)"/>
     </g>
    </g>
    <g id="line2d_19">
     <path d="M 334.361725 142.260234 
L 345.361725 142.260234 
L 356.361725 142.260234 
" style="fill: none; stroke: #0000ff; stroke-width: 1.5; stroke-linecap: square"/>
    </g>
    <g id="text_24">
     <!-- M&amp;A $ \bar \sigma $ = 802 MPa -->
     <g transform="translate(365.161725 146.110234) scale(0.11 -0.11)">
      <use xlink:href="#ArialMT-4d" transform="translate(0 0.53125)"/>
      <use xlink:href="#ArialMT-26" transform="translate(83.300781 0.53125)"/>
      <use xlink:href="#ArialMT-41" transform="translate(150 0.53125)"/>
      <use xlink:href="#ArialMT-20" transform="translate(216.699219 0.53125)"/>
      <use xlink:href="#DejaVuSans-304" transform="translate(308.548828 0.484375)"/>
      <use xlink:href="#DejaVuSans-Oblique-3c3" transform="translate(244.482422 0.53125)"/>
      <use xlink:href="#ArialMT-20" transform="translate(307.861328 0.53125)"/>
      <use xlink:href="#ArialMT-3d" transform="translate(335.644531 0.53125)"/>
      <use xlink:href="#ArialMT-20" transform="translate(394.042969 0.53125)"/>
      <use xlink:href="#ArialMT-38" transform="translate(421.826172 0.53125)"/>
      <use xlink:href="#ArialMT-30" transform="translate(477.441406 0.53125)"/>
      <use xlink:href="#ArialMT-32" transform="translate(533.056641 0.53125)"/>
      <use xlink:href="#ArialMT-20" transform="translate(588.671875 0.53125)"/>
      <use xlink:href="#ArialMT-4d" transform="translate(616.455078 0.53125)"/>
      <use xlink:href="#ArialMT-50" transform="translate(699.755859 0.53125)"/>
      <use xlink:href="#ArialMT-61" transform="translate(766.455078 0.53125)"/>
     </g>
    </g>
    <g id="line2d_20">
     <path d="M 334.361725 157.820078 
L 345.361725 157.820078 
L 356.361725 157.820078 
" style="fill: none; stroke: #008000; stroke-width: 1.5; stroke-linecap: square"/>
    </g>
    <g id="text_25">
     <!-- M&amp;A $ \bar \sigma $ = 881 MPa -->
     <g transform="translate(365.161725 161.670078) scale(0.11 -0.11)">
      <use xlink:href="#ArialMT-4d" transform="translate(0 0.53125)"/>
      <use xlink:href="#ArialMT-26" transform="translate(83.300781 0.53125)"/>
      <use xlink:href="#ArialMT-41" transform="translate(150 0.53125)"/>
      <use xlink:href="#ArialMT-20" transform="translate(216.699219 0.53125)"/>
      <use xlink:href="#DejaVuSans-304" transform="translate(308.548828 0.484375)"/>
      <use xlink:href="#DejaVuSans-Oblique-3c3" transform="translate(244.482422 0.53125)"/>
      <use xlink:href="#ArialMT-20" transform="translate(307.861328 0.53125)"/>
      <use xlink:href="#ArialMT-3d" transform="translate(335.644531 0.53125)"/>
      <use xlink:href="#ArialMT-20" transform="translate(394.042969 0.53125)"/>
      <use xlink:href="#ArialMT-38" transform="translate(421.826172 0.53125)"/>
      <use xlink:href="#ArialMT-38" transform="translate(477.441406 0.53125)"/>
      <use xlink:href="#ArialMT-31" transform="translate(533.056641 0.53125)"/>
      <use xlink:href="#ArialMT-20" transform="translate(588.671875 0.53125)"/>
      <use xlink:href="#ArialMT-4d" transform="translate(616.455078 0.53125)"/>
      <use xlink:href="#ArialMT-50" transform="translate(699.755859 0.53125)"/>
      <use xlink:href="#ArialMT-61" transform="translate(766.455078 0.53125)"/>
     </g>
    </g>
   </g>
  </g>
 </g>
 <defs>
  <clipPath id="pf9cfd66b21">
   <rect x="53.118125" y="11.136797" width="266.112" height="266.112"/>
  </clipPath>
 </defs>
</svg>
