<?xml version="1.0" encoding="utf-8" standalone="no"?>
<!DOCTYPE svg PUBLIC "-//W3C//DTD SVG 1.1//EN"
  "http://www.w3.org/Graphics/SVG/1.1/DTD/svg11.dtd">
<svg xmlns:xlink="http://www.w3.org/1999/xlink" width="467.291725pt" height="315.958641pt" viewBox="0 0 467.291725 315.958641" xmlns="http://www.w3.org/2000/svg" version="1.1">
 <metadata>
  <rdf:RDF xmlns:dc="http://purl.org/dc/elements/1.1/" xmlns:cc="http://creativecommons.org/ns#" xmlns:rdf="http://www.w3.org/1999/02/22-rdf-syntax-ns#">
   <cc:Work>
    <dc:type rdf:resource="http://purl.org/dc/dcmitype/StillImage"/>
    <dc:date>2023-03-09T02:27:13.389794</dc:date>
    <dc:format>image/svg+xml</dc:format>
    <dc:creator>
     <cc:Agent>
      <dc:title>Matplotlib v3.6.2, https://matplotlib.org/</dc:title>
     </cc:Agent>
    </dc:creator>
   </cc:Work>
  </rdf:RDF>
 </metadata>
 <defs>
  <style type="text/css">*{stroke-linejoin: round; stroke-linecap: butt}</style>
 </defs>
 <g id="figure_1">
  <g id="patch_1">
   <path d="M 0 315.958641 
L 467.291725 315.958641 
L 467.291725 0 
L 0 0 
z
" style="fill: #ffffff"/>
  </g>
  <g id="axes_1">
   <g id="patch_2">
    <path d="M 53.118125 277.248797 
L 319.230125 277.248797 
L 319.230125 11.136797 
L 53.118125 11.136797 
z
" style="fill: #ffffff"/>
   </g>
   <g id="PathCollection_1">
    <defs>
     <path id="m060148dc9c" d="M 0 4.472136 
C 1.186024 4.472136 2.323632 4.000923 3.162278 3.162278 
C 4.000923 2.323632 4.472136 1.186024 4.472136 0 
C 4.472136 -1.186024 4.000923 -2.323632 3.162278 -3.162278 
C 2.323632 -4.000923 1.186024 -4.472136 0 -4.472136 
C -1.186024 -4.472136 -2.323632 -4.000923 -3.162278 -3.162278 
C -4.000923 -2.323632 -4.472136 -1.186024 -4.472136 0 
C -4.472136 1.186024 -4.000923 2.323632 -3.162278 3.162278 
C -2.323632 4.000923 -1.186024 4.472136 0 4.472136 
z
" style="stroke: #000000"/>
    </defs>
    <g clip-path="url(#p50a61f3766)">
     <use xlink:href="#m060148dc9c" x="207.789072" y="277.248797" style="fill: #ff0000; stroke: #000000"/>
     <use xlink:href="#m060148dc9c" x="245.526415" y="180.752372" style="fill: #ff0000; stroke: #000000"/>
     <use xlink:href="#m060148dc9c" x="212.435609" y="118.437369" style="fill: #ff0000; stroke: #000000"/>
     <use xlink:href="#m060148dc9c" x="148.227219" y="87.284524" style="fill: #ff0000; stroke: #000000"/>
     <use xlink:href="#m060148dc9c" x="53.118125" y="122.57785" style="fill: #ff0000; stroke: #000000"/>
    </g>
   </g>
   <g id="PathCollection_2">
    <defs>
     <path id="mf0291ca394" d="M 0 -4.472136 
L -4.472136 4.472136 
L 4.472136 4.472136 
z
" style="stroke: #000000"/>
    </defs>
    <g clip-path="url(#p50a61f3766)">
     <use xlink:href="#mf0291ca394" x="207.789072" y="277.248797" style="fill: #ff0000; stroke: #000000"/>
     <use xlink:href="#mf0291ca394" x="241.619447" y="182.586771" style="fill: #ff0000; stroke: #000000"/>
     <use xlink:href="#mf0291ca394" x="210.222223" y="120.680249" style="fill: #ff0000; stroke: #000000"/>
     <use xlink:href="#mf0291ca394" x="145.127458" y="92.616078" style="fill: #ff0000; stroke: #000000"/>
     <use xlink:href="#mf0291ca394" x="53.118125" y="122.57785" style="fill: #ff0000; stroke: #000000"/>
    </g>
   </g>
   <g id="PathCollection_3">
    <defs>
     <path id="m0d0af3cfea" d="M 0 4.472136 
C 1.186024 4.472136 2.323632 4.000923 3.162278 3.162278 
C 4.000923 2.323632 4.472136 1.186024 4.472136 0 
C 4.472136 -1.186024 4.000923 -2.323632 3.162278 -3.162278 
C 2.323632 -4.000923 1.186024 -4.472136 0 -4.472136 
C -1.186024 -4.472136 -2.323632 -4.000923 -3.162278 -3.162278 
C -4.000923 -2.323632 -4.472136 -1.186024 -4.472136 0 
C -4.472136 1.186024 -4.000923 2.323632 -3.162278 3.162278 
C -2.323632 4.000923 -1.186024 4.472136 0 4.472136 
z
" style="stroke: #000000"/>
    </defs>
    <g clip-path="url(#p50a61f3766)">
     <use xlink:href="#m0d0af3cfea" x="230.260013" y="277.248797" style="fill: #0000ff; stroke: #000000"/>
     <use xlink:href="#m0d0af3cfea" x="269.025435" y="169.147671" style="fill: #0000ff; stroke: #000000"/>
     <use xlink:href="#m0d0af3cfea" x="234.172303" y="96.463614" style="fill: #0000ff; stroke: #000000"/>
     <use xlink:href="#m0d0af3cfea" x="161.931765" y="60.105618" style="fill: #0000ff; stroke: #000000"/>
     <use xlink:href="#m0d0af3cfea" x="53.118125" y="100.106909" style="fill: #0000ff; stroke: #000000"/>
    </g>
   </g>
   <g id="PathCollection_4">
    <defs>
     <path id="m7d95a19d5d" d="M 0 -4.472136 
L -4.472136 4.472136 
L 4.472136 4.472136 
z
" style="stroke: #000000"/>
    </defs>
    <g clip-path="url(#p50a61f3766)">
     <use xlink:href="#m7d95a19d5d" x="230.260013" y="277.248797" style="fill: #0000ff; stroke: #000000"/>
     <use xlink:href="#m7d95a19d5d" x="266.973046" y="170.007657" style="fill: #0000ff; stroke: #000000"/>
     <use xlink:href="#m7d95a19d5d" x="232.15717" y="98.523099" style="fill: #0000ff; stroke: #000000"/>
     <use xlink:href="#m7d95a19d5d" x="160.058559" y="63.280778" style="fill: #0000ff; stroke: #000000"/>
     <use xlink:href="#m7d95a19d5d" x="53.118125" y="100.106909" style="fill: #0000ff; stroke: #000000"/>
    </g>
   </g>
   <g id="PathCollection_5">
    <defs>
     <path id="m02b55cafeb" d="M 0 4.472136 
C 1.186024 4.472136 2.323632 4.000923 3.162278 3.162278 
C 4.000923 2.323632 4.472136 1.186024 4.472136 0 
C 4.472136 -1.186024 4.000923 -2.323632 3.162278 -3.162278 
C 2.323632 -4.000923 1.186024 -4.472136 0 -4.472136 
C -1.186024 -4.472136 -2.323632 -4.000923 -3.162278 -3.162278 
C -4.000923 -2.323632 -4.472136 -1.186024 -4.472136 0 
C -4.472136 1.186024 -4.000923 2.323632 -3.162278 3.162278 
C -2.323632 4.000923 -1.186024 4.472136 0 4.472136 
z
" style="stroke: #000000"/>
    </defs>
    <g clip-path="url(#p50a61f3766)">
     <use xlink:href="#m02b55cafeb" x="249.019357" y="277.248797" style="fill: #008000; stroke: #000000"/>
     <use xlink:href="#m02b55cafeb" x="289.062116" y="158.949816" style="fill: #008000; stroke: #000000"/>
     <use xlink:href="#m02b55cafeb" x="253.180018" y="77.287361" style="fill: #008000; stroke: #000000"/>
     <use xlink:href="#m02b55cafeb" x="173.213805" y="37.88194" style="fill: #008000; stroke: #000000"/>
     <use xlink:href="#m02b55cafeb" x="53.118125" y="81.347565" style="fill: #008000; stroke: #000000"/>
    </g>
   </g>
   <g id="PathCollection_6">
    <defs>
     <path id="mcd66622d69" d="M 0 -4.472136 
L -4.472136 4.472136 
L 4.472136 4.472136 
z
" style="stroke: #000000"/>
    </defs>
    <g clip-path="url(#p50a61f3766)">
     <use xlink:href="#mcd66622d69" x="249.019357" y="277.248797" style="fill: #008000; stroke: #000000"/>
     <use xlink:href="#mcd66622d69" x="287.751071" y="159.519739" style="fill: #008000; stroke: #000000"/>
     <use xlink:href="#mcd66622d69" x="250.854864" y="79.872418" style="fill: #008000; stroke: #000000"/>
     <use xlink:href="#mcd66622d69" x="171.662594" y="40.213746" style="fill: #008000; stroke: #000000"/>
     <use xlink:href="#mcd66622d69" x="53.118125" y="81.347565" style="fill: #008000; stroke: #000000"/>
    </g>
   </g>
   <g id="matplotlib.axis_1">
    <g id="xtick_1">
     <g id="line2d_1">
      <defs>
       <path id="me283396bc0" d="M 0 0 
L 0 3.5 
" style="stroke: #000000; stroke-width: 0.8"/>
      </defs>
      <g>
       <use xlink:href="#me283396bc0" x="53.118125" y="277.248797" style="stroke: #000000; stroke-width: 0.8"/>
      </g>
     </g>
     <g id="text_1">
      <!-- 0 -->
      <g transform="translate(50.059609 292.122391) scale(0.11 -0.11)">
       <defs>
        <path id="ArialMT-30" d="M 266 2259 
Q 266 3072 433 3567 
Q 600 4063 929 4331 
Q 1259 4600 1759 4600 
Q 2128 4600 2406 4451 
Q 2684 4303 2865 4023 
Q 3047 3744 3150 3342 
Q 3253 2941 3253 2259 
Q 3253 1453 3087 958 
Q 2922 463 2592 192 
Q 2263 -78 1759 -78 
Q 1097 -78 719 397 
Q 266 969 266 2259 
z
M 844 2259 
Q 844 1131 1108 757 
Q 1372 384 1759 384 
Q 2147 384 2411 759 
Q 2675 1134 2675 2259 
Q 2675 3391 2411 3762 
Q 2147 4134 1753 4134 
Q 1366 4134 1134 3806 
Q 844 3388 844 2259 
z
" transform="scale(0.015625)"/>
       </defs>
       <use xlink:href="#ArialMT-30"/>
      </g>
     </g>
    </g>
    <g id="xtick_2">
     <g id="line2d_2">
      <g>
       <use xlink:href="#me283396bc0" x="97.470125" y="277.248797" style="stroke: #000000; stroke-width: 0.8"/>
      </g>
     </g>
     <g id="text_2">
      <!-- 200 -->
      <g transform="translate(88.294578 292.122391) scale(0.11 -0.11)">
       <defs>
        <path id="ArialMT-32" d="M 3222 541 
L 3222 0 
L 194 0 
Q 188 203 259 391 
Q 375 700 629 1000 
Q 884 1300 1366 1694 
Q 2113 2306 2375 2664 
Q 2638 3022 2638 3341 
Q 2638 3675 2398 3904 
Q 2159 4134 1775 4134 
Q 1369 4134 1125 3890 
Q 881 3647 878 3216 
L 300 3275 
Q 359 3922 746 4261 
Q 1134 4600 1788 4600 
Q 2447 4600 2831 4234 
Q 3216 3869 3216 3328 
Q 3216 3053 3103 2787 
Q 2991 2522 2730 2228 
Q 2469 1934 1863 1422 
Q 1356 997 1212 845 
Q 1069 694 975 541 
L 3222 541 
z
" transform="scale(0.015625)"/>
       </defs>
       <use xlink:href="#ArialMT-32"/>
       <use xlink:href="#ArialMT-30" x="55.615234"/>
       <use xlink:href="#ArialMT-30" x="111.230469"/>
      </g>
     </g>
    </g>
    <g id="xtick_3">
     <g id="line2d_3">
      <g>
       <use xlink:href="#me283396bc0" x="141.822125" y="277.248797" style="stroke: #000000; stroke-width: 0.8"/>
      </g>
     </g>
     <g id="text_3">
      <!-- 400 -->
      <g transform="translate(132.646578 292.122391) scale(0.11 -0.11)">
       <defs>
        <path id="ArialMT-34" d="M 2069 0 
L 2069 1097 
L 81 1097 
L 81 1613 
L 2172 4581 
L 2631 4581 
L 2631 1613 
L 3250 1613 
L 3250 1097 
L 2631 1097 
L 2631 0 
L 2069 0 
z
M 2069 1613 
L 2069 3678 
L 634 1613 
L 2069 1613 
z
" transform="scale(0.015625)"/>
       </defs>
       <use xlink:href="#ArialMT-34"/>
       <use xlink:href="#ArialMT-30" x="55.615234"/>
       <use xlink:href="#ArialMT-30" x="111.230469"/>
      </g>
     </g>
    </g>
    <g id="xtick_4">
     <g id="line2d_4">
      <g>
       <use xlink:href="#me283396bc0" x="186.174125" y="277.248797" style="stroke: #000000; stroke-width: 0.8"/>
      </g>
     </g>
     <g id="text_4">
      <!-- 600 -->
      <g transform="translate(176.998578 292.122391) scale(0.11 -0.11)">
       <defs>
        <path id="ArialMT-36" d="M 3184 3459 
L 2625 3416 
Q 2550 3747 2413 3897 
Q 2184 4138 1850 4138 
Q 1581 4138 1378 3988 
Q 1113 3794 959 3422 
Q 806 3050 800 2363 
Q 1003 2672 1297 2822 
Q 1591 2972 1913 2972 
Q 2475 2972 2870 2558 
Q 3266 2144 3266 1488 
Q 3266 1056 3080 686 
Q 2894 316 2569 119 
Q 2244 -78 1831 -78 
Q 1128 -78 684 439 
Q 241 956 241 2144 
Q 241 3472 731 4075 
Q 1159 4600 1884 4600 
Q 2425 4600 2770 4297 
Q 3116 3994 3184 3459 
z
M 888 1484 
Q 888 1194 1011 928 
Q 1134 663 1356 523 
Q 1578 384 1822 384 
Q 2178 384 2434 671 
Q 2691 959 2691 1453 
Q 2691 1928 2437 2201 
Q 2184 2475 1800 2475 
Q 1419 2475 1153 2201 
Q 888 1928 888 1484 
z
" transform="scale(0.015625)"/>
       </defs>
       <use xlink:href="#ArialMT-36"/>
       <use xlink:href="#ArialMT-30" x="55.615234"/>
       <use xlink:href="#ArialMT-30" x="111.230469"/>
      </g>
     </g>
    </g>
    <g id="xtick_5">
     <g id="line2d_5">
      <g>
       <use xlink:href="#me283396bc0" x="230.526125" y="277.248797" style="stroke: #000000; stroke-width: 0.8"/>
      </g>
     </g>
     <g id="text_5">
      <!-- 800 -->
      <g transform="translate(221.350578 292.122391) scale(0.11 -0.11)">
       <defs>
        <path id="ArialMT-38" d="M 1131 2484 
Q 781 2613 612 2850 
Q 444 3088 444 3419 
Q 444 3919 803 4259 
Q 1163 4600 1759 4600 
Q 2359 4600 2725 4251 
Q 3091 3903 3091 3403 
Q 3091 3084 2923 2848 
Q 2756 2613 2416 2484 
Q 2838 2347 3058 2040 
Q 3278 1734 3278 1309 
Q 3278 722 2862 322 
Q 2447 -78 1769 -78 
Q 1091 -78 675 323 
Q 259 725 259 1325 
Q 259 1772 486 2073 
Q 713 2375 1131 2484 
z
M 1019 3438 
Q 1019 3113 1228 2906 
Q 1438 2700 1772 2700 
Q 2097 2700 2305 2904 
Q 2513 3109 2513 3406 
Q 2513 3716 2298 3927 
Q 2084 4138 1766 4138 
Q 1444 4138 1231 3931 
Q 1019 3725 1019 3438 
z
M 838 1322 
Q 838 1081 952 856 
Q 1066 631 1291 507 
Q 1516 384 1775 384 
Q 2178 384 2440 643 
Q 2703 903 2703 1303 
Q 2703 1709 2433 1975 
Q 2163 2241 1756 2241 
Q 1359 2241 1098 1978 
Q 838 1716 838 1322 
z
" transform="scale(0.015625)"/>
       </defs>
       <use xlink:href="#ArialMT-38"/>
       <use xlink:href="#ArialMT-30" x="55.615234"/>
       <use xlink:href="#ArialMT-30" x="111.230469"/>
      </g>
     </g>
    </g>
    <g id="xtick_6">
     <g id="line2d_6">
      <g>
       <use xlink:href="#me283396bc0" x="274.878125" y="277.248797" style="stroke: #000000; stroke-width: 0.8"/>
      </g>
     </g>
     <g id="text_6">
      <!-- 1000 -->
      <g transform="translate(262.644063 292.122391) scale(0.11 -0.11)">
       <defs>
        <path id="ArialMT-31" d="M 2384 0 
L 1822 0 
L 1822 3584 
Q 1619 3391 1289 3197 
Q 959 3003 697 2906 
L 697 3450 
Q 1169 3672 1522 3987 
Q 1875 4303 2022 4600 
L 2384 4600 
L 2384 0 
z
" transform="scale(0.015625)"/>
       </defs>
       <use xlink:href="#ArialMT-31"/>
       <use xlink:href="#ArialMT-30" x="55.615234"/>
       <use xlink:href="#ArialMT-30" x="111.230469"/>
       <use xlink:href="#ArialMT-30" x="166.845703"/>
      </g>
     </g>
    </g>
    <g id="xtick_7">
     <g id="line2d_7">
      <g>
       <use xlink:href="#me283396bc0" x="319.230125" y="277.248797" style="stroke: #000000; stroke-width: 0.8"/>
      </g>
     </g>
     <g id="text_7">
      <!-- 1200 -->
      <g transform="translate(306.996062 292.122391) scale(0.11 -0.11)">
       <use xlink:href="#ArialMT-31"/>
       <use xlink:href="#ArialMT-32" x="55.615234"/>
       <use xlink:href="#ArialMT-30" x="111.230469"/>
       <use xlink:href="#ArialMT-30" x="166.845703"/>
      </g>
     </g>
    </g>
    <g id="text_8">
     <!-- $\sigma_L$ (MPa) -->
     <g transform="translate(163.844125 306.338641) scale(0.11 -0.11)">
      <defs>
       <path id="DejaVuSans-Oblique-3c3" d="M 2219 3044 
Q 1744 3044 1422 2700 
Q 1081 2341 969 1747 
Q 844 1119 1044 756 
Q 1241 397 1706 397 
Q 2166 397 2503 759 
Q 2844 1122 2966 1747 
Q 3075 2319 2881 2700 
Q 2700 3044 2219 3044 
z
M 2309 3503 
L 4219 3500 
L 4106 2925 
L 3463 2925 
Q 3706 2438 3575 1747 
Q 3406 888 2884 400 
Q 2359 -91 1609 -91 
Q 856 -91 525 400 
Q 194 888 363 1747 
Q 528 2609 1050 3097 
Q 1484 3503 2309 3503 
z
" transform="scale(0.015625)"/>
       <path id="DejaVuSans-Oblique-4c" d="M 1075 4666 
L 1709 4666 
L 909 525 
L 3181 525 
L 3078 0 
L 172 0 
L 1075 4666 
z
" transform="scale(0.015625)"/>
       <path id="ArialMT-20" transform="scale(0.015625)"/>
       <path id="ArialMT-28" d="M 1497 -1347 
Q 1031 -759 709 28 
Q 388 816 388 1659 
Q 388 2403 628 3084 
Q 909 3875 1497 4659 
L 1900 4659 
Q 1522 4009 1400 3731 
Q 1209 3300 1100 2831 
Q 966 2247 966 1656 
Q 966 153 1900 -1347 
L 1497 -1347 
z
" transform="scale(0.015625)"/>
       <path id="ArialMT-4d" d="M 475 0 
L 475 4581 
L 1388 4581 
L 2472 1338 
Q 2622 884 2691 659 
Q 2769 909 2934 1394 
L 4031 4581 
L 4847 4581 
L 4847 0 
L 4263 0 
L 4263 3834 
L 2931 0 
L 2384 0 
L 1059 3900 
L 1059 0 
L 475 0 
z
" transform="scale(0.015625)"/>
       <path id="ArialMT-50" d="M 494 0 
L 494 4581 
L 2222 4581 
Q 2678 4581 2919 4538 
Q 3256 4481 3484 4323 
Q 3713 4166 3852 3881 
Q 3991 3597 3991 3256 
Q 3991 2672 3619 2267 
Q 3247 1863 2275 1863 
L 1100 1863 
L 1100 0 
L 494 0 
z
M 1100 2403 
L 2284 2403 
Q 2872 2403 3119 2622 
Q 3366 2841 3366 3238 
Q 3366 3525 3220 3729 
Q 3075 3934 2838 4000 
Q 2684 4041 2272 4041 
L 1100 4041 
L 1100 2403 
z
" transform="scale(0.015625)"/>
       <path id="ArialMT-61" d="M 2588 409 
Q 2275 144 1986 34 
Q 1697 -75 1366 -75 
Q 819 -75 525 192 
Q 231 459 231 875 
Q 231 1119 342 1320 
Q 453 1522 633 1644 
Q 813 1766 1038 1828 
Q 1203 1872 1538 1913 
Q 2219 1994 2541 2106 
Q 2544 2222 2544 2253 
Q 2544 2597 2384 2738 
Q 2169 2928 1744 2928 
Q 1347 2928 1158 2789 
Q 969 2650 878 2297 
L 328 2372 
Q 403 2725 575 2942 
Q 747 3159 1072 3276 
Q 1397 3394 1825 3394 
Q 2250 3394 2515 3294 
Q 2781 3194 2906 3042 
Q 3031 2891 3081 2659 
Q 3109 2516 3109 2141 
L 3109 1391 
Q 3109 606 3145 398 
Q 3181 191 3288 0 
L 2700 0 
Q 2613 175 2588 409 
z
M 2541 1666 
Q 2234 1541 1622 1453 
Q 1275 1403 1131 1340 
Q 988 1278 909 1158 
Q 831 1038 831 891 
Q 831 666 1001 516 
Q 1172 366 1500 366 
Q 1825 366 2078 508 
Q 2331 650 2450 897 
Q 2541 1088 2541 1459 
L 2541 1666 
z
" transform="scale(0.015625)"/>
       <path id="ArialMT-29" d="M 791 -1347 
L 388 -1347 
Q 1322 153 1322 1656 
Q 1322 2244 1188 2822 
Q 1081 3291 891 3722 
Q 769 4003 388 4659 
L 791 4659 
Q 1378 3875 1659 3084 
Q 1900 2403 1900 1659 
Q 1900 816 1576 28 
Q 1253 -759 791 -1347 
z
" transform="scale(0.015625)"/>
      </defs>
      <use xlink:href="#DejaVuSans-Oblique-3c3" transform="translate(0 0.203125)"/>
      <use xlink:href="#DejaVuSans-Oblique-4c" transform="translate(63.378906 -16.203125) scale(0.7)"/>
      <use xlink:href="#ArialMT-20" transform="translate(105.112305 0.203125)"/>
      <use xlink:href="#ArialMT-28" transform="translate(132.895508 0.203125)"/>
      <use xlink:href="#ArialMT-4d" transform="translate(166.196289 0.203125)"/>
      <use xlink:href="#ArialMT-50" transform="translate(249.49707 0.203125)"/>
      <use xlink:href="#ArialMT-61" transform="translate(316.196289 0.203125)"/>
      <use xlink:href="#ArialMT-29" transform="translate(371.811523 0.203125)"/>
     </g>
    </g>
   </g>
   <g id="matplotlib.axis_2">
    <g id="ytick_1">
     <g id="line2d_8">
      <defs>
       <path id="m7f3b4209be" d="M 0 0 
L -3.5 0 
" style="stroke: #000000; stroke-width: 0.8"/>
      </defs>
      <g>
       <use xlink:href="#m7f3b4209be" x="53.118125" y="277.248797" style="stroke: #000000; stroke-width: 0.8"/>
      </g>
     </g>
     <g id="text_9">
      <!-- 0 -->
      <g transform="translate(40.001094 281.185594) scale(0.11 -0.11)">
       <use xlink:href="#ArialMT-30"/>
      </g>
     </g>
    </g>
    <g id="ytick_2">
     <g id="line2d_9">
      <g>
       <use xlink:href="#m7f3b4209be" x="53.118125" y="232.896797" style="stroke: #000000; stroke-width: 0.8"/>
      </g>
     </g>
     <g id="text_10">
      <!-- 200 -->
      <g transform="translate(27.767031 236.833594) scale(0.11 -0.11)">
       <use xlink:href="#ArialMT-32"/>
       <use xlink:href="#ArialMT-30" x="55.615234"/>
       <use xlink:href="#ArialMT-30" x="111.230469"/>
      </g>
     </g>
    </g>
    <g id="ytick_3">
     <g id="line2d_10">
      <g>
       <use xlink:href="#m7f3b4209be" x="53.118125" y="188.544797" style="stroke: #000000; stroke-width: 0.8"/>
      </g>
     </g>
     <g id="text_11">
      <!-- 400 -->
      <g transform="translate(27.767031 192.481594) scale(0.11 -0.11)">
       <use xlink:href="#ArialMT-34"/>
       <use xlink:href="#ArialMT-30" x="55.615234"/>
       <use xlink:href="#ArialMT-30" x="111.230469"/>
      </g>
     </g>
    </g>
    <g id="ytick_4">
     <g id="line2d_11">
      <g>
       <use xlink:href="#m7f3b4209be" x="53.118125" y="144.192797" style="stroke: #000000; stroke-width: 0.8"/>
      </g>
     </g>
     <g id="text_12">
      <!-- 600 -->
      <g transform="translate(27.767031 148.129594) scale(0.11 -0.11)">
       <use xlink:href="#ArialMT-36"/>
       <use xlink:href="#ArialMT-30" x="55.615234"/>
       <use xlink:href="#ArialMT-30" x="111.230469"/>
      </g>
     </g>
    </g>
    <g id="ytick_5">
     <g id="line2d_12">
      <g>
       <use xlink:href="#m7f3b4209be" x="53.118125" y="99.840797" style="stroke: #000000; stroke-width: 0.8"/>
      </g>
     </g>
     <g id="text_13">
      <!-- 800 -->
      <g transform="translate(27.767031 103.777594) scale(0.11 -0.11)">
       <use xlink:href="#ArialMT-38"/>
       <use xlink:href="#ArialMT-30" x="55.615234"/>
       <use xlink:href="#ArialMT-30" x="111.230469"/>
      </g>
     </g>
    </g>
    <g id="ytick_6">
     <g id="line2d_13">
      <g>
       <use xlink:href="#m7f3b4209be" x="53.118125" y="55.488797" style="stroke: #000000; stroke-width: 0.8"/>
      </g>
     </g>
     <g id="text_14">
      <!-- 1000 -->
      <g transform="translate(21.65 59.425594) scale(0.11 -0.11)">
       <use xlink:href="#ArialMT-31"/>
       <use xlink:href="#ArialMT-30" x="55.615234"/>
       <use xlink:href="#ArialMT-30" x="111.230469"/>
       <use xlink:href="#ArialMT-30" x="166.845703"/>
      </g>
     </g>
    </g>
    <g id="ytick_7">
     <g id="line2d_14">
      <g>
       <use xlink:href="#m7f3b4209be" x="53.118125" y="11.136797" style="stroke: #000000; stroke-width: 0.8"/>
      </g>
     </g>
     <g id="text_15">
      <!-- 1200 -->
      <g transform="translate(21.65 15.073594) scale(0.11 -0.11)">
       <use xlink:href="#ArialMT-31"/>
       <use xlink:href="#ArialMT-32" x="55.615234"/>
       <use xlink:href="#ArialMT-30" x="111.230469"/>
       <use xlink:href="#ArialMT-30" x="166.845703"/>
      </g>
     </g>
    </g>
    <g id="text_16">
     <!-- $\sigma_C$ (MPa) -->
     <g transform="translate(15.23 167.017797) rotate(-90) scale(0.11 -0.11)">
      <defs>
       <path id="DejaVuSans-Oblique-43" d="M 4447 4306 
L 4319 3641 
Q 4019 3944 3683 4091 
Q 3347 4238 2956 4238 
Q 2422 4238 2017 3981 
Q 1613 3725 1319 3200 
Q 1131 2863 1032 2486 
Q 934 2109 934 1728 
Q 934 1091 1264 756 
Q 1594 422 2222 422 
Q 2656 422 3056 561 
Q 3456 700 3834 978 
L 3688 231 
Q 3316 72 2936 -9 
Q 2556 -91 2175 -91 
Q 1278 -91 773 396 
Q 269 884 269 1753 
Q 269 2309 461 2846 
Q 653 3384 1013 3828 
Q 1394 4300 1883 4525 
Q 2372 4750 3022 4750 
Q 3422 4750 3780 4639 
Q 4138 4528 4447 4306 
z
" transform="scale(0.015625)"/>
      </defs>
      <use xlink:href="#DejaVuSans-Oblique-3c3" transform="translate(0 0.203125)"/>
      <use xlink:href="#DejaVuSans-Oblique-43" transform="translate(63.378906 -16.203125) scale(0.7)"/>
      <use xlink:href="#ArialMT-20" transform="translate(114.990234 0.203125)"/>
      <use xlink:href="#ArialMT-28" transform="translate(142.773438 0.203125)"/>
      <use xlink:href="#ArialMT-4d" transform="translate(176.074219 0.203125)"/>
      <use xlink:href="#ArialMT-50" transform="translate(259.375 0.203125)"/>
      <use xlink:href="#ArialMT-61" transform="translate(326.074219 0.203125)"/>
      <use xlink:href="#ArialMT-29" transform="translate(381.689453 0.203125)"/>
     </g>
    </g>
   </g>
   <g id="PathCollection_7">
    <path d="M -1 135.090436 
L 6.36134 129.772152 
L 13.869729 124.605917 
L 21.378118 119.695752 
L 28.886506 115.034831 
L 36.855056 110.35779 
L 44.585865 106.082452 
L 52.108927 102.166821 
L 60.285223 98.186751 
L 67.793612 94.783418 
L 74.61942 91.899641 
L 82.127809 88.962652 
L 89.636198 86.273322 
L 97.144587 83.836883 
L 103.970395 81.847012 
L 110.796203 80.076613 
L 117.622011 78.531976 
L 124.447819 77.221052 
L 131.273627 76.152261 
L 137.416854 75.407489 
L 143.751374 74.863589 
L 149.703309 74.571587 
L 155.846536 74.503316 
L 161.307182 74.653331 
L 166.767829 75.014031 
L 172.228475 75.598968 
L 177.689122 76.425362 
L 182.467187 77.360326 
L 187.245253 78.508975 
L 192.023319 79.889153 
L 196.801384 81.521768 
L 200.896869 83.141264 
L 205.236783 85.102301 
L 209.226311 87.150043 
L 213.183323 89.440569 
L 217.006676 91.928109 
L 220.009131 94.094427 
L 223.422035 96.81432 
L 226.834939 99.847007 
L 229.871644 102.849402 
L 232.379863 105.579725 
L 235.218995 108.992629 
L 237.771993 112.405533 
L 240.070826 115.818437 
L 242.145409 119.231341 
L 244.369354 123.326826 
L 246.332778 127.422311 
L 248.062284 131.517795 
L 249.810336 136.295861 
L 251.296275 141.073927 
L 252.541463 145.851992 
L 253.566309 150.630058 
L 254.486714 156.090704 
L 255.160212 161.551351 
L 255.603986 167.011997 
L 255.831201 172.472644 
L 255.855771 177.93329 
L 255.654294 184.076517 
L 255.222011 190.219744 
L 254.571121 196.362972 
L 253.711004 202.506199 
L 252.520181 209.332007 
L 251.091261 216.157815 
L 249.360106 223.26521 
L 247.35231 230.492012 
L 245.233264 237.31782 
L 242.658013 244.826209 
L 240.09943 251.652017 
L 237.073652 259.106332 
L 234.06614 265.986214 
L 230.552928 273.494602 
L 226.799522 281.002991 
L 222.428351 289.193961 
L 218.169205 296.70235 
L 213.665681 304.210739 
L 208.914784 311.719127 
L 205.450476 316.958641 
L 205.450476 316.958641 
" clip-path="url(#p50a61f3766)" style="fill: none; stroke: #ff0000; stroke-width: 1.5"/>
   </g>
   <g id="PathCollection_8">
    <path d="M -1 117.466264 
L -0.870893 117.373576 
L -0.423225 117.053517 
L 0.176887 116.624746 
L 0.325605 116.518931 
L 1.074435 115.987281 
L 1.231621 115.875916 
L 1.823265 115.458506 
L 2.293308 115.127086 
L 2.572095 114.931349 
L 3.320925 114.406105 
L 3.360761 114.378256 
L 4.069755 113.884719 
L 4.436704 113.629426 
L 4.818585 113.364887 
L 5.518073 112.880596 
L 5.567415 112.846581 
L 6.316245 112.332079 
L 6.608081 112.131765 
L 7.065075 111.819461 
L 7.704159 111.382935 
L 7.813906 111.308303 
L 8.562736 110.800495 
L 8.808474 110.634105 
L 9.311566 110.294976 
L 9.919627 109.885275 
L 10.060396 109.790851 
L 10.809226 109.289862 
L 11.038944 109.136445 
L 11.558056 108.791326 
L 12.165549 108.387615 
L 12.306886 108.294116 
L 13.055716 107.800065 
L 13.300589 107.638785 
L 13.804546 107.308389 
L 14.443029 106.889955 
L 14.553376 106.817972 
L 15.302206 106.330976 
L 15.594535 106.141125 
L 16.051036 105.846035 
L 16.753207 105.392295 
L 16.799866 105.362285 
L 17.548696 104.882455 
L 17.921946 104.643465 
L 18.297527 104.40412 
L 19.046357 103.927284 
L 19.097823 103.894635 
L 19.795187 103.454348 
L 20.284022 103.145805 
L 20.544017 102.982489 
L 21.292847 102.51302 
L 21.478434 102.396975 
L 22.041677 102.046493 
L 22.682003 101.648144 
L 22.790507 101.580973 
L 23.539337 101.11897 
L 23.895793 100.899314 
L 24.288167 100.658714 
L 25.036997 100.199966 
L 25.11807 100.150484 
L 25.785827 99.74495 
L 26.351212 99.401654 
L 26.534657 99.290824 
L 27.283487 98.839724 
L 27.594303 98.652824 
L 28.032318 98.390764 
L 28.781148 97.943076 
L 28.846783 97.903994 
L 29.529978 97.499256 
L 30.110888 97.155164 
L 30.278808 97.056207 
L 31.027638 96.616336 
L 31.385714 96.406334 
L 31.776468 96.178348 
L 32.525298 95.742041 
L 32.670897 95.657504 
L 33.274128 95.309082 
L 33.967439 94.908674 
L 34.022958 94.876777 
L 34.771788 94.448441 
L 35.27661 94.159844 
L 35.520618 94.021083 
L 36.269448 93.596455 
L 36.59718 93.411014 
L 37.018278 93.174009 
L 37.767108 92.753151 
L 37.929555 92.662184 
L 38.515939 92.33558 
L 39.264769 91.918555 
L 39.274155 91.913353 
L 40.013599 91.505821 
L 40.632894 91.164523 
L 40.762429 91.093523 
L 41.511259 90.684754 
L 42.004707 90.415693 
L 42.260089 90.277204 
L 43.008919 89.872398 
L 43.389944 89.666863 
L 43.757749 89.469554 
L 44.506579 89.068771 
L 44.789078 88.918033 
L 45.255409 88.67059 
L 46.004239 88.273887 
L 46.2026 88.169203 
L 46.753069 87.880325 
L 47.501899 87.487759 
L 47.631016 87.420373 
L 48.25073 87.098771 
L 48.99956 86.710398 
L 49.07485 86.671543 
L 49.74839 86.325936 
L 50.49722 85.94181 
L 50.534649 85.922713 
L 51.24605 85.561827 
L 51.99488 85.182002 
L 52.010977 85.173883 
L 52.74371 84.806448 
L 53.49254 84.430976 
L 53.504421 84.425053 
L 54.24137 84.059801 
L 54.9902 83.688733 
L 55.015592 83.676223 
L 55.73903 83.321885 
L 56.48786 82.955272 
L 56.545124 82.927393 
L 57.23669 82.592698 
L 57.98552 82.230587 
L 58.093677 82.178563 
L 58.734351 81.872233 
L 59.483181 81.514673 
L 59.661939 81.429732 
L 60.232011 81.160484 
L 60.980841 80.80752 
L 61.250628 80.680902 
L 61.729671 80.457439 
L 62.478501 80.109117 
L 62.860492 79.932072 
L 63.227331 79.763088 
L 63.976161 79.41945 
L 64.492312 79.183242 
L 64.724991 79.077415 
L 65.473821 78.738504 
L 66.146905 78.434412 
L 66.222651 78.400402 
L 66.971481 78.066259 
L 67.720311 77.732576 
L 67.826415 77.685582 
L 68.469142 77.402696 
L 69.217972 77.073869 
L 69.531703 76.936752 
L 69.966802 76.74779 
L 70.715632 76.423857 
L 71.262799 76.187922 
L 71.464462 76.101518 
L 72.213292 75.782515 
L 72.962122 75.464141 
L 73.021444 75.439092 
L 73.710952 75.149812 
L 74.459782 74.836451 
L 74.810873 74.690262 
L 75.208612 74.525719 
L 75.957442 74.217403 
L 76.629697 73.941432 
L 76.706272 73.910201 
L 77.455102 73.606961 
L 78.203932 73.304518 
L 78.482666 73.192602 
L 78.952763 73.00509 
L 79.701593 72.707799 
L 80.368947 72.443772 
L 80.450423 72.41175 
L 81.199253 72.11964 
L 81.948083 71.828443 
L 82.293416 71.694941 
L 82.696913 71.539996 
L 83.445743 71.254052 
L 84.194573 70.969091 
L 84.255445 70.946111 
L 84.943403 70.688157 
L 85.692233 70.408517 
L 86.26069 70.197281 
L 86.441063 70.13071 
L 87.189893 69.856414 
L 87.938723 69.583216 
L 88.310526 69.448451 
L 88.687554 69.312728 
L 89.436384 69.044938 
L 90.185214 68.778316 
L 90.40796 68.699621 
L 90.934044 68.515044 
L 91.682874 68.253891 
L 92.431704 67.993975 
L 92.557205 67.950791 
L 93.180534 67.737808 
L 93.929364 67.483419 
L 94.678194 67.230335 
L 94.762933 67.201961 
L 95.427024 66.98116 
L 96.175854 66.733659 
L 96.924684 66.487531 
L 97.030348 66.453131 
L 97.673514 66.245228 
L 98.422344 66.004735 
L 99.171175 65.765682 
L 99.365269 65.704301 
L 99.920005 65.530126 
L 100.668835 65.296758 
L 101.417665 65.064896 
L 101.774228 64.955471 
L 102.166495 64.835959 
L 102.915325 64.609827 
L 103.664155 64.385268 
L 104.264594 64.206641 
L 104.412985 64.162817 
L 105.161815 63.94403 
L 105.910645 63.72688 
L 106.659475 63.511394 
L 106.847739 63.457811 
L 107.408305 63.29944 
L 108.157135 63.089803 
L 108.905966 62.881894 
L 109.534463 62.708981 
L 109.654796 62.676121 
L 110.403626 62.474094 
L 111.152456 62.273859 
L 111.901286 62.075441 
L 112.341198 61.960151 
L 112.650116 61.8798 
L 113.398946 61.687331 
L 114.147776 61.496742 
L 114.896606 61.308059 
L 115.285231 61.21132 
L 115.645436 61.122339 
L 116.394266 60.939665 
L 117.143096 60.758958 
L 117.891926 60.580243 
L 118.391591 60.46249 
L 118.640757 60.404223 
L 119.389587 60.231573 
L 120.138417 60.060974 
L 120.887247 59.892454 
L 121.636077 59.726039 
L 121.692694 59.71366 
L 122.384907 59.563491 
L 123.133737 59.40322 
L 123.882567 59.24511 
L 124.631397 59.08919 
L 125.237669 58.96483 
L 125.380227 58.935819 
L 126.129057 58.786083 
L 126.877887 58.63859 
L 127.626717 58.493368 
L 128.375547 58.350443 
L 129.091684 58.216 
L 129.124378 58.209911 
L 129.873208 58.073233 
L 130.622038 57.938904 
L 131.370868 57.806951 
L 132.119698 57.677401 
L 132.868528 57.550279 
L 133.368283 57.46717 
L 133.617358 57.426084 
L 134.366188 57.305286 
L 135.115018 57.186967 
L 135.863848 57.071153 
L 136.612678 56.95787 
L 137.361508 56.847144 
L 138.110338 56.739001 
L 138.257306 56.71834 
L 138.859169 56.634427 
L 139.607999 56.532692 
L 140.356829 56.433588 
L 141.105659 56.337138 
L 141.854489 56.24337 
L 142.603319 56.152309 
L 143.352149 56.063979 
L 144.100979 55.978406 
L 144.181651 55.96951 
L 144.849809 55.89645 
L 145.598639 55.81737 
L 146.347469 55.741091 
L 147.096299 55.667637 
L 147.845129 55.597034 
L 148.593959 55.529306 
L 149.34279 55.464478 
L 150.09162 55.402574 
L 150.84045 55.343619 
L 151.58928 55.287638 
L 152.33811 55.234655 
L 152.547969 55.22068 
L 153.08694 55.185098 
L 153.83577 55.138711 
L 154.5846 55.095359 
L 155.33343 55.055067 
L 156.08226 55.01786 
L 156.83109 54.983759 
L 157.57992 54.952789 
L 158.32875 54.924975 
L 159.077581 54.900338 
L 159.826411 54.878902 
L 160.575241 54.860691 
L 161.324071 54.845728 
L 162.072901 54.834036 
L 162.821731 54.825638 
L 163.570561 54.820556 
L 164.319391 54.818815 
L 165.068221 54.820435 
L 165.817051 54.82544 
L 166.565881 54.833853 
L 167.314711 54.845696 
L 168.063541 54.86099 
L 168.812371 54.879759 
L 169.561202 54.902024 
L 170.310032 54.927807 
L 171.058862 54.95713 
L 171.807692 54.990015 
L 172.556522 55.026484 
L 173.305352 55.066558 
L 174.054182 55.110258 
L 174.803012 55.157606 
L 175.551842 55.208623 
L 175.71712 55.22068 
L 176.300672 55.263807 
L 177.049502 55.322879 
L 177.798332 55.385724 
L 178.547162 55.452362 
L 179.295993 55.522815 
L 180.044823 55.597104 
L 180.793653 55.675248 
L 181.542483 55.757269 
L 182.291313 55.843186 
L 183.040143 55.933021 
L 183.331814 55.96951 
L 183.788973 56.027433 
L 184.537803 56.126251 
L 185.286633 56.22909 
L 186.035463 56.335969 
L 186.784293 56.446908 
L 187.533123 56.561928 
L 188.281953 56.681047 
L 188.508783 56.71834 
L 189.030783 56.805242 
L 189.779614 56.934034 
L 190.528444 57.06703 
L 191.277274 57.204247 
L 192.026104 57.345706 
L 192.650422 57.46717 
L 192.774934 57.491696 
L 193.523764 57.64336 
L 194.272594 57.79937 
L 195.021424 57.959743 
L 195.770254 58.124499 
L 196.175533 58.216 
L 196.519084 58.294518 
L 197.267914 58.47002 
L 198.016744 58.650009 
L 198.765574 58.834503 
L 199.282063 58.96483 
L 199.514405 59.024172 
L 200.263235 59.219876 
L 201.012065 59.42019 
L 201.760895 59.625132 
L 202.077371 59.71366 
L 202.509725 59.836063 
L 203.258555 60.052688 
L 204.007385 60.274046 
L 204.631563 60.46249 
L 204.756215 60.500575 
L 205.505045 60.734011 
L 206.253875 60.972287 
L 206.990083 61.21132 
L 207.002705 61.215468 
L 207.751535 61.466222 
L 208.500365 61.721925 
L 209.184767 61.960151 
L 209.249195 61.982843 
L 209.998026 62.251434 
L 210.746856 62.525082 
L 211.241043 62.708981 
L 211.495686 62.804855 
L 212.244516 63.091811 
L 212.993346 63.383936 
L 213.179503 63.457811 
L 213.742176 63.683718 
L 214.491006 63.989579 
L 215.013507 64.206641 
L 215.239836 64.301762 
L 215.988666 64.621703 
L 216.737496 64.947022 
L 216.756638 64.955471 
L 217.486326 65.281302 
L 218.235156 65.62115 
L 218.415527 65.704301 
L 218.983986 65.969395 
L 219.732817 66.324134 
L 220.00097 66.453131 
L 220.481647 66.687032 
L 221.230477 67.057033 
L 221.519416 67.201961 
L 221.979307 67.435291 
L 222.728137 67.820934 
L 222.976615 67.950791 
L 223.476967 68.215283 
L 224.225797 68.616958 
L 224.377709 68.699621 
L 224.974627 69.028154 
L 225.723457 69.446262 
L 225.727323 69.448451 
L 226.472287 69.875084 
L 227.027032 70.197281 
L 227.221117 70.311295 
L 227.969947 70.757295 
L 228.28265 70.946111 
L 228.718777 71.212459 
L 229.467608 71.676047 
L 229.497722 71.694941 
L 230.216438 72.15102 
L 230.671642 72.443772 
L 230.965268 72.63476 
L 231.714098 73.128317 
L 231.810364 73.192602 
L 232.462928 73.633331 
L 232.913214 73.941432 
L 233.211758 74.148033 
L 233.960588 74.672972 
L 233.98494 74.690262 
L 234.709418 75.210511 
L 235.023711 75.439092 
L 235.458248 75.758728 
L 236.034418 76.187922 
L 236.207078 76.318006 
L 236.955908 76.889281 
L 237.017366 76.936752 
L 237.704738 77.473755 
L 237.972553 77.685582 
L 238.453568 78.070391 
L 238.903053 78.434412 
L 239.202398 78.679619 
L 239.809771 79.183242 
L 239.951229 79.301884 
L 240.693568 79.932072 
L 240.700059 79.937646 
L 241.448889 80.588445 
L 241.554006 80.680902 
L 242.197719 81.253616 
L 242.393323 81.429732 
L 242.946549 81.933599 
L 243.212339 82.178563 
L 243.695379 82.628915 
L 244.011765 82.927393 
L 244.444209 83.340105 
L 244.792284 83.676223 
L 245.193039 84.06773 
L 245.554549 84.425053 
L 245.941869 84.812373 
L 246.299192 85.173883 
L 246.690699 85.574638 
L 247.026817 85.922713 
L 247.439529 86.355157 
L 247.738007 86.671543 
L 248.188359 87.154583 
L 248.433323 87.420373 
L 248.937189 87.973599 
L 249.113306 88.169203 
L 249.68602 88.812916 
L 249.778477 88.918033 
L 250.429276 89.666863 
L 250.43485 89.673354 
L 251.065038 90.415693 
L 251.18368 90.557151 
L 251.687303 91.164523 
L 251.93251 91.463869 
L 252.296531 91.913353 
L 252.68134 92.394369 
L 252.893167 92.662184 
L 253.43017 93.349556 
L 253.477641 93.411014 
L 254.048916 94.159844 
L 254.179 94.332504 
L 254.608194 94.908674 
L 254.92783 95.343211 
L 255.156411 95.657504 
L 255.67666 96.381982 
L 255.69395 96.406334 
L 256.218889 97.155164 
L 256.42549 97.453708 
L 256.73359 97.903994 
L 257.17432 98.556558 
L 257.238605 98.652824 
L 257.732161 99.401654 
L 257.92315 99.69528 
L 258.215901 100.150484 
L 258.67198 100.8692 
L 258.690875 100.899314 
L 259.154463 101.648144 
L 259.42081 102.084272 
L 259.609627 102.396975 
L 260.055627 103.145805 
L 260.169641 103.33989 
L 260.491838 103.894635 
L 260.918471 104.639599 
L 260.92066 104.643465 
L 261.338768 105.392295 
L 261.667301 105.989213 
L 261.749963 106.141125 
L 262.151639 106.889955 
L 262.416131 107.390307 
L 262.545988 107.638785 
L 262.931631 108.387615 
L 263.164961 108.847506 
L 263.309889 109.136445 
L 263.67989 109.885275 
L 263.913791 110.365952 
L 264.042787 110.634105 
L 264.397527 111.382935 
L 264.662621 111.951395 
L 264.745772 112.131765 
L 265.08562 112.880596 
L 265.411451 113.610284 
L 265.4199 113.629426 
L 265.745219 114.378256 
L 266.06516 115.127086 
L 266.160281 115.353415 
L 266.377343 115.875916 
L 266.683204 116.624746 
L 266.909111 117.187419 
L 266.982986 117.373576 
L 267.275111 118.122406 
L 267.562066 118.871236 
L 267.657941 119.125879 
L 267.84184 119.620066 
L 268.115488 120.368896 
L 268.384079 121.117726 
L 268.406771 121.182155 
L 268.644997 121.866556 
L 268.9007 122.615387 
L 269.151454 123.364217 
L 269.155601 123.376839 
L 269.394635 124.113047 
L 269.632911 124.861877 
L 269.866347 125.610707 
L 269.904432 125.735359 
L 270.092875 126.359537 
L 270.314234 127.108367 
L 270.530859 127.857197 
L 270.653262 128.289551 
L 270.741789 128.606027 
L 270.946732 129.354857 
L 271.147046 130.103687 
L 271.34275 130.852517 
L 271.402092 131.084859 
L 271.532419 131.601347 
L 271.716913 132.350177 
L 271.896901 133.099008 
L 272.072403 133.847838 
L 272.150922 134.191389 
L 272.242423 134.596668 
L 272.407179 135.345498 
L 272.567552 136.094328 
L 272.723561 136.843158 
L 272.875226 137.591988 
L 272.899752 137.7165 
L 273.021216 138.340818 
L 273.162675 139.089648 
L 273.299892 139.838478 
L 273.432887 140.587308 
L 273.56168 141.336138 
L 273.648582 141.858139 
L 273.685875 142.084968 
L 273.804994 142.833799 
L 273.920013 143.582629 
L 274.030953 144.331459 
L 274.137832 145.080289 
L 274.240671 145.829119 
L 274.339489 146.577949 
L 274.397412 147.035108 
L 274.433901 147.326779 
L 274.523735 148.075609 
L 274.609653 148.824439 
L 274.691674 149.573269 
L 274.769818 150.322099 
L 274.844107 151.070929 
L 274.91456 151.819759 
L 274.981198 152.568589 
L 275.044043 153.31742 
L 275.103114 154.06625 
L 275.146242 154.649802 
L 275.158299 154.81508 
L 275.209316 155.56391 
L 275.256664 156.31274 
L 275.300364 157.06157 
L 275.340438 157.8104 
L 275.376906 158.55923 
L 275.409792 159.30806 
L 275.439115 160.05689 
L 275.464898 160.80572 
L 275.487163 161.55455 
L 275.505932 162.30338 
L 275.521226 163.052211 
L 275.533069 163.801041 
L 275.541481 164.549871 
L 275.546487 165.298701 
L 275.548107 166.047531 
L 275.546366 166.796361 
L 275.541284 167.545191 
L 275.532886 168.294021 
L 275.521194 169.042851 
L 275.506231 169.791681 
L 275.48802 170.540511 
L 275.466584 171.289341 
L 275.441947 172.038171 
L 275.414132 172.787002 
L 275.383163 173.535832 
L 275.349062 174.284662 
L 275.311854 175.033492 
L 275.271563 175.782322 
L 275.228211 176.531152 
L 275.181824 177.279982 
L 275.146242 177.818953 
L 275.132267 178.028812 
L 275.079284 178.777642 
L 275.023302 179.526472 
L 274.964348 180.275302 
L 274.902444 181.024132 
L 274.837616 181.772962 
L 274.769888 182.521792 
L 274.699285 183.270623 
L 274.625831 184.019453 
L 274.549552 184.768283 
L 274.470472 185.517113 
L 274.397412 186.185271 
L 274.388516 186.265943 
L 274.302943 187.014773 
L 274.214613 187.763603 
L 274.123552 188.512433 
L 274.029784 189.261263 
L 273.933334 190.010093 
L 273.83423 190.758923 
L 273.732495 191.507753 
L 273.648582 192.109616 
L 273.627921 192.256583 
L 273.519778 193.005414 
L 273.409051 193.754244 
L 273.295769 194.503074 
L 273.179955 195.251904 
L 273.061636 196.000734 
L 272.940837 196.749564 
L 272.899752 196.998639 
L 272.816642 197.498394 
L 272.689521 198.247224 
L 272.559971 198.996054 
L 272.428018 199.744884 
L 272.293689 200.493714 
L 272.157011 201.242544 
L 272.150922 201.275238 
L 272.016479 201.991374 
L 271.873554 202.740204 
L 271.728332 203.489035 
L 271.580839 204.237865 
L 271.431103 204.986695 
L 271.402092 205.129253 
L 271.277732 205.735525 
L 271.121811 206.484355 
L 270.963702 207.233185 
L 270.803431 207.982015 
L 270.653262 208.674228 
L 270.640883 208.730845 
L 270.474468 209.479675 
L 270.305948 210.228505 
L 270.135349 210.977335 
L 269.962699 211.726165 
L 269.904432 211.975331 
L 269.786678 212.474995 
L 269.607964 213.223826 
L 269.427257 213.972656 
L 269.244583 214.721486 
L 269.155601 215.081691 
L 269.058863 215.470316 
L 268.87018 216.219146 
L 268.679591 216.967976 
L 268.487122 217.716806 
L 268.406771 218.025724 
L 268.291481 218.465636 
L 268.093063 219.214466 
L 267.892827 219.963296 
L 267.690801 220.712126 
L 267.657941 220.832459 
L 267.485028 221.460956 
L 267.277119 222.209786 
L 267.067482 222.958616 
L 266.909111 223.519182 
L 266.855528 223.707447 
L 266.640042 224.456277 
L 266.422892 225.205107 
L 266.204105 225.953937 
L 266.160281 226.102328 
L 265.981654 226.702767 
L 265.757095 227.451597 
L 265.530963 228.200427 
L 265.411451 228.592694 
L 265.302026 228.949257 
L 265.070164 229.698087 
L 264.836796 230.446917 
L 264.662621 231.001653 
L 264.60124 231.195747 
L 264.362187 231.944577 
L 264.121694 232.693407 
L 263.913791 233.336574 
L 263.879391 233.442238 
L 263.633263 234.191068 
L 263.385762 234.939898 
L 263.164961 235.603989 
L 263.136586 235.688728 
L 262.883503 236.437558 
L 262.629114 237.186388 
L 262.416131 237.809717 
L 262.372947 237.935218 
L 262.113031 238.684048 
L 261.851878 239.432878 
L 261.667301 239.958962 
L 261.588606 240.181708 
L 261.321983 240.930538 
L 261.054194 241.679368 
L 260.918471 242.056396 
L 260.783706 242.428198 
L 260.510508 243.177028 
L 260.236212 243.925859 
L 260.169641 244.106232 
L 259.958404 244.674689 
L 259.678765 245.423519 
L 259.42081 246.111477 
L 259.397831 246.172349 
L 259.11287 246.921179 
L 258.826925 247.670009 
L 258.67198 248.073506 
L 258.538479 248.418839 
L 258.247282 249.167669 
L 257.955172 249.916499 
L 257.92315 249.997975 
L 257.659123 250.665329 
L 257.361832 251.414159 
L 257.17432 251.884256 
L 257.062404 252.162989 
L 256.759961 252.911819 
L 256.456721 253.66065 
L 256.42549 253.737225 
L 256.149519 254.40948 
L 255.841203 255.15831 
L 255.67666 255.556049 
L 255.530471 255.90714 
L 255.21711 256.65597 
L 254.92783 257.345478 
L 254.902781 257.4048 
L 254.584407 258.15363 
L 254.265404 258.90246 
L 254.179 259.104123 
L 253.943064 259.65129 
L 253.619132 260.40012 
L 253.43017 260.835219 
L 253.293053 261.14895 
L 252.964226 261.89778 
L 252.68134 262.540507 
L 252.634346 262.64661 
L 252.300663 263.39544 
L 251.966519 264.144271 
L 251.93251 264.220017 
L 251.628418 264.893101 
L 251.289507 265.641931 
L 251.18368 265.87461 
L 250.947472 266.390761 
L 250.603834 267.139591 
L 250.43485 267.50643 
L 250.257805 267.888421 
L 249.909482 268.637251 
L 249.68602 269.116294 
L 249.559402 269.386081 
L 249.206438 270.134911 
L 248.937189 270.704983 
L 248.852249 270.883741 
L 248.494689 271.632571 
L 248.188359 272.273245 
L 248.136335 272.381401 
L 247.774224 273.130231 
L 247.439529 273.821798 
L 247.41165 273.879062 
L 247.045037 274.627892 
L 246.690699 275.35133 
L 246.678189 275.376722 
L 246.307121 276.125552 
L 245.941869 276.862501 
L 245.935946 276.874382 
L 245.560474 277.623212 
L 245.193039 278.355945 
L 245.18492 278.372042 
L 244.805095 279.120872 
L 244.444209 279.832273 
L 244.425112 279.869702 
L 244.040986 280.618532 
L 243.695379 281.292072 
L 243.656524 281.367362 
L 243.268151 282.116192 
L 242.946549 282.735906 
L 242.879162 282.865022 
L 242.486597 283.613853 
L 242.197719 284.164322 
L 242.093035 284.362683 
L 241.696332 285.111513 
L 241.448889 285.577844 
L 241.298151 285.860343 
L 240.897368 286.609173 
L 240.700059 286.976978 
L 240.494523 287.358003 
L 240.089718 288.106833 
L 239.951229 288.362215 
L 239.682168 288.855663 
L 239.273399 289.604493 
L 239.202398 289.734028 
L 238.861101 290.353323 
L 238.453568 291.092767 
L 238.448367 291.102153 
L 238.031342 291.850983 
L 237.704738 292.437367 
L 237.613771 292.599813 
L 237.192913 293.348643 
L 236.955908 293.769742 
L 236.770467 294.097474 
L 236.345839 294.846304 
L 236.207078 295.090312 
L 235.918481 295.595134 
L 235.490145 296.343964 
L 235.458248 296.399482 
L 235.05784 297.092794 
L 234.709418 297.696024 
L 234.624881 297.841624 
L 234.188574 298.590454 
L 233.960588 298.981207 
L 233.750586 299.339284 
L 233.310715 300.088114 
L 233.211758 300.256034 
L 232.867666 300.836944 
L 232.462928 301.520139 
L 232.423845 301.585774 
L 231.976158 302.334604 
L 231.714098 302.772619 
L 231.527198 303.083434 
L 231.076098 303.832265 
L 230.965268 304.01571 
L 230.621972 304.581095 
L 230.216438 305.248852 
L 230.166956 305.329925 
L 229.708208 306.078755 
L 229.467608 306.471129 
L 229.247952 306.827585 
L 228.785949 307.576415 
L 228.718777 307.684918 
L 228.320428 308.325245 
L 227.969947 308.888487 
L 227.853901 309.074075 
L 227.384433 309.822905 
L 227.221117 310.0829 
L 226.912574 310.571735 
L 226.472287 311.269099 
L 226.439638 311.320565 
L 225.962801 312.069395 
L 225.723457 312.444975 
L 225.484467 312.818225 
L 225.004637 313.567055 
L 224.974627 313.613715 
L 224.520886 314.315886 
L 224.225797 314.772386 
L 224.035946 315.064716 
L 223.54895 315.813546 
L 223.476967 315.923892 
L 223.058533 316.562376 
L 222.79874 316.958641 
" clip-path="url(#p50a61f3766)" style="fill: none; stroke: #0000ff; stroke-width: 1.5"/>
   </g>
   <g id="PathCollection_9">
    <path d="M -1 103.007167 
L -0.312358 102.524842 
L -0.269616 102.49496 
L 0.491108 101.965415 
L 0.88483 101.691494 
L 1.294573 101.407654 
L 2.045097 100.888028 
L 2.098039 100.851532 
L 2.901505 100.299492 
L 3.214634 100.084563 
L 3.704971 99.749472 
L 4.390684 99.281097 
L 4.508437 99.201019 
L 5.311903 98.65616 
L 5.57557 98.477631 
L 6.115369 98.113758 
L 6.767795 97.674165 
L 6.918835 97.572852 
L 7.722301 97.035309 
L 7.96878 96.870699 
L 8.525767 96.500399 
L 9.177583 96.067233 
L 9.329233 95.966912 
L 10.132699 95.436814 
L 10.395438 95.263767 
L 10.936164 94.909265 
L 11.621232 94.460301 
L 11.73963 94.383066 
L 12.543096 93.860538 
L 12.856754 93.656835 
L 13.346562 93.340216 
L 14.099964 92.853369 
L 14.150028 92.82117 
L 14.953494 92.30633 
L 15.353977 92.049903 
L 15.75696 91.793096 
L 16.560426 91.281469 
L 16.615647 91.246437 
L 17.363892 90.774027 
L 17.888394 90.442972 
L 18.167358 90.26774 
L 18.970824 89.764018 
L 19.169952 89.639506 
L 19.77429 89.263453 
L 20.461335 88.83604 
L 20.577755 88.763967 
L 21.381221 88.268256 
L 21.763685 88.032574 
L 22.184687 87.774419 
L 22.988153 87.2822 
L 23.075141 87.229108 
L 23.791619 86.793985 
L 24.398256 86.425642 
L 24.595085 86.306725 
L 25.398551 85.822712 
L 25.732044 85.622176 
L 26.202017 85.340996 
L 27.005483 84.860644 
L 27.075907 84.81871 
L 27.808949 84.384441 
L 28.432243 84.015244 
L 28.612415 83.909067 
L 29.41588 83.437102 
L 29.800083 83.211778 
L 30.219346 82.967159 
L 31.022812 82.499017 
L 31.179035 82.408312 
L 31.826278 82.034469 
L 32.570175 81.604847 
L 32.629744 81.570623 
L 33.43321 81.111034 
L 33.974865 80.801381 
L 34.236676 80.652496 
L 35.040142 80.196886 
L 35.391785 79.997915 
L 35.843608 79.743618 
L 36.647074 79.292053 
L 36.821373 79.194449 
L 37.45054 78.844016 
L 38.254006 78.396564 
L 38.264077 78.390983 
L 39.057471 77.953716 
L 39.721952 77.587517 
L 39.860937 77.511337 
L 40.664403 77.072743 
L 41.193854 76.784051 
L 41.467869 76.635457 
L 42.271335 76.201116 
L 42.68016 75.980585 
L 43.074801 75.76888 
L 43.878267 75.338855 
L 44.181378 75.177119 
L 44.681733 74.911622 
L 45.485199 74.485975 
L 45.698032 74.373653 
L 46.288665 74.063698 
L 47.092131 73.64249 
L 47.230667 73.570187 
L 47.895597 73.225121 
L 48.699062 72.808411 
L 48.779846 72.766721 
L 49.502528 72.395899 
L 50.305994 71.983746 
L 50.346154 71.963256 
L 51.10946 71.576039 
L 51.912926 71.168501 
L 51.930198 71.15979 
L 52.716392 70.765546 
L 53.519858 70.362679 
L 53.532606 70.356324 
L 54.323324 69.964423 
L 55.12679 69.566281 
L 55.154034 69.552858 
L 55.930256 69.172667 
L 56.733722 68.779305 
L 56.795163 68.749392 
L 57.537188 68.390277 
L 58.340653 68.001746 
L 58.456701 67.945926 
L 59.144119 67.617246 
L 59.947585 67.233598 
L 60.139386 67.14246 
L 60.751051 66.853566 
L 61.554517 66.47485 
L 61.843988 66.338994 
L 62.357983 66.099227 
L 63.161449 65.72549 
L 63.57131 65.535528 
L 63.964915 65.354215 
L 64.768381 64.985504 
L 65.32219 64.732062 
L 65.571847 64.618513 
L 66.375313 64.254875 
L 67.097505 63.928596 
L 67.178779 63.892105 
L 67.982244 63.533582 
L 68.78571 63.175554 
L 68.899555 63.12513 
L 69.589176 62.821604 
L 70.392642 62.468786 
L 70.729264 62.321665 
L 71.196108 62.118916 
L 71.999574 61.771348 
L 72.586663 61.518199 
L 72.80304 61.42549 
L 73.606506 61.083212 
L 74.409972 60.741609 
L 74.473622 60.714733 
L 75.213438 60.404347 
L 76.016904 60.068122 
L 76.393611 59.911267 
L 76.82037 59.734718 
L 77.623835 59.403907 
L 78.345139 59.107801 
L 78.427301 59.074291 
L 79.230767 58.748927 
L 80.034233 58.424417 
L 80.333303 58.304335 
L 80.837699 58.103142 
L 81.641165 57.784161 
L 82.35721 57.500869 
L 82.444631 57.466511 
L 83.248097 57.153088 
L 84.051563 56.840645 
L 84.422092 56.697403 
L 84.855029 56.531153 
L 85.658495 56.224346 
L 86.46196 55.918593 
L 86.527274 55.893937 
L 87.265426 55.617162 
L 88.068892 55.31712 
L 88.678824 55.090471 
L 88.872358 55.019043 
L 89.675824 54.724733 
L 90.47929 54.431603 
L 90.87822 54.287005 
L 91.282756 54.14138 
L 92.086222 53.854052 
L 92.889688 53.567976 
L 93.128686 53.483539 
L 93.693154 53.285495 
L 94.49662 53.005288 
L 95.300086 52.726408 
L 95.434743 52.680074 
L 96.103551 52.451551 
L 96.907017 52.178601 
L 97.710483 51.907052 
L 97.801405 51.876608 
L 98.513949 51.639697 
L 99.317415 51.374138 
L 100.120881 51.110052 
L 100.234254 51.073142 
L 100.924347 50.850069 
L 101.727813 50.59203 
L 102.531279 50.335536 
L 102.739534 50.269676 
L 103.334745 50.082793 
L 104.138211 49.832398 
L 104.941677 49.583619 
L 105.324255 49.46621 
L 105.745142 49.337978 
L 106.548608 49.095347 
L 107.352074 48.854404 
L 107.996322 48.662744 
L 108.15554 48.615723 
L 108.959006 48.380973 
L 109.762472 48.147979 
L 110.565938 47.916771 
L 110.767938 47.859278 
L 111.369404 47.689353 
L 112.17287 47.46442 
L 112.976336 47.241341 
L 113.650689 47.055812 
L 113.779802 47.020555 
L 114.583268 46.803788 
L 115.386733 46.588944 
L 116.190199 46.376049 
L 116.662209 46.252346 
L 116.993665 46.166133 
L 117.797131 45.959622 
L 118.600597 45.755127 
L 119.404063 45.552677 
L 119.821042 45.44888 
L 120.207529 45.353406 
L 121.010995 45.157405 
L 121.814461 44.963513 
L 122.617927 44.771759 
L 123.154048 44.645414 
L 123.421393 44.582895 
L 124.224859 44.397649 
L 125.028324 44.214603 
L 125.83179 44.033788 
L 126.635256 43.855231 
L 126.696004 43.841948 
L 127.438722 43.680823 
L 128.242188 43.508858 
L 129.045654 43.339212 
L 129.84912 43.171915 
L 130.499626 43.038483 
L 130.652586 43.007354 
L 131.456052 42.846693 
L 132.259518 42.68844 
L 133.062984 42.532622 
L 133.866449 42.379269 
L 134.634836 42.235017 
L 134.669915 42.228484 
L 135.473381 42.081833 
L 136.276847 41.937703 
L 137.080313 41.796123 
L 137.883779 41.657121 
L 138.687245 41.520724 
L 139.223463 41.431551 
L 139.490711 41.387467 
L 140.294177 41.257856 
L 141.097643 41.130904 
L 141.901109 41.00664 
L 142.704575 40.885092 
L 143.50804 40.766287 
L 144.311506 40.650253 
L 144.469197 40.628085 
L 145.114972 40.53805 
L 145.918438 40.428892 
L 146.721904 40.322556 
L 147.52537 40.21907 
L 148.328836 40.118461 
L 149.132302 40.020755 
L 149.935768 39.92598 
L 150.739234 39.834164 
L 150.825791 39.824619 
L 151.5427 39.746228 
L 152.346166 39.661378 
L 153.149631 39.579534 
L 153.953097 39.500721 
L 154.756563 39.424967 
L 155.560029 39.352297 
L 156.363495 39.282739 
L 157.166961 39.216319 
L 157.970427 39.153062 
L 158.773893 39.092997 
L 159.577359 39.036148 
L 159.80253 39.021153 
L 160.380825 38.982975 
L 161.184291 38.933203 
L 161.987757 38.886689 
L 162.791222 38.843457 
L 163.594688 38.803535 
L 164.398154 38.766946 
L 165.20162 38.733717 
L 166.005086 38.703873 
L 166.808552 38.677438 
L 167.612018 38.654439 
L 168.415484 38.634899 
L 169.21895 38.618844 
L 170.022416 38.606299 
L 170.825882 38.597288 
L 171.629348 38.591836 
L 172.432813 38.589967 
L 173.236279 38.591706 
L 174.039745 38.597076 
L 174.843211 38.606103 
L 175.646677 38.618809 
L 176.450143 38.63522 
L 177.253609 38.655358 
L 178.057075 38.679247 
L 178.860541 38.706912 
L 179.664007 38.738375 
L 180.467473 38.773659 
L 181.270938 38.812788 
L 182.074404 38.855786 
L 182.87787 38.902675 
L 183.681336 38.953477 
L 184.484802 39.008216 
L 184.662139 39.021153 
L 185.288268 39.067427 
L 186.091734 39.130809 
L 186.8952 39.198239 
L 187.698666 39.269739 
L 188.502132 39.345333 
L 189.305598 39.425041 
L 190.109064 39.508887 
L 190.912529 39.596892 
L 191.715995 39.689079 
L 192.519461 39.785468 
L 192.832413 39.824619 
L 193.322927 39.886768 
L 194.126393 39.992796 
L 194.929859 40.103138 
L 195.733325 40.217816 
L 196.536791 40.336849 
L 197.340257 40.46026 
L 198.143723 40.588071 
L 198.387102 40.628085 
L 198.947189 40.721327 
L 199.750655 40.859517 
L 200.55412 41.002216 
L 201.357586 41.149445 
L 202.161052 41.301225 
L 202.830921 41.431551 
L 202.964518 41.457866 
L 203.767984 41.620596 
L 204.57145 41.787988 
L 205.374916 41.960062 
L 206.178382 42.136839 
L 206.61323 42.235017 
L 206.981848 42.319264 
L 207.785314 42.507571 
L 208.58878 42.700691 
L 209.392246 42.898646 
L 209.946418 43.038483 
L 210.195711 43.102154 
L 210.999177 43.312137 
L 211.802643 43.527066 
L 212.606109 43.746962 
L 212.945676 43.841948 
L 213.409575 43.973281 
L 214.213041 44.205712 
L 215.016507 44.443221 
L 215.686226 44.645414 
L 215.819973 44.686278 
L 216.623439 44.936746 
L 217.426905 45.192406 
L 218.216827 45.44888 
L 218.230371 45.45333 
L 219.033837 45.72238 
L 219.837302 45.996739 
L 220.571639 46.252346 
L 220.640768 46.276694 
L 221.444234 46.564882 
L 222.2477 46.858496 
L 222.777944 47.055812 
L 223.051166 47.158682 
L 223.854632 47.466575 
L 224.658098 47.780013 
L 224.857838 47.859278 
L 225.461564 48.101668 
L 226.26503 48.429845 
L 226.825654 48.662744 
L 227.068496 48.764805 
L 227.871962 49.10809 
L 228.675427 49.457144 
L 228.695966 49.46621 
L 229.478893 49.815814 
L 230.282359 50.180458 
L 230.47589 50.269676 
L 231.085825 50.554112 
L 231.889291 50.934733 
L 232.177009 51.073142 
L 232.692757 51.324108 
L 233.496223 51.721106 
L 233.806244 51.876608 
L 234.299689 52.126961 
L 235.103155 52.540742 
L 235.369762 52.680074 
L 235.906621 52.963863 
L 236.710087 53.394846 
L 236.873083 53.483539 
L 237.513553 53.836042 
L 238.317018 54.284657 
L 238.321166 54.287005 
L 239.120484 54.744766 
L 239.715704 55.090471 
L 239.92395 55.212804 
L 240.727416 55.691345 
L 241.062934 55.893937 
L 241.530882 56.179718 
L 242.334348 56.67713 
L 242.366659 56.697403 
L 243.137814 57.186758 
L 243.626231 57.500869 
L 243.94128 57.705793 
L 244.744746 58.23536 
L 244.848035 58.304335 
L 245.548212 58.777221 
L 246.031351 59.107801 
L 246.351678 59.329476 
L 247.155144 59.892715 
L 247.181272 59.911267 
L 247.958609 60.469474 
L 248.295833 60.714733 
L 248.762075 61.05769 
L 249.380284 61.518199 
L 249.565541 61.657774 
L 250.369007 62.27073 
L 250.434949 62.321665 
L 251.172473 62.897848 
L 251.459828 63.12513 
L 251.975939 63.538016 
L 252.458219 63.928596 
L 252.779405 64.191694 
L 253.431092 64.732062 
L 253.582871 64.85936 
L 254.379373 65.535528 
L 254.386337 65.541508 
L 255.189803 66.239791 
L 255.302589 66.338994 
L 255.993269 66.953494 
L 256.203145 67.14246 
L 256.796735 67.68309 
L 257.081917 67.945926 
L 257.6002 68.429137 
L 257.939671 68.749392 
L 258.403666 69.192216 
L 258.777137 69.552858 
L 259.207132 69.97293 
L 259.595019 70.356324 
L 260.010598 70.771903 
L 260.393992 71.15979 
L 260.814064 71.589785 
L 261.174706 71.963256 
L 261.61753 72.427251 
L 261.937785 72.766721 
L 262.420996 73.285005 
L 262.683832 73.570187 
L 263.224462 74.163777 
L 263.413428 74.373653 
L 264.027928 75.064332 
L 264.127131 75.177119 
L 264.825414 75.980585 
L 264.831394 75.987549 
L 265.507562 76.784051 
L 265.63486 76.93583 
L 266.175228 77.587517 
L 266.438326 77.908703 
L 266.828906 78.390983 
L 267.241791 78.907094 
L 267.469073 79.194449 
L 268.045257 79.931973 
L 268.096192 79.997915 
L 268.709148 80.801381 
L 268.848723 80.986638 
L 269.309232 81.604847 
L 269.652189 82.071089 
L 269.897447 82.408312 
L 270.455655 83.18565 
L 270.474207 83.211778 
L 271.037446 84.015244 
L 271.259121 84.335571 
L 271.589701 84.81871 
L 272.062587 85.518886 
L 272.131561 85.622176 
L 272.661129 86.425642 
L 272.866053 86.740691 
L 273.180163 87.229108 
L 273.669519 88.000263 
L 273.689792 88.032574 
L 274.187204 88.83604 
L 274.472985 89.303988 
L 274.675577 89.639506 
L 275.154118 90.442972 
L 275.276451 90.651218 
L 275.622156 91.246437 
L 276.079916 92.045755 
L 276.082265 92.049903 
L 276.53088 92.853369 
L 276.883382 93.493839 
L 276.972076 93.656835 
L 277.403059 94.460301 
L 277.686848 94.99716 
L 277.82618 95.263767 
L 278.239961 96.067233 
L 278.490314 96.560678 
L 278.645816 96.870699 
L 279.042814 97.674165 
L 279.29378 98.189913 
L 279.432188 98.477631 
L 279.81281 99.281097 
L 280.097246 99.891032 
L 280.186464 100.084563 
L 280.551108 100.888028 
L 280.900712 101.670956 
L 280.909778 101.691494 
L 281.258832 102.49496 
L 281.602117 103.298426 
L 281.704178 103.541268 
L 281.937077 104.101892 
L 282.265254 104.905358 
L 282.507644 105.509084 
L 282.586909 105.708824 
L 282.900347 106.51229 
L 283.20824 107.315756 
L 283.31111 107.588978 
L 283.508426 108.119222 
L 283.80204 108.922688 
L 284.090228 109.726154 
L 284.114576 109.795283 
L 284.370183 110.529619 
L 284.644542 111.333085 
L 284.913592 112.136551 
L 284.918042 112.150095 
L 285.174515 112.940017 
L 285.430176 113.743483 
L 285.680644 114.546949 
L 285.721507 114.680696 
L 285.923701 115.350415 
L 286.16121 116.153881 
L 286.39364 116.957347 
L 286.524973 117.421246 
L 286.61996 117.760813 
L 286.839856 118.564279 
L 287.054785 119.367745 
L 287.264768 120.17121 
L 287.328439 120.420504 
L 287.468275 120.974676 
L 287.66623 121.778142 
L 287.859351 122.581608 
L 288.047658 123.385074 
L 288.131905 123.753692 
L 288.230083 124.18854 
L 288.40686 124.992006 
L 288.578934 125.795472 
L 288.746326 126.598938 
L 288.909056 127.402404 
L 288.935371 127.536001 
L 289.065697 128.20587 
L 289.217477 129.009336 
L 289.364706 129.812801 
L 289.507405 130.616267 
L 289.645595 131.419733 
L 289.738837 131.97982 
L 289.778851 132.223199 
L 289.906661 133.026665 
L 290.030073 133.830131 
L 290.149106 134.633597 
L 290.263783 135.437063 
L 290.374126 136.240529 
L 290.480154 137.043995 
L 290.542303 137.534509 
L 290.581454 137.847461 
L 290.677843 138.650926 
L 290.77003 139.454392 
L 290.858035 140.257858 
L 290.941881 141.061324 
L 291.021589 141.86479 
L 291.097183 142.668256 
L 291.168683 143.471722 
L 291.236113 144.275188 
L 291.299495 145.078654 
L 291.345769 145.704783 
L 291.358706 145.88212 
L 291.413445 146.685586 
L 291.464247 147.489052 
L 291.511136 148.292517 
L 291.554133 149.095983 
L 291.593263 149.899449 
L 291.628547 150.702915 
L 291.66001 151.506381 
L 291.687675 152.309847 
L 291.711564 153.113313 
L 291.731702 153.916779 
L 291.748113 154.720245 
L 291.760819 155.523711 
L 291.769846 156.327177 
L 291.775216 157.130643 
L 291.776955 157.934108 
L 291.775086 158.737574 
L 291.769634 159.54104 
L 291.760623 160.344506 
L 291.748078 161.147972 
L 291.732023 161.951438 
L 291.712483 162.754904 
L 291.689484 163.55837 
L 291.663049 164.361836 
L 291.633205 165.165302 
L 291.599976 165.968768 
L 291.563387 166.772234 
L 291.523465 167.575699 
L 291.480233 168.379165 
L 291.433719 169.182631 
L 291.383947 169.986097 
L 291.345769 170.564392 
L 291.330774 170.789563 
L 291.273925 171.593029 
L 291.213859 172.396495 
L 291.150603 173.199961 
L 291.084183 174.003427 
L 291.014625 174.806893 
L 290.941955 175.610359 
L 290.866201 176.413825 
L 290.787388 177.21729 
L 290.705543 178.020756 
L 290.620694 178.824222 
L 290.542303 179.54113 
L 290.532758 179.627688 
L 290.440942 180.431154 
L 290.346167 181.23462 
L 290.248461 182.038086 
L 290.147852 182.841552 
L 290.044365 183.645018 
L 289.93803 184.448484 
L 289.828872 185.25195 
L 289.738837 185.897725 
L 289.716669 186.055415 
L 289.600635 186.858881 
L 289.48183 187.662347 
L 289.360282 188.465813 
L 289.236018 189.269279 
L 289.109066 190.072745 
L 288.979454 190.876211 
L 288.935371 191.143459 
L 288.846198 191.679677 
L 288.709801 192.483143 
L 288.570799 193.286609 
L 288.429219 194.090075 
L 288.285089 194.893541 
L 288.138438 195.697006 
L 288.131905 195.732086 
L 287.987653 196.500472 
L 287.8343 197.303938 
L 287.678482 198.107404 
L 287.520229 198.91087 
L 287.359568 199.714336 
L 287.328439 199.867296 
L 287.195006 200.517802 
L 287.027709 201.321268 
L 286.858064 202.124734 
L 286.686099 202.9282 
L 286.524973 203.670918 
L 286.511691 203.731666 
L 286.333134 204.535132 
L 286.152319 205.338597 
L 285.969273 206.142063 
L 285.784027 206.945529 
L 285.721507 207.212874 
L 285.595163 207.748995 
L 285.403409 208.552461 
L 285.209517 209.355927 
L 285.013516 210.159393 
L 284.918042 210.54588 
L 284.814245 210.962859 
L 284.611795 211.766325 
L 284.4073 212.569791 
L 284.200789 213.373257 
L 284.114576 213.704713 
L 283.990873 214.176723 
L 283.777978 214.980188 
L 283.563133 215.783654 
L 283.346367 216.58712 
L 283.31111 216.716233 
L 283.12558 217.390586 
L 282.902502 218.194052 
L 282.677569 218.997518 
L 282.507644 219.598984 
L 282.450151 219.800984 
L 282.218943 220.60445 
L 281.985949 221.407916 
L 281.751199 222.211382 
L 281.704178 222.3706 
L 281.512518 223.014848 
L 281.271574 223.818314 
L 281.028943 224.621779 
L 280.900712 225.042667 
L 280.783303 225.425245 
L 280.534524 226.228711 
L 280.284129 227.032177 
L 280.097246 227.627388 
L 280.031386 227.835643 
L 279.774892 228.639109 
L 279.516852 229.442575 
L 279.29378 230.132668 
L 279.25687 230.246041 
L 278.992784 231.049507 
L 278.727225 231.852973 
L 278.490314 232.565517 
L 278.45987 232.656439 
L 278.188321 233.459904 
L 277.915371 234.26337 
L 277.686848 234.932179 
L 277.640514 235.066836 
L 277.361634 235.870302 
L 277.081427 236.673768 
L 276.883382 237.238236 
L 276.798946 237.477234 
L 276.51287 238.2807 
L 276.225542 239.084166 
L 276.079916 239.488702 
L 275.935319 239.887632 
L 275.642188 240.691098 
L 275.347879 241.494564 
L 275.276451 241.688098 
L 275.049802 242.29803 
L 274.74976 243.101495 
L 274.472985 243.839648 
L 274.448329 243.904961 
L 274.142576 244.708427 
L 273.835769 245.511893 
L 273.669519 245.94483 
L 273.526277 246.315359 
L 273.213834 247.118825 
L 272.900411 247.922291 
L 272.866053 248.009711 
L 272.582761 248.725757 
L 272.26378 249.529223 
L 272.062587 250.033619 
L 271.942505 250.332689 
L 271.617995 251.136155 
L 271.292631 251.939621 
L 271.259121 252.021783 
L 270.963015 252.743086 
L 270.632204 253.546552 
L 270.455655 253.973311 
L 270.2988 254.350018 
L 269.962575 255.153484 
L 269.652189 255.8933 
L 269.625313 255.95695 
L 269.28371 256.760416 
L 268.941432 257.563882 
L 268.848723 257.780258 
L 268.595574 258.367348 
L 268.248006 259.170814 
L 268.045257 259.637658 
L 267.898136 259.97428 
L 267.545318 260.777746 
L 267.241791 261.467366 
L 267.191368 261.581212 
L 266.833339 262.384677 
L 266.474817 263.188143 
L 266.438326 263.269417 
L 266.112047 263.991609 
L 265.748408 264.795075 
L 265.63486 265.044731 
L 265.381417 265.598541 
L 265.012707 266.402007 
L 264.831394 266.795612 
L 264.641432 267.205473 
L 264.267695 268.008939 
L 264.027928 268.522933 
L 263.892072 268.812405 
L 263.513355 269.615871 
L 263.224462 270.227536 
L 263.133324 270.419337 
L 262.749676 271.222803 
L 262.420996 271.910221 
L 262.365176 272.026268 
L 261.976645 272.829734 
L 261.61753 273.571759 
L 261.587617 273.6332 
L 261.194255 274.436666 
L 260.814064 275.212888 
L 260.800641 275.240132 
L 260.402499 276.043598 
L 260.010598 276.834316 
L 260.004243 276.847064 
L 259.601375 277.65053 
L 259.207132 278.436724 
L 259.198421 278.453996 
L 258.790883 279.257462 
L 258.403666 280.020767 
L 258.383176 280.060928 
L 257.971023 280.864393 
L 257.6002 281.587075 
L 257.558511 281.667859 
L 257.141801 282.471325 
L 256.796735 283.136255 
L 256.724431 283.274791 
L 256.303224 284.078257 
L 255.993269 284.66889 
L 255.880946 284.881723 
L 255.4553 285.685189 
L 255.189803 286.185544 
L 255.028067 286.488655 
L 254.598042 287.292121 
L 254.386337 287.686762 
L 254.165805 288.095587 
L 253.731465 288.899053 
L 253.582871 289.173068 
L 253.294179 289.702519 
L 252.855585 290.505984 
L 252.779405 290.64497 
L 252.413205 291.30945 
L 251.975939 292.102845 
L 251.970358 292.112916 
L 251.522906 292.916382 
L 251.172473 293.545549 
L 251.074869 293.719848 
L 250.623304 294.523314 
L 250.369007 294.975137 
L 250.170036 295.32678 
L 249.714426 296.130246 
L 249.565541 296.392057 
L 249.255887 296.933712 
L 248.796299 297.737178 
L 248.762075 297.796747 
L 248.332452 298.540644 
L 247.958609 299.187887 
L 247.867905 299.34411 
L 247.399763 300.147575 
L 247.155144 300.566839 
L 246.929819 300.951041 
L 246.457855 301.754507 
L 246.351678 301.934679 
L 245.98248 302.557973 
L 245.548212 303.291015 
L 245.506278 303.361439 
L 245.025926 304.164905 
L 244.744746 304.634877 
L 244.54421 304.968371 
L 244.060197 305.771837 
L 243.94128 305.968666 
L 243.572937 306.575303 
L 243.137814 307.291781 
L 243.084722 307.378769 
L 242.592503 308.182235 
L 242.334348 308.603237 
L 242.098666 308.985701 
L 241.602955 309.789166 
L 241.530882 309.905587 
L 241.103469 310.592632 
L 240.727416 311.19697 
L 240.602903 311.396098 
L 240.099182 312.199564 
L 239.92395 312.478528 
L 239.592895 313.00303 
L 239.120484 313.751275 
L 239.085453 313.806496 
L 238.573826 314.609962 
L 238.317018 315.012945 
L 238.060592 315.413428 
L 237.545752 316.216894 
L 237.513553 316.266958 
L 237.066589 316.958641 
" clip-path="url(#p50a61f3766)" style="fill: none; stroke: #008000; stroke-width: 1.5"/>
   </g>
   <g id="line2d_15">
    <path d="M 53.118125 277.248797 
" clip-path="url(#p50a61f3766)" style="fill: none; stroke: #ff0000; stroke-width: 1.5; stroke-linecap: square"/>
   </g>
   <g id="line2d_16">
    <path d="M 53.118125 277.248797 
" clip-path="url(#p50a61f3766)" style="fill: none; stroke: #0000ff; stroke-width: 1.5; stroke-linecap: square"/>
   </g>
   <g id="line2d_17">
    <path d="M 53.118125 277.248797 
" clip-path="url(#p50a61f3766)" style="fill: none; stroke: #008000; stroke-width: 1.5; stroke-linecap: square"/>
   </g>
   <g id="patch_3">
    <path d="M 53.118125 277.248797 
L 53.118125 11.136797 
" style="fill: none; stroke: #000000; stroke-width: 0.8; stroke-linejoin: miter; stroke-linecap: square"/>
   </g>
   <g id="patch_4">
    <path d="M 319.230125 277.248797 
L 319.230125 11.136797 
" style="fill: none; stroke: #000000; stroke-width: 0.8; stroke-linejoin: miter; stroke-linecap: square"/>
   </g>
   <g id="patch_5">
    <path d="M 53.118125 277.248797 
L 319.230125 277.248797 
" style="fill: none; stroke: #000000; stroke-width: 0.8; stroke-linejoin: miter; stroke-linecap: square"/>
   </g>
   <g id="patch_6">
    <path d="M 53.118125 11.136797 
L 319.230125 11.136797 
" style="fill: none; stroke: #000000; stroke-width: 0.8; stroke-linejoin: miter; stroke-linecap: square"/>
   </g>
   <g id="legend_1">
    <g id="patch_7">
     <path d="M 332.161725 168.256328 
L 457.891725 168.256328 
Q 460.091725 168.256328 460.091725 166.056328 
L 460.091725 18.836797 
Q 460.091725 16.636797 457.891725 16.636797 
L 332.161725 16.636797 
Q 329.961725 16.636797 329.961725 18.836797 
L 329.961725 166.056328 
Q 329.961725 168.256328 332.161725 168.256328 
z
" style="fill: #ffffff; opacity: 0.8; stroke: #cccccc; stroke-linejoin: miter"/>
    </g>
    <g id="PathCollection_10">
     <g>
      <use xlink:href="#m060148dc9c" x="345.361725" y="26.179297" style="fill: #ff0000; stroke: #000000"/>
     </g>
    </g>
    <g id="text_17">
     <!-- $\epsilon_p$=0.2% Trial 1 -->
     <g transform="translate(365.161725 29.066797) scale(0.11 -0.11)">
      <defs>
       <path id="DejaVuSans-Oblique-3b5" d="M 1263 1888 
Q 925 1963 778 2166 
Q 669 2309 669 2503 
Q 669 3034 1175 3344 
Q 1575 3588 2188 3588 
Q 2425 3588 2684 3550 
Q 2944 3513 3234 3438 
L 3134 2916 
Q 2847 3006 2606 3047 
Q 2359 3088 2138 3088 
Q 1766 3088 1522 2944 
Q 1228 2772 1228 2522 
Q 1228 2356 1381 2241 
Q 1563 2103 1925 2103 
L 2409 2103 
L 2319 1628 
L 1856 1628 
Q 1425 1628 1172 1469 
Q 828 1253 828 916 
Q 828 703 1013 563 
Q 1244 388 1716 388 
Q 2006 388 2284 444 
Q 2563 503 2806 619 
L 2700 84 
Q 2403 -3 2131 -47 
Q 1859 -91 1609 -91 
Q 866 -91 516 194 
Q 250 413 250 781 
Q 250 1278 600 1584 
Q 859 1813 1263 1888 
z
" transform="scale(0.015625)"/>
       <path id="DejaVuSans-Oblique-70" d="M 3175 2156 
Q 3175 2616 2975 2859 
Q 2775 3103 2400 3103 
Q 2144 3103 1911 2972 
Q 1678 2841 1497 2591 
Q 1319 2344 1212 1994 
Q 1106 1644 1106 1300 
Q 1106 863 1306 627 
Q 1506 391 1875 391 
Q 2147 391 2380 519 
Q 2613 647 2778 891 
Q 2956 1147 3065 1494 
Q 3175 1841 3175 2156 
z
M 1394 2969 
Q 1625 3272 1939 3428 
Q 2253 3584 2638 3584 
Q 3175 3584 3472 3232 
Q 3769 2881 3769 2247 
Q 3769 1728 3584 1258 
Q 3400 788 3053 416 
Q 2822 169 2531 39 
Q 2241 -91 1919 -91 
Q 1547 -91 1294 64 
Q 1041 219 916 525 
L 556 -1331 
L -19 -1331 
L 922 3500 
L 1497 3500 
L 1394 2969 
z
" transform="scale(0.015625)"/>
       <path id="ArialMT-3d" d="M 3381 2694 
L 356 2694 
L 356 3219 
L 3381 3219 
L 3381 2694 
z
M 3381 1303 
L 356 1303 
L 356 1828 
L 3381 1828 
L 3381 1303 
z
" transform="scale(0.015625)"/>
       <path id="ArialMT-2e" d="M 581 0 
L 581 641 
L 1222 641 
L 1222 0 
L 581 0 
z
" transform="scale(0.015625)"/>
       <path id="ArialMT-25" d="M 372 3481 
Q 372 3972 619 4315 
Q 866 4659 1334 4659 
Q 1766 4659 2048 4351 
Q 2331 4044 2331 3447 
Q 2331 2866 2045 2552 
Q 1759 2238 1341 2238 
Q 925 2238 648 2547 
Q 372 2856 372 3481 
z
M 1350 4272 
Q 1141 4272 1002 4090 
Q 863 3909 863 3425 
Q 863 2984 1003 2804 
Q 1144 2625 1350 2625 
Q 1563 2625 1702 2806 
Q 1841 2988 1841 3469 
Q 1841 3913 1700 4092 
Q 1559 4272 1350 4272 
z
M 1353 -169 
L 3859 4659 
L 4316 4659 
L 1819 -169 
L 1353 -169 
z
M 3334 1075 
Q 3334 1569 3581 1911 
Q 3828 2253 4300 2253 
Q 4731 2253 5014 1945 
Q 5297 1638 5297 1041 
Q 5297 459 5011 145 
Q 4725 -169 4303 -169 
Q 3888 -169 3611 142 
Q 3334 453 3334 1075 
z
M 4316 1866 
Q 4103 1866 3964 1684 
Q 3825 1503 3825 1019 
Q 3825 581 3965 400 
Q 4106 219 4313 219 
Q 4528 219 4667 400 
Q 4806 581 4806 1063 
Q 4806 1506 4665 1686 
Q 4525 1866 4316 1866 
z
" transform="scale(0.015625)"/>
       <path id="ArialMT-54" d="M 1659 0 
L 1659 4041 
L 150 4041 
L 150 4581 
L 3781 4581 
L 3781 4041 
L 2266 4041 
L 2266 0 
L 1659 0 
z
" transform="scale(0.015625)"/>
       <path id="ArialMT-72" d="M 416 0 
L 416 3319 
L 922 3319 
L 922 2816 
Q 1116 3169 1280 3281 
Q 1444 3394 1641 3394 
Q 1925 3394 2219 3213 
L 2025 2691 
Q 1819 2813 1613 2813 
Q 1428 2813 1281 2702 
Q 1134 2591 1072 2394 
Q 978 2094 978 1738 
L 978 0 
L 416 0 
z
" transform="scale(0.015625)"/>
       <path id="ArialMT-69" d="M 425 3934 
L 425 4581 
L 988 4581 
L 988 3934 
L 425 3934 
z
M 425 0 
L 425 3319 
L 988 3319 
L 988 0 
L 425 0 
z
" transform="scale(0.015625)"/>
       <path id="ArialMT-6c" d="M 409 0 
L 409 4581 
L 972 4581 
L 972 0 
L 409 0 
z
" transform="scale(0.015625)"/>
      </defs>
      <use xlink:href="#DejaVuSans-Oblique-3b5" transform="translate(0 0.203125)"/>
      <use xlink:href="#DejaVuSans-Oblique-70" transform="translate(54.052734 -16.203125) scale(0.7)"/>
      <use xlink:href="#ArialMT-3d" transform="translate(101.220703 0.203125)"/>
      <use xlink:href="#ArialMT-30" transform="translate(159.619141 0.203125)"/>
      <use xlink:href="#ArialMT-2e" transform="translate(215.234375 0.203125)"/>
      <use xlink:href="#ArialMT-32" transform="translate(243.017578 0.203125)"/>
      <use xlink:href="#ArialMT-25" transform="translate(298.632812 0.203125)"/>
      <use xlink:href="#ArialMT-20" transform="translate(387.548828 0.203125)"/>
      <use xlink:href="#ArialMT-54" transform="translate(415.332031 0.203125)"/>
      <use xlink:href="#ArialMT-72" transform="translate(476.416016 0.203125)"/>
      <use xlink:href="#ArialMT-69" transform="translate(509.716797 0.203125)"/>
      <use xlink:href="#ArialMT-61" transform="translate(531.933594 0.203125)"/>
      <use xlink:href="#ArialMT-6c" transform="translate(587.548828 0.203125)"/>
      <use xlink:href="#ArialMT-20" transform="translate(609.765625 0.203125)"/>
      <use xlink:href="#ArialMT-31" transform="translate(637.548828 0.203125)"/>
     </g>
    </g>
    <g id="PathCollection_11">
     <g>
      <use xlink:href="#mf0291ca394" x="345.361725" y="43.119297" style="fill: #ff0000; stroke: #000000"/>
     </g>
    </g>
    <g id="text_18">
     <!-- $\epsilon_p$=0.2% Trial 2 -->
     <g transform="translate(365.161725 46.006797) scale(0.11 -0.11)">
      <use xlink:href="#DejaVuSans-Oblique-3b5" transform="translate(0 0.203125)"/>
      <use xlink:href="#DejaVuSans-Oblique-70" transform="translate(54.052734 -16.203125) scale(0.7)"/>
      <use xlink:href="#ArialMT-3d" transform="translate(101.220703 0.203125)"/>
      <use xlink:href="#ArialMT-30" transform="translate(159.619141 0.203125)"/>
      <use xlink:href="#ArialMT-2e" transform="translate(215.234375 0.203125)"/>
      <use xlink:href="#ArialMT-32" transform="translate(243.017578 0.203125)"/>
      <use xlink:href="#ArialMT-25" transform="translate(298.632812 0.203125)"/>
      <use xlink:href="#ArialMT-20" transform="translate(387.548828 0.203125)"/>
      <use xlink:href="#ArialMT-54" transform="translate(415.332031 0.203125)"/>
      <use xlink:href="#ArialMT-72" transform="translate(476.416016 0.203125)"/>
      <use xlink:href="#ArialMT-69" transform="translate(509.716797 0.203125)"/>
      <use xlink:href="#ArialMT-61" transform="translate(531.933594 0.203125)"/>
      <use xlink:href="#ArialMT-6c" transform="translate(587.548828 0.203125)"/>
      <use xlink:href="#ArialMT-20" transform="translate(609.765625 0.203125)"/>
      <use xlink:href="#ArialMT-32" transform="translate(637.548828 0.203125)"/>
     </g>
    </g>
    <g id="PathCollection_12">
     <g>
      <use xlink:href="#m0d0af3cfea" x="345.361725" y="60.059297" style="fill: #0000ff; stroke: #000000"/>
     </g>
    </g>
    <g id="text_19">
     <!-- $\epsilon_p$=0.5% Trial 1 -->
     <g transform="translate(365.161725 62.946797) scale(0.11 -0.11)">
      <defs>
       <path id="ArialMT-35" d="M 266 1200 
L 856 1250 
Q 922 819 1161 601 
Q 1400 384 1738 384 
Q 2144 384 2425 690 
Q 2706 997 2706 1503 
Q 2706 1984 2436 2262 
Q 2166 2541 1728 2541 
Q 1456 2541 1237 2417 
Q 1019 2294 894 2097 
L 366 2166 
L 809 4519 
L 3088 4519 
L 3088 3981 
L 1259 3981 
L 1013 2750 
Q 1425 3038 1878 3038 
Q 2478 3038 2890 2622 
Q 3303 2206 3303 1553 
Q 3303 931 2941 478 
Q 2500 -78 1738 -78 
Q 1113 -78 717 272 
Q 322 622 266 1200 
z
" transform="scale(0.015625)"/>
      </defs>
      <use xlink:href="#DejaVuSans-Oblique-3b5" transform="translate(0 0.203125)"/>
      <use xlink:href="#DejaVuSans-Oblique-70" transform="translate(54.052734 -16.203125) scale(0.7)"/>
      <use xlink:href="#ArialMT-3d" transform="translate(101.220703 0.203125)"/>
      <use xlink:href="#ArialMT-30" transform="translate(159.619141 0.203125)"/>
      <use xlink:href="#ArialMT-2e" transform="translate(215.234375 0.203125)"/>
      <use xlink:href="#ArialMT-35" transform="translate(243.017578 0.203125)"/>
      <use xlink:href="#ArialMT-25" transform="translate(298.632812 0.203125)"/>
      <use xlink:href="#ArialMT-20" transform="translate(387.548828 0.203125)"/>
      <use xlink:href="#ArialMT-54" transform="translate(415.332031 0.203125)"/>
      <use xlink:href="#ArialMT-72" transform="translate(476.416016 0.203125)"/>
      <use xlink:href="#ArialMT-69" transform="translate(509.716797 0.203125)"/>
      <use xlink:href="#ArialMT-61" transform="translate(531.933594 0.203125)"/>
      <use xlink:href="#ArialMT-6c" transform="translate(587.548828 0.203125)"/>
      <use xlink:href="#ArialMT-20" transform="translate(609.765625 0.203125)"/>
      <use xlink:href="#ArialMT-31" transform="translate(637.548828 0.203125)"/>
     </g>
    </g>
    <g id="PathCollection_13">
     <g>
      <use xlink:href="#m7d95a19d5d" x="345.361725" y="76.999297" style="fill: #0000ff; stroke: #000000"/>
     </g>
    </g>
    <g id="text_20">
     <!-- $\epsilon_p$=0.5% Trial 2 -->
     <g transform="translate(365.161725 79.886797) scale(0.11 -0.11)">
      <use xlink:href="#DejaVuSans-Oblique-3b5" transform="translate(0 0.203125)"/>
      <use xlink:href="#DejaVuSans-Oblique-70" transform="translate(54.052734 -16.203125) scale(0.7)"/>
      <use xlink:href="#ArialMT-3d" transform="translate(101.220703 0.203125)"/>
      <use xlink:href="#ArialMT-30" transform="translate(159.619141 0.203125)"/>
      <use xlink:href="#ArialMT-2e" transform="translate(215.234375 0.203125)"/>
      <use xlink:href="#ArialMT-35" transform="translate(243.017578 0.203125)"/>
      <use xlink:href="#ArialMT-25" transform="translate(298.632812 0.203125)"/>
      <use xlink:href="#ArialMT-20" transform="translate(387.548828 0.203125)"/>
      <use xlink:href="#ArialMT-54" transform="translate(415.332031 0.203125)"/>
      <use xlink:href="#ArialMT-72" transform="translate(476.416016 0.203125)"/>
      <use xlink:href="#ArialMT-69" transform="translate(509.716797 0.203125)"/>
      <use xlink:href="#ArialMT-61" transform="translate(531.933594 0.203125)"/>
      <use xlink:href="#ArialMT-6c" transform="translate(587.548828 0.203125)"/>
      <use xlink:href="#ArialMT-20" transform="translate(609.765625 0.203125)"/>
      <use xlink:href="#ArialMT-32" transform="translate(637.548828 0.203125)"/>
     </g>
    </g>
    <g id="PathCollection_14">
     <g>
      <use xlink:href="#m02b55cafeb" x="345.361725" y="93.939297" style="fill: #008000; stroke: #000000"/>
     </g>
    </g>
    <g id="text_21">
     <!-- $\epsilon_p$=1.0% Trial 1 -->
     <g transform="translate(365.161725 96.826797) scale(0.11 -0.11)">
      <use xlink:href="#DejaVuSans-Oblique-3b5" transform="translate(0 0.203125)"/>
      <use xlink:href="#DejaVuSans-Oblique-70" transform="translate(54.052734 -16.203125) scale(0.7)"/>
      <use xlink:href="#ArialMT-3d" transform="translate(101.220703 0.203125)"/>
      <use xlink:href="#ArialMT-31" transform="translate(159.619141 0.203125)"/>
      <use xlink:href="#ArialMT-2e" transform="translate(215.234375 0.203125)"/>
      <use xlink:href="#ArialMT-30" transform="translate(243.017578 0.203125)"/>
      <use xlink:href="#ArialMT-25" transform="translate(298.632812 0.203125)"/>
      <use xlink:href="#ArialMT-20" transform="translate(387.548828 0.203125)"/>
      <use xlink:href="#ArialMT-54" transform="translate(415.332031 0.203125)"/>
      <use xlink:href="#ArialMT-72" transform="translate(476.416016 0.203125)"/>
      <use xlink:href="#ArialMT-69" transform="translate(509.716797 0.203125)"/>
      <use xlink:href="#ArialMT-61" transform="translate(531.933594 0.203125)"/>
      <use xlink:href="#ArialMT-6c" transform="translate(587.548828 0.203125)"/>
      <use xlink:href="#ArialMT-20" transform="translate(609.765625 0.203125)"/>
      <use xlink:href="#ArialMT-31" transform="translate(637.548828 0.203125)"/>
     </g>
    </g>
    <g id="PathCollection_15">
     <g>
      <use xlink:href="#mcd66622d69" x="345.361725" y="110.879297" style="fill: #008000; stroke: #000000"/>
     </g>
    </g>
    <g id="text_22">
     <!-- $\epsilon_p$=1.0% Trial 2 -->
     <g transform="translate(365.161725 113.766797) scale(0.11 -0.11)">
      <use xlink:href="#DejaVuSans-Oblique-3b5" transform="translate(0 0.203125)"/>
      <use xlink:href="#DejaVuSans-Oblique-70" transform="translate(54.052734 -16.203125) scale(0.7)"/>
      <use xlink:href="#ArialMT-3d" transform="translate(101.220703 0.203125)"/>
      <use xlink:href="#ArialMT-31" transform="translate(159.619141 0.203125)"/>
      <use xlink:href="#ArialMT-2e" transform="translate(215.234375 0.203125)"/>
      <use xlink:href="#ArialMT-30" transform="translate(243.017578 0.203125)"/>
      <use xlink:href="#ArialMT-25" transform="translate(298.632812 0.203125)"/>
      <use xlink:href="#ArialMT-20" transform="translate(387.548828 0.203125)"/>
      <use xlink:href="#ArialMT-54" transform="translate(415.332031 0.203125)"/>
      <use xlink:href="#ArialMT-72" transform="translate(476.416016 0.203125)"/>
      <use xlink:href="#ArialMT-69" transform="translate(509.716797 0.203125)"/>
      <use xlink:href="#ArialMT-61" transform="translate(531.933594 0.203125)"/>
      <use xlink:href="#ArialMT-6c" transform="translate(587.548828 0.203125)"/>
      <use xlink:href="#ArialMT-20" transform="translate(609.765625 0.203125)"/>
      <use xlink:href="#ArialMT-32" transform="translate(637.548828 0.203125)"/>
     </g>
    </g>
    <g id="line2d_18">
     <path d="M 334.361725 126.700391 
L 345.361725 126.700391 
L 356.361725 126.700391 
" style="fill: none; stroke: #ff0000; stroke-width: 1.5; stroke-linecap: square"/>
    </g>
    <g id="text_23">
     <!-- M&amp;A $ \bar \sigma $ = 768 MPa -->
     <g transform="translate(365.161725 130.550391) scale(0.11 -0.11)">
      <defs>
       <path id="ArialMT-26" d="M 3041 541 
Q 2763 231 2434 76 
Q 2106 -78 1725 -78 
Q 1022 -78 609 397 
Q 275 784 275 1263 
Q 275 1688 548 2030 
Q 822 2372 1366 2631 
Q 1056 2988 953 3209 
Q 850 3431 850 3638 
Q 850 4050 1173 4354 
Q 1497 4659 1988 4659 
Q 2456 4659 2754 4371 
Q 3053 4084 3053 3681 
Q 3053 3028 2188 2566 
L 3009 1519 
Q 3150 1794 3228 2156 
L 3813 2031 
Q 3663 1431 3406 1044 
Q 3722 625 4122 341 
L 3744 -106 
Q 3403 113 3041 541 
z
M 1897 2928 
Q 2263 3144 2370 3306 
Q 2478 3469 2478 3666 
Q 2478 3900 2329 4048 
Q 2181 4197 1959 4197 
Q 1731 4197 1579 4050 
Q 1428 3903 1428 3691 
Q 1428 3584 1483 3467 
Q 1538 3350 1647 3219 
L 1897 2928 
z
M 2688 984 
L 1656 2263 
Q 1200 1991 1040 1758 
Q 881 1525 881 1297 
Q 881 1019 1103 719 
Q 1325 419 1731 419 
Q 1984 419 2254 576 
Q 2525 734 2688 984 
z
" transform="scale(0.015625)"/>
       <path id="ArialMT-41" d="M -9 0 
L 1750 4581 
L 2403 4581 
L 4278 0 
L 3588 0 
L 3053 1388 
L 1138 1388 
L 634 0 
L -9 0 
z
M 1313 1881 
L 2866 1881 
L 2388 3150 
Q 2169 3728 2063 4100 
Q 1975 3659 1816 3225 
L 1313 1881 
z
" transform="scale(0.015625)"/>
       <path id="DejaVuSans-304" d="M -2518 4769 
L -650 4769 
L -650 4306 
L -2518 4306 
L -2518 4769 
z
" transform="scale(0.015625)"/>
       <path id="ArialMT-37" d="M 303 3981 
L 303 4522 
L 3269 4522 
L 3269 4084 
Q 2831 3619 2401 2847 
Q 1972 2075 1738 1259 
Q 1569 684 1522 0 
L 944 0 
Q 953 541 1156 1306 
Q 1359 2072 1739 2783 
Q 2119 3494 2547 3981 
L 303 3981 
z
" transform="scale(0.015625)"/>
      </defs>
      <use xlink:href="#ArialMT-4d" transform="translate(0 0.53125)"/>
      <use xlink:href="#ArialMT-26" transform="translate(83.300781 0.53125)"/>
      <use xlink:href="#ArialMT-41" transform="translate(150 0.53125)"/>
      <use xlink:href="#ArialMT-20" transform="translate(216.699219 0.53125)"/>
      <use xlink:href="#DejaVuSans-304" transform="translate(308.548828 0.484375)"/>
      <use xlink:href="#DejaVuSans-Oblique-3c3" transform="translate(244.482422 0.53125)"/>
      <use xlink:href="#ArialMT-20" transform="translate(307.861328 0.53125)"/>
      <use xlink:href="#ArialMT-3d" transform="translate(335.644531 0.53125)"/>
      <use xlink:href="#ArialMT-20" transform="translate(394.042969 0.53125)"/>
      <use xlink:href="#ArialMT-37" transform="translate(421.826172 0.53125)"/>
      <use xlink:href="#ArialMT-36" transform="translate(477.441406 0.53125)"/>
      <use xlink:href="#ArialMT-38" transform="translate(533.056641 0.53125)"/>
      <use xlink:href="#ArialMT-20" transform="translate(588.671875 0.53125)"/>
      <use xlink:href="#ArialMT-4d" transform="translate(616.455078 0.53125)"/>
      <use xlink:href="#ArialMT-50" transform="translate(699.755859 0.53125)"/>
      <use xlink:href="#ArialMT-61" transform="translate(766.455078 0.53125)"/>
     </g>
    </g>
    <g id="line2d_19">
     <path d="M 334.361725 142.260234 
L 345.361725 142.260234 
L 356.361725 142.260234 
" style="fill: none; stroke: #0000ff; stroke-width: 1.5; stroke-linecap: square"/>
    </g>
    <g id="text_24">
     <!-- M&amp;A $ \bar \sigma $ = 843 MPa -->
     <g transform="translate(365.161725 146.110234) scale(0.11 -0.11)">
      <defs>
       <path id="ArialMT-33" d="M 269 1209 
L 831 1284 
Q 928 806 1161 595 
Q 1394 384 1728 384 
Q 2125 384 2398 659 
Q 2672 934 2672 1341 
Q 2672 1728 2419 1979 
Q 2166 2231 1775 2231 
Q 1616 2231 1378 2169 
L 1441 2663 
Q 1497 2656 1531 2656 
Q 1891 2656 2178 2843 
Q 2466 3031 2466 3422 
Q 2466 3731 2256 3934 
Q 2047 4138 1716 4138 
Q 1388 4138 1169 3931 
Q 950 3725 888 3313 
L 325 3413 
Q 428 3978 793 4289 
Q 1159 4600 1703 4600 
Q 2078 4600 2393 4439 
Q 2709 4278 2876 4000 
Q 3044 3722 3044 3409 
Q 3044 3113 2884 2869 
Q 2725 2625 2413 2481 
Q 2819 2388 3044 2092 
Q 3269 1797 3269 1353 
Q 3269 753 2831 336 
Q 2394 -81 1725 -81 
Q 1122 -81 723 278 
Q 325 638 269 1209 
z
" transform="scale(0.015625)"/>
      </defs>
      <use xlink:href="#ArialMT-4d" transform="translate(0 0.53125)"/>
      <use xlink:href="#ArialMT-26" transform="translate(83.300781 0.53125)"/>
      <use xlink:href="#ArialMT-41" transform="translate(150 0.53125)"/>
      <use xlink:href="#ArialMT-20" transform="translate(216.699219 0.53125)"/>
      <use xlink:href="#DejaVuSans-304" transform="translate(308.548828 0.484375)"/>
      <use xlink:href="#DejaVuSans-Oblique-3c3" transform="translate(244.482422 0.53125)"/>
      <use xlink:href="#ArialMT-20" transform="translate(307.861328 0.53125)"/>
      <use xlink:href="#ArialMT-3d" transform="translate(335.644531 0.53125)"/>
      <use xlink:href="#ArialMT-20" transform="translate(394.042969 0.53125)"/>
      <use xlink:href="#ArialMT-38" transform="translate(421.826172 0.53125)"/>
      <use xlink:href="#ArialMT-34" transform="translate(477.441406 0.53125)"/>
      <use xlink:href="#ArialMT-33" transform="translate(533.056641 0.53125)"/>
      <use xlink:href="#ArialMT-20" transform="translate(588.671875 0.53125)"/>
      <use xlink:href="#ArialMT-4d" transform="translate(616.455078 0.53125)"/>
      <use xlink:href="#ArialMT-50" transform="translate(699.755859 0.53125)"/>
      <use xlink:href="#ArialMT-61" transform="translate(766.455078 0.53125)"/>
     </g>
    </g>
    <g id="line2d_20">
     <path d="M 334.361725 157.820078 
L 345.361725 157.820078 
L 356.361725 157.820078 
" style="fill: none; stroke: #008000; stroke-width: 1.5; stroke-linecap: square"/>
    </g>
    <g id="text_25">
     <!-- M&amp;A $ \bar \sigma $ = 904 MPa -->
     <g transform="translate(365.161725 161.670078) scale(0.11 -0.11)">
      <defs>
       <path id="ArialMT-39" d="M 350 1059 
L 891 1109 
Q 959 728 1153 556 
Q 1347 384 1650 384 
Q 1909 384 2104 503 
Q 2300 622 2425 820 
Q 2550 1019 2634 1356 
Q 2719 1694 2719 2044 
Q 2719 2081 2716 2156 
Q 2547 1888 2255 1720 
Q 1963 1553 1622 1553 
Q 1053 1553 659 1965 
Q 266 2378 266 3053 
Q 266 3750 677 4175 
Q 1088 4600 1706 4600 
Q 2153 4600 2523 4359 
Q 2894 4119 3086 3673 
Q 3278 3228 3278 2384 
Q 3278 1506 3087 986 
Q 2897 466 2520 194 
Q 2144 -78 1638 -78 
Q 1100 -78 759 220 
Q 419 519 350 1059 
z
M 2653 3081 
Q 2653 3566 2395 3850 
Q 2138 4134 1775 4134 
Q 1400 4134 1122 3828 
Q 844 3522 844 3034 
Q 844 2597 1108 2323 
Q 1372 2050 1759 2050 
Q 2150 2050 2401 2323 
Q 2653 2597 2653 3081 
z
" transform="scale(0.015625)"/>
      </defs>
      <use xlink:href="#ArialMT-4d" transform="translate(0 0.53125)"/>
      <use xlink:href="#ArialMT-26" transform="translate(83.300781 0.53125)"/>
      <use xlink:href="#ArialMT-41" transform="translate(150 0.53125)"/>
      <use xlink:href="#ArialMT-20" transform="translate(216.699219 0.53125)"/>
      <use xlink:href="#DejaVuSans-304" transform="translate(308.548828 0.484375)"/>
      <use xlink:href="#DejaVuSans-Oblique-3c3" transform="translate(244.482422 0.53125)"/>
      <use xlink:href="#ArialMT-20" transform="translate(307.861328 0.53125)"/>
      <use xlink:href="#ArialMT-3d" transform="translate(335.644531 0.53125)"/>
      <use xlink:href="#ArialMT-20" transform="translate(394.042969 0.53125)"/>
      <use xlink:href="#ArialMT-39" transform="translate(421.826172 0.53125)"/>
      <use xlink:href="#ArialMT-30" transform="translate(477.441406 0.53125)"/>
      <use xlink:href="#ArialMT-34" transform="translate(533.056641 0.53125)"/>
      <use xlink:href="#ArialMT-20" transform="translate(588.671875 0.53125)"/>
      <use xlink:href="#ArialMT-4d" transform="translate(616.455078 0.53125)"/>
      <use xlink:href="#ArialMT-50" transform="translate(699.755859 0.53125)"/>
      <use xlink:href="#ArialMT-61" transform="translate(766.455078 0.53125)"/>
     </g>
    </g>
   </g>
  </g>
 </g>
 <defs>
  <clipPath id="p50a61f3766">
   <rect x="53.118125" y="11.136797" width="266.112" height="266.112"/>
  </clipPath>
 </defs>
</svg>
